<svg viewBox="0 0 25 20" xmlns="http://www.w3.org/2000/svg"><title>cal-add</title><g><path d="M18.83 19.444a6.17 6.17 0 1 0 0-12.338 6.17 6.17 0 0 0 0 12.338zm.65-8.99v2.202h2.17c.36 0 .65.296.65.66 0 .367-.29.662-.65.662h-2.17v2.204c0 .365-.29.66-.65.66a.656.656 0 0 1-.65-.66v-2.204h-2.168a.656.656 0 0 1-.65-.66c0-.366.29-.662.65-.662h2.168v-2.203c0-.365.29-.66.65-.66.36 0 .65.295.65.66z"/><path d="M.694 6.25V2.082c0-.767.625-1.388 1.4-1.388H18.74c.773 0 1.4.623 1.4 1.388v6.251h-2.084v-1.39H2.778v9.724h17.36v1.04a1.04 1.04 0 0 1-1.045 1.043H1.74a1.04 1.04 0 0 1-1.046-1.042V6.25z"/></g></svg>