<svg viewBox="0 0 20 20" xmlns="http://www.w3.org/2000/svg"><title>calendar</title><path d="M0 .992A1 1 0 0 1 .992 0h18.016A1 1 0 0 1 20 .992v18.016a1 1 0 0 1-.992.992H.992A1 1 0 0 1 0 19.008V.992zm2.143 5.437H5v2.857H2.143V6.429zm12.857 0h2.857v2.857H15V6.429zm-4.286 0h2.857v2.857h-2.857V6.429zm-4.285 0h2.857v2.857H6.429V6.429zm0 4.285h2.857v2.857H6.429v-2.857zm4.285 0h2.857v2.857h-2.857v-2.857zm4.286 0h2.857v2.857H15v-2.857zm-12.857 0H5v2.857H2.143v-2.857zM6.429 15h2.857v2.857H6.429V15zm4.285 0h2.857v2.857h-2.857V15zM15 15h2.857v2.857H15V15zM2.143 15H5v2.857H2.143V15z"/></svg>