<svg viewBox="0 0 20 20" xmlns="http://www.w3.org/2000/svg"><title>calendar</title><path d="M0 .992A1 1 0 0 1 .992 0h18.016A1 1 0 0 1 20 .992v18.016a1 1 0 0 1-.992.992H.992A1 1 0 0 1 0 19.008V.992zM2.143 6.43H5v2.856H2.143V6.43zM15 6.43h2.857v2.856H15V6.43zm-4.286 0h2.857v2.856h-2.856V6.43zm-4.285 0h2.856v2.856H6.43V6.43zm0 4.284h2.856v2.857H6.43v-2.856zm4.284 0h2.857v2.857h-2.856v-2.856zm4.286 0h2.857v2.857H15v-2.856zm-12.857 0H5v2.857H2.143v-2.856zM6.43 15h2.856v2.857H6.43V15zm4.284 0h2.857v2.857h-2.856V15zM15 15h2.857v2.857H15V15zM2.143 15H5v2.857H2.143V15z"/></svg>