<svg viewBox="0 0 14 18" xmlns="http://www.w3.org/2000/svg"><title>candidate</title><path d="M8.898 10.106l.372-1.902A2.043 2.043 0 0 0 7.444 5.79a4.27 4.27 0 0 1-2.692.95A4.27 4.27 0 0 1 2.067 5.8 2.044 2.044 0 0 0 .264 7.833c0 .127.005.25.026.37L1.963 16.7c.177.825 1.02 1.545 1.972 1.545h1.7c.085 0 .17-.006.253-.017a4.338 4.338 0 0 1-2.594-3.976 4.33 4.33 0 0 1 5.604-4.144zm-.665 6.817a.69.69 0 0 1-.48.193.69.69 0 0 1-.483-.193l-2.953-2.86a.647.647 0 0 1-.2-.465.67.67 0 0 1 .682-.66.69.69 0 0 1 .48.193l2.472 2.393 4.742-4.59a.69.69 0 0 1 .48-.194.67.67 0 0 1 .683.66.648.648 0 0 1-.2.465l-5.224 5.058zM4.753 4.826A2.39 2.39 0 0 0 7.138 2.43 2.39 2.39 0 0 0 4.75.037 2.39 2.39 0 0 0 2.364 2.43a2.39 2.39 0 0 0 2.388 2.396z"/></svg>