<svg viewBox="0 0 20 18" xmlns="http://www.w3.org/2000/svg"><title>committee</title><path d="M12.493 6.328a1.918 1.918 0 0 1 1.723 2.257l-1.57 7.947c-.167.772-.962 1.446-1.86 1.446H9.183c-.898 0-1.693-.674-1.86-1.446l-1.58-7.947a1.973 1.973 0 0 1-.024-.347c0-.983.74-1.797 1.7-1.905a4.05 4.05 0 0 0 2.533.884 4.05 4.05 0 0 0 2.54-.89zM5.97 16.958c-.214.083-.445.13-.683.13H3.685c-.9 0-1.694-.673-1.86-1.445L.244 7.696a1.973 1.973 0 0 1-.024-.347c0-.985.743-1.798 1.702-1.906a4.05 4.05 0 0 0 3.243.822 3.437 3.437 0 0 0-.832 2.246c0 .218.012.408.05.614l1.475 7.437c.03.134.067.266.112.394zm8.03 0c.215.084.444.13.682.13h1.602c.898 0 1.694-.673 1.86-1.445l1.57-7.947c.02-.114.034-.228.034-.347 0-1.003-.77-1.83-1.756-1.912a4.05 4.05 0 0 1-3.178.84 3.437 3.437 0 0 1 .76 2.88l-1.47 7.433a3.11 3.11 0 0 1-.103.368zm1.452-12.423a2.246 2.246 0 0 0 2.252-2.24 2.246 2.246 0 0 0-2.252-2.24 2.246 2.246 0 0 0-2.252 2.24 2.246 2.246 0 0 0 2.252 2.24zm-10.997 0a2.246 2.246 0 0 0 2.252-2.24A2.246 2.246 0 0 0 4.455.055a2.246 2.246 0 0 0-2.252 2.24 2.246 2.246 0 0 0 2.252 2.24zm5.498.897a2.246 2.246 0 0 0 2.253-2.24A2.246 2.246 0 0 0 9.953.95 2.246 2.246 0 0 0 7.7 3.19a2.246 2.246 0 0 0 2.253 2.24z"/></svg>