<svg viewBox="0 0 20 20" xmlns="http://www.w3.org/2000/svg"><title>disbursement</title><path d="M5.742 4.776a6.674 6.674 0 0 1 4.14-1.433c1.602 0 3.073.563 4.227 1.5l3.216-3.224-1.323.07A.705.705 0 0 1 15.93.283l3.16-.17a.7.7 0 0 1 .74.74l-.167 3.16a.705.705 0 0 1-1.203.462.7.7 0 0 1-.203-.536l.067-1.323-3.22 3.227a6.73 6.73 0 0 1 1.497 4.242 6.73 6.73 0 0 1-1.506 4.256l3.155 3.015-.07-1.323a.705.705 0 0 1 1.203-.536.7.7 0 0 1 .203.462l.17 3.16a.702.702 0 0 1-.74.74l-3.163-.166a.705.705 0 0 1 .074-1.407l1.324.067-3.156-3.016a6.675 6.675 0 0 1-4.213 1.49 6.676 6.676 0 0 1-4.213-1.49l-3.084 3.015 1.323-.07a.705.705 0 0 1 .074 1.406l-3.16.17a.7.7 0 0 1-.74-.74l.165-3.16a.705.705 0 0 1 1.203-.462.7.7 0 0 1 .202.536l-.067 1.323 3.083-3.015a6.73 6.73 0 0 1-1.506-4.256A6.73 6.73 0 0 1 4.73 5.76L1.514 2.616l.07 1.323a.706.706 0 0 1-1.203.536.7.7 0 0 1-.204-.46L.007.855a.7.7 0 0 1 .74-.74L3.912.28a.705.705 0 0 1-.074 1.406L2.51 1.62l3.232 3.156zm4.564.59v.573c.378.038.702.116.972.233s.506.294.707.532c.16.18.282.367.368.558.087.19.13.367.13.526a.63.63 0 0 1-.193.46.637.637 0 0 1-.47.193c-.345 0-.57-.188-.672-.563-.117-.443-.397-.737-.842-.883V9.21c.438.12.786.23 1.046.328.26.1.492.243.697.43.217.196.386.43.504.7.12.27.178.568.178.89 0 .404-.095.783-.284 1.135-.188.353-.467.64-.834.864-.367.223-.803.356-1.308.4v.686c0 .21-.02.36-.06.457-.042.095-.13.143-.27.143-.126 0-.215-.04-.266-.117-.05-.077-.077-.198-.077-.36v-.8a3.337 3.337 0 0 1-1.083-.292 2.564 2.564 0 0 1-.773-.555 2.318 2.318 0 0 1-.46-.692c-.098-.24-.147-.475-.147-.705 0-.17.066-.323.2-.46a.662.662 0 0 1 .494-.204.7.7 0 0 1 .402.11c.11.075.186.18.228.314.096.29.18.513.25.667.07.155.177.296.32.424.143.127.332.225.57.292v-2.472a6.463 6.463 0 0 1-1.187-.438 2 2 0 0 1-.774-.69c-.197-.296-.296-.68-.296-1.147 0-.61.193-1.11.58-1.5.386-.39.945-.617 1.676-.68v-.564c0-.298.11-.447.334-.447.226 0 .34.144.34.435zM9.633 9.01V6.976c-.296.09-.528.205-.694.35-.167.146-.25.366-.25.66 0 .28.078.492.233.635.156.145.392.275.71.392zm.673 1.58v2.327c.356-.072.632-.215.826-.43.194-.217.292-.47.292-.756 0-.308-.095-.547-.284-.715-.19-.17-.467-.312-.834-.43z"/></svg>