<svg viewBox="0 0 20 20" xmlns="http://www.w3.org/2000/svg"><title>disbursement</title><path d="M15.105 5.844a6.73 6.73 0 0 1 1.496 4.242 6.73 6.73 0 0 1-1.507 4.256l3.155 3.015-.07-1.323a.705.705 0 0 1 1.203-.536.7.7 0 0 1 .204.462l.169 3.16a.702.702 0 0 1-.741.739l-3.16-.165a.705.705 0 0 1 .074-1.407l1.324.068-3.156-3.016a6.675 6.675 0 0 1-4.213 1.49 6.676 6.676 0 0 1-4.213-1.49l-3.084 3.016 1.323-.07a.705.705 0 1 1 .074 1.406l-3.16.17a.7.7 0 0 1-.739-.741l.165-3.16a.705.705 0 0 1 1.203-.462.701.701 0 0 1 .203.536l-.067 1.323 3.083-3.015a6.73 6.73 0 0 1-1.507-4.256A6.73 6.73 0 0 1 4.73 5.76L1.514 2.617l.07 1.323a.706.706 0 0 1-1.203.536.7.7 0 0 1-.204-.461L.008.855A.7.7 0 0 1 .75.116L3.91.28a.705.705 0 0 1-.074 1.406L2.51 1.62l3.231 3.157a6.674 6.674 0 0 1 4.14-1.433c1.602 0 3.073.563 4.227 1.501l3.217-3.225-1.323.07a.705.705 0 1 1-.074-1.406l3.159-.169a.7.7 0 0 1 .739.741l-.164 3.16a.705.705 0 0 1-1.203.462.701.701 0 0 1-.203-.537l.067-1.323-3.22 3.227zm-4.8-.479v.574c.379.04.703.117.973.234s.506.294.707.532c.159.18.282.367.368.558.087.191.13.367.13.526a.63.63 0 0 1-.193.46.637.637 0 0 1-.47.194c-.345 0-.57-.188-.672-.563-.117-.443-.397-.737-.842-.883V9.21c.438.12.786.23 1.046.33.26.098.492.242.697.43.218.195.387.428.505.699.119.271.178.568.178.89 0 .404-.095.783-.284 1.135-.188.353-.467.641-.834.864-.367.223-.803.356-1.308.399v.687c0 .209-.02.361-.061.457-.04.095-.13.143-.268.143-.127 0-.216-.039-.267-.117-.051-.077-.077-.198-.077-.361v-.798a3.337 3.337 0 0 1-1.083-.293 2.564 2.564 0 0 1-.773-.555 2.318 2.318 0 0 1-.459-.691 1.838 1.838 0 0 1-.148-.705c0-.17.066-.323.199-.46a.662.662 0 0 1 .495-.204.7.7 0 0 1 .402.111c.11.075.186.18.228.314.096.29.179.513.25.667.07.154.177.295.32.423.143.127.332.225.57.292v-2.472a6.463 6.463 0 0 1-1.187-.438 2.001 2.001 0 0 1-.774-.689c-.197-.297-.296-.68-.296-1.148 0-.61.193-1.11.58-1.5.386-.39.945-.616 1.676-.68v-.563c0-.298.111-.447.334-.447.226 0 .339.145.339.436zm0 5.226v2.328c.357-.07.633-.214.827-.43.194-.216.292-.468.292-.755 0-.308-.095-.547-.284-.715-.189-.169-.467-.311-.834-.428zm-.672-1.579V6.976c-.296.089-.528.205-.694.35-.166.146-.249.366-.249.66 0 .28.078.492.233.635.156.144.392.274.71.391z"/></svg>