<svg viewBox="0 0 23 20" xmlns="http://www.w3.org/2000/svg"><title>folder-with-person</title><path d="M8.272 20h16.057V2.09H7.583L5.74 0-.997.014v3.604h25.323v1.89H-.997V20h4.213L1.9 13.335a1.808 1.808 0 0 1-.023-.316c0-.896.673-1.638 1.542-1.736a3.66 3.66 0 0 0 2.297.806 3.66 3.66 0 0 0 2.303-.811 1.745 1.745 0 0 1 1.562 2.057L8.271 20zm4.322-9.794h7.658c.328 0 .594-.27.594-.603A.598.598 0 0 0 20.252 9h-7.658a.598.598 0 0 0-.594.603c0 .333.266.603.594.603zm0 3h7.658c.328 0 .594-.27.594-.603a.598.598 0 0 0-.594-.603h-7.658a.598.598 0 0 0-.594.603c0 .333.266.603.594.603zm0 3h7.658c.328 0 .594-.27.594-.603a.598.598 0 0 0-.594-.603h-7.658a.598.598 0 0 0-.594.603c0 .333.266.603.594.603zm-6.878-5.407a2.042 2.042 0 1 0 0-4.084 2.042 2.042 0 0 0 0 4.084z"/></svg>