<svg xmlns="http://www.w3.org/2000/svg" viewBox="-745.5 592.9 25.3 20"><path d="M-720.6 596.5h.5V595h-16.7l-1.9-2.1h-6.7v3.6h.6zM-720.1 598.4H-745.5v14.5h4.2l-1.3-6.7v-.3c0-.9.7-1.6 1.5-1.7.6.5 1.4.8 2.3.8.9 0 1.7-.3 2.3-.8.9.1 1.6.8 1.6 1.7v.3l-1.3 6.7h16.1v-14.5zm-18.6 5.3c-1.1 0-2-.9-2-2s.9-2 2-2 2 .9 2 2-.9 2-2 2zm14.5 5.4h-7.7c-.3 0-.6-.3-.6-.6s.3-.6.6-.6h7.7c.3 0 .6.3.6.6s-.2.6-.6.6zm0-3h-7.7c-.3 0-.6-.3-.6-.6s.3-.6.6-.6h7.7c.3 0 .6.3.6.6s-.2.6-.6.6zm0-3h-7.7c-.3 0-.6-.3-.6-.6s.3-.6.6-.6h7.7c.3 0 .6.3.6.6s-.2.6-.6.6z"/></svg>