<svg xmlns="http://www.w3.org/2000/svg" viewBox="-822.2 703.7 20 20"><path d="M-822 713.9c0 4.5 2.9 8.4 6.8 9.7.5.1.7-.2.7-.5v-1.7c-2.8.6-3.4-1.4-3.4-1.4-.5-1.2-1.1-1.5-1.1-1.5-.9-.6.1-.6.1-.6 1 .1 1.5 1.1 1.5 1.1.9 1.6 2.3 1.1 2.9.9.1-.7.3-1.1.6-1.4-2.2-.3-4.6-1.1-4.6-5.1 0-1.1.4-2 1-2.8-.1-.3-.4-1.3.1-2.7 0 0 .8-.3 2.7 1.1.8-.2 1.7-.3 2.5-.3s1.7.1 2.5.3c1.9-1.3 2.7-1.1 2.7-1.1.5 1.4.2 2.5.1 2.7.6.7 1 1.6 1 2.8 0 3.9-2.3 4.8-4.6 5.1.4.3.7.9.7 1.9v2.8c0 .3.2.6.7.5 4-1.4 6.8-5.2 6.8-9.7 0-5.7-4.5-10.3-10-10.3-5.2-.1-9.7 4.5-9.7 10.2z"/></svg>