<svg viewBox="0 0 35 35" xmlns="http://www.w3.org/2000/svg"><title>github-circle</title><path d="M0 17.943c0 7.928 5.014 14.653 11.968 17.025.875.165 1.194-.39 1.194-.864 0-.426-.015-1.555-.023-3.052-4.87 1.084-5.896-2.405-5.896-2.405-.796-2.073-1.943-2.625-1.943-2.625-1.588-1.113.12-1.09.12-1.09 1.757.126 2.68 1.85 2.68 1.85 1.562 2.74 4.098 1.948 5.095 1.49.16-1.16.61-1.95 1.11-2.4-3.885-.452-7.97-1.99-7.97-8.867 0-1.96.68-3.56 1.8-4.815-.18-.454-.78-2.28.173-4.748 0 0 1.468-.483 4.81 1.84 1.397-.4 2.895-.598 4.383-.605 1.487.007 2.984.205 4.382.604 3.34-2.32 4.807-1.838 4.807-1.838.954 2.47.354 4.294.174 4.748 1.122 1.254 1.8 2.856 1.8 4.815 0 6.893-4.093 8.41-7.99 8.854.626.553 1.186 1.648 1.186 3.322 0 2.398-.02 4.333-.02 4.922 0 .48.314 1.038 1.202.863C29.99 32.59 35 25.87 35 17.943 35 8.033 27.164 0 17.498 0 7.836 0 0 8.033 0 17.943z"/></svg>