<svg viewBox="0 0 35 35" xmlns="http://www.w3.org/2000/svg"><title>github-circle</title><path d="M0 17.943c0 7.928 5.014 14.653 11.968 17.025.875.165 1.194-.389 1.194-.864 0-.426-.015-1.555-.023-3.052-4.868 1.084-5.895-2.405-5.895-2.405-.796-2.073-1.943-2.625-1.943-2.625-1.59-1.113.12-1.09.12-1.09 1.756.126 2.68 1.849 2.68 1.849 1.561 2.741 4.097 1.95 5.094 1.49.159-1.159.611-1.95 1.11-2.398-3.885-.453-7.97-1.992-7.97-8.868 0-1.959.681-3.561 1.8-4.815-.18-.454-.78-2.279.173-4.748 0 0 1.468-.483 4.811 1.84a16.374 16.374 0 0 1 4.382-.605c1.486.007 2.983.205 4.38.604 3.342-2.322 4.808-1.84 4.808-1.84.955 2.47.355 4.295.175 4.75 1.122 1.253 1.799 2.855 1.799 4.814 0 6.893-4.092 8.41-7.99 8.854.627.554 1.187 1.649 1.187 3.323 0 2.398-.021 4.333-.021 4.922 0 .48.315 1.038 1.203.863C29.99 32.59 35 25.87 35 17.943 35 8.033 27.164 0 17.498 0 7.836 0 0 8.033 0 17.943z"/></svg>