<svg viewBox="0 0 20 20" xmlns="http://www.w3.org/2000/svg"><title>info-circle</title><path d="M10 20c5.523 0 10-4.477 10-10S15.523 0 10 0 0 4.477 0 10s4.477 10 10 10zm-1.18-3.587c.647 0 2.01-.175 2.413-.28v-.527c-.997 0-1.172-.087-1.172-.491 0-.14.053-.456.105-.737l.822-4.755c.088-.544.175-1.036.175-1.369 0-.35-.157-.65-.682-.65-.822 0-2.134.194-2.501.282l-.105.526c.77 0 1.172.123 1.172.439 0 .193-.07.544-.123.86l-.804 4.685c-.088.473-.175 1.035-.175 1.368 0 .474.315.65.874.65zM11.967 4.78c0-.632-.472-1.193-1.19-1.193-.63 0-1.346.49-1.346 1.35 0 .667.454 1.229 1.224 1.229.787 0 1.312-.684 1.312-1.386z"/></svg>