<svg viewBox="0 0 20 20" xmlns="http://www.w3.org/2000/svg"><title>info</title><path d="M10 20c5.523 0 10-4.477 10-10S15.523 0 10 0 0 4.477 0 10s4.477 10 10 10zm1.968-15.22c0-.632-.472-1.193-1.19-1.193-.63 0-1.346.49-1.346 1.35 0 .667.454 1.23 1.224 1.23.787 0 1.312-.685 1.312-1.387zm-3.15 11.633c.65 0 2.013-.175 2.415-.28v-.527c-.997 0-1.172-.087-1.172-.49 0-.14.054-.457.106-.738l.822-4.755c.088-.544.175-1.036.175-1.37 0-.35-.157-.648-.682-.648-.82 0-2.133.193-2.5.28l-.105.527c.77 0 1.172.123 1.172.44 0 .192-.07.543-.123.858l-.804 4.686c-.088.473-.175 1.035-.175 1.368 0 .474.315.65.874.65z"/></svg>