<svg viewBox="0 0 20 20" xmlns="http://www.w3.org/2000/svg"><title>info</title><path d="M9.94 19.74c5.52 0 10-4.477 10-10s-4.48-10-10-10c-5.524 0-10 4.477-10 10s4.476 10 10 10zm1.966-15.22c0-.632-.472-1.194-1.19-1.194-.63 0-1.346.492-1.346 1.35 0 .668.455 1.23 1.224 1.23.788 0 1.312-.685 1.312-1.386zM8.758 16.153c.647 0 2.01-.175 2.414-.28v-.527c-.997 0-1.172-.088-1.172-.49 0-.142.052-.457.105-.738l.822-4.755c.087-.544.175-1.036.175-1.37 0-.35-.158-.648-.682-.648-.823 0-2.134.193-2.502.28l-.105.527c.77 0 1.172.123 1.172.438 0 .193-.07.544-.122.86l-.805 4.685c-.087.474-.175 1.036-.175 1.37 0 .473.315.648.875.648z"/></svg>