<svg xmlns="http://www.w3.org/2000/svg" viewBox="-822.2 618.7 20 20"><path d="M-812.2 618.7c-5.5 0-10 4.5-10 10s4.5 10 10 10 10-4.5 10-10-4.5-10-10-10zm0 18.1c-4.4 0-8-3.6-8-8s3.6-8 8-8 8 3.6 8 8-3.6 8-8 8z"/><path d="M-811.6 622.5c-.6 0-1.2.4-1.2 1.2 0 .6.4 1.1 1.1 1.1s1.2-.6 1.2-1.2-.4-1.1-1.1-1.1zM-812.2 632.8c0-.1 0-.4.1-.7l.7-4.2c.1-.5.2-.9.2-1.2 0-.3-.1-.6-.6-.6-.7 0-1.9.2-2.2.3l-.1.5c.7 0 1 .1 1 .4 0 .2-.1.5-.1.8l-.7 4.2c-.1.4-.2.9-.2 1.2 0 .4.3.6.8.6.6 0 1.8-.2 2.2-.3v-.5c-1 0-1.1-.1-1.1-.5z"/></svg>