<svg viewBox="0 0 20 15" xmlns="http://www.w3.org/2000/svg"><title>list</title><path d="M4.286 1c0-.553.453-1 1.007-1h13.7C19.55 0 20 .446 20 1v.858c0 .552-.453 1-1.007 1h-13.7a1.002 1.002 0 0 1-1.007-1v-.86zm0 5.714c0-.552.453-1 1.007-1h13.7c.556 0 1.007.447 1.007 1v.858c0 .552-.453 1-1.007 1h-13.7a1.002 1.002 0 0 1-1.007-1v-.858zm0 5.714c0-.552.453-1 1.007-1h13.7c.556 0 1.007.447 1.007 1v.858c0 .552-.453 1-1.007 1h-13.7a1.002 1.002 0 0 1-1.007-1v-.858zM1.43 2.858A1.43 1.43 0 1 0 1.43 0a1.43 1.43 0 0 0 0 2.857zm0 5.713a1.43 1.43 0 1 0 0-2.856 1.43 1.43 0 0 0 0 2.857zm0 5.716a1.43 1.43 0 1 0 0-2.857 1.43 1.43 0 0 0 0 2.856z"/></svg>