<svg xmlns="http://www.w3.org/2000/svg" viewBox="-822.2 733 20 20"><path d="M-812.2 733c-5.5 0-10 4.5-10 10s4.5 10 10 10 10-4.5 10-10-4.5-10-10-10zm-6.2 11.7h-1.5c-.2 0-.4-.2-.4-.4s.2-.4.4-.4h1.5c.2 0 .4.2.4.4s-.2.4-.4.4zm0-1.7h-2.7c-.2 0-.4-.2-.4-.4s.2-.4.4-.4h2.7c.2 0 .4.2.4.4s-.2.4-.4.4zm0-1.7h-1.5c-.2 0-.4-.2-.4-.4s.2-.4.4-.4h1.5c.2 0 .4.2.4.4s-.2.4-.4.4zm1.4-1.2c.2.2.4.3.7.6 1 .8 2 1.6 2.7 2.3l-3.4 2.5v-5.4zm11.7 6.3H-817v-.1l3.8-2.9c.5.4.9.7.9.8.5.4.9.4 1.2.4.6 0 1-.3 1.1-.4l.9-.7 3.7 2.9h.1zm.1-1l-3.3-2.5 3.3-2.8v5.3zm0-6.1l-5.1 4.2c-.2.2-.4.2-.7.2-.2 0-.5-.1-.7-.2-.3-.2-4.3-3.4-5.2-4.2h11.7z"/></svg>