<svg viewBox="0 0 35 35" xmlns="http://www.w3.org/2000/svg"><title>moving-envelope-circle</title><path d="M17.5 35C27.165 35 35 27.165 35 17.5S27.165 0 17.5 0 0 7.835 0 17.5 7.835 35 17.5 35zM6.571 13h-2.68a.75.75 0 1 0 0 1.5h2.68a.75.75 0 1 0 0-1.5zm0 3H1.86a.75.75 0 1 0 0 1.5h4.712a.75.75 0 1 0 0-1.5zm0 3h-2.68a.75.75 0 1 0 0 1.5h2.68a.75.75 0 1 0 0-1.5zm9.352-.911a72.506 72.506 0 0 0 1.652 1.34c.855.622 1.52.706 2.058.706.997 0 1.676-.453 1.991-.723l1.532-1.307 6.496 5.122-.003.253H9.243l-.004-.253 6.684-5.138zm-6.75 3.64v-9.236l1.165.969c1.731 1.437 3.45 2.864 4.782 3.965l-5.947 4.301zm14.826-4.342l5.72-4.874V21.7l-5.72-4.312zm5.72-6.294v.064l-8.897 7.26c-.384.289-.772.428-1.187.428-.42 0-.859-.15-1.292-.435-.503-.368-7.587-6.032-9.17-7.3v-.017h20.545z"/></svg>