<svg viewBox="0 0 19 20" xmlns="http://www.w3.org/2000/svg"><title>person-location</title><g><path d="M12.367 8.172a1.51 1.51 0 0 0-1.13-.672 3.18 3.18 0 0 1-2 .704 3.18 3.18 0 0 1-1.997-.7c-.52.06-.957.38-1.18.83a3.608 3.608 0 0 0 3.108 1.757c1.394 0 2.6-.78 3.2-1.918zm-1.763-2.66c0 .746-.688 1.425-1.443 1.425-.755 0-1.443-.68-1.443-1.426 0-.746.688-1.427 1.444-1.427.757 0 1.446.68 1.444 1.428z"/><path d="M5.222 15.734H2.237L.05 19.83h8.558l-.226-.25c-.06-.066-.173-.19-.327-.367a62.9 62.9 0 0 1-2.833-3.48zM9.73 19.83h8.917l-2.188-4.096h-3.346a62.9 62.9 0 0 1-3.16 3.847l-.225.25zm-.562-1.512s-6.9-7.6-6.9-11.364C2.27 3.19 5.36.136 9.17.136c3.81 0 6.9 3.053 6.9 6.818 0 3.765-6.9 11.364-6.9 11.364zm-4.6-11.773c0 2.51 2.06 4.546 4.6 4.546 2.54 0 4.6-2.034 4.6-4.545 0-2.51-2.06-4.545-4.6-4.545-2.54 0-4.6 2.035-4.6 4.545z"/></g></svg>