<svg data-name="Layer 1" xmlns="http://www.w3.org/2000/svg" viewBox="0 0 20 21.08"><title>betaFEC_icons</title><path d="M19.63 9.6a.5.5 0 0 0-.25-.66 1.38 1.38 0 0 0-1.48.41 8.8 8.8 0 0 0-3.52-2.14L13.53 9c-.37-.77-4.04-1.1-5.53-.17l-.5-1.72a10 10 0 0 0-1.75.71 3.09 3.09 0 0 0-3.8-1.53l1.28 3.57A5.67 5.67 0 0 0 2.16 12H.72a.32.32 0 0 0-.4.32v3.83a.41.41 0 0 0 .47.42H3.2A7.47 7.47 0 0 0 5 18.16V21h3.11v-1.49a11.61 11.61 0 0 0 5.6-.06V21h3.15v-3a5.94 5.94 0 0 0 2.72-4.77 5.32 5.32 0 0 0-1-3.1.82.82 0 0 1 .42-.28.5.5 0 0 0 .63-.25zM4 12.37a.63.63 0 1 1 .61-.62.62.62 0 0 1-.61.62z"/><path d="M11 0a3.72 3.72 0 1 0 3.7 3.72A3.71 3.71 0 0 0 11 0zm1.27 5a1.17 1.17 0 0 1-.43.45 1.49 1.49 0 0 1-.67.21V6a.68.68 0 0 1 0 .24.13.13 0 0 1-.14.08.15.15 0 0 1-.14-.06.36.36 0 0 1 0-.19v-.45a1.68 1.68 0 0 1-.55-.15 1.32 1.32 0 0 1-.4-.29 1.22 1.22 0 0 1-.23-.36 1 1 0 0 1-.08-.37.34.34 0 0 1 .1-.24.33.33 0 0 1 .25-.11.35.35 0 0 1 .21.06.3.3 0 0 1 .12.16 3.6 3.6 0 0 0 .13.35.67.67 0 0 0 .16.22.73.73 0 0 0 .2.11V3.74a3.26 3.26 0 0 1-.61-.23 1 1 0 0 1-.4-.36 1.09 1.09 0 0 1-.15-.6 1.09 1.09 0 0 1 .3-.79 1.31 1.31 0 0 1 .86-.36v-.29q0-.23.17-.23t.17.22v.3a1.66 1.66 0 0 1 .5.12 1 1 0 0 1 .36.28 1.19 1.19 0 0 1 .19.29.69.69 0 0 1 .07.28.33.33 0 0 1-.1.24.32.32 0 0 1-.24.1.34.34 0 0 1-.34-.3.62.62 0 0 0-.44-.41v1.12l.54.17a1.1 1.1 0 0 1 .36.23 1 1 0 0 1 .26.37 1.18 1.18 0 0 1 .09.47 1.27 1.27 0 0 1-.15.64z"/><path d="M10.32 2.48a.44.44 0 0 0 .12.33 1.09 1.09 0 0 0 .36.19V1.95a.94.94 0 0 0-.36.18.44.44 0 0 0-.12.35zM11.14 3.85v1.22a.74.74 0 0 0 .42-.23.58.58 0 0 0 .15-.4.48.48 0 0 0-.15-.38 1.17 1.17 0 0 0-.42-.21z"/></svg>