<svg viewBox="0 0 20 21" xmlns="http://www.w3.org/2000/svg"><title>piggy-bank</title><path d="M17.578 9.352c-.899-.926-2.11-1.67-3.52-2.143l-.852 1.757c-.365-.735-4.04-1.063-5.538-.134l-.485-1.72c-.622.188-1.208.428-1.75.712-.417-.909-1.762-2.154-3.809-1.531l1.282 3.571a5.67 5.67 0 0 0-1.072 2.122H.4c-.257 0-.4.094-.401.318v3.83c0 .355.272.424.469.424h2.41a7.473 7.473 0 0 0 1.753 1.601v2.797h3.153v-1.447c.845.203 1.746.313 2.681.313 1.023 0 2.005-.132 2.918-.373v1.507h3.152v-2.96c1.676-1.201 2.721-2.892 2.721-4.767 0-1.122-.374-2.18-1.033-3.104.216-.196.381-.295.429-.274a.5.5 0 1 0 .407-.913c-.474-.211-.978-.027-1.482.414zM3.683 12.375a.62.62 0 0 0 .614-.625.62.62 0 0 0-.614-.625.62.62 0 0 0-.614.625.62.62 0 0 0 .614.625zm6.97-4.938c2.04 0 3.695-1.664 3.695-3.718C14.348 1.665 12.693 0 10.652 0c-2.04 0-3.695 1.665-3.695 3.719s1.654 3.719 3.695 3.719zm.17-6.333v.301c.193.02.359.062.497.123a.986.986 0 0 1 .362.279c.081.095.144.192.189.293a.69.69 0 0 1 .066.276.335.335 0 0 1-.099.242.322.322 0 0 1-.24.101c-.177 0-.292-.098-.344-.295a.625.625 0 0 0-.431-.464v1.161c.224.063.402.121.535.173.133.052.252.128.357.226.112.102.198.225.259.367.06.142.09.298.09.467 0 .212-.048.411-.145.596-.096.185-.239.336-.427.454a1.49 1.49 0 0 1-.67.209v.36c0 .11-.01.19-.03.24-.021.05-.067.075-.138.075-.065 0-.11-.02-.136-.06a.36.36 0 0 1-.04-.19v-.42a1.675 1.675 0 0 1-.554-.153 1.316 1.316 0 0 1-.396-.292 1.22 1.22 0 0 1-.235-.362.986.986 0 0 1-.076-.37c0-.09.034-.17.102-.241a.335.335 0 0 1 .254-.108c.08 0 .15.02.206.059.056.039.095.094.116.164.05.153.092.27.128.35a.673.673 0 0 0 .455.376V3.743a3.259 3.259 0 0 1-.607-.23 1.033 1.033 0 0 1-.396-.361c-.101-.156-.152-.357-.152-.603 0-.32.1-.582.297-.787.198-.204.484-.323.858-.357V1.11c0-.156.057-.234.171-.234.116 0 .174.076.174.229zm-.345 1.914V1.949a.938.938 0 0 0-.355.184c-.085.077-.127.192-.127.346 0 .147.04.258.119.334.08.075.2.143.363.205zm.345.829v1.222a.738.738 0 0 0 .423-.226.583.583 0 0 0 .149-.396.483.483 0 0 0-.145-.376 1.167 1.167 0 0 0-.427-.224z"/></svg>