<svg xmlns="http://www.w3.org/2000/svg" viewBox="-822.2 762.4 20 20"><path d="M-812.2 762.4c-5.5 0-10 4.5-10 10s4.5 10 10 10 10-4.5 10-10-4.5-10-10-10zm6.5 4.8c-.5.1-.8.5-.8 1.1 0 .6.3.9.8 1.1v.6c-.5.1-.8.5-.8 1.1 0 .6.3.9.8 1.1v.6c-.5.1-.8.5-.8 1.1 0 .6.3.9.8 1.1v.6c-.5.1-.8.5-.8 1.1 0 .6.3.9.8 1.1v1.1h-1.1c-.1-.5-.5-.9-1.1-.9s-1 .4-1.1.9h-.6c-.1-.5-.5-.9-1.1-.9-.6 0-1 .4-1.1.9h-.6c-.1-.5-.5-.9-1.1-.9-.5 0-1 .4-1.1.9h-.6c-.1-.5-.5-.9-1.1-.9-.5 0-1 .4-1.1.9h-1.1v-1.1c.5-.1.8-.5.8-1.1 0-.6-.3-.9-.8-1.1v-.6c.5-.1.8-.5.8-1.1 0-.6-.3-.9-.8-1.1v-.6c.5-.1.8-.5.8-1.1 0-.6-.3-.9-.8-1.1v-.6c.5-.1.8-.5.8-1.1 0-.6-.3-.9-.8-1.1v-1.1h1.2c.1.4.5.8 1 .8s.9-.3 1-.8h.7c.1.4.5.8 1 .8s.9-.3 1-.8h.7c.1.4.5.8 1 .8s.9-.3 1-.8h.7c.1.4.5.8 1 .8s.9-.3 1-.8h1.5v1.1z"/><path d="M-816.5 768.9h3.7v3.7h-3.7zM-812.2 770.4h4.6v.9h-4.6zM-816.5 774.7h8.9v.9h-8.9zM-816.5 773.2h8.9v.9h-8.9zM-812.2 771.8h4.6v.9h-4.6zM-812.2 769h4.6v.9h-4.6z"/></svg>