<svg viewBox="0 0 35 35" xmlns="http://www.w3.org/2000/svg"><title>stamp-circle</title><g><path d="M17.5 35C27.165 35 35 27.165 35 17.5S27.165 0 17.5 0 0 7.835 0 17.5 7.835 35 17.5 35z"/><path d="M29 26.527V28.5h-1.958a1.914 1.914 0 0 0-3.736 0H22.26a1.914 1.914 0 0 0-3.737 0h-1.046a1.914 1.914 0 0 0-3.737 0h-1.046a1.914 1.914 0 0 0-3.736 0H7v-1.973a1.914 1.914 0 0 0 0-3.706v-1.077a1.914 1.914 0 0 0 0-3.705V16.96a1.914 1.914 0 0 0 0-3.705v-1.077a1.914 1.914 0 0 0 0-3.706V6.5h2.005a1.914 1.914 0 0 0 3.642 0h1.14a1.914 1.914 0 0 0 3.643 0h1.14a1.914 1.914 0 0 0 3.643 0h1.14a1.914 1.914 0 0 0 3.642 0H29v1.973a1.914 1.914 0 0 0 0 3.706v1.077a1.914 1.914 0 0 0 0 3.705v1.078a1.914 1.914 0 0 0 0 3.705v1.077a1.914 1.914 0 0 0 0 3.706zm-11.5-14.97h8v1.5h-8v-1.5zm0 4.943h8V18h-8v-1.5zM10 19h15.57v1.5H10V19zm0 2.5h15.57V23H10v-1.5zm7.5-7.5h8v1.5h-8V14zM10 11.5V18h6.487v-6.5H10z"/></g></svg>