<svg viewBox="0 0 20 19" xmlns="http://www.w3.org/2000/svg"><title>star</title><path d="M10.598.49l2.7 5.452 6.027.87c.056.01.135.032.236.064a.71.71 0 0 1 .363.25.42.42 0 0 1 .053.4.982.982 0 0 1-.287.414l-4.355 4.257 1.033 5.998c.037.196.034.364-.01.502-.052.157-.145.262-.28.304a.7.7 0 0 1-.446-.012 1.392 1.392 0 0 1-.222-.096l-5.39-2.832-5.39 2.85c-.267.122-.48.157-.64.108-.282-.09-.39-.36-.32-.81l1.026-6L.333 7.952c-.266-.246-.362-.484-.29-.71.077-.232.294-.37.65-.41l6.03-.886L9.415.487c.205-.408.45-.564.732-.472.165.057.318.214.45.476z"/></svg>