<svg viewBox="0 0 35 35" xmlns="http://www.w3.org/2000/svg"><title>telephone-circle</title><path d="M17.5 35C27.165 35 35 27.165 35 17.5S27.165 0 17.5 0 0 7.835 0 17.5 7.835 35 17.5 35zm4.264-12.519c-.098-.242-.388-.537-.77-.415l-1.185.317 2.362 6.04 1.06-.382c.3-.21.443-.585.372-.86l-1.839-4.7zm-6.336-4.584l.004-.001a32.94 32.94 0 0 1-.766-4.076c-.073-.866.083-1.005.577-1.287.34-.194.515-.277.785-.37L15.046 5.7c-.586.166-1.444.53-2.239.987-.85.5-1.66 1.105-2.05 1.612-.42 2.342-.591 6.825.455 10.727v.003c1.046 3.902 3.435 7.7 4.97 9.518.59.244 1.595.363 2.582.37.917-.001 1.842-.116 2.432-.264l-2.38-6.089a4.03 4.03 0 0 1-.865.073c-.57.002-.774-.04-1.144-.826a32.99 32.99 0 0 1-1.374-3.913l-.005.001v-.002zm1.695-12.655l-1.11.2.975 6.41 1.185-.316c.391-.086.495-.487.459-.746l-.758-4.99c-.076-.273-.388-.526-.751-.558z"/></svg>