<svg viewBox="0 0 20 12" xmlns="http://www.w3.org/2000/svg"><title>two-people</title><path d="M7.826 6.03A2.131 2.131 0 0 1 9.74 8.54l-1.744 8.83c-.186.858-1.07 1.607-2.067 1.607H4.148c-.998 0-1.882-.749-2.067-1.607L.327 8.54A2.192 2.192 0 0 1 .3 8.153a2.13 2.13 0 0 1 1.89-2.116 4.5 4.5 0 0 0 2.815.982 4.5 4.5 0 0 0 2.822-.988zM4.925 5.28c1.45 0 2.625-1.17 2.625-2.611A2.618 2.618 0 0 0 4.925.056 2.618 2.618 0 0 0 2.3 2.668a2.618 2.618 0 0 0 2.625 2.61zm14.815 3.26l-1.744 8.83c-.186.858-1.07 1.607-2.067 1.607h-1.781c-.998 0-1.882-.749-2.067-1.607l-1.754-8.83a2.192 2.192 0 0 1-.028-.386 2.13 2.13 0 0 1 1.89-2.116 4.5 4.5 0 0 0 2.815.982 4.5 4.5 0 0 0 2.822-.988 2.131 2.131 0 0 1 1.914 2.508zm-4.715-2.962a2.768 2.768 0 0 1-2.775-2.76 2.768 2.768 0 0 1 2.775-2.76 2.768 2.768 0 0 1 2.775 2.76 2.768 2.768 0 0 1-2.775 2.76zm-.021 3.042c-1.403 0-3.105-.735-3.105-.466 0 .068.002.1-.003.074l1.748 8.803c.032.145.283.346.504.346h1.78c.222 0 .473-.2.498-.317l1.74-8.8a.629.629 0 0 0 .011-.106c0-.275-1.766.466-3.173.466zm.021-4.642c.65 0 1.175-.521 1.175-1.16 0-.64-.524-1.16-1.175-1.16-.65 0-1.175.52-1.175 1.16 0 .639.524 1.16 1.175 1.16z"/></svg>