<svg viewBox="0 0 20 12" xmlns="http://www.w3.org/2000/svg"><title>two-candidates</title><path d="M7.826 6.03A2.13 2.13 0 0 1 9.74 8.54l-1.744 8.83c-.186.857-1.07 1.606-2.067 1.606H4.147c-.998 0-1.882-.75-2.067-1.607L.328 8.54A2.192 2.192 0 0 1 .3 8.152a2.13 2.13 0 0 1 1.89-2.116 4.5 4.5 0 0 0 2.814.982 4.5 4.5 0 0 0 2.822-.99zm-2.9-.75c1.45 0 2.624-1.17 2.624-2.612A2.618 2.618 0 0 0 4.925.056 2.618 2.618 0 0 0 2.3 2.668a2.618 2.618 0 0 0 2.625 2.61zM19.74 8.54l-1.744 8.83c-.186.857-1.07 1.606-2.067 1.606h-1.782c-.998 0-1.882-.75-2.067-1.607l-1.753-8.83a2.192 2.192 0 0 1-.028-.387 2.13 2.13 0 0 1 1.89-2.116 4.5 4.5 0 0 0 2.814.982 4.5 4.5 0 0 0 2.822-.99 2.13 2.13 0 0 1 1.914 2.51zm-4.715-2.963a2.768 2.768 0 0 1-2.775-2.76 2.768 2.768 0 0 1 2.775-2.76 2.768 2.768 0 0 1 2.775 2.76 2.768 2.768 0 0 1-2.775 2.76zm-.02 3.042c-1.404 0-3.106-.736-3.106-.467 0 .068 0 .1-.004.074l1.748 8.803c.032.145.283.346.504.346h1.78c.222 0 .473-.2.498-.317l1.74-8.8a.63.63 0 0 0 .01-.107c0-.275-1.765.466-3.172.466zm.02-4.643c.65 0 1.175-.52 1.175-1.16 0-.64-.524-1.16-1.175-1.16-.65 0-1.175.52-1.175 1.16 0 .64.524 1.16 1.175 1.16z"/></svg>