<?xml version="1.0" encoding="utf-8"?>
<!-- Generator: Adobe Illustrator 19.1.0, SVG Export Plug-In . SVG Version: 6.00 Build 0)  -->
<svg version="1.1" id="Layer_1" xmlns="http://www.w3.org/2000/svg" xmlns:xlink="http://www.w3.org/1999/xlink" x="0px" y="0px"
	 viewBox="-822.2 591.8 20 20" style="enable-background:new -822.2 591.8 20 20;" xml:space="preserve">
<path d="M-802.2,601.8c0-5.5-4.5-10-10-10s-10,4.5-10,10s4.5,10,10,10S-802.2,607.3-802.2,601.8z M-813,605.9c0,0-3.3-5.7-3.4-5.7
	c-0.1-0.1-0.1-0.2-0.1-0.4c0-0.4,0.3-0.8,0.8-0.8h6.7c0.4,0,0.8,0.3,0.8,0.8c0,0.1,0,0.3-0.1,0.4l-3.3,5.7c-0.1,0.2-0.4,0.4-0.7,0.4
	S-812.9,606.1-813,605.9z"/>
</svg>
