<?xml version="1.0" encoding="utf-8"?>
<!-- Generator: Adobe Illustrator 19.1.0, SVG Export Plug-In . SVG Version: 6.00 Build 0)  -->
<svg version="1.1" id="Layer_1" xmlns="http://www.w3.org/2000/svg" xmlns:xlink="http://www.w3.org/1999/xlink" x="0px" y="0px"
	 viewBox="-822.2 564.9 20 20" style="enable-background:new -822.2 564.9 20 20;" xml:space="preserve">
<path d="M-812.2,564.9c-5.5,0-10,4.5-10,10s4.5,10,10,10s10-4.5,10-10S-806.7,564.9-812.2,564.9z M-808.1,575.7c0,0-5.7,3.3-5.7,3.4
	c-0.1,0.1-0.2,0.1-0.4,0.1c-0.4,0-0.8-0.3-0.8-0.8v-6.7c0-0.4,0.3-0.8,0.8-0.8c0.1,0,0.3,0,0.4,0.1l5.7,3.3c0.2,0.1,0.4,0.4,0.4,0.7
	C-807.7,575.3-807.9,575.6-808.1,575.7z"/>
</svg>
