<?xml version="1.0" encoding="utf-8"?>
<!-- Generator: Adobe Illustrator 19.1.0, SVG Export Plug-In . SVG Version: 6.00 Build 0)  -->
<svg version="1.1" id="Layer_1" xmlns="http://www.w3.org/2000/svg" xmlns:xlink="http://www.w3.org/1999/xlink" x="0px" y="0px"
	 viewBox="-822.2 568 20 20" style="enable-background:new -822.2 568 20 20;" xml:space="preserve">
<path d="M-822.2,578c0,5.5,4.5,10,10,10s10-4.5,10-10s-4.5-10-10-10S-822.2,572.5-822.2,578z M-811.4,573.9c0,0,3.3,5.7,3.4,5.7
	c0.1,0.1,0.1,0.2,0.1,0.4c0,0.4-0.3,0.8-0.8,0.8h-6.7c-0.4,0-0.8-0.3-0.8-0.8c0-0.1,0-0.3,0.1-0.4l3.3-5.7c0.1-0.2,0.4-0.4,0.7-0.4
	C-811.8,573.5-811.5,573.7-811.4,573.9z"/>
</svg>
