<?xml version="1.0" encoding="utf-8"?>
<!-- Generator: Adobe Illustrator 19.1.0, SVG Export Plug-In . SVG Version: 6.00 Build 0)  -->
<svg version="1.1" id="Layer_1" xmlns="http://www.w3.org/2000/svg" xmlns:xlink="http://www.w3.org/1999/xlink" x="0px" y="0px"
	 viewBox="-822.2 591.9 20 20" style="enable-background:new -822.2 591.9 20 20;" xml:space="preserve">
<path d="M-812.2,591.9c-5.5,0-10,4.5-10,10s4.5,10,10,10s10-4.5,10-10C-802.2,596.3-806.7,591.9-812.2,591.9z M-808.7,603.4
	l-2.8,3.1l0,0c-0.2,0.2-0.4,0.3-0.7,0.3s-0.5-0.1-0.7-0.3l0,0l-2.8-3.1l0,0c-0.1-0.2-0.2-0.4-0.2-0.6c0-0.5,0.4-0.9,0.9-0.9
	c0.3,0,0.5,0.1,0.7,0.3l0,0l1.2,1.3v-5.7c0-0.5,0.4-0.9,0.9-0.9s0.9,0.4,0.9,0.9v5.7l1.2-1.3l0,0c0.2-0.2,0.4-0.3,0.7-0.3
	c0.5,0,0.9,0.4,0.9,0.9C-808.5,603-808.5,603.3-808.7,603.4L-808.7,603.4z"/>
</svg>
