<?xml version="1.0" encoding="UTF-8" standalone="no"?>
<svg width="10px" height="13px" viewBox="0 0 10 13" version="1.1" xmlns="http://www.w3.org/2000/svg" xmlns:xlink="http://www.w3.org/1999/xlink">
    <!-- Generator: Sketch 3.7.1 (28215) - http://www.bohemiancoding.com/sketch -->
    <title>arrow-down-border</title>
    <desc>Created with Sketch.</desc>
    <defs></defs>
    <g id="Page-1" stroke="none" stroke-width="1" fill="none" fill-rule="evenodd">
        <g id="arrow-down-border" transform="translate(-5.000000, -3.000000)" fill="#000000">
            <path d="M15.0816858,8.8088546 L8.84812382,5.12434064 C8.71133452,5.04315018 8.56319342,5 8.40511948,5 C7.9348708,5 7.55373382,5.38125451 7.55373382,5.85164819 L7.55373382,13.2325992 C7.55373382,13.702709 7.9348708,14.0842474 8.40511948,14.0842474 C8.56319342,14.0842474 8.71133452,14.0408133 8.83819099,13.9655844 C8.84386689,13.9624617 15.0816858,10.2753928 15.0816858,10.2753928 C15.3319932,10.1269221 15.5,9.85411082 15.5,9.54212369 C15.5,9.22985269 15.3319932,8.95704139 15.0816858,8.8088546 Z M6,6 L6,13.15 C6,13.7022847 5.55228475,14.15 5,14.15 C4.44771525,14.15 4,13.7022847 4,13.15 L4,6 C4,5.44771525 4.44771525,5 5,5 C5.55228475,5 6,5.44771525 6,6 Z" transform="translate(9.750000, 9.575000) rotate(-270.000000) translate(-9.750000, -9.575000) "></path>
        </g>
    </g>
</svg>