<?xml version="1.0" encoding="UTF-8" standalone="no"?>
<svg width="7px" height="10px" viewBox="0 0 7 10" version="1.1" xmlns="http://www.w3.org/2000/svg" xmlns:xlink="http://www.w3.org/1999/xlink">
    <!-- Generator: Sketch 3.7.2 (28276) - http://www.bohemiancoding.com/sketch -->
    <title>arrow-down-border</title>
    <desc>Created with Sketch.</desc>
    <defs></defs>
    <g id="Page-1" stroke="none" stroke-width="1" fill="none" fill-rule="evenodd">
        <g id="arrow-down-border" fill="#000000">
            <path d="M1.17646878,6.09906513 L5.68805712,3.45930619 C5.78705943,3.40113753 5.89427769,3.37022272 6.00868491,3.37022272 C6.34903101,3.37022272 6.62488182,3.64337136 6.62488182,3.9803835 L6.62488182,9.26844362 C6.62488182,9.60525237 6.34903101,9.8786044 6.00868491,9.8786044 C5.89427769,9.8786044 5.78705943,9.8474862 5.69524609,9.79358867 C5.69113811,9.79135141 1.17646878,7.14976199 1.17646878,7.14976199 C0.995306888,7.04339063 0.873710698,6.84793579 0.873710698,6.62441356 C0.873710698,6.40068794 0.995306888,6.2052331 1.17646878,6.09906513 L1.17646878,6.09906513 L1.17646878,6.09906513 Z" id="Fill-3-Copy" transform="translate(3.749296, 6.624414) rotate(270.000000) translate(-3.749296, -6.624414) "></path>
            <polygon id="Line" points="0.495104741 2.053572 6.8587411 2.053572 6.8587411 0.553572 0.495104741 0.553572"></polygon>
        </g>
    </g>
</svg>