<?xml version="1.0" encoding="UTF-8" standalone="no"?>
<svg width="20px" height="20px" viewBox="0 0 20 20" version="1.1" xmlns="http://www.w3.org/2000/svg" xmlns:xlink="http://www.w3.org/1999/xlink">
    <!-- Generator: Sketch 3.7.2 (28276) - http://www.bohemiancoding.com/sketch -->
    <title>arrow-right-circle</title>
    <desc>Created with Sketch.</desc>
    <defs></defs>
    <g id="Page-1" stroke="none" stroke-width="1" fill="none" fill-rule="evenodd">
        <g id="arrow-right-circle" fill="#000000">
            <path d="M10,20 C15.5228475,20 20,15.5228475 20,10 C20,4.4771525 15.5228475,0 10,0 C4.4771525,0 0,4.4771525 0,10 C0,15.5228475 4.4771525,20 10,20 Z M14.0866263,9.45907031 L8.42552033,6.11292187 C8.30129301,6.0391875 8.16675637,6 8.02319908,6 C7.59613545,6 7.25,6.34624219 7.25,6.7734375 L7.25,13.4765625 C7.25,13.9035 7.59613545,14.25 8.02319908,14.25 C8.16675637,14.25 8.30129301,14.2105547 8.41649968,14.1422344 C8.42165434,14.1393984 14.0866263,10.7909297 14.0866263,10.7909297 C14.3139468,10.6560938 14.4665247,10.4083359 14.4665247,10.125 C14.4665247,9.84140625 14.3139468,9.59364844 14.0866263,9.45907031 Z"></path>
        </g>
    </g>
</svg>