<?xml version="1.0" encoding="utf-8"?>
<!-- Generator: Adobe Illustrator 19.1.0, SVG Export Plug-In . SVG Version: 6.00 Build 0)  -->
<svg version="1.1" id="Layer_1" xmlns="http://www.w3.org/2000/svg" xmlns:xlink="http://www.w3.org/1999/xlink" x="0px" y="0px"
	 viewBox="-822.2 539.9 20 20" style="enable-background:new -822.2 539.9 20 20;" xml:space="preserve">
<path d="M-812.2,539.9c-5.5,0-10,4.5-10,10s4.5,10,10,10s10-4.5,10-10S-806.7,539.9-812.2,539.9z M-812.1,556
	c-0.7,0-1.3-0.5-1.3-1.3c0-0.7,0.6-1.3,1.3-1.3s1.3,0.5,1.3,1.3C-810.8,555.4-811.4,556-812.1,556z M-811.7,552.2h-0.7
	c-0.3-1.7-1-6.5-1-7.3s0.6-1.2,1.3-1.2c0.7,0,1.3,0.4,1.3,1.2C-810.8,545.7-811.5,550.5-811.7,552.2z"/>
</svg>
