<?xml version="1.0" encoding="UTF-8" standalone="no"?>
<svg width="20px" height="20px" viewBox="0 0 20 20" version="1.1" xmlns="http://www.w3.org/2000/svg" xmlns:xlink="http://www.w3.org/1999/xlink">
    <!-- Generator: Sketch 3.7.2 (28276) - http://www.bohemiancoding.com/sketch -->
    <title>bang-circle</title>
    <desc>Created with Sketch.</desc>
    <defs></defs>
    <g id="Page-1" stroke="none" stroke-width="1" fill="none" fill-rule="evenodd">
        <g id="bang-circle" fill="#000000">
            <path d="M9.99990264,20 C15.5226964,20 19.9998053,15.5228475 19.9998053,10 C19.9998053,4.4771525 15.5226964,0 9.99990264,0 C4.47710891,0 0,4.4771525 0,10 C0,15.5228475 4.47710891,20 9.99990264,20 Z M10.4534294,12.335709 C10.7319017,10.5926426 11.4454869,5.83407122 11.4454869,5.06712199 C11.4454869,4.30017276 10.8537333,3.91669814 10.105339,3.91669814 C9.35694476,3.91669814 8.80000019,4.30017276 8.80000019,5.06712199 C8.80000019,5.83407122 9.51358542,10.5926426 9.7920577,12.335709 L10.4534294,12.335709 Z M10.105339,16.0833019 C10.8363288,16.0833019 11.4106779,15.4906593 11.4106779,14.8108634 C11.4106779,14.0613448 10.8363288,13.5209942 10.105339,13.5209942 C9.37434928,13.5209942 8.80000019,14.1136368 8.80000019,14.7934327 C8.80000019,15.5429513 9.37434928,16.0833019 10.105339,16.0833019 Z"></path>
        </g>
    </g>
</svg>