<?xml version="1.0" encoding="utf-8"?>
<!-- Generator: Adobe Illustrator 19.1.0, SVG Export Plug-In . SVG Version: 6.00 Build 0)  -->
<svg version="1.1" id="Layer_1" xmlns="http://www.w3.org/2000/svg" xmlns:xlink="http://www.w3.org/1999/xlink" x="0px" y="0px"
	 viewBox="-469 271 20 20" style="enable-background:new -469 271 20 20;" xml:space="preserve">
<title>bang-circle</title>
<desc>Created with Sketch.</desc>
<path d="M-459,271c-5.5,0-10,4.5-10,10s4.5,10,10,10c5.5,0,10-4.5,10-10S-453.5,271-459,271z M-458.9,287.1c-0.7,0-1.3-0.5-1.3-1.3
	c0-0.7,0.6-1.3,1.3-1.3c0.7,0,1.3,0.5,1.3,1.3C-457.6,286.5-458.2,287.1-458.9,287.1z M-458.5,283.3h-0.7c-0.3-1.7-1-6.5-1-7.3
	c0-0.8,0.6-1.2,1.3-1.2s1.3,0.4,1.3,1.2C-457.6,276.8-458.3,281.6-458.5,283.3z"/>
</svg>
