<?xml version="1.0" encoding="UTF-8" standalone="no"?>
<svg width="20px" height="20px" viewBox="0 0 20 20" version="1.1" xmlns="http://www.w3.org/2000/svg" xmlns:xlink="http://www.w3.org/1999/xlink">
    <!-- Generator: Sketch 42 (36781) - http://www.bohemiancoding.com/sketch -->
    <title>calculator</title>
    <desc>Created with Sketch.</desc>
    <defs></defs>
    <g id="Flat-SVG-icons" stroke="none" stroke-width="1" fill="none" fill-rule="evenodd">
        <g id="calculator" fill="#000000">
            <path d="M0.0122825032,10.5 L9.5,10.5 L9.5,19.9877175 C4.37508318,19.7353582 0.264641824,15.6249168 0.0122825032,10.5 Z M0.0122825032,9.5 C0.264641824,4.37508318 4.37508318,0.264641824 9.5,0.0122825032 L9.5,9.5 L0.0122825032,9.5 Z M19.9877175,9.5 L10.5,9.5 L10.5,0.0122825032 C15.6249168,0.264641824 19.7353582,4.37508318 19.9877175,9.5 Z M19.9877175,10.5 C19.7353582,15.6249168 15.6249168,19.7353582 10.5,19.9877175 L10.5,10.5 L19.9877175,10.5 Z M13.2328882,15.7159794 L16.1080231,15.7159794 C16.4073487,15.7159794 16.65,15.4733281 16.65,15.1740025 C16.65,14.8746769 16.4073487,14.6320256 16.1080231,14.6320256 L13.2328882,14.6320256 C12.9335626,14.6320256 12.6909113,14.8746769 12.6909113,15.1740025 C12.6909113,15.4733281 12.9335626,15.7159794 13.2328882,15.7159794 Z M13.2328882,13.9896834 L16.1080231,13.9896834 C16.4073487,13.9896834 16.65,13.747032 16.65,13.4477065 C16.65,13.1483809 16.4073487,12.9057296 16.1080231,12.9057296 L13.2328882,12.9057296 C12.9335626,12.9057296 12.6909113,13.1483809 12.6909113,13.4477065 C12.6909113,13.747032 12.9335626,13.9896834 13.2328882,13.9896834 Z M13.2328882,6.47579576 L16.1080231,6.47579576 C16.4073487,6.47579576 16.65,6.23314444 16.65,5.93381886 C16.65,5.63449328 16.4073487,5.39184195 16.1080231,5.39184195 L13.2328882,5.39184195 C12.9335626,5.39184195 12.6909113,5.63449328 12.6909113,5.93381886 C12.6909113,6.23314444 12.9335626,6.47579576 13.2328882,6.47579576 Z M6.2197751,6.41153841 L7.5,6.41153841 C7.76808419,6.41153841 7.98536667,6.19767929 7.98536667,5.93381886 C7.98536667,5.66995842 7.76808419,5.4560993 7.5,5.4560993 L6.2197751,5.4560993 L6.2197751,4.1500001 C6.2197751,3.88613966 6.00249262,3.67000008 5.73440843,3.67000008 C5.46632424,3.67000008 5.24904176,3.88613966 5.24904176,4.1500001 L5.24904176,5.4560993 L4,5.4560993 C3.73191581,5.4560993 3.51463333,5.66995842 3.51463333,5.93381886 C3.51463333,6.19767929 3.73191581,6.41153841 4,6.41153841 L5.24904176,6.41153841 L5.24904176,7.75 C5.24904176,8.01386043 5.46632424,8.22999954 5.73440843,8.22999954 C6.00249262,8.22999954 6.2197751,8.01386043 6.2197751,7.75 L6.2197751,6.41153841 Z M6.88383596,15.9570506 C7.07340011,16.1466148 7.37826326,16.1490354 7.56484076,15.9624579 C7.75141826,15.7758804 7.74899759,15.4710173 7.55943344,15.2814531 L6.41541323,14.1374329 L7.54140902,13.0114371 C7.72798652,12.8248596 7.72556585,12.5199965 7.5360017,12.3304323 C7.34643755,12.1408682 7.0415744,12.1384475 6.8549969,12.325025 L5.72900111,13.4510208 L4.5849809,12.3070006 C4.39541675,12.1174364 4.0905536,12.1150158 3.9039761,12.3015933 C3.7173986,12.4881708 3.71981928,12.7930339 3.90938343,12.9825981 L5.05340363,14.1266183 L3.92740784,15.2526141 C3.74083034,15.4391916 3.74325102,15.7440547 3.93281516,15.9336189 C4.12237931,16.123183 4.42724246,16.1256037 4.61381996,15.9390262 L5.73981576,14.8130304 L6.88383596,15.9570506 Z" id="Combined-Shape"></path>
        </g>
    </g>
</svg>