<svg id="calendar" xmlns="http://www.w3.org/2000/svg" width="20" height="20" viewBox="0 0 20 20"><defs><style>.cls-1{fill-rule:evenodd;}</style></defs><title>betaFEC_icons</title><path class="cls-1" d="M3.95,3.11a0.77,0.77,0,0,0,.77-0.77V0.77a0.77,0.77,0,0,0-1.54,0V2.34A0.77,0.77,0,0,0,3.95,3.11Z"/><path class="cls-1" d="M15.8,3.11a0.77,0.77,0,0,0,.77-0.77V0.77A0.77,0.77,0,0,0,15,.77V2.34A0.77,0.77,0,0,0,15.8,3.11Z"/><path class="cls-1" d="M18,1.73H17V2.48a1,1,0,0,1-1,1H15.58a1,1,0,0,1-1-1V1.73H5.14V2.48a1,1,0,0,1-1,1H3.75a1,1,0,0,1-1-1V1.73H2a2,2,0,0,0-2,2V17.89a2,2,0,0,0,2,2H18a2,2,0,0,0,2-2V3.73A2,2,0,0,0,18,1.73ZM2.82,18.62A1.09,1.09,0,1,1,3.9,17.53,1.09,1.09,0,0,1,2.82,18.62Zm14.9-.56H5.4a0.49,0.49,0,0,1-.49-0.49,0.48,0.48,0,0,1,.49-0.49H17.72a0.49,0.49,0,0,1,.49.49A0.48,0.48,0,0,1,17.72,18.06ZM19,15.53H0.58V15H19v0.58ZM2.82,8.67A1.09,1.09,0,1,1,1.73,9.76,1.09,1.09,0,0,1,2.82,8.67ZM1.73,6.86A1.08,1.08,0,1,1,2.82,8,1.09,1.09,0,0,1,1.73,6.86Zm1.08,4.8a1.09,1.09,0,1,1-1.08,1.09A1.09,1.09,0,0,1,2.82,11.66ZM5.4,9.32H17.72a0.49,0.49,0,0,1,.49.49,0.48,0.48,0,0,1-.49.49H5.4a0.49,0.49,0,0,1-.49-0.49A0.48,0.48,0,0,1,5.4,9.32ZM4.91,6.88A0.48,0.48,0,0,1,5.4,6.39H17.72a0.49,0.49,0,0,1,.49.49,0.48,0.48,0,0,1-.49.49H5.4A0.49,0.49,0,0,1,4.91,6.88ZM5.4,12.31H17.72a0.49,0.49,0,0,1,.49.49,0.48,0.48,0,0,1-.49.49H5.4a0.49,0.49,0,0,1-.49-0.49A0.48,0.48,0,0,1,5.4,12.31ZM19,4.62H0.58V4H19V4.62Z"/></svg>