<svg id="calendar" xmlns="http://www.w3.org/2000/svg" width="20" height="20" viewBox="0 0 20 20"><defs><style>.cls-1{fill-rule:evenodd;}</style></defs><title>betaFEC_icons</title><path class="cls-1" d="M3.95,3.11a0.77,0.77,0,0,0,.77-0.77V0.77a0.77,0.77,0,0,0-1.54,0V2.34A0.77,0.77,0,0,0,3.95,3.11Z"/><path class="cls-1" d="M15.8,3.11a0.77,0.77,0,0,0,.77-0.77V0.77A0.77,0.77,0,0,0,15,.77V2.34A0.77,0.77,0,0,0,15.8,3.11Z"/><path class="cls-1" d="M18,1.73H17V2.48a1,1,0,0,1-1,1H15.58a1,1,0,0,1-1-1V1.73H5.14V2.48a1,1,0,0,1-1,1H3.75a1,1,0,0,1-1-1V1.73H2a2,2,0,0,0-2,2V17.89a2,2,0,0,0,2,2H18a2,2,0,0,0,2-2V3.73A2,2,0,0,0,18,1.73ZM2.82,17.22A1.09,1.09,0,1,1,3.9,16.12,1.09,1.09,0,0,1,2.82,17.22Zm14.9-.54H5.4a0.5,0.5,0,0,1-.49-0.5,0.49,0.49,0,0,1,.49-0.5H17.72a0.5,0.5,0,0,1,.49.5A0.49,0.49,0,0,1,17.72,16.67Zm1.52-2.82H0.77V13.27H19.23v0.58ZM3,9.61a1.09,1.09,0,1,1-1.08,1.09A1.09,1.09,0,0,1,3,9.61ZM1.93,7.81A1.08,1.08,0,1,1,3,8.9,1.09,1.09,0,0,1,1.93,7.81Zm3.67,2.45H17.91a0.5,0.5,0,0,1,.49.5,0.49,0.49,0,0,1-.49.5H5.59a0.5,0.5,0,0,1-.49-0.5A0.49,0.49,0,0,1,5.59,10.26ZM5.1,7.82a0.49,0.49,0,0,1,.49-0.5H17.91a0.5,0.5,0,0,1,.49.5,0.49,0.49,0,0,1-.49.5H5.59A0.5,0.5,0,0,1,5.1,7.82ZM19.23,5.57H0.77V5H19.23V5.57Z"/></svg>