<?xml version="1.0" encoding="utf-8"?>
<!-- Generator: Adobe Illustrator 19.1.0, SVG Export Plug-In . SVG Version: 6.00 Build 0)  -->
<svg version="1.1" id="Layer_1" xmlns="http://www.w3.org/2000/svg" xmlns:xlink="http://www.w3.org/1999/xlink" x="0px" y="0px"
	 viewBox="-745.5 566.5 20 20" style="enable-background:new -745.5 566.5 20 20;" xml:space="preserve">
<path d="M-726.5,566.5h-18c-0.5,0-1,0.4-1,1v18c0,0.5,0.4,1,1,1h18c0.5,0,1-0.4,1-1v-18C-725.5,566.9-725.9,566.5-726.5,566.5z
	 M-740.5,584.3h-2.9v-2.9h2.9V584.3z M-740.5,580h-2.9v-2.9h2.9V580z M-740.5,575.7h-2.9v-2.9h2.9V575.7z M-736.2,584.3h-2.9v-2.9
	h2.9V584.3z M-736.2,580h-2.9v-2.9h2.9V580z M-736.2,575.7h-2.9v-2.9h2.9V575.7z M-731.9,584.3h-2.9v-2.9h2.9V584.3z M-731.9,580
	h-2.9v-2.9h2.9V580z M-731.9,575.7h-2.9v-2.9h2.9V575.7z M-727.6,584.3h-2.9v-2.9h2.9V584.3z M-727.6,580h-2.9v-2.9h2.9V580z
	 M-727.6,575.7h-2.9v-2.9h2.9V575.7z"/>
</svg>
