<?xml version="1.0" encoding="UTF-8" standalone="no"?>
<svg width="20px" height="20px" viewBox="0 0 20 20" version="1.1" xmlns="http://www.w3.org/2000/svg" xmlns:xlink="http://www.w3.org/1999/xlink">
    <!-- Generator: Sketch 3.7.1 (28215) - http://www.bohemiancoding.com/sketch -->
    <title>calendar</title>
    <desc>Created with Sketch.</desc>
    <defs></defs>
    <g id="Page-1" stroke="none" stroke-width="1" fill="none" fill-rule="evenodd">
        <g id="calendar" fill="#000000">
            <path d="M0,0.99180311 C0,0.444045377 0.455305576,0 0.99180311,0 L19.0081969,0 C19.5559546,0 20,0.455305576 20,0.99180311 L20,19.0081969 C20,19.5559546 19.5446944,20 19.0081969,20 L0.99180311,20 C0.444045377,20 0,19.5446944 0,19.0081969 L0,0.99180311 Z M2.14285714,6.42857143 L5,6.42857143 L5,9.28571429 L2.14285714,9.28571429 L2.14285714,6.42857143 Z M15,6.42857143 L17.8571429,6.42857143 L17.8571429,9.28571429 L15,9.28571429 L15,6.42857143 Z M10.7142857,6.42857143 L13.5714286,6.42857143 L13.5714286,9.28571429 L10.7142857,9.28571429 L10.7142857,6.42857143 Z M6.42857143,6.42857143 L9.28571429,6.42857143 L9.28571429,9.28571429 L6.42857143,9.28571429 L6.42857143,6.42857143 Z M6.42857143,10.7142857 L9.28571429,10.7142857 L9.28571429,13.5714286 L6.42857143,13.5714286 L6.42857143,10.7142857 Z M10.7142857,10.7142857 L13.5714286,10.7142857 L13.5714286,13.5714286 L10.7142857,13.5714286 L10.7142857,10.7142857 Z M15,10.7142857 L17.8571429,10.7142857 L17.8571429,13.5714286 L15,13.5714286 L15,10.7142857 Z M2.14285714,10.7142857 L5,10.7142857 L5,13.5714286 L2.14285714,13.5714286 L2.14285714,10.7142857 Z M6.42857143,15 L9.28571429,15 L9.28571429,17.8571429 L6.42857143,17.8571429 L6.42857143,15 Z M10.7142857,15 L13.5714286,15 L13.5714286,17.8571429 L10.7142857,17.8571429 L10.7142857,15 Z M15,15 L17.8571429,15 L17.8571429,17.8571429 L15,17.8571429 L15,15 Z M2.14285714,15 L5,15 L5,17.8571429 L2.14285714,17.8571429 L2.14285714,15 Z"></path>
        </g>
    </g>
</svg>