<?xml version="1.0" encoding="UTF-8" standalone="no"?>
<svg width="20px" height="20px" viewBox="0 0 20 20" version="1.1" xmlns="http://www.w3.org/2000/svg" xmlns:xlink="http://www.w3.org/1999/xlink">
    <!-- Generator: Sketch 3.7.1 (28215) - http://www.bohemiancoding.com/sketch -->
    <title>check</title>
    <desc>Created with Sketch.</desc>
    <defs></defs>
    <g id="Page-1" stroke="none" stroke-width="1" fill="none" fill-rule="evenodd">
        <g id="check" fill="#000000">
            <path d="M16.4706724,6.67789655 L16.4706724,6.67789655 L8.93618966,14.2123793 C8.75831034,14.389931 8.51262069,14.5 8.24137931,14.5 C7.97013793,14.5 7.72444828,14.389931 7.54656897,14.2123793 L3.28794828,9.95375862 C3.11006897,9.77587931 3,9.53018966 3,9.25862069 C3,8.71581034 3.43994828,8.27586207 3.98275862,8.27586207 C4.25432759,8.27586207 4.49968966,8.38593103 4.67756897,8.56381034 L8.24137931,12.1276207 L15.0810517,5.28794828 C15.258931,5.11006897 15.5046207,5 15.7758621,5 C16.3186724,5 16.7586207,5.43994828 16.7586207,5.98275862 C16.7586207,6.254 16.6485517,6.50001724 16.4706724,6.67789655"></path>
        </g>
    </g>
</svg>