<?xml version="1.0" encoding="UTF-8" standalone="no"?>
<svg width="20px" height="20px" viewBox="0 0 20 20" version="1.1" xmlns="http://www.w3.org/2000/svg" xmlns:xlink="http://www.w3.org/1999/xlink">
    <!-- Generator: Sketch 3.7.1 (28215) - http://www.bohemiancoding.com/sketch -->
    <title>disbursement</title>
    <desc>Created with Sketch.</desc>
    <defs></defs>
    <g id="Page-1" stroke="none" stroke-width="1" fill="none" fill-rule="evenodd">
        <g id="disbursement" fill="#000000">
            <path d="M15.1047793,5.84355911 C16.0404868,7.00228595 16.6010744,8.47860394 16.6010744,10.0863388 C16.6010744,11.7000346 16.036261,13.1813607 15.0942031,14.3420175 L18.2492954,17.3574055 L18.1796937,16.0340318 C18.1721692,15.8412161 18.2382438,15.6453436 18.3854421,15.4981454 C18.6607922,15.2227952 19.1075602,15.2227952 19.3829103,15.4981454 C19.5112973,15.6265324 19.577372,15.7920716 19.5860722,15.9601975 L19.7549034,19.1190821 C19.762428,19.3118977 19.6963533,19.5077702 19.5493902,19.6549685 C19.4019568,19.8021668 19.2063194,19.8680063 19.0135038,19.8581304 L15.8541489,19.6944722 C15.6864933,19.6829503 15.5207189,19.6171108 15.392567,19.4887238 C15.1169817,19.2131385 15.1169817,18.7666057 15.392567,18.4910204 C15.5397653,18.3438221 15.7356378,18.2779826 15.9282183,18.2878585 L17.2518272,18.3551089 L14.0958422,15.3388589 C12.9434939,16.2711056 11.478024,16.8291904 9.88264122,16.8291904 C8.28744133,16.8291904 6.82208731,16.2712336 5.66975698,15.3391794 L2.58561078,18.3551089 L3.9089845,18.2855071 C4.10180015,18.2779826 4.29767262,18.3438221 4.44487091,18.4910204 C4.7204562,18.7666057 4.7204562,19.2131385 4.44487091,19.4887238 C4.31671905,19.6171108 4.15094462,19.6829503 3.98305392,19.6918856 L0.823934173,19.8607169 C0.631118527,19.8682414 0.435481189,19.8021668 0.288282904,19.6549685 C0.141084619,19.5077702 0.0750099889,19.3118977 0.0851210532,19.1193172 L0.248779211,15.9599623 C0.26006598,15.7920716 0.32614061,15.6265324 0.454527613,15.4981454 C0.72987776,15.2227952 1.17664572,15.2227952 1.45199587,15.4981454 C1.59919415,15.6453436 1.66526878,15.8412161 1.65515772,16.0340318 L1.58814252,17.3574055 L4.67130445,14.342443 C3.72899643,13.1817228 3.1640073,11.7002319 3.1640073,10.0863388 C3.1640073,8.43920914 3.75244324,6.93001555 4.72984214,5.75895604 L1.51383796,2.61711968 L1.5834397,3.9404934 C1.59096422,4.13330904 1.52488959,4.32918152 1.3776913,4.47637981 C1.10234115,4.75172996 0.655573195,4.75172996 0.379987906,4.47637981 C0.251836044,4.3479928 0.185761415,4.18245352 0.177061196,4.01456282 L0.00822993609,0.855443071 C0.000705423093,0.662627425 0.0665449118,0.466754947 0.213743197,0.319556661 C0.360941483,0.172358376 0.556813961,0.106518887 0.749629607,0.116629951 L3.90874936,0.280288109 C4.07664006,0.291574878 4.24217934,0.357649508 4.37056634,0.48580137 C4.64615163,0.761386659 4.64615163,1.20791948 4.37056634,1.48350476 C4.22336806,1.63070305 4.02749558,1.69654254 3.83467993,1.68666662 L2.51130621,1.61941628 L5.74216622,4.77556081 C6.88318553,3.87824198 8.32066675,3.34328572 9.88264122,3.34328572 C11.4840659,3.34328572 12.954592,3.90560563 14.1089212,4.84424128 L17.3261317,1.61941628 L16.002758,1.68901803 C15.8099424,1.69654254 15.6140699,1.63070305 15.4668716,1.48350476 C15.1912863,1.20791948 15.1912863,0.761386659 15.4668716,0.48580137 C15.5950235,0.357649508 15.7607979,0.291574878 15.9286886,0.282639519 L19.0875732,0.1140434 C19.2803888,0.106518887 19.4762613,0.172358376 19.6234596,0.319556661 C19.7706579,0.466754947 19.8367325,0.662627425 19.8266215,0.85520793 L19.6629633,4.01456282 C19.6516765,4.18245352 19.5856019,4.3479928 19.4572149,4.47637981 C19.1818647,4.75172996 18.7350968,4.75172996 18.4597466,4.47637981 C18.3125484,4.32918152 18.2464737,4.13330904 18.2565848,3.9404934 L18.3236,2.61711968 L15.1047793,5.84355911 Z M10.305843,5.36499601 L10.305843,5.939237 C10.6835457,5.97831257 11.0077141,6.05625134 11.2777133,6.17305332 C11.5479242,6.29006766 11.7836446,6.4673943 11.9848744,6.70482086 C12.1437846,6.88554537 12.2665116,7.07157907 12.3530552,7.26292194 C12.4395989,7.45426482 12.4827649,7.62968015 12.4827649,7.78916794 C12.4827649,7.96649457 12.4184391,8.11982371 12.2895758,8.24915536 C12.1607125,8.378487 12.0043414,8.44304664 11.8206742,8.44304664 C11.4747112,8.44304664 11.2504172,8.25531401 11.1480037,7.87963638 C11.0314131,7.43663834 10.7508339,7.14250972 10.305843,6.99725054 L10.305843,9.2086305 C10.7436396,9.32925509 11.0923533,9.43904894 11.3519843,9.53822444 C11.6114036,9.63739994 11.8437384,9.78096018 12.0485655,9.96890518 C12.267358,10.1638583 12.4360017,10.3968251 12.5542851,10.6680181 C12.6725684,10.9389987 12.7318159,11.2358881 12.7318159,11.5584739 C12.7318159,11.9623964 12.6374432,12.3408348 12.448486,12.6933644 C12.2595288,13.0461063 11.9814888,13.3340763 11.6141544,13.5572743 C11.24682,13.7804722 10.8107162,13.9134141 10.305843,13.9558875 L10.305843,14.6426832 C10.305843,14.8516525 10.2855295,15.0041322 10.2449027,15.0996974 C10.2042758,15.1954751 10.115193,15.2432577 9.97744261,15.2432577 C9.85027211,15.2432577 9.76118928,15.2043945 9.70998252,15.1264557 C9.65877577,15.0485169 9.63317239,14.9278924 9.63317239,14.7650067 L9.63317239,13.9667183 C9.21992117,13.9206346 8.8589347,13.823158 8.54978978,13.6742886 C8.24085646,13.5254192 7.98312989,13.340235 7.77661008,13.1187359 C7.56987867,12.8972369 7.41731639,12.6668185 7.31828845,12.427693 C7.21947211,12.1883551 7.16995814,11.9534769 7.16995814,11.7232709 C7.16995814,11.5531647 7.23618836,11.3998356 7.36864882,11.2632834 C7.50110927,11.1269437 7.66615584,11.0587738 7.86400012,11.0587738 C8.02291035,11.0587738 8.15706358,11.0959381 8.26645984,11.1702666 C8.37585609,11.2448075 8.45181983,11.3492922 8.49435106,11.483933 C8.58957024,11.7746637 8.67251672,11.9970122 8.7431905,12.1511908 C8.81386429,12.3053694 8.92072137,12.4461689 9.06376173,12.5738016 C9.20680209,12.7014343 9.39639404,12.7989109 9.63317239,12.8662313 L9.63317239,10.3942767 C9.15982729,10.2630338 8.76435032,10.1169251 8.44652987,9.95552605 C8.12870943,9.79433932 7.87098286,9.56477034 7.67313858,9.26724385 C7.47550589,8.969505 7.37668955,8.58660688 7.37668955,8.11876188 C7.37668955,7.50926793 7.56987867,7.00956784 7.95668012,6.6196616 C8.34326997,6.22975537 8.90210073,6.00294717 9.63317239,5.939237 L9.63317239,5.37561437 C9.63317239,5.07808788 9.74426143,4.92921846 9.9668627,4.92921846 C10.1928495,4.92921846 10.305843,5.07447764 10.305843,5.36499601 Z M10.305843,10.5909288 L10.305843,12.9193231 C10.6623859,12.8483924 10.9378867,12.7050446 11.1321338,12.4888547 C11.3263809,12.2726649 11.4235045,12.0210097 11.4235045,11.7338892 C11.4235045,11.425532 11.3289201,11.187256 11.1401745,11.0188488 C10.9512174,10.8504416 10.6731774,10.7077308 10.305843,10.5909288 Z M9.63317239,9.01197844 L9.63317239,6.97580145 C9.33651176,7.06457095 9.10523497,7.18137293 8.93913041,7.32663211 C8.77323744,7.47210366 8.69029096,7.69190375 8.69029096,7.98603236 C8.69029096,8.26593237 8.76794749,8.4776625 8.92326054,8.62122274 C9.0787852,8.76478299 9.31535194,8.8949641 9.63317239,9.01197844 Z"></path>
        </g>
    </g>
</svg>