<svg id="Layer_1" data-name="Layer 1" xmlns="http://www.w3.org/2000/svg" viewBox="0 0 20 20"><title>betaFEC_icons</title><path d="M19.47,15.51a0.71,0.71,0,0,0-1,0,0.71,0.71,0,0,0-.21.54l0.07,1.32-3.16-3a6.76,6.76,0,0,0,0-8.5l3.22-3.23L18.34,4a0.7,0.7,0,0,0,1.2.54A0.72,0.72,0,0,0,19.75,4l0.16-3.16a0.7,0.7,0,0,0-.2-0.54A0.71,0.71,0,0,0,19.17.13L16,0.3a0.7,0.7,0,0,0-.46,1.2,0.71,0.71,0,0,0,.54.21l1.32-.07L14.19,4.86a6.7,6.7,0,0,0-8.37-.07L2.59,1.63,3.92,1.7A0.7,0.7,0,0,0,4.45.5,0.72,0.72,0,0,0,4,.29L0.83,0.13A0.7,0.7,0,0,0,.3.33,0.71,0.71,0,0,0,.09.87L0.26,4a0.7,0.7,0,0,0,1.2.46A0.71,0.71,0,0,0,1.67,4L1.6,2.63,4.81,5.77a6.76,6.76,0,0,0-.06,8.58l-3.08,3L1.74,16a0.7,0.7,0,0,0-1.2-.54A0.72,0.72,0,0,0,.33,16L0.17,19.13a0.7,0.7,0,0,0,.2.54,0.71,0.71,0,0,0,.54.21l3.16-.17a0.7,0.7,0,0,0,.46-1.2A0.71,0.71,0,0,0,4,18.3l-1.32.07,3.08-3a6.7,6.7,0,0,0,8.43,0l3.16,3L16,18.3a0.7,0.7,0,0,0-.54,1.2,0.72,0.72,0,0,0,.46.21l3.16,0.16a0.7,0.7,0,0,0,.54-0.2,0.71,0.71,0,0,0,.21-0.54L19.67,16A0.7,0.7,0,0,0,19.47,15.51Zm-6.93-2.8a2.24,2.24,0,0,1-.83.86,3,3,0,0,1-1.31.4v0.69a1.25,1.25,0,0,1-.06.46,0.26,0.26,0,0,1-.27.14,0.3,0.3,0,0,1-.27-0.12,0.67,0.67,0,0,1-.08-0.36V14a3.34,3.34,0,0,1-1.08-.29,2.56,2.56,0,0,1-.77-0.56,2.32,2.32,0,0,1-.46-0.69,1.84,1.84,0,0,1-.15-0.7,0.65,0.65,0,0,1,.2-0.46,0.66,0.66,0,0,1,.5-0.2,0.7,0.7,0,0,1,.4.11,0.58,0.58,0,0,1,.23.31,6.7,6.7,0,0,0,.25.67,1.28,1.28,0,0,0,.32.42,1.43,1.43,0,0,0,.57.29V10.41A6.47,6.47,0,0,1,8.53,10a2,2,0,0,1-.77-0.69,2,2,0,0,1-.3-1.15A2,2,0,0,1,8,6.63,2.59,2.59,0,0,1,9.72,6V5.39q0-.45.33-0.45a0.35,0.35,0,0,1,.34.44V6a3.31,3.31,0,0,1,1,.23,1.92,1.92,0,0,1,.71.53,2.26,2.26,0,0,1,.37.56,1.29,1.29,0,0,1,.13.53,0.63,0.63,0,0,1-.19.46,0.64,0.64,0,0,1-.47.19,0.66,0.66,0,0,1-.67-0.56A1.2,1.2,0,0,0,10.39,7V9.22q0.66,0.18,1,.33a2.17,2.17,0,0,1,.7.43,2,2,0,0,1,.51.7,2.2,2.2,0,0,1,.18.89A2.37,2.37,0,0,1,12.53,12.71Z"/><path d="M10.39,10.6v2.33a1.45,1.45,0,0,0,.83-0.43,1.09,1.09,0,0,0,.29-0.75A0.91,0.91,0,0,0,11.22,11,2.3,2.3,0,0,0,10.39,10.6Z"/><path d="M8.77,8A0.82,0.82,0,0,0,9,8.63,2.14,2.14,0,0,0,9.72,9V7A1.85,1.85,0,0,0,9,7.34,0.83,0.83,0,0,0,8.77,8Z"/></svg>