<?xml version="1.0" encoding="UTF-8" standalone="no"?>
<svg width="16px" height="20px" viewBox="0 0 16 20" version="1.1" xmlns="http://www.w3.org/2000/svg" xmlns:xlink="http://www.w3.org/1999/xlink">
    <!-- Generator: Sketch 39.1 (31720) - http://www.bohemiancoding.com/sketch -->
    <title>document</title>
    <desc>Created with Sketch.</desc>
    <defs></defs>
    <g id="Page-1" stroke="none" stroke-width="1" fill="none" fill-rule="evenodd">
        <g id="document" fill="#000000">
            <path d="M5.75095527e-14,0.494384766 C5.7509478e-14,0.221343599 0.229724944,6.77700402e-18 0.502175332,1.44956626e-17 C0.502175332,1.44956626e-17 10.02642,3.07485607e-16 12.0543823,0 C13,1 14.9999998,2.50592041 15.9999998,3.5 C15.9999998,6.50405979 16.0000002,19.4990698 16.0000002,19.4990698 C16.0000002,19.7757259 15.7738192,20 15.503607,20 L0.496393211,20 C0.222242811,20 5.7514826e-14,19.7753906 5.75147523e-14,19.5056152 L5.75095527e-14,0.494384766 Z M2,2 L2,18 L14,18 L14,4.5 L11.5,4.5 L11.5,2 L2,2 Z M12.25,12.5 C12.5261424,12.5 12.75,12.2761424 12.75,12 C12.75,11.7238576 12.5261424,11.5 12.25,11.5 L3.7,11.5 C3.42385763,11.5 3.2,11.7238576 3.2,12 C3.2,12.2761424 3.42385763,12.5 3.7,12.5 L12.25,12.5 Z M12.25,10.5 C12.5261424,10.5 12.75,10.2761424 12.75,10 C12.75,9.72385763 12.5261424,9.5 12.25,9.5 L3.7,9.5 C3.42385763,9.5 3.2,9.72385763 3.2,10 C3.2,10.2761424 3.42385763,10.5 3.7,10.5 L12.25,10.5 Z M12.25,14.5 C12.5261424,14.5 12.75,14.2761424 12.75,14 C12.75,13.7238576 12.5261424,13.5 12.25,13.5 L3.7,13.5 C3.42385763,13.5 3.2,13.7238576 3.2,14 C3.2,14.2761424 3.42385763,14.5 3.7,14.5 L12.25,14.5 Z M12.25,16.5 C12.5261424,16.5 12.75,16.2761424 12.75,16 C12.75,15.7238576 12.5261424,15.5 12.25,15.5 L3.7,15.5 C3.42385763,15.5 3.2,15.7238576 3.2,16 C3.2,16.2761424 3.42385763,16.5 3.7,16.5 L12.25,16.5 Z"></path>
        </g>
    </g>
</svg>