<?xml version="1.0" encoding="UTF-8" standalone="no"?>
<svg width="20px" height="18px" viewBox="0 0 20 18" version="1.1" xmlns="http://www.w3.org/2000/svg" xmlns:xlink="http://www.w3.org/1999/xlink">
    <!-- Generator: Sketch 39.1 (31720) - http://www.bohemiancoding.com/sketch -->
    <title>file-box</title>
    <desc>Created with Sketch.</desc>
    <defs></defs>
    <g id="Page-1" stroke="none" stroke-width="1" fill="none" fill-rule="evenodd">
        <g id="file-box" fill="#000000">
            <path d="M18.3333333,6.50535301 L18.3333333,17.1119406 C18.3333333,17.580549 17.9618584,17.9604311 17.5011285,17.9604311 L2.49887151,17.9604311 C2.03925747,17.9604311 1.66666667,17.5820143 1.66666667,17.1119406 L1.66666667,6.50535301 L18.3333333,6.50535301 Z M0,2.13260957 C0,1.03290634 0.898212381,0.141420718 1.99079514,0.141420718 L18.0092049,0.141420718 C19.1086907,0.141420718 20,1.02756643 20,2.13260957 L20,3.66563985 C20,4.76534309 19.1017876,5.6568287 18.0092049,5.6568287 L1.99079514,5.6568287 C0.891309342,5.6568287 0,4.77068299 0,3.66563985 L0,2.13260957 Z M6.25,10.154011 C6.25,9.77910742 6.54863711,9.47518808 6.91557498,9.47518808 L13.084425,9.47518808 C13.4520119,9.47518808 13.75,9.77719501 13.75,10.154011 L13.75,11.3419381 C13.75,11.7168417 13.4513629,12.020761 13.084425,12.020761 L6.91557498,12.020761 C6.54798807,12.020761 6.25,11.7187541 6.25,11.3419381 L6.25,10.154011 Z"></path>
        </g>
    </g>
</svg>