<?xml version="1.0" encoding="utf-8"?>
<!-- Generator: Adobe Illustrator 19.1.0, SVG Export Plug-In . SVG Version: 6.00 Build 0)  -->
<svg version="1.1" id="Layer_1" xmlns="http://www.w3.org/2000/svg" xmlns:xlink="http://www.w3.org/1999/xlink" x="0px" y="0px"
	 viewBox="-745.5 592.9 25.3 20" style="enable-background:new -745.5 592.9 25.3 20;" xml:space="preserve">
<g>
	<polygon points="-720.6,596.5 -720.1,596.5 -720.1,596.5 -720.1,596.5 -720.1,595 -736.8,595 -738.7,592.9 -745.4,592.9 
		-745.4,596.5 -744.8,596.5 	"/>
	<path d="M-720.1,598.4L-720.1,598.4h-0.6h-24.2h-0.6v14.5h4.2l-1.3-6.7c0-0.1,0-0.2,0-0.3c0-0.9,0.7-1.6,1.5-1.7
		c0.6,0.5,1.4,0.8,2.3,0.8c0.9,0,1.7-0.3,2.3-0.8c0.9,0.1,1.6,0.8,1.6,1.7c0,0.1,0,0.2,0,0.3l-1.3,6.7h16.1V598.4L-720.1,598.4z
		 M-738.7,603.7c-1.1,0-2-0.9-2-2s0.9-2,2-2c1.1,0,2,0.9,2,2S-737.6,603.7-738.7,603.7z M-724.2,609.1h-7.7c-0.3,0-0.6-0.3-0.6-0.6
		s0.3-0.6,0.6-0.6h7.7c0.3,0,0.6,0.3,0.6,0.6S-723.8,609.1-724.2,609.1z M-724.2,606.1h-7.7c-0.3,0-0.6-0.3-0.6-0.6s0.3-0.6,0.6-0.6
		h7.7c0.3,0,0.6,0.3,0.6,0.6S-723.8,606.1-724.2,606.1z M-724.2,603.1h-7.7c-0.3,0-0.6-0.3-0.6-0.6s0.3-0.6,0.6-0.6h7.7
		c0.3,0,0.6,0.3,0.6,0.6S-723.8,603.1-724.2,603.1z"/>
</g>
</svg>
