<?xml version="1.0" encoding="UTF-8" standalone="no"?>
<svg width="23px" height="20px" viewBox="0 0 23 20" version="1.1" xmlns="http://www.w3.org/2000/svg" xmlns:xlink="http://www.w3.org/1999/xlink">
    <!-- Generator: Sketch 3.7.2 (28276) - http://www.bohemiancoding.com/sketch -->
    <title>folder-with-person</title>
    <desc>Created with Sketch.</desc>
    <defs></defs>
    <g id="Page-1" stroke="none" stroke-width="1" fill="none" fill-rule="evenodd">
        <g id="folder-with-person" fill="#000000">
            <path d="M8.27176509,20 L24.3292866,20 L24.3292866,2.08928213 L7.58251152,2.08928213 L5.73977336,0 L-0.996826643,0.0141311049 L-0.996826643,3.61756285 L-1,3.61756285 L-1,5.50866839 L-0.996826643,5.50866839 L-0.996826643,20 L3.21628108,20 L1.89982397,13.3353167 C1.881581,13.2320781 1.87702026,13.1275956 1.87702026,13.0189671 C1.87702026,12.1225964 2.55000272,11.3813636 3.41937274,11.2828928 C4.04856959,11.7870664 4.84713373,12.088621 5.7161297,12.088621 C6.58794707,12.088621 7.38887451,11.7851051 8.0190098,11.2779756 C8.9123663,11.3532472 9.61120784,12.1059306 9.61120784,13.0189671 C9.61120784,13.1275956 9.59959868,13.2320781 9.58135572,13.3353167 L8.27176509,20 Z M12.5939282,10.2058543 L20.2523772,10.2058543 C20.5803947,10.2058543 20.8463054,9.93591461 20.8463054,9.60292714 C20.8463054,9.26993968 20.5803947,9 20.2523772,9 L12.5939282,9 C12.2659107,9 12,9.26993968 12,9.60292714 C12,9.93591461 12.2659107,10.2058543 12.5939282,10.2058543 Z M12.5939282,13.2058543 L20.2523772,13.2058543 C20.5803947,13.2058543 20.8463054,12.9359146 20.8463054,12.6029271 C20.8463054,12.2699397 20.5803947,12 20.2523772,12 L12.5939282,12 C12.2659107,12 12,12.2699397 12,12.6029271 C12,12.9359146 12.2659107,13.2058543 12.5939282,13.2058543 Z M12.5939282,16.2058543 L20.2523772,16.2058543 C20.5803947,16.2058543 20.8463054,15.9359146 20.8463054,15.6029271 C20.8463054,15.2699397 20.5803947,15 20.2523772,15 L12.5939282,15 C12.2659107,15 12,15.2699397 12,15.6029271 C12,15.9359146 12.2659107,16.2058543 12.5939282,16.2058543 Z M-0.996826643,3.61756285 L-0.996826643,5.50866839 L-0.427767906,5.50866839 L23.7538812,5.50866839 L24.3261133,5.50866839 L24.3261133,3.61756285 L23.7538812,3.61756285 L-0.427767906,3.61756285 L-0.996826643,3.61756285 Z M5.7161297,10.7986843 C6.84393979,10.7986843 7.75821051,9.88441358 7.75821051,8.75660349 C7.75821051,7.62879339 6.84393979,6.71452267 5.7161297,6.71452267 C4.58831961,6.71452267 3.67404888,7.62879339 3.67404888,8.75660349 C3.67404888,9.88441358 4.58831961,10.7986843 5.7161297,10.7986843 Z"></path>
        </g>
    </g>
</svg>