<?xml version="1.0" encoding="UTF-8" standalone="no"?>
<svg width="35px" height="35px" viewBox="0 0 35 35" version="1.1" xmlns="http://www.w3.org/2000/svg" xmlns:xlink="http://www.w3.org/1999/xlink">
    <!-- Generator: Sketch 3.7.2 (28276) - http://www.bohemiancoding.com/sketch -->
    <title>github-circle</title>
    <desc>Created with Sketch.</desc>
    <defs></defs>
    <g id="Page-1" stroke="none" stroke-width="1" fill="none" fill-rule="evenodd">
        <g id="github-circle" fill="#000000">
            <path d="M0,17.9434269 C0,25.8709188 5.01381258,32.5955733 11.967832,34.9682032 C12.8433961,35.1334281 13.1624666,34.5793739 13.1624666,34.1035261 C13.1624666,33.6783473 13.1474263,32.5493103 13.1388318,31.0523725 C8.27112557,32.136248 7.24408361,28.6466976 7.24408361,28.6466976 C6.44801866,26.5736755 5.3006538,26.0218243 5.3006538,26.0218243 C3.71174683,24.9093098 5.4209767,24.9313398 5.4209767,24.9313398 C7.17747629,25.0580122 8.10138433,26.7807574 8.10138433,26.7807574 C9.66235919,29.5223897 12.1977347,28.7304115 13.194696,28.2710862 C13.3536941,27.1123088 13.8059793,26.3214321 14.3055342,25.8731218 C10.4197489,25.4204055 6.33414162,23.8805092 6.33414162,17.0049493 C6.33414162,15.0464832 7.01632954,13.4438014 8.1357623,12.190295 C7.95527794,11.7364772 7.35473771,9.91129253 8.30765217,7.44173064 C8.30765217,7.44173064 9.77623623,6.95927386 13.1194942,9.28123481 C14.515025,8.88249199 16.0126155,8.68422208 17.5005372,8.67651159 C18.9873845,8.68422208 20.4839007,8.88249199 21.8815802,9.28123481 C25.2226895,6.95927386 26.6891249,7.44173064 26.6891249,7.44173064 C27.644188,9.91129253 27.0436477,11.7364772 26.8642377,12.190295 C27.9858191,13.4438014 28.6626354,15.0464832 28.6626354,17.0049493 C28.6626354,23.8981332 24.5705823,25.414898 20.6729795,25.8588023 C21.3003775,26.4128566 21.8600939,27.5077471 21.8600939,29.1820263 C21.8600939,31.5799908 21.8386077,33.5153254 21.8386077,34.1035261 C21.8386077,34.5837799 22.1544553,35.1422401 23.0418368,34.9671017 C29.9904847,32.5889643 35,25.8687158 35,17.9434269 C35,8.03323588 27.1639707,0 17.4983885,0 C7.83602934,0 0,8.03323588 0,17.9434269 Z"></path>
        </g>
    </g>
</svg>