<?xml version="1.0" encoding="utf-8"?>
<!-- Generator: Adobe Illustrator 19.1.0, SVG Export Plug-In . SVG Version: 6.00 Build 0)  -->
<svg version="1.1" id="Layer_1" xmlns="http://www.w3.org/2000/svg" xmlns:xlink="http://www.w3.org/1999/xlink" x="0px" y="0px"
	 viewBox="-822.2 703.7 20 20" style="enable-background:new -822.2 703.7 20 20;" xml:space="preserve">
<g id="Page-1">
	<g id="github-circle">
		<path d="M-822,713.9c0,4.5,2.9,8.4,6.8,9.7c0.5,0.1,0.7-0.2,0.7-0.5c0-0.2,0-0.9,0-1.7c-2.8,0.6-3.4-1.4-3.4-1.4
			c-0.5-1.2-1.1-1.5-1.1-1.5c-0.9-0.6,0.1-0.6,0.1-0.6c1,0.1,1.5,1.1,1.5,1.1c0.9,1.6,2.3,1.1,2.9,0.9c0.1-0.7,0.3-1.1,0.6-1.4
			c-2.2-0.3-4.6-1.1-4.6-5.1c0-1.1,0.4-2,1-2.8c-0.1-0.3-0.4-1.3,0.1-2.7c0,0,0.8-0.3,2.7,1.1c0.8-0.2,1.7-0.3,2.5-0.3
			s1.7,0.1,2.5,0.3c1.9-1.3,2.7-1.1,2.7-1.1c0.5,1.4,0.2,2.5,0.1,2.7c0.6,0.7,1,1.6,1,2.8c0,3.9-2.3,4.8-4.6,5.1
			c0.4,0.3,0.7,0.9,0.7,1.9c0,1.4,0,2.5,0,2.8s0.2,0.6,0.7,0.5c4-1.4,6.8-5.2,6.8-9.7c0-5.7-4.5-10.3-10-10.3
			C-817.5,703.6-822,708.2-822,713.9z"/>
	</g>
</g>
</svg>
