<?xml version="1.0" encoding="utf-8"?>
<!-- Generator: Adobe Illustrator 19.1.0, SVG Export Plug-In . SVG Version: 6.00 Build 0)  -->
<svg version="1.1" id="Layer_1" xmlns="http://www.w3.org/2000/svg" xmlns:xlink="http://www.w3.org/1999/xlink" x="0px" y="0px"
	 viewBox="-822.2 646.7 20 20" style="enable-background:new -822.2 646.7 20 20;" xml:space="preserve">
<path d="M-812.2,646.7c-5.5,0-10,4.5-10,10s4.5,10,10,10s10-4.5,10-10C-802.2,651.1-806.7,646.7-812.2,646.7z M-811,662.8
	c-0.4,0.1-1.8,0.3-2.4,0.3c-0.6,0-0.9-0.2-0.9-0.6c0-0.3,0.1-0.9,0.2-1.4l0.8-4.7c0.1-0.3,0.1-0.7,0.1-0.9c0-0.3-0.4-0.4-1.2-0.4
	l0.1-0.5c0.4-0.1,1.7-0.3,2.5-0.3c0.5,0,0.7,0.3,0.7,0.6c0,0.3-0.1,0.8-0.2,1.4l-0.8,4.8c-0.1,0.3-0.1,0.6-0.1,0.7
	c0,0.4,0.2,0.5,1.2,0.5L-811,662.8L-811,662.8z M-811.5,652.8c-0.8,0-1.2-0.6-1.2-1.2c0-0.9,0.7-1.4,1.3-1.4c0.7,0,1.2,0.6,1.2,1.2
	C-810.2,652.1-810.8,652.8-811.5,652.8z"/>
</svg>
