<?xml version="1.0" encoding="UTF-8" standalone="no"?>
<svg width="20px" height="20px" viewBox="0 0 20 20" version="1.1" xmlns="http://www.w3.org/2000/svg" xmlns:xlink="http://www.w3.org/1999/xlink">
    <!-- Generator: Sketch 3.7.1 (28215) - http://www.bohemiancoding.com/sketch -->
    <title>info</title>
    <desc>Created with Sketch.</desc>
    <defs></defs>
    <g id="Page-1" stroke="none" stroke-width="1" fill="none" fill-rule="evenodd">
        <g id="info" fill="#000000">
            <path d="M9.93853544,19.73978 C15.4613829,19.73978 19.9385354,15.2626275 19.9385354,9.73978 C19.9385354,4.21693249 15.4613829,-0.260220009 9.93853544,-0.260220009 C4.41568789,-0.260220009 -0.06146462,4.21693249 -0.06146462,9.73978 C-0.06146462,15.2626275 4.41568789,19.73978 9.93853544,19.73978 L9.93853544,19.73978 Z M11.906302,4.51950092 C11.906302,3.88780328 11.4340381,3.32629428 10.7168964,3.32629428 C10.0872111,3.32629428 9.3700695,3.81761466 9.3700695,4.67742533 C9.3700695,5.34421727 9.82484223,5.90572627 10.5944576,5.90572627 C11.3815642,5.90572627 11.906302,5.22138718 11.906302,4.51950092 L11.906302,4.51950092 Z M8.75787544,16.1532656 C9.40505202,16.1532656 10.7693702,15.9777941 11.1716691,15.8725111 L11.1716691,15.3460964 C10.1746674,15.3460964 9.99975482,15.2583607 9.99975482,14.854776 C9.99975482,14.7143989 10.0522285,14.3985501 10.1047024,14.1177956 L10.9267915,9.36251615 C11.0142478,8.81855426 11.1017041,8.32723387 11.1017041,7.99383789 C11.1017041,7.64289477 10.9442828,7.34459311 10.419545,7.34459311 C9.59745582,7.34459311 8.28561145,7.53761183 7.91829501,7.62534762 L7.81334746,8.1517623 C8.58296285,8.1517623 8.98526179,8.2745924 8.98526179,8.59044122 C8.98526179,8.78345994 8.91529676,9.13440307 8.86282298,9.45025189 L8.05822508,14.1353427 C7.97076879,14.6091159 7.88331249,15.1706248 7.88331249,15.5040209 C7.88331249,15.9777941 8.19815515,16.1532656 8.75787544,16.1532656 L8.75787544,16.1532656 Z" id="i-info--neutral"></path>
        </g>
    </g>
</svg>