<?xml version="1.0" encoding="UTF-8" standalone="no"?>
<svg width="20px" height="20px" viewBox="0 0 20 20" version="1.1" xmlns="http://www.w3.org/2000/svg" xmlns:xlink="http://www.w3.org/1999/xlink">
    <!-- Generator: Sketch 3.7.1 (28215) - http://www.bohemiancoding.com/sketch -->
    <title>info-circle</title>
    <desc>Created with Sketch.</desc>
    <defs></defs>
    <g id="Page-1" stroke="none" stroke-width="1" fill="none" fill-rule="evenodd">
        <g id="info-circle" fill="#000000">
            <path d="M10.0000001,20 C15.5228475,20 20,15.5228475 20,10 C20,4.4771525 15.5228475,0 10.0000001,0 C4.47715251,0 1.77635684e-15,4.4771525 1.77635684e-15,10 C1.77635684e-15,15.5228475 4.47715251,20 10.0000001,20 Z M8.81934006,16.4134856 C9.46651664,16.4134856 10.8308348,16.2380141 11.2331337,16.1327311 L11.2331337,15.6063164 C10.236132,15.6063164 10.0612194,15.5185807 10.0612194,15.114996 C10.0612194,14.9746189 10.1136932,14.6587701 10.166167,14.3780156 L10.9882561,9.62273616 C11.0757125,9.07877427 11.1631687,8.58745388 11.1631687,8.2540579 C11.1631687,7.90311478 11.0057474,7.60481312 10.4810097,7.60481312 C9.65892044,7.60481312 8.34707607,7.79783184 7.97975963,7.88556762 L7.87481208,8.41198231 C8.64442747,8.41198231 9.04672641,8.53481241 9.04672641,8.85066123 C9.04672641,9.04367995 8.97676138,9.39462308 8.9242876,9.71047189 L8.1196897,14.3955627 C8.03223341,14.8693359 7.94477711,15.4308449 7.94477711,15.7642409 C7.94477711,16.2380141 8.25961977,16.4134856 8.81934006,16.4134856 Z M11.9677666,4.77972093 C11.9677666,4.14802329 11.4955027,3.58651429 10.778361,3.58651429 C10.1486757,3.58651429 9.43153412,4.07783466 9.43153412,4.93764534 C9.43153412,5.60443728 9.88630685,6.16594628 10.6559222,6.16594628 C11.4430288,6.16594628 11.9677666,5.48160719 11.9677666,4.77972093 Z" id="Combined-Shape"></path>
        </g>
    </g>
</svg>