<?xml version="1.0" encoding="utf-8"?>
<!-- Generator: Adobe Illustrator 19.1.0, SVG Export Plug-In . SVG Version: 6.00 Build 0)  -->
<svg version="1.1" id="Layer_1" xmlns="http://www.w3.org/2000/svg" xmlns:xlink="http://www.w3.org/1999/xlink" x="0px" y="0px"
	 viewBox="-822.2 618.7 20 20" style="enable-background:new -822.2 618.7 20 20;" xml:space="preserve">
<g>
	<path d="M-812.2,618.7c-5.5,0-10,4.5-10,10s4.5,10,10,10s10-4.5,10-10S-806.7,618.7-812.2,618.7z M-812.2,636.8c-4.4,0-8-3.6-8-8
		c0-4.4,3.6-8,8-8s8,3.6,8,8C-804.2,633.2-807.8,636.8-812.2,636.8z"/>
	<path d="M-811.6,622.5c-0.6,0-1.2,0.4-1.2,1.2c0,0.6,0.4,1.1,1.1,1.1s1.2-0.6,1.2-1.2S-810.9,622.5-811.6,622.5z"/>
	<path d="M-812.2,632.8c0-0.1,0-0.4,0.1-0.7l0.7-4.2c0.1-0.5,0.2-0.9,0.2-1.2c0-0.3-0.1-0.6-0.6-0.6c-0.7,0-1.9,0.2-2.2,0.3
		l-0.1,0.5c0.7,0,1,0.1,1,0.4c0,0.2-0.1,0.5-0.1,0.8l-0.7,4.2c-0.1,0.4-0.2,0.9-0.2,1.2c0,0.4,0.3,0.6,0.8,0.6
		c0.6,0,1.8-0.2,2.2-0.3v-0.5C-812.1,633.3-812.2,633.2-812.2,632.8z"/>
</g>
</svg>
