<?xml version="1.0" encoding="UTF-8" standalone="no"?>
<svg width="20px" height="15px" viewBox="0 0 20 15" version="1.1" xmlns="http://www.w3.org/2000/svg" xmlns:xlink="http://www.w3.org/1999/xlink">
    <!-- Generator: Sketch 3.7.2 (28276) - http://www.bohemiancoding.com/sketch -->
    <title>list</title>
    <desc>Created with Sketch.</desc>
    <defs></defs>
    <g id="Page-1" stroke="none" stroke-width="1" fill="none" fill-rule="evenodd">
        <g id="list" fill="#000000">
            <path d="M4.28571429,0.999289921 C4.28571429,0.447397337 4.73906517,0 5.29261851,0 L18.9930958,0 C19.5491936,0 20,0.446428571 20,0.999289921 L20,1.85785294 C20,2.40974552 19.5466491,2.85714286 18.9930958,2.85714286 L5.29261851,2.85714286 C4.73652066,2.85714286 4.28571429,2.41071429 4.28571429,1.85785294 L4.28571429,0.999289921 Z M4.28571429,6.71357564 C4.28571429,6.16168305 4.73906517,5.71428571 5.29261851,5.71428571 L18.9930958,5.71428571 C19.5491936,5.71428571 20,6.16071429 20,6.71357564 L20,7.57213865 C20,8.12403123 19.5466491,8.57142857 18.9930958,8.57142857 L5.29261851,8.57142857 C4.73652066,8.57142857 4.28571429,8.125 4.28571429,7.57213865 L4.28571429,6.71357564 Z M4.28571429,12.4278613 C4.28571429,11.8759688 4.73906517,11.4285714 5.29261851,11.4285714 L18.9930958,11.4285714 C19.5491936,11.4285714 20,11.875 20,12.4278613 L20,13.2864244 C20,13.8383169 19.5466491,14.2857143 18.9930958,14.2857143 L5.29261851,14.2857143 C4.73652066,14.2857143 4.28571429,13.8392857 4.28571429,13.2864244 L4.28571429,12.4278613 Z M1.42857143,2.85714286 C2.21754964,2.85714286 2.85714286,2.21754964 2.85714286,1.42857143 C2.85714286,0.639593215 2.21754964,0 1.42857143,0 C0.639593215,0 0,0.639593215 0,1.42857143 C0,2.21754964 0.639593215,2.85714286 1.42857143,2.85714286 Z M1.42857143,8.57142857 C2.21754964,8.57142857 2.85714286,7.93183536 2.85714286,7.14285714 C2.85714286,6.35387893 2.21754964,5.71428571 1.42857143,5.71428571 C0.639593215,5.71428571 0,6.35387893 0,7.14285714 C0,7.93183536 0.639593215,8.57142857 1.42857143,8.57142857 Z M1.42857143,14.2857143 C2.21754964,14.2857143 2.85714286,13.6461211 2.85714286,12.8571429 C2.85714286,12.0681646 2.21754964,11.4285714 1.42857143,11.4285714 C0.639593215,11.4285714 0,12.0681646 0,12.8571429 C0,13.6461211 0.639593215,14.2857143 1.42857143,14.2857143 Z"></path>
        </g>
    </g>
</svg>