<?xml version="1.0" encoding="utf-8"?>
<!-- Generator: Adobe Illustrator 19.1.0, SVG Export Plug-In . SVG Version: 6.00 Build 0)  -->
<svg version="1.1" id="Layer_1" xmlns="http://www.w3.org/2000/svg" xmlns:xlink="http://www.w3.org/1999/xlink" x="0px" y="0px"
	 viewBox="-822.2 733 20 20" style="enable-background:new -822.2 733 20 20;" xml:space="preserve">
<path d="M-812.2,733c-5.5,0-10,4.5-10,10s4.5,10,10,10s10-4.5,10-10S-806.7,733-812.2,733z M-818.4,744.7h-1.5
	c-0.2,0-0.4-0.2-0.4-0.4c0-0.2,0.2-0.4,0.4-0.4h1.5c0.2,0,0.4,0.2,0.4,0.4C-818,744.5-818.2,744.7-818.4,744.7z M-818.4,743h-2.7
	c-0.2,0-0.4-0.2-0.4-0.4s0.2-0.4,0.4-0.4h2.7c0.2,0,0.4,0.2,0.4,0.4C-818,742.8-818.2,743-818.4,743z M-818.4,741.3h-1.5
	c-0.2,0-0.4-0.2-0.4-0.4s0.2-0.4,0.4-0.4h1.5c0.2,0,0.4,0.2,0.4,0.4C-818,741.1-818.2,741.3-818.4,741.3z M-817,740.1
	c0.2,0.2,0.4,0.3,0.7,0.6c1,0.8,2,1.6,2.7,2.3l-3.4,2.5L-817,740.1L-817,740.1z M-805.3,746.4H-817v-0.1l3.8-2.9
	c0.5,0.4,0.9,0.7,0.9,0.8c0.5,0.4,0.9,0.4,1.2,0.4c0.6,0,1-0.3,1.1-0.4l0.9-0.7l3.7,2.9H-805.3z M-805.2,745.4l-3.3-2.5l3.3-2.8
	V745.4z M-805.2,739.3L-805.2,739.3l-5.1,4.2c-0.2,0.2-0.4,0.2-0.7,0.2c-0.2,0-0.5-0.1-0.7-0.2c-0.3-0.2-4.3-3.4-5.2-4.2l0,0H-805.2
	L-805.2,739.3z"/>
</svg>
