<?xml version="1.0" encoding="UTF-8" standalone="no"?>
<svg width="35px" height="35px" viewBox="0 0 35 35" version="1.1" xmlns="http://www.w3.org/2000/svg" xmlns:xlink="http://www.w3.org/1999/xlink">
    <!-- Generator: Sketch 3.7.1 (28215) - http://www.bohemiancoding.com/sketch -->
    <title>moving-envelope-circle</title>
    <desc>Created with Sketch.</desc>
    <defs></defs>
    <g id="Page-1" stroke="none" stroke-width="1" fill="none" fill-rule="evenodd">
        <g id="moving-envelope-circle" fill="#000000">
            <path d="M17.5,35 C27.1649831,35 35,27.1649831 35,17.5 C35,7.83501688 27.1649831,0 17.5,0 C7.83501688,0 0,7.83501688 0,17.5 C0,27.1649831 7.83501688,35 17.5,35 Z M6.57132701,13 L3.89096076,13 C3.4767472,13 3.14096076,13.3357864 3.14096076,13.75 C3.14096076,14.1642136 3.4767472,14.5 3.89096076,14.5 L6.57132701,14.5 C6.98554057,14.5 7.32132701,14.1642136 7.32132701,13.75 C7.32132701,13.3357864 6.98554057,13 6.57132701,13 Z M6.57132701,16 L1.85946134,16 C1.44524778,16 1.10946134,16.3357864 1.10946134,16.75 C1.10946134,17.1642136 1.44524778,17.5 1.85946134,17.5 L6.57132701,17.5 C6.98554057,17.5 7.32132701,17.1642136 7.32132701,16.75 C7.32132701,16.3357864 6.98554057,16 6.57132701,16 Z M6.57132701,19 L3.89096076,19 C3.4767472,19 3.14096076,19.3357864 3.14096076,19.75 C3.14096076,20.1642136 3.4767472,20.5 3.89096076,20.5 L6.57132701,20.5 C6.98554057,20.5 7.32132701,20.1642136 7.32132701,19.75 C7.32132701,19.3357864 6.98554057,19 6.57132701,19 Z M15.9232327,18.0889297 C16.8120745,18.8204582 17.4215805,19.3164811 17.5751008,19.4281667 C18.4298835,20.051229 19.0950533,20.1351789 19.6331368,20.1351789 C20.630002,20.1351789 21.3088972,19.6817501 21.6240713,19.4115749 L23.1562241,18.1050263 L29.6521148,23.2267166 L29.6490647,23.479557 L9.24281262,23.479557 L9.23874586,23.2267166 L15.9232327,18.0889297 Z M9.17266097,21.7284946 L9.17266097,12.4932564 C9.50028953,12.7654127 9.89984895,13.097498 10.3382968,13.4615288 C12.0692126,14.8990789 13.7881823,16.3257329 15.1200471,17.4267403 L9.17266097,21.7284946 Z M23.9990607,17.3873656 L29.7181997,12.5130676 L29.7181997,21.6992731 L23.9990607,17.3873656 Z M29.7184539,11.0928522 L29.7184539,11.156991 L20.8221566,18.4177956 C20.4383558,18.7058009 20.04998,18.8454698 19.6351702,18.8454698 C19.2157853,18.8454698 18.7763208,18.6946571 18.3432106,18.4096235 C17.8402029,18.0416304 10.7561566,12.3776085 9.17266097,11.1104347 L9.17266097,11.0926046 L29.7184539,11.0926046 L29.7184539,11.0928522 Z"></path>
        </g>
    </g>
</svg>