<?xml version="1.0" encoding="UTF-8" standalone="no"?>
<svg width="19px" height="20px" viewBox="0 0 19 20" version="1.1" xmlns="http://www.w3.org/2000/svg" xmlns:xlink="http://www.w3.org/1999/xlink">
    <!-- Generator: Sketch 3.7.2 (28276) - http://www.bohemiancoding.com/sketch -->
    <title>papers</title>
    <desc>Created with Sketch.</desc>
    <defs></defs>
    <g id="Page-1" stroke="none" stroke-width="1" fill="none" fill-rule="evenodd">
        <g id="papers" fill="#000000">
            <g>
                <path d="M13.8125,7.4 L9.01741333,7.4 C8.70696533,7.4 8.5,7.60684234 8.5,7.91710585 L8.5,19.4485664 C8.5,19.7588299 8.70696533,19.9656722 9.01741333,19.9656722 L18.279112,19.9656722 C18.58956,19.9656722 18.7965254,19.7588299 18.7965254,19.4485664 L18.7965254,12.1123916 L14.3872542,12.1123916 L13.8125,12.1123916 L13.8125,11.5443992 L13.8125,7.4 Z M15.402359,7.42880743 C15.4707839,7.45416927 15.5296733,7.49627738 15.5885627,7.55513176 L18.6109469,10.5757199 L15.402359,10.57572 L15.402359,7.42880743 Z" id="Combined-Shape"></path>
                <path d="M0.517413318,12.9999998 C0.206965317,12.9999998 0,12.8102633 0,12.4999998 L0,0.567105852 C0,0.256842341 0.206965334,0.05 0.517413335,0.05 L6.72637335,0.05 C6.88159735,0.05 6.98508002,0.101710585 7.08856268,0.205131756 L10,3.00000005 C10.1034827,3.10342122 10.5,3.34486829 10.5,3.50000005 L10.5,12.4999998 C10.5,12.8102633 10.310448,12.9999998 10,12.9999998 L0.517413318,12.9999998 Z M8.5,4.33003064 L8.5,11.0955078 L2.00000002,11.0955083 L2.00000002,2.00000001 L6.375,2.00000001 L6.375,4.33003064 L8.5,4.33003064 Z" id="Combined-Shape-Copy-2"></path>
                <path d="M13,2 L18,2 L17,1 L17,6 C17,6.55228475 17.4477153,7 18,7 C18.5522847,7 19,6.55228475 19,6 L19,1 C19,0.44771525 18.5522847,0 18,0 L13,0 C12.4477153,0 12,0.44771525 12,1 C12,1.55228475 12.4477153,2 13,2" id="Path-169"></path>
            </g>
        </g>
    </g>
</svg>