<?xml version="1.0" encoding="UTF-8" standalone="no"?>
<svg width="20px" height="21px" viewBox="0 0 20 21" version="1.1" xmlns="http://www.w3.org/2000/svg" xmlns:xlink="http://www.w3.org/1999/xlink">
    <!-- Generator: Sketch 3.7.1 (28215) - http://www.bohemiancoding.com/sketch -->
    <title>piggy-bank</title>
    <desc>Created with Sketch.</desc>
    <defs></defs>
    <g id="Page-1" stroke="none" stroke-width="1" fill="none" fill-rule="evenodd">
        <g id="piggy-bank" fill="#000000">
            <path d="M17.5779841,9.35213682 C16.6793739,8.42624582 15.4672057,7.6825597 14.0585202,7.20886382 L13.2060971,8.96586599 C12.8409477,8.23100278 9.16615957,7.90298488 7.66808551,8.83160391 L7.18269473,7.11145996 C6.56124638,7.299671 5.97499868,7.53959616 5.43330826,7.82394951 C5.0156281,6.91537808 3.67092523,5.67037808 1.62431172,6.29258588 L2.90642997,9.86414432 C2.39573943,10.5085599 2.02754927,11.2236898 1.83382579,11.9857677 L0.400734166,11.9857677 C0.144233489,11.9857677 0.000192568076,12.0798586 0,12.304469 L0,16.1343391 C0,16.4890794 0.272291259,16.5580404 0.468903265,16.5580404 L2.87966301,16.5580404 C3.34952911,17.1592093 3.94206108,17.6994041 4.63222506,18.1593391 L4.63222506,20.9559625 L7.78475703,20.9559625 L7.78475703,19.5089495 C8.63032345,19.7119365 9.53096434,19.8221963 10.4662675,19.8221963 C11.4891891,19.8221963 12.470516,19.6899235 13.3836738,19.4489495 L13.3836738,20.9557677 L16.5363984,20.9557677 L16.5363984,17.995508 C18.2117406,16.7947287 19.2570002,15.1038196 19.2570002,13.2288196 C19.2570002,12.1066163 18.8832682,11.049898 18.2240646,10.1248635 C18.4403475,9.92854187 18.6050927,9.83005728 18.6528668,9.85132769 C18.9051355,9.96364492 19.2006907,9.8501919 19.3130079,9.59792329 C19.4253251,9.34565467 19.3118721,9.05009946 19.0596035,8.93778224 C18.5859119,8.72688117 18.0818017,8.91083864 17.5779841,9.35213682 Z M3.68286445,12.375 C4.02186276,12.375 4.29667519,12.095178 4.29667519,11.75 C4.29667519,11.404822 4.02186276,11.125 3.68286445,11.125 C3.34386614,11.125 3.06905371,11.404822 3.06905371,11.75 C3.06905371,12.095178 3.34386614,12.375 3.68286445,12.375 Z M10.6521739,7.4375 C12.6932262,7.4375 14.3478261,5.77255891 14.3478261,3.71875 C14.3478261,1.66494109 12.6932262,0 10.6521739,0 C8.61112158,0 6.95652174,1.66494109 6.95652174,3.71875 C6.95652174,5.77255891 8.61112158,7.4375 10.6521739,7.4375 Z M10.8225364,1.10372445 L10.8225364,1.40512353 C11.0159926,1.42563293 11.1818276,1.46654028 11.3201499,1.52784556 C11.4584721,1.58926231 11.5791385,1.68233488 11.6821491,1.80695181 C11.763496,1.90180781 11.8263205,1.99945041 11.8706226,2.09987961 C11.9149247,2.20030882 11.9370216,2.29237821 11.9370216,2.37608779 C11.9370216,2.46916036 11.9039846,2.54963748 11.8380189,2.61751915 C11.7720531,2.68540082 11.6921144,2.71928593 11.5980942,2.71928593 C11.4208858,2.71928593 11.3061769,2.62075161 11.2537509,2.42357152 C11.1940676,2.19105729 11.0503294,2.03667944 10.8225364,1.96043795 L10.8225364,3.12111421 C11.0467549,3.18442585 11.2252632,3.24205282 11.3580612,3.29410658 C11.4909676,3.34616034 11.6097926,3.42151011 11.7146445,3.52015589 C11.8267538,3.62247999 11.9130833,3.74475616 11.9736332,3.88709589 C12.034183,4.02932416 12.0645121,4.18515105 12.0645121,4.3544651 C12.0645121,4.56646992 12.0160939,4.76509905 11.9193658,4.95012955 C11.8226377,5.13527151 11.6803077,5.28641691 11.4923757,5.40356574 C11.3043355,5.52071456 11.0810918,5.59049113 10.8225364,5.61278396 L10.8225364,5.97325904 C10.8225364,6.08293977 10.8121379,6.16297103 10.7914491,6.2131299 C10.770652,6.26340024 10.7249418,6.28847967 10.6544267,6.28847967 C10.5894358,6.28847967 10.5437256,6.26808173 10.5175126,6.22717439 C10.4912996,6.18626704 10.4781931,6.1229554 10.4781931,6.03746239 L10.4781931,5.61846863 C10.2667561,5.59428091 10.0818571,5.54311886 9.92371259,5.46498249 C9.76556812,5.38684611 9.63363664,5.28964937 9.52780983,5.17339225 C9.42209134,5.05713514 9.34388565,4.93619653 9.29330108,4.81068789 C9.24271652,4.68506779 9.21737007,4.56178843 9.21737007,4.44096128 C9.21737007,4.35167849 9.25127365,4.27120137 9.3190808,4.19952992 C9.38688795,4.12796993 9.47137609,4.09218994 9.57254522,4.09218994 C9.65389213,4.09218994 9.72256582,4.11169617 9.77867462,4.15070862 C9.83467509,4.18983254 9.8735613,4.2446729 9.89522492,4.31534118 C9.9440764,4.46793561 9.9865371,4.58463858 10.0227154,4.66556156 C10.0588936,4.74648454 10.1134859,4.82038527 10.186709,4.88737523 C10.2599321,4.95436519 10.3570934,5.00552723 10.4781931,5.04086137 L10.4781931,3.74341859 C10.2359938,3.67453375 10.0335472,3.59784641 9.87085334,3.51313365 C9.70815951,3.42853235 9.57622803,3.3080396 9.47495058,3.15187832 C9.37378145,2.99560557 9.32308857,2.7946357 9.32308857,2.54908016 C9.32308857,2.22917803 9.42209134,1.96690287 9.61998856,1.76225468 C9.8179941,1.55760649 10.1040623,1.43856277 10.4781931,1.40512353 L10.4781931,1.10929766 C10.4781931,0.953136373 10.5351684,0.875 10.6490108,0.875 C10.7646945,0.875 10.8225364,0.951241483 10.8225364,1.10372445 Z M10.4781931,3.0178984 L10.4781931,1.94918007 C10.3263311,1.99577209 10.2079394,2.05707738 10.1230179,2.13331886 C10.0380965,2.20967181 9.99552751,2.32503721 9.99552751,2.47941506 C9.99552751,2.62632482 10.0353886,2.73745459 10.1148941,2.81280435 C10.1943996,2.88815412 10.3154993,2.95648165 10.4781931,3.0178984 Z M10.8225364,3.8466344 L10.8225364,5.06872741 C11.0051608,5.03149838 11.146191,4.95626008 11.245627,4.84278957 C11.3449547,4.72931906 11.3946728,4.59723403 11.3946728,4.44653449 C11.3946728,4.28468854 11.3463629,4.15962575 11.2496348,4.07123468 C11.1529067,3.9828436 11.0105767,3.90793969 10.8225364,3.8466344 Z"></path>
        </g>
    </g>
</svg>