<svg id="Layer_1" data-name="Layer 1" xmlns="http://www.w3.org/2000/svg" viewBox="0 0 20 21.08"><title>betaFEC_icons</title><path d="M19.63,9.6a0.5,0.5,0,0,0-.25-0.66,1.38,1.38,0,0,0-1.48.41,8.8,8.8,0,0,0-3.52-2.14L13.53,9C13.16,8.23,9.49,7.9,8,8.83L7.5,7.11a10,10,0,0,0-1.75.71A3.09,3.09,0,0,0,1.95,6.29L3.23,9.86A5.67,5.67,0,0,0,2.16,12H0.72a0.32,0.32,0,0,0-.4.32v3.83a0.41,0.41,0,0,0,.47.42H3.2A7.47,7.47,0,0,0,5,18.16V21H8.11V19.51a11.61,11.61,0,0,0,5.6-.06V21h3.15V18a5.94,5.94,0,0,0,2.72-4.77,5.32,5.32,0,0,0-1-3.1A0.82,0.82,0,0,1,19,9.85,0.5,0.5,0,0,0,19.63,9.6ZM4,12.37a0.63,0.63,0,1,1,.61-0.62A0.62,0.62,0,0,1,4,12.37Z"/><path d="M11,0a3.72,3.72,0,1,0,3.7,3.72A3.71,3.71,0,0,0,11,0Zm1.27,5a1.17,1.17,0,0,1-.43.45,1.49,1.49,0,0,1-.67.21V6a0.68,0.68,0,0,1,0,.24,0.13,0.13,0,0,1-.14.08,0.15,0.15,0,0,1-.14-0.06,0.36,0.36,0,0,1,0-.19V5.62a1.68,1.68,0,0,1-.55-0.15,1.32,1.32,0,0,1-.4-0.29,1.22,1.22,0,0,1-.23-0.36,1,1,0,0,1-.08-0.37,0.34,0.34,0,0,1,.1-0.24,0.33,0.33,0,0,1,.25-0.11,0.35,0.35,0,0,1,.21.06,0.3,0.3,0,0,1,.12.16,3.6,3.6,0,0,0,.13.35,0.67,0.67,0,0,0,.16.22A0.73,0.73,0,0,0,10.8,5V3.74a3.26,3.26,0,0,1-.61-0.23,1,1,0,0,1-.4-0.36,1.09,1.09,0,0,1-.15-0.6,1.09,1.09,0,0,1,.3-0.79,1.31,1.31,0,0,1,.86-0.36V1.11q0-.23.17-0.23T11.14,1.1v0.3a1.66,1.66,0,0,1,.5.12,1,1,0,0,1,.36.28,1.19,1.19,0,0,1,.19.29,0.69,0.69,0,0,1,.07.28,0.33,0.33,0,0,1-.1.24,0.32,0.32,0,0,1-.24.1,0.34,0.34,0,0,1-.34-0.3A0.62,0.62,0,0,0,11.14,2V3.12l0.54,0.17a1.1,1.1,0,0,1,.36.23,1,1,0,0,1,.26.37,1.18,1.18,0,0,1,.09.47A1.27,1.27,0,0,1,12.24,5Z"/><path d="M10.32,2.48a0.44,0.44,0,0,0,.12.33A1.09,1.09,0,0,0,10.8,3V1.95a0.94,0.94,0,0,0-.36.18A0.44,0.44,0,0,0,10.32,2.48Z"/><path d="M11.14,3.85V5.07a0.74,0.74,0,0,0,.42-0.23,0.58,0.58,0,0,0,.15-0.4,0.48,0.48,0,0,0-.15-0.38A1.17,1.17,0,0,0,11.14,3.85Z"/></svg>