<?xml version="1.0" encoding="UTF-8" standalone="no"?>
<svg width="16px" height="16px" viewBox="0 0 16 16" version="1.1" xmlns="http://www.w3.org/2000/svg" xmlns:xlink="http://www.w3.org/1999/xlink">
    <!-- Generator: Sketch 3.7.2 (28276) - http://www.bohemiancoding.com/sketch -->
    <title>plus</title>
    <desc>Created with Sketch.</desc>
    <defs></defs>
    <g id="Page-1" stroke="none" stroke-width="1" fill="none" fill-rule="evenodd">
        <g id="plus" transform="translate(-2.000000, -2.000000)" fill="#000000">
            <path d="M15.3758806,5.67934426 L11.4753134,9.57377049 L15.3758806,13.4685246 C15.5538507,13.6465574 15.6641791,13.892459 15.6641791,14.1639344 C15.6641791,14.7072131 15.223194,15.147541 14.6791045,15.147541 C14.4072239,15.147541 14.1609552,15.037377 13.9826567,14.8596721 L10.0820896,10.964918 L6.18152239,14.8596721 C6.00322388,15.037377 5.75695522,15.147541 5.48507463,15.147541 C4.94098507,15.147541 4.5,14.7072131 4.5,14.1639344 C4.5,13.892459 4.61032836,13.6465574 4.78862687,13.4685246 L8.68886567,9.57377049 L4.78862687,5.67934426 C4.61032836,5.50131148 4.5,5.25508197 4.5,4.98360656 C4.5,4.44032787 4.94098507,4 5.48507463,4 C5.75695522,4 6.00322388,4.11016393 6.18152239,4.28819672 L10.0820896,8.18295082 L13.9826567,4.28819672 C14.1609552,4.11016393 14.4072239,4 14.6791045,4 C15.223194,4 15.6641791,4.44032787 15.6641791,4.98360656 C15.6641791,5.25508197 15.5538507,5.50131148 15.3758806,5.67934426" transform="translate(10.082090, 9.573770) rotate(-315.000000) translate(-10.082090, -9.573770) "></path>
        </g>
    </g>
</svg>