<?xml version="1.0" encoding="UTF-8" standalone="no"?>
<svg width="20px" height="20px" viewBox="0 0 20 20" version="1.1" xmlns="http://www.w3.org/2000/svg" xmlns:xlink="http://www.w3.org/1999/xlink">
    <!-- Generator: Sketch 3.7.2 (28276) - http://www.bohemiancoding.com/sketch -->
    <title>point-down-circle</title>
    <desc>Created with Sketch.</desc>
    <defs></defs>
    <g id="Page-1" stroke="none" stroke-width="1" fill="none" fill-rule="evenodd">
        <g id="point-down-circle" fill="#000000">
            <path d="M10,20 C4.4771875,20 0,15.5228125 0,10 C0,4.4771875 4.4771875,0 10,0 C15.5228125,0 20,4.4771875 20,10 C20,15.5228125 15.5228125,20 10,20 L10,20 Z M13.509375,11.5646875 L10.696875,14.6896875 L10.694375,14.6875 C10.5228125,14.878125 10.2765625,15 10,15 C9.7234375,15 9.4771875,14.878125 9.305625,14.6875 L9.303125,14.6896875 L6.490625,11.5646875 L6.493125,11.5625 C6.34375,11.39625 6.25,11.17875 6.25,10.9375 C6.25,10.42 6.6696875,10 7.1875,10 C7.4640625,10 7.7103125,10.1221875 7.881875,10.3128125 L7.884375,10.3103125 L9.0625,11.619375 L9.0625,5.9375 C9.0625,5.4196875 9.4821875,5 10,5 C10.5178125,5 10.9375,5.4196875 10.9375,5.9375 L10.9375,11.619375 L12.115625,10.3103125 L12.118125,10.3128125 C12.2896875,10.1221875 12.5359375,10 12.8125,10 C13.3303125,10 13.75,10.42 13.75,10.9375 C13.75,11.17875 13.65625,11.39625 13.506875,11.5625 L13.509375,11.5646875 L13.509375,11.5646875 Z"></path>
        </g>
    </g>
</svg>