<?xml version="1.0" encoding="UTF-8" standalone="no"?>
<svg width="20px" height="20px" viewBox="0 0 20 20" version="1.1" xmlns="http://www.w3.org/2000/svg" xmlns:xlink="http://www.w3.org/1999/xlink">
    <!-- Generator: Sketch 3.8.3 (29802) - http://www.bohemiancoding.com/sketch -->
    <title>question-circle</title>
    <desc>Created with Sketch.</desc>
    <defs></defs>
    <g id="Page-1" stroke="none" stroke-width="1" fill="none" fill-rule="evenodd">
        <g id="question-circle" fill="#000000">
            <path d="M10.0000001,20 C15.5228475,20 20,15.5228475 20,10 C20,4.4771525 15.5228475,0 10.0000001,0 C4.47715251,0 0,4.4771525 0,10 C0,15.5228475 4.47715251,20 10.0000001,20 Z M6.7,5.56 C6.7,6.16 7.16,6.58 8.08,6.58 L8.66,6.58 C8.68,5.24 8.86,3.92 10.18,3.92 C11.02,3.92 11.54,4.52 11.54,5.5 C11.54,7.72 7.64,8.84 7.64,11.18 C7.64,12.4 8.58,13.1 9.96,13.1 C10.66,13.1 11.54,12.82 11.92,12.56 L11.72,11.96 C11.38,12.14 11.04,12.28 10.6,12.28 C10.16,12.28 9.78,12.02 9.78,11.62 C9.78,10.16 13.54,9.2 13.54,6.16 C13.54,4.3 12.04,3.32 10.1,3.32 C8.1,3.32 6.7,4.38 6.7,5.56 Z M9.88,17.28 C10.72,17.28 11.38,16.6 11.38,15.82 C11.38,14.96 10.74,14.34 9.9,14.34 C9.06,14.34 8.4,15.02 8.4,15.8 C8.4,16.66 9.06,17.28 9.88,17.28 Z" id="Combined-Shape"></path>
        </g>
    </g>
</svg>