<?xml version="1.0" encoding="UTF-8" standalone="no"?>
<svg width="35px" height="35px" viewBox="0 0 35 35" version="1.1" xmlns="http://www.w3.org/2000/svg" xmlns:xlink="http://www.w3.org/1999/xlink">
    <!-- Generator: Sketch 3.7.1 (28215) - http://www.bohemiancoding.com/sketch -->
    <title>stamp-circle</title>
    <desc>Created with Sketch.</desc>
    <defs></defs>
    <g id="Page-1" stroke="none" stroke-width="1" fill="none" fill-rule="evenodd">
        <g id="stamp-circle">
            <g>
                <path d="M17.5,35 C27.1649831,35 35,27.1649831 35,17.5 C35,7.83501688 27.1649831,0 17.5,0 C7.83501688,0 0,7.83501688 0,17.5 C0,27.1649831 7.83501688,35 17.5,35 Z" id="Combined-Shape-Copy" fill="#000000"></path>
                <path d="M29,26.5266873 L29,28.5 L27.0422512,28.5 C26.8534259,27.6420031 26.0886434,27 25.173913,27 C24.2591827,27 23.4944002,27.6420031 23.3055748,28.5 L22.2596425,28.5 C22.0708172,27.6420031 21.3060347,27 20.3913043,27 C19.476574,27 18.7117915,27.6420031 18.5229661,28.5 L17.4770339,28.5 C17.2882085,27.6420031 16.523426,27 15.6086957,27 C14.6939653,27 13.9291828,27.6420031 13.7403575,28.5 L12.6944252,28.5 C12.5055998,27.6420031 11.7408173,27 10.826087,27 C9.91135661,27 9.14657412,27.6420031 8.95774876,28.5 L7,28.5 L7,26.5266873 C7.82510867,26.314319 8.43478261,25.5653145 8.43478261,24.673913 C8.43478261,23.7825116 7.82510867,23.0335071 7,22.8211388 L7,21.7440786 C7.82510867,21.5317103 8.43478261,20.7827058 8.43478261,19.8913043 C8.43478261,18.9999029 7.82510867,18.2508984 7,18.0385301 L7,16.9614699 C7.82510867,16.7491016 8.43478261,16.0000971 8.43478261,15.1086957 C8.43478261,14.2172942 7.82510867,13.4682897 7,13.2559214 L7,12.1788612 C7.82510867,11.9664929 8.43478261,11.2174884 8.43478261,10.326087 C8.43478261,9.43468549 7.82510867,8.685681 7,8.47331271 L7,6.5 L9.0047715,6.5 C9.25253572,7.26939831 9.97430054,7.82608696 10.826087,7.82608696 C11.6778734,7.82608696 12.3996382,7.26939831 12.6474024,6.5 L13.7873802,6.5 C14.0351444,7.26939831 14.7569092,7.82608696 15.6086957,7.82608696 C16.4604821,7.82608696 17.1822469,7.26939831 17.4300111,6.5 L18.5699889,6.5 C18.8177531,7.26939831 19.5395179,7.82608696 20.3913043,7.82608696 C21.2430908,7.82608696 21.9648556,7.26939831 22.2126198,6.5 L23.3525976,6.5 C23.6003618,7.26939831 24.3221266,7.82608696 25.173913,7.82608696 C26.0256995,7.82608696 26.7474643,7.26939831 26.9952285,6.5 L29,6.5 L29,8.47331271 C28.1748913,8.685681 27.5652174,9.43468549 27.5652174,10.326087 C27.5652174,11.2174884 28.1748913,11.9664929 29,12.1788612 L29,13.2559214 C28.1748913,13.4682897 27.5652174,14.2172942 27.5652174,15.1086957 C27.5652174,16.0000971 28.1748913,16.7491016 29,16.9614699 L29,18.0385301 C28.1748913,18.2508984 27.5652174,18.9999029 27.5652174,19.8913043 C27.5652174,20.7827058 28.1748913,21.5317103 29,21.7440786 L29,22.8211388 C28.1748913,23.0335071 27.5652174,23.7825116 27.5652174,24.673913 C27.5652174,25.5653145 28.1748913,26.314319 29,26.5266873 Z M17.5,11.5570305 L25.5,11.5570305 L25.5,13.0570305 L17.5,13.0570305 L17.5,11.5570305 Z M17.5,16.5 L25.5,16.5 L25.5,18 L17.5,18 L17.5,16.5 Z M10,19 L25.5690945,19 L25.5690945,20.5 L10,20.5 L10,19 Z M10,21.5 L25.5690945,21.5 L25.5690945,23 L10,23 L10,21.5 Z M17.5,14 L25.5,14 L25.5,15.5 L17.5,15.5 L17.5,14 Z M10,11.5 L10,18 L16.4871227,18 L16.4871227,11.5 L10,11.5 Z" id="Combined-Shape" fill="#FFFFFF"></path>
            </g>
        </g>
    </g>
</svg>