<?xml version="1.0" encoding="utf-8"?>
<!-- Generator: Adobe Illustrator 19.1.0, SVG Export Plug-In . SVG Version: 6.00 Build 0)  -->
<svg version="1.1" id="Layer_1" xmlns="http://www.w3.org/2000/svg" xmlns:xlink="http://www.w3.org/1999/xlink" x="0px" y="0px"
	 viewBox="-822.2 762.4 20 20" style="enable-background:new -822.2 762.4 20 20;" xml:space="preserve">
<g>
	<path d="M-812.2,762.4c-5.5,0-10,4.5-10,10s4.5,10,10,10s10-4.5,10-10S-806.7,762.4-812.2,762.4z M-805.7,767.2
		c-0.5,0.1-0.8,0.5-0.8,1.1c0,0.6,0.3,0.9,0.8,1.1v0.6c-0.5,0.1-0.8,0.5-0.8,1.1c0,0.6,0.3,0.9,0.8,1.1v0.6
		c-0.5,0.1-0.8,0.5-0.8,1.1c0,0.6,0.3,0.9,0.8,1.1v0.6c-0.5,0.1-0.8,0.5-0.8,1.1c0,0.6,0.3,0.9,0.8,1.1v1.1h-1.1
		c-0.1-0.5-0.5-0.9-1.1-0.9s-1,0.4-1.1,0.9h-0.6c-0.1-0.5-0.5-0.9-1.1-0.9c-0.6,0-1,0.4-1.1,0.9h-0.6c-0.1-0.5-0.5-0.9-1.1-0.9
		c-0.5,0-1,0.4-1.1,0.9h-0.6c-0.1-0.5-0.5-0.9-1.1-0.9c-0.5,0-1,0.4-1.1,0.9h-1.1v-1.1c0.5-0.1,0.8-0.5,0.8-1.1
		c0-0.6-0.3-0.9-0.8-1.1V775c0.5-0.1,0.8-0.5,0.8-1.1c0-0.6-0.3-0.9-0.8-1.1v-0.6c0.5-0.1,0.8-0.5,0.8-1.1c0-0.6-0.3-0.9-0.8-1.1
		v-0.6c0.5-0.1,0.8-0.5,0.8-1.1c0-0.6-0.3-0.9-0.8-1.1v-1.1h1.2c0.1,0.4,0.5,0.8,1,0.8s0.9-0.3,1-0.8h0.7c0.1,0.4,0.5,0.8,1,0.8
		s0.9-0.3,1-0.8h0.7c0.1,0.4,0.5,0.8,1,0.8s0.9-0.3,1-0.8h0.7c0.1,0.4,0.5,0.8,1,0.8s0.9-0.3,1-0.8h1.5L-805.7,767.2L-805.7,767.2z"
		/>
	<rect x="-816.5" y="768.9" width="3.7" height="3.7"/>
	<rect x="-812.2" y="770.4" width="4.6" height="0.9"/>
	<rect x="-816.5" y="774.7" width="8.9" height="0.9"/>
	<rect x="-816.5" y="773.2" width="8.9" height="0.9"/>
	<rect x="-812.2" y="771.8" width="4.6" height="0.9"/>
	<rect x="-812.2" y="769" width="4.6" height="0.9"/>
</g>
</svg>
