<?xml version="1.0" encoding="utf-8"?>
<!-- Generator: Adobe Illustrator 19.1.0, SVG Export Plug-In . SVG Version: 6.00 Build 0)  -->
<svg version="1.1" id="Layer_1" xmlns="http://www.w3.org/2000/svg" xmlns:xlink="http://www.w3.org/1999/xlink" x="0px" y="0px"
	 viewBox="-745.5 539.9 20 20" style="enable-background:new -745.5 539.9 20 20;" xml:space="preserve">
<style type="text/css">
	.st0{fill-rule:evenodd;clip-rule:evenodd;}
</style>
<path class="st0" d="M-727.5,540.4h-16c-1.1,0-2,0.9-2,2v15c0,1.1,0.9,2,2,2h16c1.1,0,2-0.9,2-2v-15
	C-725.5,541.3-726.4,540.4-727.5,540.4z M-740.5,557.4h-3v-2.7h3V557.4z M-740.5,553.4h-3v-2.7h3V553.4z M-740.5,549.4h-3v-2.7h3
	V549.4z M-740.5,545.4h-3v-3h3V545.4z M-727.5,557.4h-11v-2.7h11V557.4z M-727.5,553.4h-11v-2.7h11V553.4z M-727.5,549.4h-11v-2.7
	h11V549.4z M-727.5,545.4h-11v-3h11V545.4z"/>
</svg>
