<?xml version="1.0" encoding="utf-8"?>
<!-- Generator: Adobe Illustrator 19.1.0, SVG Export Plug-In . SVG Version: 6.00 Build 0)  -->
<svg version="1.1" id="Layer_1" xmlns="http://www.w3.org/2000/svg" xmlns:xlink="http://www.w3.org/1999/xlink" x="0px" y="0px"
	 viewBox="-745.5 539.9 20 20" style="enable-background:new -745.5 539.9 20 20;" xml:space="preserve">
<path d="M-727.5,540.4h-16c-1.1,0-2,0.9-2,2v15c0,1.1,0.9,2,2,2h16c1.1,0,2-0.9,2-2v-15C-725.5,541.3-726.4,540.4-727.5,540.4z
	 M-740.5,557.4h-3v-2.5h3V557.4z M-740.5,552.9h-3v-2h3V552.9z M-740.5,548.9h-3v-2h3V548.9z M-740.5,544.9h-3v-2.5h3V544.9z
	 M-727.5,557.4h-11v-2.5h11V557.4z M-727.5,552.9h-11v-2h11V552.9z M-727.5,548.9h-11v-2h11V548.9z M-727.5,544.9h-11v-2.5h11V544.9
	z"/>
</svg>
