<?xml version="1.0" encoding="utf-8"?>
<!-- Generator: Adobe Illustrator 19.1.0, SVG Export Plug-In . SVG Version: 6.00 Build 0)  -->
<svg version="1.1" id="Layer_1" xmlns="http://www.w3.org/2000/svg" xmlns:xlink="http://www.w3.org/1999/xlink" x="0px" y="0px"
	 viewBox="-822.2 674 20 20" style="enable-background:new -822.2 674 20 20;" xml:space="preserve">
<path d="M-812.2,674c-5.5,0-10,4.5-10,10s4.5,10,10,10s10-4.5,10-10S-806.7,674-812.2,674z M-812.4,677c0.2,0,0.4,0.2,0.4,0.3
	l0.4,2.9c0,0.1,0,0.4-0.3,0.4l-0.7,0.2l-0.6-3.7L-812.4,677z M-811.5,690.6c-0.6,0-1.1-0.1-1.5-0.2c-0.9-1-2.2-3.2-2.8-5.4l0,0
	c-0.6-2.2-0.5-4.8-0.3-6.1c0.2-0.3,0.7-0.6,1.2-0.9s0.9-0.5,1.3-0.6l0.6,3.7c-0.2,0.1-0.3,0.1-0.4,0.2c-0.3,0.2-0.4,0.2-0.3,0.7
	c0,0.3,0.2,1.2,0.4,2.3l0,0l0,0l0,0c0.3,1.1,0.7,1.9,0.8,2.2c0.2,0.4,0.3,0.5,0.7,0.5c0.2,0,0.3,0,0.5,0l1.4,3.5
	C-810.4,690.5-811,690.6-811.5,690.6z M-808.9,690.1l-0.6,0.2l-1.3-3.5l0.7-0.2c0.2-0.1,0.4,0.1,0.4,0.2l1.1,2.7
	C-808.7,689.7-808.8,689.9-808.9,690.1z"/>
</svg>
