<?xml version="1.0" encoding="UTF-8" standalone="no"?>
<svg width="35px" height="35px" viewBox="0 0 35 35" version="1.1" xmlns="http://www.w3.org/2000/svg" xmlns:xlink="http://www.w3.org/1999/xlink">
    <!-- Generator: Sketch 3.7.1 (28215) - http://www.bohemiancoding.com/sketch -->
    <title>telephone-circle</title>
    <desc>Created with Sketch.</desc>
    <defs></defs>
    <g id="Page-1" stroke="none" stroke-width="1" fill="none" fill-rule="evenodd">
        <g id="telephone-circle" fill="#000000">
            <path d="M17.5,35 C27.1649831,35 35,27.1649831 35,17.5 C35,7.83501688 27.1649831,0 17.5,0 C7.83501688,0 0,7.83501688 0,17.5 C0,27.1649831 7.83501688,35 17.5,35 Z M21.7644205,22.4813759 C21.6663632,22.2392575 21.3758559,21.9436613 20.994158,22.0656174 L19.809289,22.3831021 L22.1712515,28.4231349 L23.2315829,28.0411095 C23.5303723,27.8316498 23.6742223,27.4560768 23.6028323,27.1817203 L21.7644205,22.4813759 Z M15.4278145,17.8967486 L15.4322726,17.895554 C14.9496371,16.0041807 14.7323644,14.3819303 14.6658562,13.8196684 C14.5933637,12.9537163 14.7487567,12.8153985 15.2431815,12.5326079 C15.5837826,12.3385135 15.7584523,12.256286 16.0282035,12.1633419 L15.0458097,5.70027143 C14.4603566,5.86624536 13.6024372,6.22995153 12.8069926,6.68712846 C11.95627,7.18666974 11.1460922,7.79195405 10.7564387,8.2993196 C10.3362608,10.6414603 10.1660226,15.1240437 11.2116721,19.0264605 L11.2123486,19.0289853 C12.257998,22.9314022 14.6467203,26.7283142 16.1816754,28.5465786 C16.7726219,28.7914391 17.7771462,28.9104755 18.7636027,28.9175001 C19.6810665,28.9157046 20.605838,28.8014942 21.1959652,28.6529643 L18.815085,22.5641252 C18.5351245,22.6189678 18.3423717,22.6346989 17.950603,22.6368424 C17.3813325,22.6393142 17.17729,22.5970607 16.8070943,21.810878 C16.5838089,21.2906245 15.9605997,19.7771444 15.4328876,17.8978493 L15.4284295,17.8990438 L15.4278145,17.8967486 L15.4278145,17.8967486 Z M17.1225697,5.24196175 L16.0132216,5.4410542 L16.9877184,11.8528573 L18.1727104,11.5358317 C18.5643732,11.4500744 18.6679756,11.0491228 18.6318366,10.7904134 L17.8737757,5.80058993 C17.7983614,5.52706569 17.4860587,5.27396443 17.1225697,5.24196175 Z"></path>
        </g>
    </g>
</svg>