<svg id="timer" xmlns="http://www.w3.org/2000/svg" width="20" height="20" viewBox="0 0 20 20"><defs><style>.cls-1{fill-rule:evenodd;}</style></defs><path class="cls-1" d="M5.88,15.4A0.27,0.27,0,0,1,5.66,15a1.84,1.84,0,0,1,.09-0.22,4.84,4.84,0,0,1,1.92-1.93c1.46-1.07,2-1.78,2-3.12h0A0.34,0.34,0,0,1,10,9.42a0.34,0.34,0,0,1,.34.34h0c0,1.34.52,2,2,3.12a4.84,4.84,0,0,1,1.92,1.93,1.84,1.84,0,0,1,.09.22,0.27,0.27,0,0,1-.22.37l-1,.15a25.06,25.06,0,0,1-6.3,0ZM16.5,17.78a1.81,1.81,0,0,1-1.58,1.77l-0.38,0a44.11,44.11,0,0,1-9.08,0l-0.38,0A1.81,1.81,0,0,1,3.5,17.78c0-3,.94-4.45,3.17-6C7.71,11,8,10.62,8,10S7.71,9,6.68,8.21c-2.23-1.6-3.18-3-3.18-6A1.81,1.81,0,0,1,5.08.42h0a47.44,47.44,0,0,1,9.76,0h0A1.81,1.81,0,0,1,16.5,2.19c0,3-.94,4.42-3.18,6l-0.06,0C12.25,9,12,9.36,12,10s0.28,1,1.33,1.77C15.56,13.37,16.5,14.78,16.5,17.78Z"/></svg>