<?xml version="1.0" encoding="UTF-8" standalone="no"?>
<svg width="21px" height="20px" viewBox="0 0 21 20" version="1.1" xmlns="http://www.w3.org/2000/svg" xmlns:xlink="http://www.w3.org/1999/xlink">
    <!-- Generator: Sketch 3.6.1 (26313) - http://www.bohemiancoding.com/sketch -->
    <title>i-accordion-closed--white</title>
    <desc>Created with Sketch.</desc>
    <defs></defs>
    <g id="Icons" stroke="none" stroke-width="1" fill="none" fill-rule="evenodd">
        <path d="M10.5,20 C16.0228475,20 20.5,15.5228475 20.5,10 C20.5,4.4771525 16.0228475,0 10.5,0 C4.9771525,0 0.5,4.4771525 0.5,10 C0.5,15.5228475 4.9771525,20 10.5,20 L10.5,20 Z M14.7075683,10.9375 L11.5325447,10.9375 L11.5325447,14.0625 C11.5325447,14.5803125 11.1061391,15 10.5800377,15 C10.0539363,15 9.6275306,14.5803125 9.6275306,14.0625 L9.6275306,10.9375 L6.45250706,10.9375 C5.92640566,10.9375 5.5,10.5178125 5.5,10 C5.5,9.4821875 5.92640566,9.0625 6.45250706,9.0625 L9.6275306,9.0625 L9.6275306,5.9375 C9.6275306,5.4196875 10.0539363,5 10.5800377,5 C11.1061391,5 11.5325447,5.4196875 11.5325447,5.9375 L11.5325447,9.0625 L14.7075683,9.0625 C15.2336697,9.0625 15.6600753,9.4821875 15.6600753,10 C15.6600753,10.5178125 15.2336697,10.9375 14.7075683,10.9375 L14.7075683,10.9375 Z" id="i-accordion-closed--white" fill="#FFFFFF"></path>
    </g>
</svg>