<?xml version="1.0" encoding="UTF-8" standalone="no"?>
<svg width="18px" height="14px" viewBox="0 0 18 14" version="1.1" xmlns="http://www.w3.org/2000/svg" xmlns:xlink="http://www.w3.org/1999/xlink">
    <!-- Generator: Sketch 3.6.1 (26313) - http://www.bohemiancoding.com/sketch -->
    <title>i-addcalendar--primary</title>
    <desc>Created with Sketch.</desc>
    <defs></defs>
    <g id="Icons" stroke="none" stroke-width="1" fill="none" fill-rule="evenodd">
        <g id="Simple-Copy" transform="translate(-267.000000, -1148.000000)">
            <g id="i-addcalendar--primary" transform="translate(268.000000, 1149.000000)">
                <g id="Group-2-Copy-3">
                    <g id="i_calview_primary-copy-6">
                        <rect id="Rectangle-201" stroke="#022C53" fill="#FFFFFF" x="0" y="0" width="13" height="12" rx="0.5"></rect>
                        <rect id="Rectangle-201-Copy" stroke="#022C53" fill="#FFFFFF" x="0" y="0" width="13" height="12" rx="0.5"></rect>
                        <rect id="Rectangle-203" fill="#022C53" x="0" y="0" width="13" height="4" rx="0.5"></rect>
                    </g>
                </g>
                <g id="Group-3" transform="translate(8.000000, 4.000000)">
                    <path d="M4.55810547,9 C7.01129608,9 9,7.01129608 9,4.55810547 C9,2.10491486 7.01129608,0.116210938 4.55810547,0.116210938 C2.10491486,0.116210938 0.116210938,2.10491486 0.116210938,4.55810547 C0.116210938,7.01129608 2.10491486,9 4.55810547,9 Z M5.02652451,2.52627034 L5.02652451,4.11266124 L6.5879213,4.11266124 C6.84664475,4.11266124 7.05634034,4.32571354 7.05634034,4.58857851 C7.05634034,4.85144349 6.84664475,5.06449579 6.5879213,5.06449579 L5.02652451,5.06449579 L5.02652451,6.65088669 C5.02652451,6.91375166 4.81682892,7.12680396 4.55810547,7.12680396 C4.29938202,7.12680396 4.08968643,6.91375166 4.08968643,6.65088669 L4.08968643,5.06449579 L2.52828964,5.06449579 C2.26956619,5.06449579 2.0598706,4.85144349 2.0598706,4.58857851 C2.0598706,4.32571354 2.26956619,4.11266124 2.52828964,4.11266124 L4.08968643,4.11266124 L4.08968643,2.52627034 C4.08968643,2.26340537 4.29938202,2.05035307 4.55810547,2.05035307 C4.81682892,2.05035307 5.02652451,2.26340537 5.02652451,2.52627034 Z" id="Oval-284-Copy-2" fill="#022C53"></path>
                    <path d="M6.64467545,5.06036143 L5.06030039,5.06036143 L5.06030039,6.64473648 C5.06030039,6.90726743 4.84751883,7.120049 4.58498788,7.120049 C4.32245693,7.120049 4.10967536,6.90726743 4.10967536,6.64473648 L4.10967536,5.06036143 L2.52530031,5.06036143 C2.26276936,5.06036143 2.04998779,4.84757986 2.04998779,4.58504891 C2.04998779,4.32251797 2.26276936,4.1097364 2.52530031,4.1097364 L4.10967536,4.1097364 L4.10967536,2.52536134 C4.10967536,2.2628304 4.32245693,2.05004883 4.58498788,2.05004883 C4.84751883,2.05004883 5.06030039,2.2628304 5.06030039,2.52536134 L5.06030039,4.1097364 L6.64467545,4.1097364 C6.90720639,4.1097364 7.11998796,4.32251797 7.11998796,4.58504891 C7.11998796,4.84757986 6.90720639,5.06036143 6.64467545,5.06036143 L6.64467545,5.06036143 Z" id="i-plus--primary-copy" fill="#FFFFFF"></path>
                </g>
            </g>
        </g>
    </g>
</svg>