<?xml version="1.0" encoding="UTF-8" standalone="no"?>
<svg width="18px" height="14px" viewBox="0 0 18 14" version="1.1" xmlns="http://www.w3.org/2000/svg" xmlns:xlink="http://www.w3.org/1999/xlink">
    <!-- Generator: Sketch 3.6.1 (26313) - http://www.bohemiancoding.com/sketch -->
    <title>i-addcalendar--primary</title>
    <desc>Created with Sketch.</desc>
    <defs></defs>
    <g id="Icons" stroke="none" stroke-width="1" fill="none" fill-rule="evenodd">
        <g id="Simple-Copy" transform="translate(-267.000000, -1148.000000)" fill="#022C53">
            <g id="i-addcalendar--primary" transform="translate(267.000000, 1148.000000)">
                <g id="Group-3" transform="translate(9.000000, 5.000000)">
                    <path d="M4.55810547,9 C7.01129608,9 9,7.01129608 9,4.55810547 C9,2.10491486 7.01129608,0.116210938 4.55810547,0.116210938 C2.10491486,0.116210938 0.116210938,2.10491486 0.116210938,4.55810547 C0.116210938,7.01129608 2.10491486,9 4.55810547,9 Z M5.02652451,2.52627034 L5.02652451,4.11266124 L6.5879213,4.11266124 C6.84664475,4.11266124 7.05634034,4.32571354 7.05634034,4.58857851 C7.05634034,4.85144349 6.84664475,5.06449579 6.5879213,5.06449579 L5.02652451,5.06449579 L5.02652451,6.65088669 C5.02652451,6.91375166 4.81682892,7.12680396 4.55810547,7.12680396 C4.29938202,7.12680396 4.08968643,6.91375166 4.08968643,6.65088669 L4.08968643,5.06449579 L2.52828964,5.06449579 C2.26956619,5.06449579 2.0598706,4.85144349 2.0598706,4.58857851 C2.0598706,4.32571354 2.26956619,4.11266124 2.52828964,4.11266124 L4.08968643,4.11266124 L4.08968643,2.52627034 C4.08968643,2.26340537 4.29938202,2.05035307 4.55810547,2.05035307 C4.81682892,2.05035307 5.02652451,2.26340537 5.02652451,2.52627034 Z" id="Oval-284-Copy-2"></path>
                </g>
                <path d="M0.5,4.5 L0.5,1.49869585 C0.5,0.947131363 0.949948758,0.5 1.50684547,0.5 L13.4931545,0.5 C14.0492199,0.5 14.5,0.947928905 14.5,1.49869585 L14.5,4.5 L14.5,6 L13,6 L13,5 L2,5 L2,12 L14.5,12 L14.5,12.75 C14.5,13.1642136 14.1677392,13.5 13.7472992,13.5 L1.25270081,13.5 C0.83699563,13.5 0.5,13.1671014 0.5,12.75 L0.5,12.375 L0.5,4.5 Z" id="Combined-Shape"></path>
            </g>
        </g>
    </g>
</svg>