<?xml version="1.0" encoding="UTF-8" standalone="no"?>
<svg width="19px" height="19px" viewBox="0 0 19 19" version="1.1" xmlns="http://www.w3.org/2000/svg" xmlns:xlink="http://www.w3.org/1999/xlink" xmlns:sketch="http://www.bohemiancoding.com/sketch/ns">
    <!-- Generator: Sketch 3.3.3 (12081) - http://www.bohemiancoding.com/sketch -->
    <title>i-alert-neutral</title>
    <desc>Created with Sketch.</desc>
    <defs></defs>
    <g id="Page-1" stroke="none" stroke-width="1" fill="none" fill-rule="evenodd" sketch:type="MSPage">
        <g id="Simple-Copy" sketch:type="MSArtboardGroup" transform="translate(-264.000000, -1127.000000)">
            <g id="i-alert-neutral" sketch:type="MSLayerGroup" transform="translate(264.904762, 1127.290323)">
                <ellipse id="Oval-128" fill="#CEB59C" sketch:type="MSShapeGroup" cx="8.91257996" cy="8.88418826" rx="8.91257996" ry="8.88418826"></ellipse>
                <path d="M9.37524796,10.6408981 C9.62344103,9.09232505 10.2594358,4.86472066 10.2594358,4.18334853 C10.2594358,3.50197639 9.7320255,3.16129032 9.06500663,3.16129032 C8.39798777,3.16129032 7.90160163,3.50197639 7.90160163,4.18334853 C7.90160163,4.86472066 8.53759637,9.09232505 8.78578943,10.6408981 L9.37524796,10.6408981 Z M9.06500663,13.9703301 C9.71651343,13.9703301 10.2284116,13.4438153 10.2284116,12.8398718 C10.2284116,12.1739854 9.71651343,11.6939277 9.06500663,11.6939277 C8.41349983,11.6939277 7.90160163,12.2204426 7.90160163,12.8243861 C7.90160163,13.4902725 8.41349983,13.9703301 9.06500663,13.9703301 L9.06500663,13.9703301 Z" id="!" fill="#022C53" sketch:type="MSShapeGroup"></path>
            </g>
        </g>
    </g>
</svg>