<?xml version="1.0" encoding="UTF-8" standalone="no"?>
<svg width="3px" height="12px" viewBox="0 0 3 12" version="1.1" xmlns="http://www.w3.org/2000/svg" xmlns:xlink="http://www.w3.org/1999/xlink" xmlns:sketch="http://www.bohemiancoding.com/sketch/ns">
    <!-- Generator: Sketch 3.3.3 (12081) - http://www.bohemiancoding.com/sketch -->
    <title>i-alert--secondary-contrast</title>
    <desc>Created with Sketch.</desc>
    <defs></defs>
    <g id="Page-1" stroke="none" stroke-width="1" fill="none" fill-rule="evenodd" sketch:type="MSPage">
        <g id="Simple-Copy" sketch:type="MSArtboardGroup" transform="translate(-432.000000, -270.000000)" fill="#F77B42">
            <path d="M433.628767,278.280994 C433.903086,276.566503 434.606027,271.885941 434.606027,271.131564 C434.606027,270.377188 434.0231,270 433.285869,270 C432.548637,270 432,270.377188 432,271.131564 C432,271.885941 432.702942,276.566503 432.97726,278.280994 L433.628767,278.280994 Z M433.285869,281.967151 C434.005955,281.967151 434.571737,281.384224 434.571737,280.715572 C434.571737,279.978341 434.005955,279.446849 433.285869,279.446849 C432.565782,279.446849 432,280.029776 432,280.698427 C432,281.435659 432.565782,281.967151 433.285869,281.967151 L433.285869,281.967151 Z" id="i-alert--secondary-contrast" sketch:type="MSShapeGroup"></path>
        </g>
    </g>
</svg>