<?xml version="1.0" encoding="UTF-8" standalone="no"?>
<svg width="21px" height="20px" viewBox="0 0 21 20" version="1.1" xmlns="http://www.w3.org/2000/svg" xmlns:xlink="http://www.w3.org/1999/xlink" xmlns:sketch="http://www.bohemiancoding.com/sketch/ns">
    <!-- Generator: Sketch 3.3.3 (12081) - http://www.bohemiancoding.com/sketch -->
    <title>i-alert--neutral</title>
    <desc>Created with Sketch.</desc>
    <defs></defs>
    <g id="Page-1" stroke="none" stroke-width="1" fill="none" fill-rule="evenodd" sketch:type="MSPage">
        <g id="Simple-Copy" sketch:type="MSArtboardGroup" transform="translate(-162.000000, -1022.000000)">
            <g id="i-alert--neutral" sketch:type="MSLayerGroup" transform="translate(162.000000, 1022.000000)">
                <ellipse id="Oval-128-Copy" fill="#CEB59C" sketch:type="MSShapeGroup" cx="10.3507463" cy="9.83606557" rx="9.85074627" ry="9.83606557"></ellipse>
                <path d="M11.128767,11.2809943 C11.4030856,9.56650273 12.1060272,4.88594073 12.1060272,4.13156444 C12.1060272,3.37718815 11.5231001,3 10.7858687,3 C10.0486373,3 9.5,3.37718815 9.5,4.13156444 C9.5,4.88594073 10.2029415,9.56650273 10.4772602,11.2809943 L11.128767,11.2809943 Z M10.7858687,14.9671512 C11.5059551,14.9671512 12.0717374,14.3842241 12.0717374,13.7155723 C12.0717374,12.978341 11.5059551,12.4468486 10.7858687,12.4468486 C10.0657822,12.4468486 9.5,13.0297757 9.5,13.6984274 C9.5,14.4356588 10.0657822,14.9671512 10.7858687,14.9671512 L10.7858687,14.9671512 Z" id="!-copy" fill="#022C53" sketch:type="MSShapeGroup"></path>
            </g>
        </g>
    </g>
</svg>