<?xml version="1.0" encoding="UTF-8" standalone="no"?>
<svg width="20px" height="21px" viewBox="0 0 20 21" version="1.1" xmlns="http://www.w3.org/2000/svg" xmlns:xlink="http://www.w3.org/1999/xlink" xmlns:sketch="http://www.bohemiancoding.com/sketch/ns">
    <!-- Generator: Sketch 3.3.3 (12081) - http://www.bohemiancoding.com/sketch -->
    <title>i-alert--primary</title>
    <desc>Created with Sketch.</desc>
    <defs></defs>
    <g id="Style-Guide" stroke="none" stroke-width="1" fill="none" fill-rule="evenodd" sketch:type="MSPage">
        <path d="M9.97901119,20.0927137 C15.4194281,20.0927137 19.8297575,15.6889572 19.8297575,10.2566481 C19.8297575,4.82433913 15.4194281,0.420582568 9.97901119,0.420582568 C4.53859426,0.420582568 0.128264925,4.82433913 0.128264925,10.2566481 C0.128264925,15.6889572 4.53859426,20.0927137 9.97901119,20.0927137 Z M10.5755024,12.5540669 C10.849821,10.8395753 11.5527626,6.15901328 11.5527626,5.40463699 C11.5527626,4.65026069 10.9698354,4.27307255 10.232604,4.27307255 C9.49537267,4.27307255 8.94673537,4.65026069 8.94673537,5.40463699 C8.94673537,6.15901328 9.64967691,10.8395753 9.92399557,12.5540669 L10.5755024,12.5540669 Z M10.232604,16.2402237 C10.9526905,16.2402237 11.5184727,15.6572966 11.5184727,14.9886449 C11.5184727,14.2514135 10.9526905,13.7199211 10.232604,13.7199211 C9.51251759,13.7199211 8.94673537,14.3028483 8.94673537,14.9715 C8.94673537,15.7087313 9.51251759,16.2402237 10.232604,16.2402237 Z" id="i-alert--primary" fill="#FFFFFF" sketch:type="MSShapeGroup"></path>
    </g>
</svg>