<?xml version="1.0" encoding="UTF-8" standalone="no"?>
<svg width="29px" height="29px" viewBox="0 0 29 29" version="1.1" xmlns="http://www.w3.org/2000/svg" xmlns:xlink="http://www.w3.org/1999/xlink" xmlns:sketch="http://www.bohemiancoding.com/sketch/ns">
    <!-- Generator: Sketch 3.4.3 (16044) - http://www.bohemiancoding.com/sketch -->
    <title>down-arrow</title>
    <desc>Created with Sketch.</desc>
    <defs></defs>
    <g id="Alpha-Wireframes-Styled" stroke="none" stroke-width="1" fill="none" fill-rule="evenodd" sketch:type="MSPage">
        <g id="Registration-Home-2-Copy-3" sketch:type="MSArtboardGroup" transform="translate(-483.000000, -418.000000)" fill="#F77B42">
            <path d="M497.276923,446.553846 C489.392046,446.553846 483,440.1618 483,432.276923 C483,424.392046 489.392046,418 497.276923,418 C505.1618,418 511.553846,424.392046 511.553846,432.276923 C511.553846,440.1618 505.1618,446.553846 497.276923,446.553846 L497.276923,446.553846 Z M502.287231,434.510815 L498.271846,438.972354 L498.268277,438.969231 C498.023338,439.241385 497.671769,439.415385 497.276923,439.415385 C496.882077,439.415385 496.530508,439.241385 496.285569,438.969231 L496.282,438.972354 L492.266615,434.510815 L492.270185,434.507692 C492.056923,434.270338 491.923077,433.959815 491.923077,433.615385 C491.923077,432.876554 492.522262,432.276923 493.261538,432.276923 C493.656385,432.276923 494.007954,432.451369 494.252892,432.723523 L494.256462,432.719954 L495.938462,434.588892 L495.938462,426.476923 C495.938462,425.737646 496.537646,425.138462 497.276923,425.138462 C498.0162,425.138462 498.615385,425.737646 498.615385,426.476923 L498.615385,434.588892 L500.297385,432.719954 L500.300954,432.723523 C500.545892,432.451369 500.897462,432.276923 501.292308,432.276923 C502.031585,432.276923 502.630769,432.876554 502.630769,433.615385 C502.630769,433.959815 502.496923,434.270338 502.283662,434.507692 L502.287231,434.510815 L502.287231,434.510815 Z" id="down-arrow" sketch:type="MSShapeGroup"></path>
        </g>
    </g>
</svg>