<?xml version="1.0" encoding="UTF-8" standalone="no"?>
<svg width="20px" height="20px" viewBox="0 0 20 20" version="1.1" xmlns="http://www.w3.org/2000/svg" xmlns:xlink="http://www.w3.org/1999/xlink" xmlns:sketch="http://www.bohemiancoding.com/sketch/ns">
    <!-- Generator: Sketch 3.3.3 (12081) - http://www.bohemiancoding.com/sketch -->
    <title>i-book--primary</title>
    <desc>Created with Sketch.</desc>
    <defs></defs>
    <g id="Page-1" stroke="none" stroke-width="1" fill="none" fill-rule="evenodd" sketch:type="MSPage">
        <g id="Simple-Copy" sketch:type="MSArtboardGroup" transform="translate(-255.000000, -106.000000)" fill="#022C53">
            <path d="M274.116615,121.932308 L265.211385,125.617231 C265.099385,125.665538 264.976,125.692308 264.846154,125.692308 C264.716308,125.692308 264.592923,125.665538 264.480923,125.617231 L255.575692,121.932308 C255.238154,121.794769 255,121.464 255,121.076923 L255,106.923077 C255,106.413231 255.413231,106 255.923077,106 C256.048,106 256.167385,106.025231 256.276,106.070154 L256.277538,106.070769 C256.280308,106.072 256.283077,106.072923 256.285846,106.074154 L264.846154,109.616308 L273.406462,106.074154 C273.409231,106.072923 273.412,106.072 273.414769,106.070769 L273.416308,106.070154 C273.525231,106.025231 273.644308,106 273.769231,106 C274.279077,106 274.692308,106.413231 274.692308,106.923077 L274.692308,121.076923 C274.692308,121.464 274.454154,121.794769 274.116615,121.932308 L274.116615,121.932308 Z M263.923077,123.388308 L263.923077,111.232308 L256.846154,108.304 L256.846154,120.46 L263.923077,123.388308 L263.923077,123.388308 Z M272.846154,108.304 L265.769231,111.232308 L265.769231,123.388308 L272.846154,120.46 L272.846154,108.304 L272.846154,108.304 Z" id="i-book--primary" sketch:type="MSShapeGroup"></path>
        </g>
    </g>
</svg>