<?xml version="1.0" encoding="UTF-8" standalone="no"?>
<svg width="20px" height="20px" viewBox="0 0 20 20" version="1.1" xmlns="http://www.w3.org/2000/svg" xmlns:xlink="http://www.w3.org/1999/xlink" xmlns:sketch="http://www.bohemiancoding.com/sketch/ns">
    <!-- Generator: Sketch 3.3.3 (12081) - http://www.bohemiancoding.com/sketch -->
    <title>i-book--neutral copy</title>
    <desc>Created with Sketch.</desc>
    <defs></defs>
    <g id="Page-1" stroke="none" stroke-width="1" fill="none" fill-rule="evenodd" sketch:type="MSPage">
        <g id="Simple-Copy" sketch:type="MSArtboardGroup" transform="translate(-95.000000, -106.000000)" fill="#FCF6EF">
            <g id="Group-Copy-6" sketch:type="MSLayerGroup" transform="translate(94.000000, 106.000000)">
                <path d="M20.1166154,15.9323077 L11.2113846,19.6172308 C11.0993846,19.6655385 10.976,19.6923077 10.8461538,19.6923077 C10.7163077,19.6923077 10.5929231,19.6655385 10.4809231,19.6172308 L1.57569231,15.9323077 C1.23815385,15.7947692 1,15.464 1,15.0769231 L1,0.923076923 C1,0.413230769 1.41323077,0 1.92307692,0 C2.048,0 2.16738462,0.0252307692 2.276,0.0701538462 L2.27753846,0.0707692308 C2.28030769,0.072 2.28307692,0.0729230769 2.28584615,0.0741538462 L10.8461538,3.61630769 L19.4064615,0.0741538462 C19.4092308,0.0729230769 19.412,0.072 19.4147692,0.0707692308 L19.4163077,0.0701538462 C19.5252308,0.0252307692 19.6443077,0 19.7692308,0 C20.2790769,0 20.6923077,0.413230769 20.6923077,0.923076923 L20.6923077,15.0769231 C20.6923077,15.464 20.4541538,15.7947692 20.1166154,15.9323077 L20.1166154,15.9323077 Z M9.92307692,17.3883077 L9.92307692,5.23230769 L2.84615385,2.304 L2.84615385,14.46 L9.92307692,17.3883077 L9.92307692,17.3883077 Z M18.8461538,2.304 L11.7692308,5.23230769 L11.7692308,17.3883077 L18.8461538,14.46 L18.8461538,2.304 L18.8461538,2.304 Z" id="i-book--neutral-copy" sketch:type="MSShapeGroup"></path>
            </g>
        </g>
    </g>
</svg>