<?xml version="1.0" encoding="UTF-8" standalone="no"?>
<svg width="20px" height="20px" viewBox="0 0 20 20" version="1.1" xmlns="http://www.w3.org/2000/svg" xmlns:xlink="http://www.w3.org/1999/xlink" xmlns:sketch="http://www.bohemiancoding.com/sketch/ns">
    <!-- Generator: Sketch 3.3.3 (12081) - http://www.bohemiancoding.com/sketch -->
    <title>i-book--secondary</title>
    <desc>Created with Sketch.</desc>
    <defs></defs>
    <g id="Page-1" stroke="none" stroke-width="1" fill="none" fill-rule="evenodd" sketch:type="MSPage">
        <g id="Simple-Copy" sketch:type="MSArtboardGroup" transform="translate(-505.000000, -106.000000)" fill="#631010">
            <path d="M524.116615,121.932308 L515.211385,125.617231 C515.099385,125.665538 514.976,125.692308 514.846154,125.692308 C514.716308,125.692308 514.592923,125.665538 514.480923,125.617231 L505.575692,121.932308 C505.238154,121.794769 505,121.464 505,121.076923 L505,106.923077 C505,106.413231 505.413231,106 505.923077,106 C506.048,106 506.167385,106.025231 506.276,106.070154 L506.277538,106.070769 C506.280308,106.072 506.283077,106.072923 506.285846,106.074154 L514.846154,109.616308 L523.406462,106.074154 C523.409231,106.072923 523.412,106.072 523.414769,106.070769 L523.416308,106.070154 C523.525231,106.025231 523.644308,106 523.769231,106 C524.279077,106 524.692308,106.413231 524.692308,106.923077 L524.692308,121.076923 C524.692308,121.464 524.454154,121.794769 524.116615,121.932308 L524.116615,121.932308 Z M513.923077,123.388308 L513.923077,111.232308 L506.846154,108.304 L506.846154,120.46 L513.923077,123.388308 L513.923077,123.388308 Z M522.846154,108.304 L515.769231,111.232308 L515.769231,123.388308 L522.846154,120.46 L522.846154,108.304 L522.846154,108.304 Z" id="i-book--secondary" sketch:type="MSShapeGroup"></path>
        </g>
    </g>
</svg>