<?xml version="1.0" encoding="UTF-8" standalone="no"?>
<svg width="24px" height="21px" viewBox="0 0 24 21" version="1.1" xmlns="http://www.w3.org/2000/svg" xmlns:xlink="http://www.w3.org/1999/xlink" xmlns:sketch="http://www.bohemiancoding.com/sketch/ns">
    <!-- Generator: Sketch 3.3.3 (12081) - http://www.bohemiancoding.com/sketch -->
    <title>i-browse--primary</title>
    <desc>Created with Sketch.</desc>
    <defs></defs>
    <g id="Page-1" stroke="none" stroke-width="1" fill="none" fill-rule="evenodd" sketch:type="MSPage">
        <g id="Simple-Copy" sketch:type="MSArtboardGroup" transform="translate(-258.000000, -883.000000)">
            <g id="i-browse--primary" sketch:type="MSLayerGroup" transform="translate(259.000000, 883.000000)">
                <g id="Group" transform="translate(6.079102, 5.496816)" stroke="#022C53" stroke-linecap="round" sketch:type="MSShapeGroup" stroke-linejoin="round">
                    <path d="M0.877852822,1.16737475 L2.55608403,1.16737475" id="Line-Copy-93"></path>
                    <path d="M0.877852822,3.67933036 L2.55608403,3.67933036" id="Line-Copy-92"></path>
                    <path d="M0.877852822,6.19128597 L2.55608403,6.19128597" id="Line-Copy-95"></path>
                    <path d="M0.877852822,8.70324157 L2.55608403,8.70324157" id="Line-Copy-94"></path>
                    <path d="M0.877852822,11.2151972 L2.55608403,11.2151972" id="Line-Copy-112"></path>
                    <path d="M4.25426447,1.16737475 L5.93249568,1.16737475" id="Line-Copy-102"></path>
                    <path d="M4.25426447,3.67933036 L5.93249568,3.67933036" id="Line-Copy-101"></path>
                    <path d="M4.25426447,6.19128597 L5.93249568,6.19128597" id="Line-Copy-100"></path>
                    <path d="M4.25426447,8.70324157 L5.93249568,8.70324157" id="Line-Copy-97"></path>
                    <path d="M4.25426447,11.2151972 L5.93249568,11.2151972" id="Line-Copy-113"></path>
                    <path d="M7.63067613,1.16737475 L9.30890733,1.16737475" id="Line-Copy-109"></path>
                    <path d="M7.63067613,3.67933036 L9.30890733,3.67933036" id="Line-Copy-108"></path>
                    <path d="M7.63067613,6.19128597 L9.30890733,6.19128597" id="Line-Copy-107"></path>
                    <path d="M7.63067613,8.70324157 L9.30890733,8.70324157" id="Line-Copy-105"></path>
                    <path d="M7.63067613,11.2151972 L9.30890733,11.2151972" id="Line-Copy-115"></path>
                    <path d="M11.2460133,1.16737475 L12.9242445,1.16737475" id="Line-Copy-124"></path>
                    <path d="M11.2460133,3.67933036 L12.9242445,3.67933036" id="Line-Copy-123"></path>
                    <path d="M11.2460133,6.19128597 L12.9242445,6.19128597" id="Line-Copy-122"></path>
                    <path d="M11.2460133,8.70324157 L12.9242445,8.70324157" id="Line-Copy-120"></path>
                    <path d="M11.2460133,11.2151972 L12.9242445,11.2151972" id="Line-Copy-127"></path>
                </g>
                <rect id="Rectangle-468" stroke="#022C53" sketch:type="MSShapeGroup" x="0.328667015" y="1.98860954" width="20.7060219" height="18.0766858" rx="3"></rect>
                <rect id="Rectangle-467-Copy-6" fill="#022C53" sketch:type="MSShapeGroup" x="0.179015756" y="2.31727656" width="5.69463755" height="17.7480188" rx="1"></rect>
                <path d="M1.31466806,2.61791088 L20.0486879,2.61791088" id="Line-Copy-96" stroke="#022C53" stroke-width="4" stroke-linecap="round" stroke-linejoin="round" sketch:type="MSShapeGroup"></path>
            </g>
        </g>
    </g>
</svg>