<?xml version="1.0" encoding="UTF-8" standalone="no"?>
<svg width="24px" height="21px" viewBox="0 0 24 21" version="1.1" xmlns="http://www.w3.org/2000/svg" xmlns:xlink="http://www.w3.org/1999/xlink">
    <!-- Generator: Sketch 3.7.1 (28215) - http://www.bohemiancoding.com/sketch -->
    <title>i-browse--inverse</title>
    <desc>Created with Sketch.</desc>
    <defs></defs>
    <g id="Icons" stroke="none" stroke-width="1" fill="none" fill-rule="evenodd">
        <g id="Simple-Copy" transform="translate(-94.000000, -865.000000)" fill="#FFFFFF">
            <g id="i-browse--inverse" transform="translate(94.000000, 865.000000)">
                <path d="M7.95695438,7.16419118 L9.63518559,7.16419118 C9.91132796,7.16419118 10.1351856,6.94033355 10.1351856,6.66419118 C10.1351856,6.38804881 9.91132796,6.16419118 9.63518559,6.16419118 L7.95695438,6.16419118 C7.68081201,6.16419118 7.45695438,6.38804881 7.45695438,6.66419118 C7.45695438,6.94033355 7.68081201,7.16419118 7.95695438,7.16419118 L7.95695438,7.16419118 Z" id="Line-Copy-93"></path>
                <path d="M7.95695438,9.67614679 L9.63518559,9.67614679 C9.91132796,9.67614679 10.1351856,9.45228916 10.1351856,9.17614679 C10.1351856,8.90000441 9.91132796,8.67614679 9.63518559,8.67614679 L7.95695438,8.67614679 C7.68081201,8.67614679 7.45695438,8.90000441 7.45695438,9.17614679 C7.45695438,9.45228916 7.68081201,9.67614679 7.95695438,9.67614679 L7.95695438,9.67614679 Z" id="Line-Copy-92"></path>
                <path d="M7.95695438,12.1881024 L9.63518559,12.1881024 C9.91132796,12.1881024 10.1351856,11.9642448 10.1351856,11.6881024 C10.1351856,11.41196 9.91132796,11.1881024 9.63518559,11.1881024 L7.95695438,11.1881024 C7.68081201,11.1881024 7.45695438,11.41196 7.45695438,11.6881024 C7.45695438,11.9642448 7.68081201,12.1881024 7.95695438,12.1881024 L7.95695438,12.1881024 Z" id="Line-Copy-95"></path>
                <path d="M7.95695438,14.700058 L9.63518559,14.700058 C9.91132796,14.700058 10.1351856,14.4762004 10.1351856,14.200058 C10.1351856,13.9239156 9.91132796,13.700058 9.63518559,13.700058 L7.95695438,13.700058 C7.68081201,13.700058 7.45695438,13.9239156 7.45695438,14.200058 C7.45695438,14.4762004 7.68081201,14.700058 7.95695438,14.700058 L7.95695438,14.700058 Z" id="Line-Copy-94"></path>
                <path d="M7.95695438,17.2120136 L9.63518559,17.2120136 C9.91132796,17.2120136 10.1351856,16.988156 10.1351856,16.7120136 C10.1351856,16.4358712 9.91132796,16.2120136 9.63518559,16.2120136 L7.95695438,16.2120136 C7.68081201,16.2120136 7.45695438,16.4358712 7.45695438,16.7120136 C7.45695438,16.988156 7.68081201,17.2120136 7.95695438,17.2120136 L7.95695438,17.2120136 Z" id="Line-Copy-112"></path>
                <path d="M11.333366,7.16419118 L13.0115972,7.16419118 C13.2877396,7.16419118 13.5115972,6.94033355 13.5115972,6.66419118 C13.5115972,6.38804881 13.2877396,6.16419118 13.0115972,6.16419118 L11.333366,6.16419118 C11.0572237,6.16419118 10.833366,6.38804881 10.833366,6.66419118 C10.833366,6.94033355 11.0572237,7.16419118 11.333366,7.16419118 L11.333366,7.16419118 Z" id="Line-Copy-102"></path>
                <path d="M11.333366,9.67614679 L13.0115972,9.67614679 C13.2877396,9.67614679 13.5115972,9.45228916 13.5115972,9.17614679 C13.5115972,8.90000441 13.2877396,8.67614679 13.0115972,8.67614679 L11.333366,8.67614679 C11.0572237,8.67614679 10.833366,8.90000441 10.833366,9.17614679 C10.833366,9.45228916 11.0572237,9.67614679 11.333366,9.67614679 L11.333366,9.67614679 Z" id="Line-Copy-101"></path>
                <path d="M11.333366,12.1881024 L13.0115972,12.1881024 C13.2877396,12.1881024 13.5115972,11.9642448 13.5115972,11.6881024 C13.5115972,11.41196 13.2877396,11.1881024 13.0115972,11.1881024 L11.333366,11.1881024 C11.0572237,11.1881024 10.833366,11.41196 10.833366,11.6881024 C10.833366,11.9642448 11.0572237,12.1881024 11.333366,12.1881024 L11.333366,12.1881024 Z" id="Line-Copy-100"></path>
                <path d="M11.333366,14.700058 L13.0115972,14.700058 C13.2877396,14.700058 13.5115972,14.4762004 13.5115972,14.200058 C13.5115972,13.9239156 13.2877396,13.700058 13.0115972,13.700058 L11.333366,13.700058 C11.0572237,13.700058 10.833366,13.9239156 10.833366,14.200058 C10.833366,14.4762004 11.0572237,14.700058 11.333366,14.700058 L11.333366,14.700058 Z" id="Line-Copy-97"></path>
                <path d="M11.333366,17.2120136 L13.0115972,17.2120136 C13.2877396,17.2120136 13.5115972,16.988156 13.5115972,16.7120136 C13.5115972,16.4358712 13.2877396,16.2120136 13.0115972,16.2120136 L11.333366,16.2120136 C11.0572237,16.2120136 10.833366,16.4358712 10.833366,16.7120136 C10.833366,16.988156 11.0572237,17.2120136 11.333366,17.2120136 L11.333366,17.2120136 Z" id="Line-Copy-113"></path>
                <path d="M14.7097777,7.16419118 L16.3880089,7.16419118 C16.6641513,7.16419118 16.8880089,6.94033355 16.8880089,6.66419118 C16.8880089,6.38804881 16.6641513,6.16419118 16.3880089,6.16419118 L14.7097777,6.16419118 C14.4336353,6.16419118 14.2097777,6.38804881 14.2097777,6.66419118 C14.2097777,6.94033355 14.4336353,7.16419118 14.7097777,7.16419118 L14.7097777,7.16419118 Z" id="Line-Copy-109"></path>
                <path d="M14.7097777,9.67614679 L16.3880089,9.67614679 C16.6641513,9.67614679 16.8880089,9.45228916 16.8880089,9.17614679 C16.8880089,8.90000441 16.6641513,8.67614679 16.3880089,8.67614679 L14.7097777,8.67614679 C14.4336353,8.67614679 14.2097777,8.90000441 14.2097777,9.17614679 C14.2097777,9.45228916 14.4336353,9.67614679 14.7097777,9.67614679 L14.7097777,9.67614679 Z" id="Line-Copy-108"></path>
                <path d="M14.7097777,12.1881024 L16.3880089,12.1881024 C16.6641513,12.1881024 16.8880089,11.9642448 16.8880089,11.6881024 C16.8880089,11.41196 16.6641513,11.1881024 16.3880089,11.1881024 L14.7097777,11.1881024 C14.4336353,11.1881024 14.2097777,11.41196 14.2097777,11.6881024 C14.2097777,11.9642448 14.4336353,12.1881024 14.7097777,12.1881024 L14.7097777,12.1881024 Z" id="Line-Copy-107"></path>
                <path d="M14.7097777,14.700058 L16.3880089,14.700058 C16.6641513,14.700058 16.8880089,14.4762004 16.8880089,14.200058 C16.8880089,13.9239156 16.6641513,13.700058 16.3880089,13.700058 L14.7097777,13.700058 C14.4336353,13.700058 14.2097777,13.9239156 14.2097777,14.200058 C14.2097777,14.4762004 14.4336353,14.700058 14.7097777,14.700058 L14.7097777,14.700058 Z" id="Line-Copy-105"></path>
                <path d="M14.7097777,17.2120136 L16.3880089,17.2120136 C16.6641513,17.2120136 16.8880089,16.988156 16.8880089,16.7120136 C16.8880089,16.4358712 16.6641513,16.2120136 16.3880089,16.2120136 L14.7097777,16.2120136 C14.4336353,16.2120136 14.2097777,16.4358712 14.2097777,16.7120136 C14.2097777,16.988156 14.4336353,17.2120136 14.7097777,17.2120136 L14.7097777,17.2120136 Z" id="Line-Copy-115"></path>
                <path d="M18.3251149,7.16419118 L20.0033461,7.16419118 C20.2794884,7.16419118 20.5033461,6.94033355 20.5033461,6.66419118 C20.5033461,6.38804881 20.2794884,6.16419118 20.0033461,6.16419118 L18.3251149,6.16419118 C18.0489725,6.16419118 17.8251149,6.38804881 17.8251149,6.66419118 C17.8251149,6.94033355 18.0489725,7.16419118 18.3251149,7.16419118 L18.3251149,7.16419118 Z" id="Line-Copy-124"></path>
                <path d="M18.3251149,9.67614679 L20.0033461,9.67614679 C20.2794884,9.67614679 20.5033461,9.45228916 20.5033461,9.17614679 C20.5033461,8.90000441 20.2794884,8.67614679 20.0033461,8.67614679 L18.3251149,8.67614679 C18.0489725,8.67614679 17.8251149,8.90000441 17.8251149,9.17614679 C17.8251149,9.45228916 18.0489725,9.67614679 18.3251149,9.67614679 L18.3251149,9.67614679 Z" id="Line-Copy-123"></path>
                <path d="M18.3251149,12.1881024 L20.0033461,12.1881024 C20.2794884,12.1881024 20.5033461,11.9642448 20.5033461,11.6881024 C20.5033461,11.41196 20.2794884,11.1881024 20.0033461,11.1881024 L18.3251149,11.1881024 C18.0489725,11.1881024 17.8251149,11.41196 17.8251149,11.6881024 C17.8251149,11.9642448 18.0489725,12.1881024 18.3251149,12.1881024 L18.3251149,12.1881024 Z" id="Line-Copy-122"></path>
                <path d="M18.3251149,14.700058 L20.0033461,14.700058 C20.2794884,14.700058 20.5033461,14.4762004 20.5033461,14.200058 C20.5033461,13.9239156 20.2794884,13.700058 20.0033461,13.700058 L18.3251149,13.700058 C18.0489725,13.700058 17.8251149,13.9239156 17.8251149,14.200058 C17.8251149,14.4762004 18.0489725,14.700058 18.3251149,14.700058 L18.3251149,14.700058 Z" id="Line-Copy-120"></path>
                <path d="M18.3251149,17.2120136 L20.0033461,17.2120136 C20.2794884,17.2120136 20.5033461,16.988156 20.5033461,16.7120136 C20.5033461,16.4358712 20.2794884,16.2120136 20.0033461,16.2120136 L18.3251149,16.2120136 C18.0489725,16.2120136 17.8251149,16.4358712 17.8251149,16.7120136 C17.8251149,16.988156 18.0489725,17.2120136 18.3251149,17.2120136 L18.3251149,17.2120136 Z" id="Line-Copy-127"></path>
                <path d="M1.32866702,4.99389849 C1.32866702,3.33412324 2.6712928,1.98860954 4.32843591,1.98860954 L19.0349201,1.98860954 C20.6916467,1.98860954 22.034689,3.33253075 22.034689,4.99389849 L22.034689,17.0600064 C22.034689,18.7197817 20.6920632,20.0652954 19.0349201,20.0652954 L4.32843591,20.0652954 C2.6717093,20.0652954 1.32866702,18.7213742 1.32866702,17.0600064 L1.32866702,4.99389849 L1.32866702,4.99389849 Z M2.32866702,4.99389849 L2.32866702,17.0600064 C2.32866702,18.1688687 3.22377473,19.0652954 4.32843591,19.0652954 L19.0349201,19.0652954 C20.1392011,19.0652954 21.034689,18.1680736 21.034689,17.0600064 L21.034689,4.99389849 C21.034689,3.88503617 20.1395812,2.98860954 19.0349201,2.98860954 L4.32843591,2.98860954 C3.22415489,2.98860954 2.32866702,3.8858313 2.32866702,4.99389849 L2.32866702,4.99389849 Z" id="Rectangle-468"></path>
                <path d="M6.87365331,19.0602333 C6.87365331,19.6153137 6.42680465,20.0652954 5.88172315,20.0652954 L2.17094592,20.0652954 C1.62311802,20.0652954 1.17901576,19.6265779 1.17901576,19.0602333 L1.17901576,4.26443038 C0.656817477,3.90357086 0.31466806,3.30069751 0.31466806,2.61791088 C0.31466806,1.51334138 1.21009856,0.61791088 2.31466806,0.61791088 L21.0486879,0.61791088 C22.1532574,0.61791088 23.0486879,1.51334138 23.0486879,2.61791088 C23.0486879,3.72248038 22.1532574,4.61791088 21.0486879,4.61791088 L6.87365331,4.61791088 L6.87365331,19.0602333 Z" id="Combined-Shape"></path>
            </g>
        </g>
    </g>
</svg>