<?xml version="1.0" encoding="UTF-8" standalone="no"?>
<svg width="17px" height="23px" viewBox="0 0 17 23" version="1.1" xmlns="http://www.w3.org/2000/svg" xmlns:xlink="http://www.w3.org/1999/xlink">
    <!-- Generator: Sketch 3.7 (28169) - http://www.bohemiancoding.com/sketch -->
    <title>i-candidates--inverse</title>
    <desc>Created with Sketch.</desc>
    <defs></defs>
    <g id="Icons" stroke="none" stroke-width="1" fill="none" fill-rule="evenodd">
        <g id="Simple-Copy" transform="translate(-99.000000, -1652.000000)" fill="#FFFFFF">
            <g id="i-candidates--inverse" transform="translate(99.000000, 1652.000000)">
                <path d="M10.8042917,12.2338894 L11.2568821,9.93059576 C11.2827792,9.78404175 11.2992592,9.63572202 11.2992592,9.4815166 C11.2992592,8.18540089 10.3072074,7.11691713 9.03902874,7.01006408 C8.14451002,7.72996793 7.00754055,8.16082877 5.76993813,8.16082877 C4.53634087,8.16082877 3.40272626,7.73275214 2.50953971,7.01704429 C1.27541148,7.1568301 0.320068359,8.2090591 0.320068359,9.4815166 C0.320068359,9.63572202 0.326542633,9.78404175 0.352439727,9.93059576 L2.38359591,20.2135079 C2.59901265,21.2123117 3.62194788,22.0839844 4.77848856,22.0839844 L6.84142755,22.0839844 C6.94562394,22.0839844 7.04874434,22.076902 7.1502939,22.0632825 C5.29593691,21.2532152 4,19.4029487 4,17.25 C4,14.3505051 6.35050506,12 9.25,12 C9.79112149,12 10.313122,12.0818665 10.8042917,12.2338894 Z" id="Combined-Shape"></path>
                <path d="M9.99761836,20.4855529 C9.84813935,20.6298232 9.6412957,20.7192601 9.41266452,20.7192601 C9.18430913,20.7192601 8.97746548,20.6298232 8.82771068,20.4855529 L5.24242076,17.0251949 C5.09266595,16.8806584 5,16.6810223 5,16.460358 C5,16.0192954 5.37038803,15.6618138 5.8273746,15.6618138 C6.05600578,15.6618138 6.26257364,15.7512508 6.41232844,15.8957873 L9.41266452,18.7915745 L15.1709159,13.2339734 C15.3206707,13.0894369 15.5275144,13 15.7558698,13 C16.2128563,13 16.5832444,13.3574816 16.5832444,13.7985441 C16.5832444,14.0189423 16.4905784,14.2188446 16.3410994,14.363381 L9.99761836,20.4855529 Z" id="Fill-3"></path>
                <ellipse id="Oval-326-Copy" cx="5.76993813" cy="2.94286496" rx="2.89886878" ry="2.89886878"></ellipse>
            </g>
        </g>
    </g>
</svg>