<?xml version="1.0" encoding="UTF-8" standalone="no"?>
<svg width="15px" height="15px" viewBox="0 0 15 15" version="1.1" xmlns="http://www.w3.org/2000/svg" xmlns:xlink="http://www.w3.org/1999/xlink">
    <!-- Generator: Sketch 3.6.1 (26313) - http://www.bohemiancoding.com/sketch -->
    <title>i-calview--primary</title>
    <desc>Created with Sketch.</desc>
    <defs></defs>
    <g id="Icons" stroke="none" stroke-width="1" fill="none" fill-rule="evenodd">
        <g id="Simple-Copy" transform="translate(-277.000000, -1187.000000)">
            <g id="i-calview--primary" transform="translate(278.000000, 1188.000000)">
                <g id="i_calview_primary-copy-4">
                    <rect id="Rectangle-201" stroke="#022C53" x="0" y="0" width="13" height="13" rx="0.5"></rect>
                    <path d="M-2.25406038e-13,0.493741035 C-2.26002207e-13,0.221055391 0.225639343,0 0.493741035,0 L12.506259,0 C12.7789446,0 13,0.225639343 13,0.493741035 L13,12.506259 C13,12.7789446 12.7743607,13 12.506259,13 L0.493741035,13 C0.221055391,13 -1.985571e-13,12.7743607 -1.99143246e-13,12.506259 L-2.25406038e-13,0.493741035 Z" id="Rectangle-201-Copy" stroke="#022C53"></path>
                    <rect id="Rectangle-203" fill="#022C53" x="0" y="0" width="13" height="4" rx="0.5"></rect>
                </g>
                <path d="M6.5,3.5 L6.5,12.5" id="Line-Copy-38" stroke="#022C53" stroke-linecap="square"></path>
                <path d="M9.5,3.5 L9.5,12.5" id="Line-Copy-40" stroke="#022C53" stroke-linecap="square"></path>
                <path d="M3.5,3.5 L3.5,12.5" id="Line-Copy-39" stroke="#022C53" stroke-linecap="square"></path>
                <path d="M0.5,6.5 L12.5,6.5" id="Line-Copy-41" stroke="#022C53" stroke-linecap="square"></path>
                <path d="M0.5,9.5 L12.5,9.5" id="Line-Copy-42" stroke="#022C53" stroke-linecap="square"></path>
            </g>
        </g>
    </g>
</svg>