<?xml version="1.0" encoding="UTF-8" standalone="no"?>
<svg width="15px" height="15px" viewBox="0 0 15 15" version="1.1" xmlns="http://www.w3.org/2000/svg" xmlns:xlink="http://www.w3.org/1999/xlink">
    <!-- Generator: Sketch 3.6.1 (26313) - http://www.bohemiancoding.com/sketch -->
    <title>i-cal--primary</title>
    <desc>Created with Sketch.</desc>
    <defs></defs>
    <g id="Page-1" stroke="none" stroke-width="1" fill="none" fill-rule="evenodd">
        <g id="Simple-Copy" transform="translate(-287.000000, -988.000000)" fill="#022C53">
            <path d="M299.5,989.351795 L300.008116,989.351795 C301.108203,989.351795 302,990.238746 302,991.346415 L302,1000.87513 C302,1001.97672 301.106603,1002.86975 300.008116,1002.86975 L288.991884,1002.86975 C287.891797,1002.86975 287,1001.9828 287,1000.87513 L287,991.346415 C287,990.244817 287.893397,989.351795 288.991884,989.351795 L289.5,989.351795 L289.5,988.584769 C289.5,988.26181 289.767616,988 290.076923,988 C290.395549,988 290.653846,988.265831 290.653846,988.584769 L290.653846,989.351795 L298.346154,989.351795 L298.346154,988.584769 C298.346154,988.26181 298.61377,988 298.923077,988 C299.241703,988 299.5,988.265831 299.5,988.584769 L299.5,989.351795 Z M289.307692,994.565862 C289.838735,994.565862 290.269231,994.133563 290.269231,993.600294 C290.269231,993.067026 289.838735,992.634726 289.307692,992.634726 C288.776649,992.634726 288.346154,993.067026 288.346154,993.600294 C288.346154,994.133563 288.776649,994.565862 289.307692,994.565862 Z M289.307692,996.883225 C289.838735,996.883225 290.269231,996.450926 290.269231,995.917657 C290.269231,995.384389 289.838735,994.952089 289.307692,994.952089 C288.776649,994.952089 288.346154,995.384389 288.346154,995.917657 C288.346154,996.450926 288.776649,996.883225 289.307692,996.883225 Z M291.807692,994.565862 C292.338735,994.565862 292.769231,994.133563 292.769231,993.600294 C292.769231,993.067026 292.338735,992.634726 291.807692,992.634726 C291.276649,992.634726 290.846154,993.067026 290.846154,993.600294 C290.846154,994.133563 291.276649,994.565862 291.807692,994.565862 Z M291.807692,996.883225 C292.338735,996.883225 292.769231,996.450926 292.769231,995.917657 C292.769231,995.384389 292.338735,994.952089 291.807692,994.952089 C291.276649,994.952089 290.846154,995.384389 290.846154,995.917657 C290.846154,996.450926 291.276649,996.883225 291.807692,996.883225 Z M294.5,994.565862 C295.031043,994.565862 295.461538,994.133563 295.461538,993.600294 C295.461538,993.067026 295.031043,992.634726 294.5,992.634726 C293.968957,992.634726 293.538462,993.067026 293.538462,993.600294 C293.538462,994.133563 293.968957,994.565862 294.5,994.565862 Z M294.5,996.883225 C295.031043,996.883225 295.461538,996.450926 295.461538,995.917657 C295.461538,995.384389 295.031043,994.952089 294.5,994.952089 C293.968957,994.952089 293.538462,995.384389 293.538462,995.917657 C293.538462,996.450926 293.968957,996.883225 294.5,996.883225 Z M297.192308,994.565862 C297.723351,994.565862 298.153846,994.133563 298.153846,993.600294 C298.153846,993.067026 297.723351,992.634726 297.192308,992.634726 C296.661265,992.634726 296.230769,993.067026 296.230769,993.600294 C296.230769,994.133563 296.661265,994.565862 297.192308,994.565862 Z M297.192308,996.883225 C297.723351,996.883225 298.153846,996.450926 298.153846,995.917657 C298.153846,995.384389 297.723351,994.952089 297.192308,994.952089 C296.661265,994.952089 296.230769,995.384389 296.230769,995.917657 C296.230769,996.450926 296.661265,996.883225 297.192308,996.883225 Z M299.884615,994.565862 C300.415658,994.565862 300.846154,994.133563 300.846154,993.600294 C300.846154,993.067026 300.415658,992.634726 299.884615,992.634726 C299.353572,992.634726 298.923077,993.067026 298.923077,993.600294 C298.923077,994.133563 299.353572,994.565862 299.884615,994.565862 Z M299.884615,996.883225 C300.415658,996.883225 300.846154,996.450926 300.846154,995.917657 C300.846154,995.384389 300.415658,994.952089 299.884615,994.952089 C299.353572,994.952089 298.923077,995.384389 298.923077,995.917657 C298.923077,996.450926 299.353572,996.883225 299.884615,996.883225 Z M289.307692,999.200588 C289.838735,999.200588 290.269231,998.768289 290.269231,998.23502 C290.269231,997.701752 289.838735,997.269452 289.307692,997.269452 C288.776649,997.269452 288.346154,997.701752 288.346154,998.23502 C288.346154,998.768289 288.776649,999.200588 289.307692,999.200588 Z M291.807692,999.200588 C292.338735,999.200588 292.769231,998.768289 292.769231,998.23502 C292.769231,997.701752 292.338735,997.269452 291.807692,997.269452 C291.276649,997.269452 290.846154,997.701752 290.846154,998.23502 C290.846154,998.768289 291.276649,999.200588 291.807692,999.200588 Z M294.5,999.200588 C295.031043,999.200588 295.461538,998.768289 295.461538,998.23502 C295.461538,997.701752 295.031043,997.269452 294.5,997.269452 C293.968957,997.269452 293.538462,997.701752 293.538462,998.23502 C293.538462,998.768289 293.968957,999.200588 294.5,999.200588 Z M297.192308,999.200588 C297.723351,999.200588 298.153846,998.768289 298.153846,998.23502 C298.153846,997.701752 297.723351,997.269452 297.192308,997.269452 C296.661265,997.269452 296.230769,997.701752 296.230769,998.23502 C296.230769,998.768289 296.661265,999.200588 297.192308,999.200588 Z M299.884615,999.200588 C300.415658,999.200588 300.846154,998.768289 300.846154,998.23502 C300.846154,997.701752 300.415658,997.269452 299.884615,997.269452 C299.353572,997.269452 298.923077,997.701752 298.923077,998.23502 C298.923077,998.768289 299.353572,999.200588 299.884615,999.200588 Z M289.307692,1001.51795 C289.838735,1001.51795 290.269231,1001.08565 290.269231,1000.55238 C290.269231,1000.01911 289.838735,999.586815 289.307692,999.586815 C288.776649,999.586815 288.346154,1000.01911 288.346154,1000.55238 C288.346154,1001.08565 288.776649,1001.51795 289.307692,1001.51795 Z M291.807692,1001.51795 C292.338735,1001.51795 292.769231,1001.08565 292.769231,1000.55238 C292.769231,1000.01911 292.338735,999.586815 291.807692,999.586815 C291.276649,999.586815 290.846154,1000.01911 290.846154,1000.55238 C290.846154,1001.08565 291.276649,1001.51795 291.807692,1001.51795 Z M294.5,1001.51795 C295.031043,1001.51795 295.461538,1001.08565 295.461538,1000.55238 C295.461538,1000.01911 295.031043,999.586815 294.5,999.586815 C293.968957,999.586815 293.538462,1000.01911 293.538462,1000.55238 C293.538462,1001.08565 293.968957,1001.51795 294.5,1001.51795 Z M297.192308,1001.51795 C297.723351,1001.51795 298.153846,1001.08565 298.153846,1000.55238 C298.153846,1000.01911 297.723351,999.586815 297.192308,999.586815 C296.661265,999.586815 296.230769,1000.01911 296.230769,1000.55238 C296.230769,1001.08565 296.661265,1001.51795 297.192308,1001.51795 Z M299.884615,1001.51795 C300.415658,1001.51795 300.846154,1001.08565 300.846154,1000.55238 C300.846154,1000.01911 300.415658,999.586815 299.884615,999.586815 C299.353572,999.586815 298.923077,1000.01911 298.923077,1000.55238 C298.923077,1001.08565 299.353572,1001.51795 299.884615,1001.51795 Z M287.576923,991.089817 L301.423077,991.089817 L301.423077,991.862272 L287.576923,991.862272 L287.576923,991.089817 Z" id="i-cal--primary"></path>
        </g>
    </g>
</svg>