<?xml version="1.0" encoding="UTF-8" standalone="no"?>
<svg width="16px" height="22px" viewBox="0 0 16 22" version="1.1" xmlns="http://www.w3.org/2000/svg" xmlns:xlink="http://www.w3.org/1999/xlink">
    <!-- Generator: Sketch 3.7 (28169) - http://www.bohemiancoding.com/sketch -->
    <title>i-candidate--inverse</title>
    <desc>Created with Sketch.</desc>
    <defs></defs>
    <g id="Icons" stroke="none" stroke-width="1" fill="none" fill-rule="evenodd">
        <g id="i-candidate--inverse" fill="#FFFFFF">
            <path d="M8.98031604,2.94718531 C8.97980301,4.39110628 7.61412142,5.70421048 6.11505244,5.70421048 C4.61444438,5.70421048 3.24978884,4.39110628 3.24978884,2.94718531 C3.24927581,1.50277069 4.61444438,0.186704598 6.11505244,0.186704598 C7.61617353,0.186704598 8.98390724,1.50178339 8.98031604,2.94718531" id="Fill-3"></path>
            <path d="M8.32341969,21.707349 C7.97960719,21.872051 7.59511978,21.9679439 7.19549024,21.9679439 L5.03871886,21.9679439 C3.82951093,21.9679439 2.75984672,21.0907311 2.53462725,20.0856634 L0.410689688,9.73978449 C0.383499183,9.59218368 0.376829813,9.44260827 0.376829813,9.28760274 C0.376829813,7.91229887 1.52857857,6.79221111 2.95736265,6.79221111 L2.96095385,6.79221111 L9.27633342,6.79221111 C10.7035784,6.79221111 11.8568663,7.91279251 11.8568663,9.28760274 C11.8568663,9.44260827 11.8394233,9.59218368 11.8122328,9.73978449 L11.3693898,11.9084343 C10.5594868,11.4451536 9.61511964,11.1794957 8.60750872,11.1794957 C5.60809731,11.1794957 3.16909382,13.5335104 3.16909382,16.4469568 C3.16909382,19.2678522 5.45559953,21.5642941 8.32341969,21.707349 Z" id="Combined-Shape"></path>
            <path d="M9.20599618,20.0131026 C9.05651717,20.1573729 8.84967352,20.2468098 8.62104234,20.2468098 C8.39268695,20.2468098 8.1858433,20.1573729 8.0360885,20.0131026 L4.45079857,16.5527446 C4.30104377,16.4082081 4.20837782,16.2085721 4.20837782,15.9879077 C4.20837782,15.5468452 4.57876585,15.1893636 5.03575242,15.1893636 C5.2643836,15.1893636 5.47095145,15.2788005 5.62070626,15.423337 L8.62104234,18.3191243 L14.3792937,12.7615232 C14.5290485,12.6169867 14.7358922,12.5275497 14.9642476,12.5275497 C15.4212342,12.5275497 15.7916222,12.8850313 15.7916222,13.3260939 C15.7916222,13.5464921 15.6989562,13.7463943 15.5494772,13.8909308 L9.20599618,20.0131026 Z" id="Fill-3"></path>
        </g>
    </g>
</svg>