<?xml version="1.0" encoding="UTF-8" standalone="no"?>
<svg width="18px" height="15px" viewBox="0 0 18 15" version="1.1" xmlns="http://www.w3.org/2000/svg" xmlns:xlink="http://www.w3.org/1999/xlink" xmlns:sketch="http://www.bohemiancoding.com/sketch/ns">
    <!-- Generator: Sketch 3.3.3 (12081) - http://www.bohemiancoding.com/sketch -->
    <title>i-chart</title>
    <desc>Created with Sketch.</desc>
    <defs></defs>
    <g id="Style-Guide-v1" stroke="none" stroke-width="1" fill="none" fill-rule="evenodd" sketch:type="MSPage">
        <g id="Web-Style-Guide" sketch:type="MSArtboardGroup" transform="translate(-371.000000, -5466.000000)" fill="#631010">
            <path d="M387.9259,5480.87089 L372.441945,5480.87089 C372.079515,5480.87089 371.785845,5480.57722 371.785845,5480.21479 L371.785845,5479.95235 C371.785845,5479.58992 372.079515,5479.29625 372.441945,5479.29625 L387.9259,5479.29625 C388.288329,5479.29625 388.582,5479.58992 388.582,5479.95235 L388.582,5480.21479 C388.582,5480.57722 388.288329,5480.87089 387.9259,5480.87089 L387.9259,5480.87089 Z M386.22004,5477.72161 C386.22004,5478.15647 385.867584,5478.50893 385.432721,5478.50893 L383.858081,5478.50893 C383.423218,5478.50893 383.070761,5478.15647 383.070761,5477.72161 L383.070761,5470.63573 C383.070761,5470.20087 383.423218,5469.84841 383.858081,5469.84841 L385.432721,5469.84841 C385.867584,5469.84841 386.22004,5470.20087 386.22004,5470.63573 L386.22004,5477.72161 L386.22004,5477.72161 Z M380.971242,5478.50893 L379.396603,5478.50893 C378.96174,5478.50893 378.609283,5478.15647 378.609283,5477.72161 L378.609283,5467.48645 C378.609283,5467.05159 378.96174,5466.69913 379.396603,5466.69913 L380.971242,5466.69913 C381.406105,5466.69913 381.758562,5467.05159 381.758562,5467.48645 L381.758562,5477.72161 C381.758562,5478.15647 381.406105,5478.50893 380.971242,5478.50893 L380.971242,5478.50893 Z M376.509763,5478.50893 L374.935124,5478.50893 C374.500261,5478.50893 374.147804,5478.15647 374.147804,5477.72161 L374.147804,5474.57233 C374.147804,5474.13773 374.500261,5473.78501 374.935124,5473.78501 L376.509763,5473.78501 C376.944626,5473.78501 377.297083,5474.13773 377.297083,5474.57233 L377.297083,5477.72161 C377.297083,5478.15647 376.944626,5478.50893 376.509763,5478.50893 L376.509763,5478.50893 Z" id="i-chart" sketch:type="MSShapeGroup"></path>
        </g>
    </g>
</svg>