<?xml version="1.0" encoding="UTF-8" standalone="no"?>
<svg width="13px" height="9px" viewBox="0 0 13 9" version="1.1" xmlns="http://www.w3.org/2000/svg" xmlns:xlink="http://www.w3.org/1999/xlink" xmlns:sketch="http://www.bohemiancoding.com/sketch/ns">
    <!-- Generator: Sketch 3.3.3 (12081) - http://www.bohemiancoding.com/sketch -->
    <title>i-check--primary</title>
    <desc>Created with Sketch.</desc>
    <defs></defs>
    <g id="Style-Guide-v1" stroke="none" stroke-width="1" fill="none" fill-rule="evenodd" sketch:type="MSPage">
        <g id="Web-Style-Guide" sketch:type="MSArtboardGroup" transform="translate(-365.000000, -6000.000000)" fill="#022C53">
            <path d="M377.311731,6001.81302 L377.311731,6001.81302 L370.632711,6008.49204 C370.475028,6008.64943 370.257234,6008.747 370.016789,6008.747 C369.776344,6008.747 369.55855,6008.64943 369.400867,6008.49204 L365.625769,6004.71694 C365.468086,6004.55926 365.370514,6004.34146 365.370514,6004.10073 C365.370514,6003.61955 365.760511,6003.22955 366.241691,6003.22955 C366.482426,6003.22955 366.699929,6003.32713 366.857612,6003.48481 L370.016789,6006.64398 L376.079888,6000.58089 C376.237571,6000.4232 376.455365,6000.32563 376.695809,6000.32563 C377.176989,6000.32563 377.566986,6000.71563 377.566986,6001.19681 C377.566986,6001.43725 377.469414,6001.65534 377.311731,6001.81302" id="i-check--primary" sketch:type="MSShapeGroup"></path>
        </g>
    </g>
</svg>