<?xml version="1.0" encoding="UTF-8" standalone="no"?>
<svg width="13px" height="10px" viewBox="0 0 13 10" version="1.1" xmlns="http://www.w3.org/2000/svg" xmlns:xlink="http://www.w3.org/1999/xlink" xmlns:sketch="http://www.bohemiancoding.com/sketch/ns">
    <!-- Generator: Sketch 3.3.3 (12081) - http://www.bohemiancoding.com/sketch -->
    <title>i-check--secondary</title>
    <desc>Created with Sketch.</desc>
    <defs></defs>
    <g id="Style-Guide-v1" stroke="none" stroke-width="1" fill="none" fill-rule="evenodd" sketch:type="MSPage">
        <g id="Web-Style-Guide" sketch:type="MSArtboardGroup" transform="translate(-365.000000, -6063.000000)" fill="#631010">
            <path d="M377.311731,6065.44079 L377.311731,6065.44079 L370.632711,6072.11981 C370.475028,6072.2772 370.257234,6072.37477 370.016789,6072.37477 C369.776344,6072.37477 369.55855,6072.2772 369.400867,6072.11981 L365.625769,6068.34471 C365.468086,6068.18703 365.370514,6067.96923 365.370514,6067.7285 C365.370514,6067.24732 365.760511,6066.85732 366.241691,6066.85732 C366.482426,6066.85732 366.699929,6066.95489 366.857612,6067.11258 L370.016789,6070.27175 L376.079888,6064.20866 C376.237571,6064.05097 376.455365,6063.9534 376.695809,6063.9534 C377.176989,6063.9534 377.566986,6064.3434 377.566986,6064.82458 C377.566986,6065.06502 377.469414,6065.28311 377.311731,6065.44079" id="i-check--secondary" sketch:type="MSShapeGroup"></path>
        </g>
    </g>
</svg>