<?xml version="1.0" encoding="UTF-8" standalone="no"?>
<svg width="13px" height="9px" viewBox="0 0 13 9" version="1.1" xmlns="http://www.w3.org/2000/svg" xmlns:xlink="http://www.w3.org/1999/xlink" xmlns:sketch="http://www.bohemiancoding.com/sketch/ns">
    <!-- Generator: Sketch 3.3.3 (12081) - http://www.bohemiancoding.com/sketch -->
    <title>i-check--neutral</title>
    <desc>Created with Sketch.</desc>
    <defs></defs>
    <g id="Style-Guide-v1" stroke="none" stroke-width="1" fill="none" fill-rule="evenodd" sketch:type="MSPage">
        <g id="Web-Style-Guide" sketch:type="MSArtboardGroup" transform="translate(-365.000000, -6129.000000)" fill="#EFDECD">
            <path d="M377.694544,6130.63151 L377.694544,6130.63151 L371.015523,6137.31053 C370.85784,6137.46792 370.640046,6137.56549 370.399602,6137.56549 C370.159157,6137.56549 369.941363,6137.46792 369.78368,6137.31053 L366.008581,6133.53543 C365.850898,6133.37774 365.753327,6133.15995 365.753327,6132.91922 C365.753327,6132.43804 366.143323,6132.04804 366.624503,6132.04804 C366.865238,6132.04804 367.082742,6132.14561 367.240425,6132.30329 L370.399602,6135.46247 L376.4627,6129.39937 C376.620383,6129.24169 376.838177,6129.14412 377.078622,6129.14412 C377.559802,6129.14412 377.949798,6129.53411 377.949798,6130.01529 C377.949798,6130.25574 377.852227,6130.47382 377.694544,6130.63151" id="i-check--neutral" sketch:type="MSShapeGroup"></path>
        </g>
    </g>
</svg>