<?xml version="1.0" encoding="UTF-8" standalone="no"?>
<svg width="13px" height="9px" viewBox="0 0 13 9" version="1.1" xmlns="http://www.w3.org/2000/svg" xmlns:xlink="http://www.w3.org/1999/xlink" xmlns:sketch="http://www.bohemiancoding.com/sketch/ns">
    <!-- Generator: Sketch 3.3.3 (12081) - http://www.bohemiancoding.com/sketch -->
    <title>i-check--secondary-contrast</title>
    <desc>Created with Sketch.</desc>
    <defs></defs>
    <g id="Page-1" stroke="none" stroke-width="1" fill="none" fill-rule="evenodd" sketch:type="MSPage">
        <g id="Simple-Copy" sketch:type="MSArtboardGroup" transform="translate(-340.000000, -151.000000)" fill="#36BDBB">
            <path d="M351.941217,152.487389 L351.941217,152.487389 L345.262197,159.166409 C345.104514,159.323802 344.88672,159.421373 344.646275,159.421373 C344.40583,159.421373 344.188036,159.323802 344.030353,159.166409 L340.255255,155.391311 C340.097572,155.233628 340,155.015834 340,154.775098 C340,154.293919 340.389997,153.903922 340.871177,153.903922 C341.111912,153.903922 341.329415,154.001494 341.487098,154.159177 L344.646275,157.318353 L350.709374,151.255255 C350.867056,151.097572 351.084851,151 351.325295,151 C351.806475,151 352.196472,151.389997 352.196472,151.871177 C352.196472,152.111621 352.0989,152.329706 351.941217,152.487389" id="i-check--secondary-contrast" sketch:type="MSShapeGroup"></path>
        </g>
    </g>
</svg>