<?xml version="1.0" encoding="UTF-8" standalone="no"?>
<svg width="13px" height="9px" viewBox="0 0 13 9" version="1.1" xmlns="http://www.w3.org/2000/svg" xmlns:xlink="http://www.w3.org/1999/xlink">
    <!-- Generator: Sketch 3.7.2 (28276) - http://www.bohemiancoding.com/sketch -->
    <title>i-check--base</title>
    <desc>Created with Sketch.</desc>
    <defs></defs>
    <g id="Page-1" stroke="none" stroke-width="1" fill="none" fill-rule="evenodd">
        <path d="M11.9412172,1.48738879 L11.9412172,1.48738879 L5.26219685,8.16640912 C5.10451389,8.32380169 4.88671975,8.42137346 4.64627501,8.42137346 C4.40583028,8.42137346 4.18803614,8.32380169 4.03035318,8.16640912 L0.255254734,4.39131067 C0.0975717753,4.23362772 0,4.01583357 0,3.77509845 C0,3.29391859 0.389996709,2.90392188 0.871176565,2.90392188 C1.11191169,2.90392188 1.32941544,3.00149366 1.4870984,3.15917662 L4.64627501,6.31835324 L10.7093735,0.255254734 C10.8670565,0.0975717753 11.0848506,0 11.3252953,0 C11.8064752,0 12.1964719,0.389996709 12.1964719,0.871176565 C12.1964719,1.1116213 12.0989001,1.32970583 11.9412172,1.48738879" id="i-check--base" fill="#212121"></path>
    </g>
</svg>