<?xml version="1.0" encoding="UTF-8" standalone="no"?>
<svg width="13px" height="9px" viewBox="0 0 13 9" version="1.1" xmlns="http://www.w3.org/2000/svg" xmlns:xlink="http://www.w3.org/1999/xlink" xmlns:sketch="http://www.bohemiancoding.com/sketch/ns">
    <!-- Generator: Sketch 3.4.3 (16618) - http://www.bohemiancoding.com/sketch -->
    <title>i-check--secondary-contrast</title>
    <desc>Created with Sketch.</desc>
    <defs></defs>
    <g id="Page-1" stroke="none" stroke-width="1" fill="none" fill-rule="evenodd" sketch:type="MSPage">
        <g id="Simple-Copy" sketch:type="MSArtboardGroup" transform="translate(-428.000000, -151.000000)" fill="#F77B42">
            <path d="M439.941217,152.487389 L439.941217,152.487389 L433.262197,159.166409 C433.104514,159.323802 432.88672,159.421373 432.646275,159.421373 C432.40583,159.421373 432.188036,159.323802 432.030353,159.166409 L428.255255,155.391311 C428.097572,155.233628 428,155.015834 428,154.775098 C428,154.293919 428.389997,153.903922 428.871177,153.903922 C429.111912,153.903922 429.329415,154.001494 429.487098,154.159177 L432.646275,157.318353 L438.709374,151.255255 C438.867056,151.097572 439.084851,151 439.325295,151 C439.806475,151 440.196472,151.389997 440.196472,151.871177 C440.196472,152.111621 440.0989,152.329706 439.941217,152.487389" id="i-check--secondary-contrast" sketch:type="MSShapeGroup"></path>
        </g>
    </g>
</svg>