<?xml version="1.0" encoding="UTF-8" standalone="no"?>
<svg width="25px" height="22px" viewBox="0 0 25 22" version="1.1" xmlns="http://www.w3.org/2000/svg" xmlns:xlink="http://www.w3.org/1999/xlink">
    <!-- Generator: Sketch 3.7 (28169) - http://www.bohemiancoding.com/sketch -->
    <title>i-committees-inverse</title>
    <desc>Created with Sketch.</desc>
    <defs></defs>
    <g id="Icons" stroke="none" stroke-width="1" fill="none" fill-rule="evenodd">
        <g id="Simple-Copy" transform="translate(-92.000000, -1616.000000)" fill="#FFFFFF">
            <g id="i-committees-inverse" transform="translate(92.000000, 1616.000000)">
                <path d="M5.89549537,7.6521729 C4.75574955,7.65144335 3.70842821,7.25769378 2.88307072,6.59978772 C1.74160453,6.72840343 0.857991439,7.69655022 0.857991439,8.86732736 C0.857991439,9.00921043 0.863979604,9.14567813 0.887932267,9.2805212 L2.76658315,18.7417397 C2.96582576,19.6607304 3.91195594,20.4627489 4.98166008,20.4627489 L6.88970741,20.4627489 C7.01486217,20.4627489 7.13833854,20.451759 7.25913407,20.430878 C7.24036468,20.3619531 7.22334491,20.2923522 7.20812993,20.2221196 L5.32154411,10.7187118 C5.27474924,10.455277 5.25887901,10.2124855 5.25887901,9.93421699 C5.25887901,9.09964607 5.49132704,8.3185016 5.89549537,7.6521729 Z" id="Combined-Shape"></path>
                <path d="M17.7058513,20.4312314 C17.82603,20.451883 17.9488659,20.4627489 18.0733761,20.4627489 L19.9814234,20.4627489 C21.0505832,20.4627489 21.9972577,19.6607304 22.1965003,18.7417397 L24.0653524,9.2805212 C24.089305,9.14567813 24.1045477,9.00921043 24.1045477,8.86732736 C24.1045477,7.67478251 23.1869821,6.69167985 22.0140221,6.59336528 C21.2050499,7.24102496 20.1816854,7.63442568 19.0665476,7.65158819 C19.4710187,8.31808929 19.7036601,9.09946994 19.7036601,9.93421699 C19.7036601,10.2003788 19.6782638,10.456806 19.6242168,10.7588248 L17.747401,20.2584877 C17.7348253,20.3164924 17.7209643,20.3740828 17.7058513,20.4312314 Z" id="Combined-Shape"></path>
                <path d="M15.4681641,7.65217391 C16.6411241,7.75048848 17.5586897,8.73359115 17.5586897,9.92613599 C17.5586897,10.0680191 17.5434471,10.2044868 17.5194944,10.3393298 L15.6506423,19.8005483 C15.4513997,20.7195391 14.5047252,21.5215575 13.4355654,21.5215575 L11.5275181,21.5215575 C10.4578139,21.5215575 9.51168375,20.7195391 9.31244114,19.8005483 L7.43379026,10.3393298 C7.40983759,10.2044868 7.40384943,10.0680191 7.40384943,9.92613599 C7.40384943,8.75535886 8.28746252,7.78721207 9.4289287,7.65859635 C10.2550521,8.31711295 11.3035515,8.71098255 12.4445266,8.71098255 C13.5892061,8.71098255 14.6408085,8.31455122 15.4681641,7.65217391 Z" id="Combined-Shape-Copy-3"></path>
                <ellipse id="Oval-326-Copy-7" cx="12.4445266" cy="3.9180602" rx="2.68121302" ry="2.66722408"></ellipse>
                <ellipse id="Oval-326-Copy-8" cx="5.89866864" cy="2.85117057" rx="2.68121302" ry="2.66722408"></ellipse>
                <ellipse id="Oval-326-Copy-9" cx="18.9903846" cy="2.85117057" rx="2.68121302" ry="2.66722408"></ellipse>
            </g>
        </g>
    </g>
</svg>