<?xml version="1.0" encoding="UTF-8" standalone="no"?>
<svg width="80px" height="80px" viewBox="0 0 80 80" version="1.1" xmlns="http://www.w3.org/2000/svg" xmlns:xlink="http://www.w3.org/1999/xlink">
    <!-- Generator: Sketch 3.7 (28169) - http://www.bohemiancoding.com/sketch -->
    <title>i-committees--neutral</title>
    <desc>Created with Sketch.</desc>
    <defs></defs>
    <g id="Icons" stroke="none" stroke-width="1" fill="none" fill-rule="evenodd">
        <g id="Complex" transform="translate(-567.000000, -932.000000)">
            <g id="i-committees--neutral" transform="translate(567.000000, 931.913793)">
                <g id="Oval-63-Copy-+-Group-Copy-Copy-Copy-+-Fill-3-Copy-2-+-Fill-4-Copy-2-+-Imported-Layers-Copy-4-+-Oval-41-Copy" transform="translate(0.000000, 0.011079)" fill="#D6D7D9">
                    <g id="Oval-63-Copy-+-Group-Copy-Copy-Copy" transform="translate(0.215477, 0.407820)">
                        <ellipse id="Oval-63-Copy" cx="39.9345669" cy="39.4498957" rx="39.531372" ry="39.4417744"></ellipse>
                    </g>
                </g>
                <g id="Imported-Layers-+-Rectangle-267-Copy-4-+-Path-Copy-Copy-Copy-Copy-Copy-Copy" transform="translate(8.345248, 7.490368)">
                    <path d="M10.1609016,22.4301234 C10.1601749,24.1977077 8.54771405,25.805789 6.7775677,25.805789 C5.00596804,25.805789 3.39423381,24.1977077 3.39423381,22.4301234 C3.39350715,20.661814 5.00596804,19.0501077 6.7775677,19.0501077 C8.54989403,19.0501077 10.1652616,20.660364 10.1609016,22.4301234" id="Fill-1" fill="#3E8A9A"></path>
                    <path d="M24.9779748,41.2145134 C24.9772481,42.9820977 23.3647872,44.590179 21.5946409,44.590179 C19.8230412,44.590179 18.211307,42.9820977 18.211307,41.2145134 C18.2105803,39.446204 19.8230412,37.8344977 21.5946409,37.8344977 C23.3669672,37.8344977 24.9823347,39.444754 24.9779748,41.2145134" id="Fill-1-Copy-2" fill="#3E8A9A"></path>
                    <path d="M24.9779748,3.85091233 C24.9772481,5.61849668 23.3647872,7.22657793 21.5946409,7.22657793 C19.8230412,7.22657793 18.211307,5.61849668 18.211307,3.85091233 C18.2105803,2.08260297 19.8230412,0.47089665 21.5946409,0.47089665 C23.3669672,0.47089665 24.9823347,2.08115294 24.9779748,3.85091233" id="Fill-1-Copy-4" fill="#3E8A9A"></path>
                    <path d="M59.5511455,22.4301234 C59.5504188,24.1977077 57.9379579,25.805789 56.1678116,25.805789 C54.3962119,25.805789 52.7844777,24.1977077 52.7844777,22.4301234 C52.7837511,20.661814 54.3962119,19.0501077 56.1678116,19.0501077 C57.9401379,19.0501077 59.5555055,20.660364 59.5511455,22.4301234" id="Fill-1-Copy" fill="#3E8A9A"></path>
                    <path d="M44.7340723,41.2145134 C44.7333457,42.9820977 43.1208848,44.590179 41.3507384,44.590179 C39.5791388,44.590179 37.9674045,42.9820977 37.9674045,41.2145134 C37.9666779,39.446204 39.5791388,37.8344977 41.3507384,37.8344977 C43.1230648,37.8344977 44.7384323,39.444754 44.7340723,41.2145134" id="Fill-1-Copy-3" fill="#3E8A9A"></path>
                    <path d="M44.7340723,3.85091233 C44.7333457,5.61849668 43.1208848,7.22657793 41.3507384,7.22657793 C39.5791388,7.22657793 37.9674045,5.61849668 37.9674045,3.85091233 C37.9666779,2.08260297 39.5791388,0.47089665 41.3507384,0.47089665 C43.1230648,0.47089665 44.7384323,2.08115294 44.7340723,3.85091233" id="Fill-1-Copy-5" fill="#3E8A9A"></path>
                    <path d="M3.04906981,27.1398149 C1.36176283,27.1398149 0,28.5108165 0,30.1950242 C0,30.3849779 0.00799327166,30.5676815 0.0399663583,30.74821 L2.54767368,43.4149311 C2.81363162,44.64528 4.07656854,45.7190259 5.50445753,45.7190259 L8.05140454,45.7190259 C9.47856686,45.7190259 10.7422304,44.64528 11.0081884,43.4149311 L13.5028158,30.74821 C13.5347889,30.5676815 13.5551354,30.3849779 13.5551354,30.1950242 C13.5551354,28.5115415 12.1933726,27.1398149 10.5060656,27.1398149 L3.04906981,27.1398149" id="Fill-2" fill="#022C53"></path>
                    <path d="M14.8170732,48.9794143 C14.8170732,49.169368 14.8250664,49.3520715 14.8570395,49.5326 L17.3647468,62.1993212 C17.6307048,63.4296701 18.8936417,64.5034159 20.3215307,64.5034159 L22.8684777,64.5034159 C24.29564,64.5034159 25.5593036,63.4296701 25.8252616,62.1993212 L28.319889,49.5326 C28.3518621,49.3520715 28.3722086,49.169368 28.3722086,48.9794143 C28.3722086,47.2959316 27.0104458,45.9242049 25.3231388,45.9242049 L17.866143,45.9242049 C16.178836,45.9242049 14.8170732,47.2952065 14.8170732,48.9794143 Z" id="Fill-2-Copy-2" fill="#022C53"></path>
                    <path d="M14.8170732,11.6158132 C14.8170732,11.8057669 14.8250664,11.9884705 14.8570395,12.168999 L17.3647468,24.8357201 C17.6307048,26.066069 18.8936417,27.1398149 20.3215307,27.1398149 L22.8684777,27.1398149 C24.29564,27.1398149 25.5593036,26.066069 25.8252616,24.8357201 L28.319889,12.168999 C28.3518621,11.9884705 28.3722086,11.8057669 28.3722086,11.6158132 C28.3722086,9.9323305 27.0104458,8.56060385 25.3231388,8.56060385 L17.866143,8.56060385 C16.178836,8.56060385 14.8170732,9.93160549 14.8170732,11.6158132 Z" id="Fill-2-Copy-5" fill="#022C53"></path>
                    <path d="M52.4393137,27.1398149 C50.7520067,27.1398149 49.3902439,28.5108165 49.3902439,30.1950242 C49.3902439,30.3849779 49.3982372,30.5676815 49.4302103,30.74821 L51.9379176,43.4149311 C52.2038755,44.64528 53.4668124,45.7190259 54.8947014,45.7190259 L57.4416484,45.7190259 C58.8688108,45.7190259 60.1324743,44.64528 60.3984323,43.4149311 L62.8930597,30.74821 C62.9250328,30.5676815 62.9453793,30.3849779 62.9453793,30.1950242 C62.9453793,28.5115415 61.5836165,27.1398149 59.8963095,27.1398149 L52.4393137,27.1398149" id="Fill-2-Copy" fill="#022C53"></path>
                    <path d="M37.6222405,45.9242049 C35.9349336,45.9242049 34.5731707,47.2952065 34.5731707,48.9794143 C34.5731707,49.169368 34.581164,49.3520715 34.6131371,49.5326 L37.1208444,62.1993212 C37.3868024,63.4296701 38.6497393,64.5034159 40.0776283,64.5034159 L42.6245753,64.5034159 C44.0517376,64.5034159 45.3154012,63.4296701 45.5813591,62.1993212 L48.0759865,49.5326 C48.1079596,49.3520715 48.1283061,49.169368 48.1283061,48.9794143 C48.1283061,47.2959316 46.7665433,45.9242049 45.0792363,45.9242049 L37.6222405,45.9242049" id="Fill-2-Copy-4" fill="#022C53"></path>
                    <path d="M37.6222405,8.56060385 C35.9349336,8.56060385 34.5731707,9.93160549 34.5731707,11.6158132 C34.5731707,11.8057669 34.581164,11.9884705 34.6131371,12.168999 L37.1208444,24.8357201 C37.3868024,26.066069 38.6497393,27.1398149 40.0776283,27.1398149 L42.6245753,27.1398149 C44.0517376,27.1398149 45.3154012,26.066069 45.5813591,24.8357201 L48.0759865,12.168999 C48.1079596,11.9884705 48.1283061,11.8057669 48.1283061,11.6158132 C48.1283061,9.9323305 46.7665433,8.56060385 45.0792363,8.56060385 L37.6222405,8.56060385" id="Fill-2-Copy-6" fill="#022C53"></path>
                </g>
            </g>
        </g>
    </g>
</svg>