<?xml version="1.0" encoding="UTF-8" standalone="no"?>
<svg width="81px" height="81px" viewBox="0 0 81 81" version="1.1" xmlns="http://www.w3.org/2000/svg" xmlns:xlink="http://www.w3.org/1999/xlink" xmlns:sketch="http://www.bohemiancoding.com/sketch/ns">
    <!-- Generator: Sketch 3.3.3 (12081) - http://www.bohemiancoding.com/sketch -->
    <title>i-committee--primary</title>
    <desc>Created with Sketch.</desc>
    <defs></defs>
    <g id="Page-1" stroke="none" stroke-width="1" fill="none" fill-rule="evenodd" sketch:type="MSPage">
        <g id="Complex" sketch:type="MSArtboardGroup" transform="translate(-173.000000, -939.000000)">
            <g id="i-committee--primary" sketch:type="MSLayerGroup" transform="translate(173.000000, 938.500000)">
                <g id="Oval-63-Copy-+-Group-Copy-Copy-Copy-+-Fill-3-Copy-2-+-Fill-4-Copy-2-+-Imported-Layers-Copy-4-+-Oval-41-Copy" transform="translate(0.000000, 0.011241)" fill="#022C53" sketch:type="MSShapeGroup">
                    <g id="Oval-63-Copy-+-Group-Copy-Copy-Copy" transform="translate(0.218138, 0.413793)">
                        <circle id="Oval-63-Copy" cx="40.4275862" cy="40.8413793" r="40.0194136"></circle>
                    </g>
                </g>
                <g id="Imported-Layers-+-Rectangle-267-Copy-4-+-Path-Copy-Copy-Copy-Copy-Copy-Copy" transform="translate(8.448276, 8.413793)" sketch:type="MSShapeGroup">
                    <path d="M10.2863448,22.7586207 C10.2856092,24.552092 8.65324138,26.1837241 6.86124138,26.1837241 C5.06777011,26.1837241 3.43613793,24.552092 3.43613793,22.7586207 C3.4354023,20.9644138 5.06777011,19.3291034 6.86124138,19.3291034 C8.65544828,19.3291034 10.2907586,20.9629425 10.2863448,22.7586207" id="Fill-1" fill="#36BDBB"></path>
                    <path d="M25.2863448,41.8181149 C25.2856092,43.6115862 23.6532414,45.2432184 21.8612414,45.2432184 C20.0677701,45.2432184 18.4361379,43.6115862 18.4361379,41.8181149 C18.4354023,40.023908 20.0677701,38.3885977 21.8612414,38.3885977 C23.6554483,38.3885977 25.2907586,40.0224368 25.2863448,41.8181149" id="Fill-1-Copy-2" fill="#3E8A9A"></path>
                    <path d="M25.2863448,3.90731034 C25.2856092,5.70078161 23.6532414,7.33241379 21.8612414,7.33241379 C20.0677701,7.33241379 18.4361379,5.70078161 18.4361379,3.90731034 C18.4354023,2.11310345 20.0677701,0.477793103 21.8612414,0.477793103 C23.6554483,0.477793103 25.2907586,2.11163218 25.2863448,3.90731034" id="Fill-1-Copy-4" fill="#3E8A9A"></path>
                    <path d="M60.2863448,22.7586207 C60.2856092,24.552092 58.6532414,26.1837241 56.8612414,26.1837241 C55.0677701,26.1837241 53.4361379,24.552092 53.4361379,22.7586207 C53.4354023,20.9644138 55.0677701,19.3291034 56.8612414,19.3291034 C58.6554483,19.3291034 60.2907586,20.9629425 60.2863448,22.7586207" id="Fill-1-Copy" fill="#3E8A9A"></path>
                    <path d="M45.2863448,41.8181149 C45.2856092,43.6115862 43.6532414,45.2432184 41.8612414,45.2432184 C40.0677701,45.2432184 38.4361379,43.6115862 38.4361379,41.8181149 C38.4354023,40.023908 40.0677701,38.3885977 41.8612414,38.3885977 C43.6554483,38.3885977 45.2907586,40.0224368 45.2863448,41.8181149" id="Fill-1-Copy-3" fill="#36BDBB"></path>
                    <path d="M45.2863448,3.90731034 C45.2856092,5.70078161 43.6532414,7.33241379 41.8612414,7.33241379 C40.0677701,7.33241379 38.4361379,5.70078161 38.4361379,3.90731034 C38.4354023,2.11310345 40.0677701,0.477793103 41.8612414,0.477793103 C43.6554483,0.477793103 45.2907586,2.11163218 45.2863448,3.90731034" id="Fill-1-Copy-5" fill="#36BDBB"></path>
                    <path d="M3.08671264,27.5372874 C1.37857471,27.5372874 0,28.9283678 0,30.6372414 C0,30.829977 0.00809195402,31.0153563 0.0404597701,31.1985287 L2.57912644,44.0507586 C2.84836782,45.2991264 4.12689655,46.3885977 5.57241379,46.3885977 L8.1508046,46.3885977 C9.59558621,46.3885977 10.8748506,45.2991264 11.144092,44.0507586 L13.6695172,31.1985287 C13.7018851,31.0153563 13.7224828,30.829977 13.7224828,30.6372414 C13.7224828,28.9291034 12.343908,27.5372874 10.6357701,27.5372874 L3.08671264,27.5372874" id="Fill-2" fill="#36BDBB"></path>
                    <path d="M15,49.6967356 C15,49.8894713 15.008092,50.0748506 15.0404598,50.258023 L17.5791264,63.1102529 C17.8483678,64.3586207 19.1268966,65.448092 20.5724138,65.448092 L23.1508046,65.448092 C24.5955862,65.448092 25.8748506,64.3586207 26.144092,63.1102529 L28.6695172,50.258023 C28.7018851,50.0748506 28.7224828,49.8894713 28.7224828,49.6967356 C28.7224828,47.9885977 27.343908,46.5967816 25.6357701,46.5967816 L18.0867126,46.5967816 C16.3785747,46.5967816 15,47.9878621 15,49.6967356 Z" id="Fill-2-Copy-2" fill="#36BDBB"></path>
                    <path d="M15,11.785931 C15,11.9786667 15.008092,12.164046 15.0404598,12.3472184 L17.5791264,25.1994483 C17.8483678,26.4478161 19.1268966,27.5372874 20.5724138,27.5372874 L23.1508046,27.5372874 C24.5955862,27.5372874 25.8748506,26.4478161 26.144092,25.1994483 L28.6695172,12.3472184 C28.7018851,12.164046 28.7224828,11.9786667 28.7224828,11.785931 C28.7224828,10.0777931 27.343908,8.68597701 25.6357701,8.68597701 L18.0867126,8.68597701 C16.3785747,8.68597701 15,10.0770575 15,11.785931 Z" id="Fill-2-Copy-5" fill="#36BDBB"></path>
                    <path d="M53.0867126,27.5372874 C51.3785747,27.5372874 50,28.9283678 50,30.6372414 C50,30.829977 50.008092,31.0153563 50.0404598,31.1985287 L52.5791264,44.0507586 C52.8483678,45.2991264 54.1268966,46.3885977 55.5724138,46.3885977 L58.1508046,46.3885977 C59.5955862,46.3885977 60.8748506,45.2991264 61.144092,44.0507586 L63.6695172,31.1985287 C63.7018851,31.0153563 63.7224828,30.829977 63.7224828,30.6372414 C63.7224828,28.9291034 62.343908,27.5372874 60.6357701,27.5372874 L53.0867126,27.5372874" id="Fill-2-Copy" fill="#36BDBB"></path>
                    <path d="M38.0867126,46.5967816 C36.3785747,46.5967816 35,47.9878621 35,49.6967356 C35,49.8894713 35.008092,50.0748506 35.0404598,50.258023 L37.5791264,63.1102529 C37.8483678,64.3586207 39.1268966,65.448092 40.5724138,65.448092 L43.1508046,65.448092 C44.5955862,65.448092 45.8748506,64.3586207 46.144092,63.1102529 L48.6695172,50.258023 C48.7018851,50.0748506 48.7224828,49.8894713 48.7224828,49.6967356 C48.7224828,47.9885977 47.343908,46.5967816 45.6357701,46.5967816 L38.0867126,46.5967816" id="Fill-2-Copy-4" fill="#36BDBB"></path>
                    <path d="M38.0867126,8.68597701 C36.3785747,8.68597701 35,10.0770575 35,11.785931 C35,11.9786667 35.008092,12.164046 35.0404598,12.3472184 L37.5791264,25.1994483 C37.8483678,26.4478161 39.1268966,27.5372874 40.5724138,27.5372874 L43.1508046,27.5372874 C44.5955862,27.5372874 45.8748506,26.4478161 46.144092,25.1994483 L48.6695172,12.3472184 C48.7018851,12.164046 48.7224828,11.9786667 48.7224828,11.785931 C48.7224828,10.0777931 47.343908,8.68597701 45.6357701,8.68597701 L38.0867126,8.68597701" id="Fill-2-Copy-6" fill="#36BDBB"></path>
                </g>
            </g>
        </g>
    </g>
</svg>