<?xml version="1.0" encoding="UTF-8" standalone="no"?>
<svg width="79px" height="80px" viewBox="0 0 79 80" version="1.1" xmlns="http://www.w3.org/2000/svg" xmlns:xlink="http://www.w3.org/1999/xlink">
    <!-- Generator: Sketch 3.7 (28169) - http://www.bohemiancoding.com/sketch -->
    <title>i-data--neutral</title>
    <desc>Created with Sketch.</desc>
    <defs></defs>
    <g id="Icons" stroke="none" stroke-width="1" fill="none" fill-rule="evenodd">
        <g id="Complex" transform="translate(-569.000000, -1646.000000)">
            <g id="i-data--neutral" transform="translate(569.000000, 1645.811291)">
                <ellipse id="Mask" fill="#D6D7D9" cx="39.4733902" cy="40.2205505" rx="39.2135568" ry="39.4042557"></ellipse>
                <g id="Imported-Layers-Copy-2-+-Oval-89-+-Group" transform="translate(11.252252, 15.558282)">
                    <g id="Imported-Layers-Copy-2" transform="translate(0.804907, 0.123997)" fill="#3E8A9A">
                        <polyline id="Fill-1" points="5.70974164 34.2444896 3.37058425 36.6527831 0.0677362546 36.0839442 1.62701454 39.0610767 0.0677362546 42.0377276 3.37058425 41.4693703 5.70974164 43.8776638 6.19158695 40.5494021 9.19640115 39.0610767 6.19158695 37.5727513 5.70974164 34.2444896"></polyline>
                        <polyline id="Fill-2" points="17.2884267 12.5698475 19.6275841 14.978141 20.1094294 11.6498793 23.1142436 10.1615539 20.1094294 8.67322846 19.6275841 5.34496675 17.2884267 7.75326031 13.9855787 7.18442137 15.544857 10.1615539 13.9855787 13.1382047 17.2884267 12.5698475"></polyline>
                        <polyline id="Fill-3" points="5.70974164 5.34496675 3.37058425 7.75326031 0.0677362546 7.18442137 1.62701454 10.1615539 0.0677362546 13.1382047 3.37058425 12.5698475 5.70974164 14.978141 6.19158695 11.6498793 9.19640115 10.1615539 6.19158695 8.67322846 5.70974164 5.34496675"></polyline>
                        <polyline id="Fill-4" points="5.70974164 19.7947282 3.37058425 22.2030217 0.0677362546 21.6341828 1.62701454 24.6113153 0.0677362546 27.5879661 3.37058425 27.0196089 5.70974164 29.4279024 6.19158695 26.0996407 9.19640115 24.6113153 6.19158695 23.1229899 5.70974164 19.7947282"></polyline>
                        <polyline id="Fill-5" points="17.2884267 27.0196089 19.6275841 29.4279024 20.1094294 26.0996407 23.1142436 24.6113153 20.1094294 23.1229899 19.6275841 19.7947282 17.2884267 22.2030217 13.9855787 21.6341828 15.544857 24.6113153 13.9855787 27.5879661 17.2884267 27.0196089"></polyline>
                        <polyline id="Fill-6" points="51.1740539 0 51.1740539 5.29824585 28.6175505 5.29824585 28.6175505 14.9314201 51.1740539 14.9314201 51.1740539 19.7480073 28.6175505 19.7480073 28.6175505 29.3811815 51.1740539 29.3811815 51.1740539 34.1977687 13.7398568 34.1977687 13.7398568 43.8309429 51.1740539 43.8309429 51.1740539 48.6475301 53.5736819 48.6475301 53.5736819 0 51.1740539 0"></polyline>
                    </g>
                    <path d="M51.2111424,41.083285 C51.9695565,39.7931288 52.4123841,38.2934848 52.4123841,36.6865686 C52.4123841,31.8994101 48.5502232,28.018106 43.785873,28.018106 C39.0215228,28.018106 35.159362,31.8994101 35.159362,36.6865686 C35.159362,41.4740882 39.0215228,45.3550311 43.785873,45.3550311 C45.3850125,45.3550311 46.8773989,44.91005 48.1613113,44.1479477 L53.6759699,49.6897857 C54.0663196,50.0820337 54.6054765,50.3243894 55.2010652,50.3243894 C55.5550042,50.3243894 55.889014,50.2387368 56.1836893,50.0869314 C56.8807402,49.7278376 57.357693,48.9985838 57.357693,48.1572738 C57.357693,47.5587887 57.1161507,47.0170098 56.7261605,46.6251231 L51.2111424,41.083285 Z M43.785873,43.1879154 C40.2127002,43.1879154 37.3159897,40.277118 37.3159897,36.6865686 C37.3159897,33.0960191 40.2127002,30.1852217 43.785873,30.1852217 C47.3590458,30.1852217 50.2557563,33.0960191 50.2557563,36.6865686 C50.2557563,40.277118 47.3590458,43.1879154 43.785873,43.1879154 L43.785873,43.1879154 Z" id="Imported-Layers" fill="#022C53"></path>
                </g>
            </g>
        </g>
    </g>
</svg>