<?xml version="1.0" encoding="UTF-8" standalone="no"?>
<svg width="18px" height="18px" viewBox="0 0 18 18" version="1.1" xmlns="http://www.w3.org/2000/svg" xmlns:xlink="http://www.w3.org/1999/xlink">
    <!-- Generator: Sketch 3.7 (28169) - http://www.bohemiancoding.com/sketch -->
    <title>i-disbursements--inverse</title>
    <desc>Created with Sketch.</desc>
    <defs></defs>
    <g id="Icons" stroke="none" stroke-width="1" fill="none" fill-rule="evenodd">
        <g id="i-disbursements--inverse" fill="#FFFFFF">
            <path d="M8.8943771,15.1462714 C5.55483795,15.1462714 2.84760657,12.4292004 2.84760657,9.07770495 C2.84760657,5.72602809 5.55483795,3.00895715 8.8943771,3.00895715 C12.2339163,3.00895715 14.9409669,5.72602809 14.9409669,9.07770495 C14.9409669,12.4292004 12.2339163,15.1462714 8.8943771,15.1462714 Z M9.27525866,4.82849641 L9.27525866,5.3453133 C9.61519112,5.38048131 9.90694267,5.45062621 10.149942,5.55574799 C10.3931318,5.6610609 10.6052801,5.82065487 10.786387,6.03433878 C10.9294062,6.19699084 11.0398604,6.36442116 11.1177497,6.53662975 C11.195639,6.70883833 11.2344884,6.86671213 11.2344884,7.01025114 C11.2344884,7.16984512 11.1765951,7.30784134 11.0606182,7.42423982 C10.9446412,7.5406383 10.8039073,7.59874197 10.6386068,7.59874197 C10.3272401,7.59874197 10.1253755,7.42978261 10.0332033,7.09167274 C9.92827177,6.6929745 9.67575051,6.42825875 9.27525866,6.29752548 L9.27525866,8.28776745 C9.66927561,8.39632958 9.98311801,8.49514405 10.2167859,8.584402 C10.4502633,8.67365994 10.6593646,8.80286416 10.8437089,8.97201466 C11.0406222,9.14747247 11.1924015,9.35714263 11.2988566,9.60121629 C11.4053116,9.84509882 11.4586343,10.1122993 11.4586343,10.4026265 C11.4586343,10.7661567 11.3736988,11.1067513 11.2036374,11.4240279 C11.0335759,11.7414957 10.78334,12.0006687 10.452739,12.2015468 C10.122138,12.402425 9.72964457,12.5220727 9.27525866,12.5602988 L9.27525866,13.1784149 C9.27525866,13.3664873 9.25697658,13.503719 9.22041242,13.5897277 C9.18384826,13.6759276 9.10367371,13.7189319 8.97969835,13.7189319 C8.8652449,13.7189319 8.78507035,13.683955 8.73898427,13.6138101 C8.69289819,13.5436653 8.66985515,13.4351031 8.66985515,13.288506 L8.66985515,12.5700464 C8.29792905,12.5285711 7.97304123,12.4408422 7.6948108,12.3068597 C7.41677081,12.1728773 7.1848169,12.0062115 6.99894907,11.8068623 C6.81289081,11.6075132 6.67558476,11.4001366 6.58645961,11.1849237 C6.4975249,10.9695196 6.45296232,10.7581292 6.45296232,10.5509438 C6.45296232,10.3978482 6.51256953,10.259852 6.63178393,10.1369551 C6.75099834,10.0142493 6.89954025,9.95289642 7.07760011,9.95289642 C7.22061931,9.95289642 7.34135723,9.98634426 7.43981385,10.0532399 C7.53827048,10.1203267 7.60663785,10.214363 7.64491595,10.3355397 C7.73061321,10.5971974 7.80526504,10.797311 7.86887145,10.9360717 C7.93247786,11.0748325 8.02864923,11.201552 8.15738555,11.3164215 C8.28612188,11.4312909 8.45675464,11.5190198 8.66985515,11.5796082 L8.66985515,9.35484907 C8.24384456,9.23673041 7.88791529,9.10523263 7.60187689,8.95997344 C7.31583849,8.81490539 7.08388458,8.60829331 6.90582472,8.34051947 C6.7279553,8.0725545 6.63902059,7.7279462 6.63902059,7.30688569 C6.63902059,6.75834114 6.81289081,6.30861105 7.16101211,5.95769544 C7.50894297,5.60677983 8.01189065,5.40265245 8.66985515,5.3453133 L8.66985515,4.83805294 C8.66985515,4.5702791 8.76983528,4.43629661 8.97017643,4.43629661 C9.17356459,4.43629661 9.27525866,4.56702988 9.27525866,4.82849641 Z M8.66985515,8.1107806 L8.66985515,6.2782213 C8.40286059,6.35811385 8.19471147,6.46323563 8.04521736,6.5939689 C7.8959137,6.7248933 7.82126187,6.92271337 7.82126187,7.18742912 C7.82126187,7.43933913 7.89115274,7.62989625 8.03093449,7.75910047 C8.17090668,7.88830469 8.38381675,8.00546769 8.66985515,8.1107806 Z M9.27525866,9.53183592 L9.27525866,11.6273908 C9.59614728,11.5635532 9.84409801,11.4345401 10.0189204,11.2399693 C10.1937428,11.0453984 10.281154,10.8189087 10.281154,10.5605003 C10.281154,10.2829788 10.1960281,10.0685304 10.0261571,9.91696389 C9.85609563,9.7653974 9.60585964,9.6369577 9.27525866,9.53183592 Z" id="Combined-Shape"></path>
            <path d="M17.696667,3.61310654 C17.6865089,3.76420817 17.6270417,3.91319352 17.5114934,4.02874183 C17.2636783,4.27655696 16.8615871,4.27655696 16.613772,4.02874183 C16.4812935,3.89626337 16.4218264,3.71997814 16.4309263,3.54644406 L16.49124,2.35540771 L13.177124,5.67736803 C12.9290972,5.92539479 12.5272177,5.92539479 12.2791909,5.67736803 C12.0311642,5.42955289 12.0311642,5.02767336 12.2791909,4.7796466 L15.5935186,1.45747465 L14.4024822,1.52011622 C14.2289481,1.52688829 14.0526629,1.46763275 13.9201844,1.33515429 C13.6721577,1.08712753 13.6721577,0.685247993 13.9201844,0.437221233 C14.0355211,0.321884557 14.1847181,0.262417391 14.3358197,0.254375567 L17.1788159,0.10263906 C17.35235,0.0958669984 17.5286352,0.155122538 17.6611136,0.287600995 C17.7935921,0.420079452 17.8530593,0.596364683 17.8439593,0.769687137 L17.696667,3.61310654 Z" id="Fill-3"></path>
            <path d="M0.22390129,14.3639661 C0.234059382,14.2128645 0.293526549,14.0638791 0.409074852,13.9483308 C0.656889984,13.7005157 1.05898115,13.7005157 1.30679628,13.9483308 C1.43927474,14.0808093 1.4987419,14.2570945 1.48964195,14.4306286 L1.42932827,15.6216649 L4.62123182,12.5003662 C4.86925858,12.2523395 5.27113812,12.2523395 5.51916488,12.5003662 C5.76719163,12.7481814 5.76698001,13.1502725 5.51916488,13.3980876 L2.3270497,16.519598 L3.51808605,16.4569564 C3.69162013,16.4501844 3.86790536,16.5094399 4.00038382,16.6419184 C4.24841058,16.8899451 4.24841058,17.2918247 4.00038382,17.5398514 C3.88504714,17.6553997 3.73585016,17.7146553 3.58474853,17.7226971 L0.741540755,17.8746452 C0.568006675,17.8814173 0.391933071,17.8219501 0.259454614,17.6894717 C0.126976157,17.5569932 0.06750899,17.380708 0.0766089479,17.2073855 L0.22390129,14.3639661 Z" id="Fill-4"></path>
            <path d="M14.268734,17.725025 C14.117844,17.7146553 13.968647,17.6553997 13.8533103,17.5398514 C13.6052836,17.2918247 13.6052836,16.8899451 13.8533103,16.6419184 C13.9857888,16.5094399 14.162074,16.4501844 14.3353965,16.4590727 L15.5266444,16.519598 L12.19104,13.3316814 C11.9430133,13.0838663 11.9430133,12.6817751 12.19104,12.43396 C12.4390668,12.1859332 12.8409463,12.1859332 13.0889731,12.43396 L16.4243659,15.6216649 L16.3617243,14.4306286 C16.3549522,14.2570945 16.4144194,14.0808093 16.5468979,13.9483308 C16.794713,13.7005157 17.1968042,13.7005157 17.4446193,13.9483308 C17.5601676,14.0638791 17.6196348,14.2128645 17.627465,14.3641777 L17.7794131,17.2071739 C17.7861852,17.380708 17.726718,17.5569932 17.5944512,17.6894717 C17.4617611,17.8219501 17.2856875,17.8812056 17.1121534,17.8723173 L14.268734,17.725025 Z" id="Fill-5"></path>
            <path d="M3.51787442,0.252259298 C3.66897605,0.262417391 3.81796141,0.321884557 3.93350971,0.437221233 C4.18153647,0.685247993 4.18153647,1.08712753 3.93350971,1.33515429 C3.80103125,1.46763275 3.62474602,1.52688829 3.45121194,1.51799995 L2.26017559,1.45747465 L5.5178225,4.63978662 C5.76563763,4.88781338 5.76584926,5.28969292 5.5178225,5.53771968 C5.26979574,5.78553481 4.8679162,5.78553481 4.61988944,5.53771968 L1.36245416,2.35540771 L1.42509573,3.54644406 C1.43186779,3.71997814 1.37240063,3.89626337 1.23992217,4.02874183 C0.992107038,4.27655696 0.590015875,4.27655696 0.341989116,4.02874183 C0.22665244,3.91319352 0.167185273,3.76420817 0.159355077,3.61310654 L0.00740694248,0.769898764 C0.000634880784,0.596364683 0.0598904206,0.420079452 0.192368877,0.287600995 C0.324847334,0.155122538 0.501132565,0.0958669984 0.674666646,0.104966956 L3.51787442,0.252259298 Z" id="Fill-6"></path>
        </g>
    </g>
</svg>