<?xml version="1.0" encoding="UTF-8" standalone="no"?>
<svg width="83px" height="83px" viewBox="0 0 83 83" version="1.1" xmlns="http://www.w3.org/2000/svg" xmlns:xlink="http://www.w3.org/1999/xlink">
    <!-- Generator: Sketch 3.7 (28169) - http://www.bohemiancoding.com/sketch -->
    <title>i-disbursements--neutral</title>
    <desc>Created with Sketch.</desc>
    <defs></defs>
    <g id="Icons" stroke="none" stroke-width="1" fill="none" fill-rule="evenodd">
        <g id="Complex" transform="translate(-565.000000, -1410.000000)">
            <g id="i-disbursements--neutral" transform="translate(565.000000, 1409.873700)">
                <ellipse id="Oval-101-Copy-12" fill="#D6D7D9" cx="41.2612903" cy="41.2945087" rx="41.2612903" ry="41.16336"></ellipse>
                <g id="Imported-Layers" transform="translate(14.811745, 14.907739)">
                    <path d="M27.7074846,47.0712043 C17.304257,47.0712043 8.87077468,38.627159 8.87077468,28.2114649 C8.87077468,17.7952072 17.304257,9.35116194 27.7074846,9.35116194 C38.1107123,9.35116194 46.5436317,17.7952072 46.5436317,28.2114649 C46.5436317,38.627159 38.1107123,47.0712043 27.7074846,47.0712043 Z" id="Fill-1" fill="#FFFFFF"></path>
                    <path d="M28.8939949,15.0058807 L28.8939949,16.6120313 C29.9529419,16.7213256 30.8617971,16.9393201 31.6187811,17.266015 C32.3763582,17.5933038 33.037236,18.089286 33.6014144,18.7533675 C34.0469434,19.2588535 34.391027,19.7791893 34.6336652,20.3143748 C34.8763035,20.8495604 34.997326,21.3401966 34.997326,21.7862836 C34.997326,22.2822657 34.8169787,22.711127 34.455691,23.0728673 C34.0944032,23.4346075 33.6559932,23.6151807 33.1410543,23.6151807 C32.1710945,23.6151807 31.5422521,23.090093 31.2551203,22.0393236 C30.9282409,20.8002591 30.1415946,19.9775821 28.8939949,19.5712926 L28.8939949,25.7565169 C30.1214242,26.0939035 31.0990962,26.4009967 31.827011,26.6783903 C32.5543325,26.9557839 33.2057183,27.3573216 33.779982,27.8830033 C34.3934,28.4282867 34.8662183,29.0798944 35.1978437,29.8384204 C35.5294691,30.5963524 35.6955784,31.4267513 35.6955784,32.3290231 C35.6955784,33.4587932 35.43099,34.5172845 34.9012199,35.5033089 C34.3714498,36.4899274 33.5919225,37.2953786 32.5620447,37.9196628 C31.5321669,38.5439469 30.3094837,38.915785 28.8939949,39.0345832 L28.8939949,40.9555488 C28.8939949,41.5400356 28.8370432,41.9665209 28.7231396,42.2338166 C28.6092361,42.5017064 28.3594789,42.6353543 27.9732747,42.6353543 C27.6167329,42.6353543 27.3669757,42.526654 27.2234098,42.3086595 C27.0798439,42.0906649 27.0080609,41.7532782 27.0080609,41.2976874 L27.0080609,39.0648767 C25.8494484,38.9359807 24.837368,38.663339 23.9706333,38.2469516 C23.1044919,37.8305642 22.3819163,37.3126044 21.8029067,36.6930721 C21.2233038,36.0735399 20.7955723,35.4290601 20.5179324,34.7602267 C20.2408858,34.0907992 20.1020659,33.4338456 20.1020659,32.7899598 C20.1020659,32.3141733 20.2877524,31.8853121 20.6591254,31.5033761 C21.0304983,31.1220341 21.4932314,30.9313631 22.0479179,30.9313631 C22.4934469,30.9313631 22.8695658,31.0353115 23.1762748,31.2432082 C23.4829838,31.4516989 23.6959597,31.7439423 23.8152025,32.1205324 C24.0821639,32.9337055 24.3147169,33.5556137 24.5128616,33.9868509 C24.7110063,34.4180881 25.0105963,34.8119039 25.4116317,35.1688922 C25.812667,35.5258806 26.3442169,35.7985223 27.0080609,35.9868173 L27.0080609,29.0727665 C25.6809661,28.7056803 24.5721864,28.2970147 23.6811285,27.8455819 C22.7900706,27.394743 22.0674951,26.7526391 21.5128086,25.9204583 C20.9587154,25.0876834 20.6816688,24.0167183 20.6816688,22.708157 C20.6816688,21.0034039 21.2233038,19.605744 22.3077604,18.5151772 C23.3916237,17.4246105 24.9583905,16.7902285 27.0080609,16.6120313 L27.0080609,15.0355802 C27.0080609,14.2033993 27.3195159,13.7870119 27.9436123,13.7870119 C28.5772007,13.7870119 28.8939949,14.1933015 28.8939949,15.0058807 L28.8939949,15.0058807 Z M27.0080609,25.2064816 L27.0080609,19.5112995 C26.1763278,19.7595876 25.5279082,20.0862824 25.0622089,20.492572 C24.5971028,20.8994556 24.3645497,21.5142359 24.3645497,22.3369129 C24.3645497,23.1197925 24.5822716,23.7120012 25.0177153,24.1135388 C25.4537523,24.5150765 26.117003,24.8791927 27.0080609,25.2064816 L27.0080609,25.2064816 Z M28.8939949,29.6228018 L28.8939949,36.135315 C29.8936171,35.9369221 30.6660254,35.5359784 31.2106267,34.931296 C31.755228,34.3266135 32.0275286,33.6227346 32.0275286,32.8196593 C32.0275286,31.9571849 31.762347,31.2907275 31.2331701,30.8196929 C30.7034,30.3486583 29.9238727,29.9494966 28.8939949,29.6228018 L28.8939949,29.6228018 Z" id="Fill-2" fill="#022C53"></path>
                    <path d="M55.5869425,2.39201448 L55.5941943,2.39267217 L55.128102,11.2287223 L55.1208502,11.2280647 C55.0964578,11.6983122 54.9112076,12.1613252 54.5512551,12.5204233 C53.7792692,13.290577 52.5266874,13.290577 51.7547015,12.5204233 C51.3420088,12.1087101 51.1567585,11.5608552 51.1851064,11.0215503 L51.1778546,11.0215503 L51.3729937,7.3200773 L42.8976298,15.7753256 C42.1249846,16.546137 40.8730621,16.546137 40.1004169,15.7753256 C39.3277717,15.0051719 39.3277717,13.7562207 40.1004169,12.9854094 L48.57644,4.52950336 L44.8661609,4.72417927 L44.8655017,4.71694469 C44.325573,4.74522531 43.7764148,4.56107242 43.3637221,4.14935918 C42.5910769,3.37854781 42.5910769,2.12959661 43.3637221,1.35878524 C43.7230153,1.0003448 44.187789,0.815534218 44.6584961,0.790542041 L44.6578368,0.783965152 L53.5149085,0.31897911 L53.5155678,0.325555998 C54.0554965,0.297933065 54.6046547,0.482085953 55.0173474,0.893799196 C55.4300402,1.30551244 55.6152904,1.85336728 55.5869425,2.39201448" id="Fill-3" fill="#3E8A9A"></path>
                    <path d="M0.238649792,53.4766833 L0.231398003,53.4760256 L0.697490277,44.6399754 L0.704742066,44.6406331 C0.729134448,44.1703856 0.914384701,43.7073726 1.27433715,43.3482745 C2.04632308,42.5781208 3.29890486,42.5781208 4.07089079,43.3482745 C4.48358353,43.7599877 4.66883378,44.3078425 4.64048588,44.8471474 L4.64773767,44.8471474 L4.45259861,48.5486205 L12.9279625,40.0933722 C13.7006077,39.3225608 14.9525302,39.3225608 15.7251754,40.0933722 C16.4978206,40.8635258 16.4971613,42.1131347 15.7251754,42.8832884 L7.24915225,51.3391944 L10.9594313,51.1445185 L10.9600906,51.1517531 C11.5000193,51.1234725 12.0491775,51.3076254 12.4618702,51.7193386 C13.2345154,52.49015 13.2345154,53.7391012 12.4618702,54.5099125 C12.102577,54.8690107 11.6378033,55.0531636 11.1670962,55.0781557 L11.1677555,55.0853903 L2.31002451,55.5503764 L2.31002451,55.5431418 C1.76943658,55.5714224 1.22093761,55.3866118 0.808244877,54.9748986 C0.395552142,54.5631853 0.210301889,54.0153305 0.238649792,53.4766833" id="Fill-4" fill="#3E8A9A"></path>
                    <path d="M53.3072437,55.5431418 L53.3065844,55.5503764 L44.4495127,55.0853903 L44.4501719,55.077498 C43.9794649,55.0531636 43.5146911,54.8690107 43.1553979,54.5099125 C42.3827528,53.7391012 42.3827528,52.49015 43.1553979,51.7193386 C43.5680907,51.3076254 44.1172489,51.1234725 44.6571776,51.1510954 L44.6578368,51.1445185 L48.3681159,51.3391944 L39.8920928,42.8832884 C39.1194476,42.1131347 39.1194476,40.8635258 39.8920928,40.0933722 C40.6647379,39.3225608 41.9166605,39.3225608 42.6893057,40.0933722 L51.1646696,48.5486205 L50.9695305,44.8471474 L50.9767823,44.8471474 C50.9484344,44.3078425 51.1336846,43.7599877 51.5463774,43.3482745 C52.3183633,42.5781208 53.5709451,42.5781208 54.342931,43.3482745 C54.7028835,43.7073726 54.8881337,44.1703856 54.9125261,44.6406331 L54.9197779,44.6399754 L55.3858702,53.4760256 L55.3786184,53.4766833 C55.4069663,54.0153305 55.221716,54.5631853 54.8096825,54.9748986 C54.3963306,55.3866118 53.8478316,55.5707647 53.3072437,55.5431418" id="Fill-5" fill="#3E8A9A"></path>
                    <path d="M2.10170038,0.326213687 L2.10170038,0.318321421 L10.9587721,0.783965152 L10.9587721,0.79119973 C11.4294791,0.815534218 11.8935937,1.0003448 12.2535461,1.35878524 C13.0261913,2.12959661 13.0261913,3.37854781 12.2535461,4.14935918 C11.8408534,4.56107242 11.2916951,4.74522531 10.7511072,4.71760238 L10.7511072,4.72417927 L7.04082813,4.52950336 L15.5168513,12.9854094 C16.2888372,13.7562207 16.2894965,15.0051719 15.5168513,15.7759833 C14.7442061,16.546137 13.4922836,16.546137 12.7196384,15.7759833 L4.24427448,7.3200773 L4.43941354,11.0215503 L4.43216175,11.0215503 C4.46050965,11.5608552 4.2752594,12.1087101 3.86256667,12.5204233 C3.09058074,13.290577 1.83799895,13.290577 1.06535377,12.5204233 C0.706060573,12.1613252 0.52081032,11.6983122 0.496417938,11.2287223 L0.489166149,11.2287223 L0.0230738749,2.39267217 L0.0303256642,2.39267217 C0.00197776071,1.85336728 0.18656876,1.30551244 0.599261495,0.893799196 C1.01195423,0.482085953 1.56111245,0.297933065 2.10170038,0.326213687" id="Fill-6" fill="#3E8A9A"></path>
                </g>
            </g>
        </g>
    </g>
</svg>