<?xml version="1.0" encoding="UTF-8" standalone="no"?>
<svg width="9px" height="12px" viewBox="0 0 9 12" version="1.1" xmlns="http://www.w3.org/2000/svg" xmlns:xlink="http://www.w3.org/1999/xlink">
    <!-- Generator: Sketch 3.6.1 (26313) - http://www.bohemiancoding.com/sketch -->
    <title>i-download--primary</title>
    <desc>Created with Sketch.</desc>
    <defs></defs>
    <g id="Page-1" stroke="none" stroke-width="1" fill="none" fill-rule="evenodd">
        <g id="i-download--primary" fill="#022C53">
            <path d="M8.105371,7.32973 L4.965107,10.81891 L4.962316,10.81647 C4.770759,11.02931 4.495812,11.16538 4.187019,11.16538 C3.878227,11.16538 3.603279,11.02931 3.411723,10.81647 L3.408931,10.81891 L0.268667,7.32973 L0.271458,7.32728 C0.104675,7.14166 0,6.89881 0,6.62945 C0,6.05164 0.468597,5.58269 1.046755,5.58269 C1.355547,5.58269 1.630495,5.71912 1.822051,5.93196 L1.824843,5.92917 L3.140264,7.39079 L3.140264,1.04675 C3.140264,0.4686 3.608862,0 4.187019,0 C4.765177,0 5.233774,0.4686 5.233774,1.04675 L5.233774,7.39079 L6.549196,5.92917 L6.551987,5.93196 C6.743543,5.71912 7.018491,5.58269 7.327284,5.58269 C7.905441,5.58269 8.374038,6.05164 8.374038,6.62945 C8.374038,6.89881 8.269363,7.14166 8.10258,7.32728 L8.105371,7.32973 L8.105371,7.32973 L8.105371,7.32973 Z" id="i_download_crimson"></path>
        </g>
    </g>
</svg>