<?xml version="1.0" encoding="UTF-8" standalone="no"?>
<svg width="9px" height="12px" viewBox="0 0 9 12" version="1.1" xmlns="http://www.w3.org/2000/svg" xmlns:xlink="http://www.w3.org/1999/xlink" xmlns:sketch="http://www.bohemiancoding.com/sketch/ns">
    <!-- Generator: Sketch 3.4.4 (17249) - http://www.bohemiancoding.com/sketch -->
    <title>i_download_crimson</title>
    <desc>Created with Sketch.</desc>
    <defs></defs>
    <g id="Icons" stroke="none" stroke-width="1" fill="none" fill-rule="evenodd" sketch:type="MSPage">
        <g id="Simple-Copy" sketch:type="MSArtboardGroup" transform="translate(-518.000000, -1233.000000)" fill="#631010">
            <path d="M526.105371,1240.32973 L522.965107,1243.81891 L522.962316,1243.81647 C522.770759,1244.02931 522.495812,1244.16538 522.187019,1244.16538 C521.878227,1244.16538 521.603279,1244.02931 521.411723,1243.81647 L521.408931,1243.81891 L518.268667,1240.32973 L518.271458,1240.32728 C518.104675,1240.14166 518,1239.89881 518,1239.62945 C518,1239.05164 518.468597,1238.58269 519.046755,1238.58269 C519.355547,1238.58269 519.630495,1238.71912 519.822051,1238.93196 L519.824843,1238.92917 L521.140264,1240.39079 L521.140264,1234.04675 C521.140264,1233.4686 521.608862,1233 522.187019,1233 C522.765177,1233 523.233774,1233.4686 523.233774,1234.04675 L523.233774,1240.39079 L524.549196,1238.92917 L524.551987,1238.93196 C524.743543,1238.71912 525.018491,1238.58269 525.327284,1238.58269 C525.905441,1238.58269 526.374038,1239.05164 526.374038,1239.62945 C526.374038,1239.89881 526.269363,1240.14166 526.10258,1240.32728 L526.105371,1240.32973 L526.105371,1240.32973 Z" id="i_download_crimson" sketch:type="MSShapeGroup"></path>
        </g>
    </g>
</svg>