<?xml version="1.0" encoding="UTF-8" standalone="no"?>
<svg width="18px" height="20px" viewBox="0 0 18 20" version="1.1" xmlns="http://www.w3.org/2000/svg" xmlns:xlink="http://www.w3.org/1999/xlink" xmlns:sketch="http://www.bohemiancoding.com/sketch/ns">
    <!-- Generator: Sketch 3.3.3 (12081) - http://www.bohemiancoding.com/sketch -->
    <title>i-election--primary</title>
    <desc>Created with Sketch.</desc>
    <defs></defs>
    <g id="Page-1" stroke="none" stroke-width="1" fill="none" fill-rule="evenodd" sketch:type="MSPage">
        <g id="Simple-Copy" sketch:type="MSArtboardGroup" transform="translate(-315.000000, -1027.000000)" fill="#022C53">
            <g id="i-election--primary" sketch:type="MSLayerGroup" transform="translate(315.000000, 1026.000000)">
                <g id="Imported-Layers-+-Rectangle-267-Copy-4-+-Path-Copy-Copy-Copy-Copy-Copy-Copy-+-Rectangle-68-+-Imported-Layers" transform="translate(0.000000, 1.000000)" sketch:type="MSShapeGroup">
                    <g id="Imported-Layers-+-Rectangle-267-Copy-4-+-Path-Copy-Copy-Copy-Copy-Copy-Copy" transform="translate(6.043401, 3.827279)">
                        <g id="Imported-Layers">
                            <path d="M4.12507235,1.43898831 C4.1248275,2.15049092 3.47303926,2.7975326 2.75759027,2.7975326 C2.04140673,2.7975326 1.3901082,2.15049092 1.3901082,1.43898831 C1.38986335,0.727242464 2.04140673,0.0787412895 2.75759027,0.0787412895 C3.47401866,0.0787412895 4.12678629,0.726755967 4.12507235,1.43898831" id="Fill-3"></path>
                            <path d="M1.25054423,3.33365285 C0.568639556,3.33365285 0.0189533861,3.88558427 0.0189533861,4.56327529 C0.0189533861,4.6396554 0.0221364241,4.71335977 0.035113425,4.78609115 L1.04878859,9.88409851 C1.15627733,10.379353 1.66678765,10.811606 2.24389692,10.811606 L3.27324242,10.811606 C3.85010684,10.811606 4.360862,10.379353 4.46835075,9.88409851 L5.47663923,4.78609115 C5.48961623,4.71335977 5.4979411,4.6396554 5.4979411,4.56327529 C5.4979411,3.88582752 4.94752038,3.33365285 4.26635026,3.33365285 L1.25225817,3.33365285" id="Fill-4"></path>
                        </g>
                    </g>
                    <path d="M12.7148922,14.032679 L15.5928803,14.032679 L17.6657969,19.8378714 L0.0460052522,19.8378714 L2.11892192,14.032679 L4.65625341,14.032679 C5.3717026,15.0173238 6.13410307,15.9856448 6.89643754,16.8993583 C7.169385,17.2265058 7.42306974,17.5234279 7.65115499,17.7848869 C7.78909677,17.9430126 7.88865365,18.055056 7.94347315,18.1157484 L7.94347315,18.1157484 L8.68557279,18.9373514 L9.42767243,18.1157484 C9.48249194,18.055056 9.58204881,17.9430126 9.71999059,17.7848869 C9.94807584,17.5234279 10.2017606,17.2265058 10.474708,16.8993583 C11.2370425,15.9856448 11.999443,15.0173238 12.7148922,14.032679 L12.7148922,14.032679 Z" id="Rectangle-68"></path>
                    <path d="M8.68557279,17.4454589 C8.68557279,17.4454589 2.14932465,10.2089635 2.14932465,6.62291292 C2.14932465,3.03713288 5.07592976,0.129385355 8.68557279,0.129385355 C12.2952158,0.129385355 15.2218209,3.03713288 15.2218209,6.62291292 C15.2218209,10.2089635 8.68557279,17.4454589 8.68557279,17.4454589 L8.68557279,17.4454589 Z M4.32807403,6.62291292 C4.32807403,9.01361331 6.2791441,10.9522019 8.68557279,10.9522019 C11.0920015,10.9522019 13.0430715,9.01361331 13.0430715,6.62291292 C13.0430715,4.23221252 11.0920015,2.29389454 8.68557279,2.29389454 C6.2791441,2.29389454 4.32807403,4.23221252 4.32807403,6.62291292 Z" id="Imported-Layers-Copy"></path>
                </g>
            </g>
        </g>
    </g>
</svg>