<?xml version="1.0" encoding="UTF-8" standalone="no"?>
<svg width="10px" height="2px" viewBox="0 0 10 2" version="1.1" xmlns="http://www.w3.org/2000/svg" xmlns:xlink="http://www.w3.org/1999/xlink" xmlns:sketch="http://www.bohemiancoding.com/sketch/ns">
    <!-- Generator: Sketch 3.4.3 (16618) - http://www.bohemiancoding.com/sketch -->
    <title>i-ellipsis--primary</title>
    <desc>Created with Sketch.</desc>
    <defs></defs>
    <g id="Download" stroke="none" stroke-width="1" fill="none" fill-rule="evenodd" sketch:type="MSPage">
        <g id="Waiting-Copy-2" sketch:type="MSArtboardGroup" transform="translate(-152.000000, -727.000000)" fill="#022C53">
            <path d="M153.5,729 C154.052285,729 154.5,728.552285 154.5,728 C154.5,727.447715 154.052285,727 153.5,727 C152.947715,727 152.5,727.447715 152.5,728 C152.5,728.552285 152.947715,729 153.5,729 Z M157,729 C157.552285,729 158,728.552285 158,728 C158,727.447715 157.552285,727 157,727 C156.447715,727 156,727.447715 156,728 C156,728.552285 156.447715,729 157,729 Z M160.5,729 C161.052285,729 161.5,728.552285 161.5,728 C161.5,727.447715 161.052285,727 160.5,727 C159.947715,727 159.5,727.447715 159.5,728 C159.5,728.552285 159.947715,729 160.5,729 Z" id="i-ellipsis--primary" sketch:type="MSShapeGroup"></path>
        </g>
    </g>
</svg>