<?xml version="1.0" encoding="UTF-8" standalone="no"?>
<svg width="19px" height="18px" viewBox="0 0 19 18" version="1.1" xmlns="http://www.w3.org/2000/svg" xmlns:xlink="http://www.w3.org/1999/xlink" xmlns:sketch="http://www.bohemiancoding.com/sketch/ns">
    <!-- Generator: Sketch 3.3.3 (12081) - http://www.bohemiancoding.com/sketch -->
    <title>i-error@2x</title>
    <desc>Created with Sketch.</desc>
    <defs></defs>
    <g id="Page-1" stroke="none" stroke-width="1" fill="none" fill-rule="evenodd" sketch:type="MSPage">
        <g id="Simple-Copy" sketch:type="MSArtboardGroup" transform="translate(-264.000000, -1168.000000)">
            <g id="i-error" sketch:type="MSLayerGroup" transform="translate(264.904762, 1167.935484)">
                <ellipse id="Oval-128" fill="#631010" sketch:type="MSShapeGroup" cx="8.91257996" cy="9.03225806" rx="8.91257996" ry="8.88418826"></ellipse>
                <path d="M13.7022004,5.6627816 L10.1731158,9.18032787 L13.7022004,12.6981703 C13.863221,12.8589741 13.9630419,13.0810788 13.9630419,13.3262824 C13.9630419,13.8169857 13.5640554,14.2147012 13.0717839,14.2147012 C12.8257967,14.2147012 12.6029822,14.1151983 12.4416645,13.9546906 L8.91257996,10.4368482 L5.38349538,13.9546906 C5.22217768,14.1151983 4.99936318,14.2147012 4.75337598,14.2147012 C4.26110448,14.2147012 3.86211798,13.8169857 3.86211798,13.3262824 C3.86211798,13.0810788 3.96193888,12.8589741 4.12325657,12.6981703 L7.65204407,9.18032787 L4.12325657,5.6627816 C3.96193888,5.50197779 3.86211798,5.27957694 3.86211798,5.03437335 C3.86211798,4.54367002 4.26110448,4.14595452 4.75337598,4.14595452 C4.99936318,4.14595452 5.22217768,4.24545743 5.38349538,4.40626124 L8.91257996,7.92410365 L12.4416645,4.40626124 C12.6029822,4.24545743 12.8257967,4.14595452 13.0717839,4.14595452 C13.5640554,4.14595452 13.9630419,4.54367002 13.9630419,5.03437335 C13.9630419,5.27957694 13.863221,5.50197779 13.7022004,5.6627816" id="Fill-2" fill="#F77B42" sketch:type="MSShapeGroup"></path>
            </g>
        </g>
    </g>
</svg>