<?xml version="1.0" encoding="UTF-8" standalone="no"?>
<svg width="20px" height="20px" viewBox="0 0 20 20" version="1.1" xmlns="http://www.w3.org/2000/svg" xmlns:xlink="http://www.w3.org/1999/xlink" xmlns:sketch="http://www.bohemiancoding.com/sketch/ns">
    <!-- Generator: Sketch 3.3.3 (12081) - http://www.bohemiancoding.com/sketch -->
    <title>i-error--primary</title>
    <desc>Created with Sketch.</desc>
    <defs></defs>
    <g id="Style-Guide" stroke="none" stroke-width="1" fill="none" fill-rule="evenodd" sketch:type="MSPage">
        <path d="M9.97901119,19.8789588 C15.4194281,19.8789588 19.8297575,15.4752022 19.8297575,10.0428932 C19.8297575,4.61058418 15.4194281,0.206827625 9.97901119,0.206827625 C4.53859426,0.206827625 0.128264925,4.61058418 0.128264925,10.0428932 C0.128264925,15.4752022 4.53859426,19.8789588 9.97901119,19.8789588 Z M15.2728022,6.3124014 L11.3722351,10.2068276 L15.2728022,14.1015817 C15.4507724,14.2796145 15.5611007,14.5255161 15.5611007,14.7969916 C15.5611007,15.3402702 15.1201157,15.7805981 14.5760261,15.7805981 C14.3041455,15.7805981 14.0578769,15.6704342 13.8795784,15.4927293 L9.97901119,11.5979752 L6.07844403,15.4927293 C5.90014552,15.6704342 5.65387687,15.7805981 5.38199627,15.7805981 C4.83790672,15.7805981 4.39692164,15.3402702 4.39692164,14.7969916 C4.39692164,14.5255161 4.50725,14.2796145 4.68554851,14.1015817 L8.58578731,10.2068276 L4.68554851,6.3124014 C4.50725,6.13436861 4.39692164,5.8881391 4.39692164,5.61666369 C4.39692164,5.073385 4.83790672,4.63305713 5.38199627,4.63305713 C5.65387687,4.63305713 5.90014552,4.74322107 6.07844403,4.92125385 L9.97901119,8.81600795 L13.8795784,4.92125385 C14.0578769,4.74322107 14.3041455,4.63305713 14.5760261,4.63305713 C15.1201157,4.63305713 15.5611007,5.073385 15.5611007,5.61666369 C15.5611007,5.8881391 15.4507724,6.13436861 15.2728022,6.3124014 Z" id="i-error--primary" fill="#FFFFFF" sketch:type="MSShapeGroup"></path>
    </g>
</svg>