<?xml version="1.0" encoding="UTF-8" standalone="no"?>
<svg width="17px" height="20px" viewBox="0 0 17 20" version="1.1" xmlns="http://www.w3.org/2000/svg" xmlns:xlink="http://www.w3.org/1999/xlink" xmlns:sketch="http://www.bohemiancoding.com/sketch/ns">
    <!-- Generator: Sketch 3.4.3 (16044) - http://www.bohemiancoding.com/sketch -->
    <title>export-csv</title>
    <desc>Created with Sketch.</desc>
    <defs></defs>
    <g id="OpenFec-Pages-Styled" stroke="none" stroke-width="1" fill="none" fill-rule="evenodd" sketch:type="MSPage">
        <g id="export-csv" sketch:type="MSLayerGroup">
            <rect id="Rectangle-1553" fill="#35BDBB" sketch:type="MSShapeGroup" x="0" y="0" width="17" height="20" rx="2"></rect>
            <path d="M10.8900247,7.45744559 L6.77285676,9.89100809 C6.68250962,9.94463309 6.58466479,9.97313309 6.48025948,9.97313309 C6.16966776,9.97313309 5.91793288,9.72132059 5.91793288,9.41063309 L5.91793288,4.53563309 C5.91793288,4.22513309 6.16966776,3.97313309 6.48025948,3.97313309 C6.58466479,3.97313309 6.68250962,4.00182059 6.76629628,4.05150809 C6.77004513,4.05357059 10.8900247,6.48882059 10.8900247,6.48882059 C11.0553487,6.58688309 11.1663145,6.76707059 11.1663145,6.97313309 C11.1663145,7.17938309 11.0553487,7.35957059 10.8900247,7.45744559 Z" id="Fill-3-Copy" fill="#022C53" sketch:type="MSShapeGroup" transform="translate(8.542124, 6.973133) rotate(-270.000000) translate(-8.542124, -6.973133) "></path>
            <path d="M2.638,15.894 C2.54599954,15.8059996 2.5,15.6940007 2.5,15.558 C2.5,15.4219993 2.54599954,15.3080005 2.638,15.216 C2.73000046,15.1239995 2.84799928,15.078 2.992,15.078 C3.13600072,15.078 3.25599952,15.1239995 3.352,15.216 C3.44800048,15.3080005 3.496,15.4219993 3.496,15.558 C3.496,15.6940007 3.44800048,15.8059996 3.352,15.894 C3.25599952,15.9820004 3.13600072,16.026 2.992,16.026 C2.84799928,16.026 2.73000046,15.9820004 2.638,15.894 L2.638,15.894 Z M5.47699999,12 C5.71700119,12 5.92499911,12.0289997 6.10099999,12.087 C6.27700087,12.1450003 6.42899935,12.2259995 6.55699999,12.33 C6.80900125,12.534001 6.97299961,12.8199982 7.04899999,13.188 L6.29299999,13.326 C6.22899967,13.121999 6.13000066,12.9570006 5.99599999,12.831 C5.86199932,12.7049994 5.69500099,12.642 5.49499999,12.642 C5.22299863,12.642 5.00300083,12.7559989 4.83499999,12.984 C4.65499909,13.2320012 4.56499999,13.5749978 4.56499999,14.013 C4.56499999,14.4510022 4.64499919,14.7929988 4.80499999,15.039 C4.96500079,15.2850012 5.18299861,15.408 5.45899999,15.408 C5.73500137,15.408 5.94299929,15.3410007 6.08299999,15.207 C6.22300069,15.0729993 6.29299999,14.9000011 6.29299999,14.688 L7.05499999,14.688 C7.05499999,15.1240022 6.91600138,15.4609988 6.63799999,15.699 C6.3599986,15.9370012 5.97900241,16.056 5.49499999,16.056 C4.97899741,16.056 4.56900151,15.8760018 4.26499999,15.516 C3.95699845,15.1479982 3.80299999,14.6480032 3.80299999,14.016 C3.80299999,13.3759968 3.96099841,12.8760018 4.27699999,12.516 C4.58100151,12.1719983 4.98099751,12 5.47699999,12 L5.47699999,12 Z M9.80399997,13.152 C9.73999965,12.8119983 9.50000205,12.642 9.08399997,12.642 C8.87999895,12.642 8.72100054,12.6829996 8.60699997,12.765 C8.4929994,12.8470004 8.43599997,12.9459994 8.43599997,13.062 C8.43599997,13.1780006 8.4729996,13.2689997 8.54699997,13.335 C8.62100034,13.4010003 8.73599919,13.4619997 8.89199997,13.518 L9.73799997,13.848 C10.0260014,13.9600006 10.2479992,14.1009991 10.404,14.271 C10.5600008,14.4410008 10.638,14.6539987 10.638,14.91 C10.638,15.2620018 10.5060013,15.540999 10.242,15.747 C9.97799865,15.953001 9.60200241,16.056 9.11399997,16.056 C8.68199781,16.056 8.33200131,15.9500011 8.06399997,15.738 C7.76399847,15.5059988 7.60600005,15.1780021 7.58999997,14.754 L8.29199997,14.754 C8.29199997,15.0740016 8.45799831,15.2759996 8.78999997,15.36 C8.89000047,15.3880001 9.02199915,15.402 9.18599997,15.402 C9.35000079,15.402 9.50199927,15.3610004 9.64199997,15.279 C9.78200067,15.1969996 9.85199997,15.0870007 9.85199997,14.949 C9.85199997,14.8109993 9.81400035,14.7050004 9.73799997,14.631 C9.66199959,14.5569996 9.53800083,14.4880003 9.36599997,14.424 L8.59199997,14.118 C8.29199847,14.0019994 8.06200077,13.8660008 7.90199997,13.71 C7.74199917,13.5539992 7.66199997,13.3380014 7.66199997,13.062 C7.66199997,12.7379984 7.78799871,12.4820009 8.03999997,12.294 C8.29600125,12.097999 8.64299778,12 9.08099997,12 C9.51900216,12 9.85699878,12.100999 10.095,12.303 C10.3330012,12.505001 10.4699998,12.7879982 10.506,13.152 L9.80399997,13.152 Z M11.773,12.078 L12.721,15.084 L13.681,12.078 L14.425,12.078 L13.087,15.972 L12.343,15.972 L11.023,12.078 L11.773,12.078 Z" id=".CSV" fill="#022C53" sketch:type="MSShapeGroup"></path>
        </g>
    </g>
</svg>