<?xml version="1.0" encoding="UTF-8" standalone="no"?>
<svg width="13px" height="13px" viewBox="0 0 13 13" version="1.1" xmlns="http://www.w3.org/2000/svg" xmlns:xlink="http://www.w3.org/1999/xlink" xmlns:sketch="http://www.bohemiancoding.com/sketch/ns">
    <!-- Generator: Sketch 3.4.4 (17249) - http://www.bohemiancoding.com/sketch -->
    <title>i-export--primary</title>
    <desc>Created with Sketch.</desc>
    <defs></defs>
    <g id="Page-1" stroke="none" stroke-width="1" fill="none" fill-rule="evenodd" sketch:type="MSPage">
        <g id="i-export--primary" sketch:type="MSLayerGroup" fill="#022C53">
            <g id="export-csv" sketch:type="MSShapeGroup">
                <path d="M8.89002492,3.45744519 L4.77285698,5.89100769 C4.68250984,5.94463269 4.58466501,5.97313269 4.4802597,5.97313269 C4.16966798,5.97313269 3.9179331,5.72132019 3.9179331,5.41063269 L3.9179331,0.53563269 C3.9179331,0.22513269 4.16966798,-0.02686731 4.4802597,-0.02686731 C4.58466501,-0.02686731 4.68250984,0.00182019 4.7662965,0.05150769 C4.77004535,0.05357019 8.89002492,2.48882019 8.89002492,2.48882019 C9.05534892,2.58688269 9.16631472,2.76707019 9.16631472,2.97313269 C9.16631472,3.17938269 9.05534892,3.35957019 8.89002492,3.45744519 L8.89002492,3.45744519 Z" id="Fill-3-Copy" transform="translate(6.542124, 2.973133) rotate(90.000000) translate(-6.542124, -2.973133) "></path>
                <path d="M0.638,11.894 C0.54599954,11.8059996 0.5,11.6940007 0.5,11.558 C0.5,11.4219993 0.54599954,11.3080005 0.638,11.216 C0.73000046,11.1239995 0.84799928,11.078 0.992,11.078 C1.13600072,11.078 1.25599952,11.1239995 1.352,11.216 C1.44800048,11.3080005 1.496,11.4219993 1.496,11.558 C1.496,11.6940007 1.44800048,11.8059996 1.352,11.894 C1.25599952,11.9820004 1.13600072,12.026 0.992,12.026 C0.84799928,12.026 0.73000046,11.9820004 0.638,11.894 L0.638,11.894 L0.638,11.894 Z M3.47699999,8 C3.71700119,8 3.92499911,8.0289997 4.10099999,8.087 C4.27700087,8.1450003 4.42899935,8.2259995 4.55699999,8.33 C4.80900125,8.534001 4.97299961,8.8199982 5.04899999,9.188 L4.29299999,9.326 C4.22899967,9.121999 4.13000066,8.9570006 3.99599999,8.831 C3.86199932,8.7049994 3.69500099,8.642 3.49499999,8.642 C3.22299863,8.642 3.00300083,8.7559989 2.83499999,8.984 C2.65499909,9.2320012 2.56499999,9.5749978 2.56499999,10.013 C2.56499999,10.4510022 2.64499919,10.7929988 2.80499999,11.039 C2.96500079,11.2850012 3.18299861,11.408 3.45899999,11.408 C3.73500137,11.408 3.94299929,11.3410007 4.08299999,11.207 C4.22300069,11.0729993 4.29299999,10.9000011 4.29299999,10.688 L5.05499999,10.688 C5.05499999,11.1240022 4.91600138,11.4609988 4.63799999,11.699 C4.3599986,11.9370012 3.97900241,12.056 3.49499999,12.056 C2.97899741,12.056 2.56900151,11.8760018 2.26499999,11.516 C1.95699845,11.1479982 1.80299999,10.6480032 1.80299999,10.016 C1.80299999,9.3759968 1.96099841,8.8760018 2.27699999,8.516 C2.58100151,8.1719983 2.98099751,8 3.47699999,8 L3.47699999,8 L3.47699999,8 Z M7.80399997,9.152 C7.73999965,8.8119983 7.50000205,8.642 7.08399997,8.642 C6.87999895,8.642 6.72100054,8.6829996 6.60699997,8.765 C6.4929994,8.8470004 6.43599997,8.9459994 6.43599997,9.062 C6.43599997,9.1780006 6.4729996,9.2689997 6.54699997,9.335 C6.62100034,9.4010003 6.73599919,9.4619997 6.89199997,9.518 L7.73799997,9.848 C8.0260014,9.9600006 8.2479992,10.1009991 8.404,10.271 C8.5600008,10.4410008 8.638,10.6539987 8.638,10.91 C8.638,11.2620018 8.5060013,11.540999 8.242,11.747 C7.97799865,11.953001 7.60200241,12.056 7.11399997,12.056 C6.68199781,12.056 6.33200131,11.9500011 6.06399997,11.738 C5.76399847,11.5059988 5.60600005,11.1780021 5.58999997,10.754 L6.29199997,10.754 C6.29199997,11.0740016 6.45799831,11.2759996 6.78999997,11.36 C6.89000047,11.3880001 7.02199915,11.402 7.18599997,11.402 C7.35000079,11.402 7.50199927,11.3610004 7.64199997,11.279 C7.78200067,11.1969996 7.85199997,11.0870007 7.85199997,10.949 C7.85199997,10.8109993 7.81400035,10.7050004 7.73799997,10.631 C7.66199959,10.5569996 7.53800083,10.4880003 7.36599997,10.424 L6.59199997,10.118 C6.29199847,10.0019994 6.06200077,9.8660008 5.90199997,9.71 C5.74199917,9.5539992 5.66199997,9.3380014 5.66199997,9.062 C5.66199997,8.7379984 5.78799871,8.4820009 6.03999997,8.294 C6.29600125,8.097999 6.64299778,8 7.08099997,8 C7.51900216,8 7.85699878,8.100999 8.095,8.303 C8.3330012,8.505001 8.4699998,8.7879982 8.506,9.152 L7.80399997,9.152 L7.80399997,9.152 Z M9.773,8.078 L10.721,11.084 L11.681,8.078 L12.425,8.078 L11.087,11.972 L10.343,11.972 L9.023,8.078 L9.773,8.078 L9.773,8.078 Z" id=".CSV"></path>
            </g>
        </g>
    </g>
</svg>