<?xml version="1.0" encoding="UTF-8" standalone="no"?>
<svg width="17px" height="19px" viewBox="0 0 17 19" version="1.1" xmlns="http://www.w3.org/2000/svg" xmlns:xlink="http://www.w3.org/1999/xlink">
    <!-- Generator: Sketch 3.7 (28169) - http://www.bohemiancoding.com/sketch -->
    <title>i-filings--inverse</title>
    <desc>Created with Sketch.</desc>
    <defs></defs>
    <g id="Icons" stroke="none" stroke-width="1" fill="none" fill-rule="evenodd">
        <g id="i-filings--inverse" transform="translate(0.000000, -2.000000)" fill="#FFFFFF">
            <path d="M10,9 L5.48697726,9 C5.1947909,9 5,9.19699271 5,9.49248176 L5,20.4748251 C5,20.7703142 5.1947909,20.9673069 5.48697726,20.9673069 L14.2038701,20.9673069 C14.4960565,20.9673069 14.6908474,20.7703142 14.6908474,20.4748251 L14.6908474,13.487992 L10.5409451,13.487992 L10,13.487992 L10,12.9470469 L10,9 Z M11.4963379,9.02743565 C11.5607378,9.05158978 11.6161631,9.09169274 11.6715884,9.14774453 L14.5161853,12.0244951 L11.4963379,12.0244952 L11.4963379,9.02743565 Z" id="Combined-Shape"></path>
            <path d="M16.7519392,3.44454319 C16.8673792,3.56015552 16.9389435,3.72013567 16.9389435,3.89696707 C16.9389435,4.07358516 16.8673792,4.23356532 16.7519392,4.34939095 L13.9830824,7.12238032 C13.8674294,7.23820595 13.7076877,7.30987706 13.5311198,7.30987706 C13.1781971,7.30987706 12.8921529,7.02340593 12.8921529,6.66995644 C12.8921529,6.49312504 12.9637172,6.33335819 13.0793702,6.21753256 L15.3964774,3.90106328 L13.0092532,1.54344684 C12.8936002,1.4276212 12.8220359,1.26764105 12.8220359,1.09102296 C12.8220359,0.737573466 13.1080801,0.451102333 13.4610028,0.451102333 C13.6373577,0.451102333 13.7973124,0.522773443 13.9129655,0.638385769 L16.7519392,3.44454319 Z" id="Fill-3" transform="translate(14.880490, 3.880490) rotate(-45.000000) translate(-14.880490, -3.880490) "></path>
            <path d="M9.20387014,13.9673069 L0.486977256,13.9673069 C0.194790902,13.9673069 0,13.7703142 0,13.4748251 L0,2.49248176 C0,2.19699271 0.194790902,2 0.486977256,2 L6.33070433,2 C6.47679751,2 6.57419296,2.04924818 6.67158841,2.14774453 L9.54475422,5.05338694 C9.64214967,5.15188329 9.6908474,5.25037964 9.6908474,5.39812417 L9.6908474,13.4748251 C9.6908474,13.7703142 9.49605649,13.9673069 9.20387014,13.9673069 L9.20387014,13.9673069 Z M8.35844644,6.07621966 L8.35844644,12.5195313 L1.33240095,12.5195313 L1.33240095,3.44777558 L6,3.44777558 L6,6.07621966 L8.35844644,6.07621966 Z" id="Combined-Shape-Copy-2"></path>
        </g>
    </g>
</svg>