<?xml version="1.0" encoding="UTF-8" standalone="no"?>
<svg width="81px" height="81px" viewBox="0 0 81 81" version="1.1" xmlns="http://www.w3.org/2000/svg" xmlns:xlink="http://www.w3.org/1999/xlink">
    <!-- Generator: Sketch 3.7 (28169) - http://www.bohemiancoding.com/sketch -->
    <title>i-filings--primary</title>
    <desc>Created with Sketch.</desc>
    <defs></defs>
    <g id="Icons" stroke="none" stroke-width="1" fill="none" fill-rule="evenodd">
        <g id="Complex" transform="translate(-176.000000, -1166.000000)">
            <g id="i-filings--primary" transform="translate(176.000000, 1166.000000)">
                <circle id="Oval-144" fill="#022C53" cx="40.7181375" cy="40.080882" r="40"></circle>
                <path d="M59.4021135,31.4310623 C58.7433815,31.4310623 58.3042269,30.9919077 58.3042269,30.3331758 L58.3042269,19.6836763 L47.9840934,19.6836763 C47.3253615,19.6836763 46.8862069,19.2445217 46.8862069,18.5857898 C46.8862069,17.9270578 47.3253615,17.4879032 47.9840934,17.4879032 L59.4021135,17.4879032 C60.0608454,17.4879032 60.5,17.9270578 60.5,18.5857898 L60.5,30.4429644 C60.5,30.9919077 60.0608454,31.4310623 59.4021135,31.4310623" id="Fill-1" fill="#D6D7D9"></path>
                <g id="Group" transform="translate(16.000000, 17.000000)">
                    <path d="M2.25912779,0.706306528 L17.3482192,0.706306528 C19.8371106,0.706306528 18.4422701,9.30267247 18.4422701,9.30267247 C18.4422701,9.30267247 26.8087451,7.30089393 26.8087451,9.89806527 C26.8087451,17.5353767 26.3564909,31.4097548 26.3564909,31.4097548 L2.25912779,31.4097548 L2.25912779,0.706306528 Z" id="Rectangle-479" fill="#144767"></path>
                    <path d="M26.1876268,10.9316514 L18.2441684,10.9316514 C17.436359,10.9316514 16.8978195,10.3925134 16.8978195,9.58380653 L16.8978195,1.63152204 C16.8978195,1.09238411 17.1670892,0.553246183 17.7056288,0.4184617 C18.2441684,0.148892735 18.7827079,0.283677217 19.1866126,0.688030666 L27.130071,8.64031515 C27.5339757,9.0446686 27.6686105,9.58380653 27.3993408,10.1229445 C27.2647059,10.5272979 26.7261663,10.9316514 26.1876268,10.9316514 L26.1876268,10.9316514 Z M19.5905172,8.2359617 L22.9563895,8.2359617 L19.5905172,4.86634963 L19.5905172,8.2359617 L19.5905172,8.2359617 Z" id="Fill-5" fill="#35BDBB"></path>
                    <path d="M26.1876268,33.0363065 L2.08798174,33.0363065 C1.28017241,33.0363065 0.74163286,32.4971686 0.74163286,31.6884617 L0.74163286,1.63152204 C0.74163286,0.822815148 1.28017241,0.283677217 2.08798174,0.283677217 L18.2441684,0.283677217 C18.648073,0.283677217 18.9173428,0.4184617 19.1866126,0.688030666 L27.130071,8.64031515 C27.3993408,8.90988411 27.5339757,9.17945308 27.5339757,9.58380653 L27.5339757,31.6884617 C27.5339757,32.4971686 26.8608012,33.0363065 26.1876268,33.0363065 L26.1876268,33.0363065 Z M3.43433063,30.3406169 L24.8412779,30.3406169 L24.8412779,10.1229445 L17.7056288,2.97936687 L3.43433063,2.97936687 L3.43433063,30.3406169 L3.43433063,30.3406169 Z" id="Fill-6" fill="#35BDBB"></path>
                    <g id="Rectangle-479-Copy-+-Fill-3-+-Fill-4" transform="translate(17.205882, 18.875000)">
                        <path d="M1.34634888,1.15803067 L16.4354403,1.15803067 C18.9243317,1.15803067 17.5294912,9.75439661 17.5294912,9.75439661 C17.5294912,9.75439661 25.8959662,7.75261807 25.8959662,10.3497894 C25.8959662,17.9871008 25.443712,31.8614789 25.443712,31.8614789 L1.34634888,31.8614789 L1.34634888,1.15803067 Z" id="Rectangle-479-Copy" fill="#144767"></path>
                        <path d="M25.614858,10.7277289 L17.6713996,10.7277289 C16.8635903,10.7277289 16.3250507,10.188591 16.3250507,9.37988411 L16.3250507,1.42759963 C16.3250507,0.8884617 16.5943205,0.349323769 17.13286,0.214539286 C17.6713996,-0.0550296793 18.2099391,0.0797548035 18.6138438,0.484108252 L26.5573022,8.43639273 C26.9612069,8.84074618 27.0958418,9.37988411 26.826572,9.91902204 C26.6919371,10.3233755 26.1533976,10.7277289 25.614858,10.7277289 L25.614858,10.7277289 Z M19.0177485,8.03203929 L22.3836207,8.03203929 L19.0177485,4.66242722 L19.0177485,8.03203929 L19.0177485,8.03203929 Z" id="Fill-3" fill="#35BDBB"></path>
                        <path d="M25.614858,32.8323841 L1.51521298,32.8323841 C0.707403651,32.8323841 0.168864097,32.2932462 0.168864097,31.4845393 L0.168864097,1.42759963 C0.168864097,0.618892735 0.707403651,0.0797548035 1.51521298,0.0797548035 L17.6713996,0.0797548035 C18.0753043,0.0797548035 18.344574,0.214539286 18.6138438,0.484108252 L26.5573022,8.43639273 C26.826572,8.7059617 26.9612069,8.97553067 26.9612069,9.37988411 L26.9612069,31.4845393 C26.9612069,32.2932462 26.4226673,32.8323841 25.614858,32.8323841 L25.614858,32.8323841 Z M2.86156187,30.1366945 L24.2685091,30.1366945 L24.2685091,9.91902204 L17.13286,2.77544446 L2.86156187,2.77544446 L2.86156187,30.1366945 L2.86156187,30.1366945 Z" id="Fill-4" fill="#35BDBB"></path>
                    </g>
                </g>
            </g>
        </g>
    </g>
</svg>