<?xml version="1.0" encoding="UTF-8" standalone="no"?>
<svg width="81px" height="81px" viewBox="0 0 81 81" version="1.1" xmlns="http://www.w3.org/2000/svg" xmlns:xlink="http://www.w3.org/1999/xlink" xmlns:sketch="http://www.bohemiancoding.com/sketch/ns">
    <!-- Generator: Sketch 3.3.3 (12081) - http://www.bohemiancoding.com/sketch -->
    <title>i-filings--primary</title>
    <desc>Created with Sketch.</desc>
    <defs></defs>
    <g id="Page-1" stroke="none" stroke-width="1" fill="none" fill-rule="evenodd" sketch:type="MSPage">
        <g id="Complex" sketch:type="MSArtboardGroup" transform="translate(-174.000000, -1166.000000)">
            <g id="i-filings--primary" sketch:type="MSLayerGroup" transform="translate(174.241379, 1166.080882)">
                <g id="Group-Copy-2-+-Group-Copy-14-Copy-Copy-Copy" transform="translate(0.218138, 0.000000)" fill="#022C53" sketch:type="MSShapeGroup">
                    <circle id="Oval-144" cx="40" cy="40" r="40"></circle>
                </g>
                <g id="Rectangle-479-+-Rectangle-479-Copy-+-Imported-Layers" transform="translate(15.551724, 16.379310)" sketch:type="MSShapeGroup">
                    <path d="M1.65517241,0.827586207 L13.0558193,0.827586207 C14.936315,0.827586207 13.8824355,7.31540956 13.8824355,7.31540956 C13.8824355,7.31540956 20.2037722,5.8046333 20.2037722,7.76476262 C20.2037722,13.5287712 19.862069,24 19.862069,24 L1.65517241,24 L1.65517241,0.827586207 Z" id="Rectangle-479" fill-opacity="0.3" fill="#3E8A9A"></path>
                    <path d="M28.9655172,24.4137931 L40.3661641,24.4137931 C42.2466598,24.4137931 41.1927803,30.9016165 41.1927803,30.9016165 C41.1927803,30.9016165 47.514117,29.3908402 47.514117,31.3509695 C47.514117,37.1149781 47.1724138,47.5862069 47.1724138,47.5862069 L28.9655172,47.5862069 L28.9655172,24.4137931 Z" id="Rectangle-479-Copy" fill-opacity="0.3" fill="#3E8A9A"></path>
                    <g id="Imported-Layers">
                        <path d="M39.6724138,18.2086207 C39.062069,18.2086207 38.6551724,17.8017241 38.6551724,17.1913793 L38.6551724,7.32413793 L29.0931034,7.32413793 C28.4827586,7.32413793 28.0758621,6.91724138 28.0758621,6.30689655 C28.0758621,5.69655172 28.4827586,5.28965517 29.0931034,5.28965517 L39.6724138,5.28965517 C40.2827586,5.28965517 40.6896552,5.69655172 40.6896552,6.30689655 L40.6896552,17.2931034 C40.6896552,17.8017241 40.2827586,18.2086207 39.6724138,18.2086207" id="Fill-1" fill="#EFDECD"></path>
                        <path d="M19.1241379,44.962069 L8.54482759,44.962069 C7.93448276,44.962069 7.52758621,44.5551724 7.52758621,43.9448276 L7.52758621,32.9586207 C7.52758621,32.3482759 7.93448276,31.9413793 8.54482759,31.9413793 C9.15517241,31.9413793 9.56206897,32.3482759 9.56206897,32.9586207 L9.56206897,42.9275862 L19.1241379,42.9275862 C19.7344828,42.9275862 20.1413793,43.3344828 20.1413793,43.9448276 C20.1413793,44.4534483 19.7344828,44.962069 19.1241379,44.962069" id="Fill-2" fill="#EFDECD"></path>
                        <path d="M47.3017241,31.6362069 L41.3,31.6362069 C40.6896552,31.6362069 40.2827586,31.2293103 40.2827586,30.6189655 L40.2827586,24.6172414 C40.2827586,24.2103448 40.4862069,23.8034483 40.8931034,23.7017241 C41.3,23.4982759 41.7068966,23.6 42.012069,23.9051724 L48.0137931,29.9068966 C48.3189655,30.212069 48.4206897,30.6189655 48.2172414,31.0258621 C48.1155172,31.3310345 47.7086207,31.6362069 47.3017241,31.6362069 L47.3017241,31.6362069 Z M42.3172414,29.6017241 L44.8603448,29.6017241 L42.3172414,27.0586207 L42.3172414,29.6017241 L42.3172414,29.6017241 Z" id="Fill-3" fill="#35BDBB"></path>
                        <path d="M47.3017241,48.3189655 L29.0931034,48.3189655 C28.4827586,48.3189655 28.0758621,47.912069 28.0758621,47.3017241 L28.0758621,24.6172414 C28.0758621,24.0068966 28.4827586,23.6 29.0931034,23.6 L41.3,23.6 C41.6051724,23.6 41.8086207,23.7017241 42.012069,23.9051724 L48.0137931,29.9068966 C48.2172414,30.1103448 48.3189655,30.3137931 48.3189655,30.6189655 L48.3189655,47.3017241 C48.3189655,47.912069 47.912069,48.3189655 47.3017241,48.3189655 L47.3017241,48.3189655 Z M30.1103448,46.2844828 L46.2844828,46.2844828 L46.2844828,31.0258621 L40.8931034,25.6344828 L30.1103448,25.6344828 L30.1103448,46.2844828 L30.1103448,46.2844828 Z" id="Fill-4" fill="#35BDBB"></path>
                        <path d="M19.7344828,8.54482759 L13.7327586,8.54482759 C13.1224138,8.54482759 12.7155172,8.13793103 12.7155172,7.52758621 L12.7155172,1.52586207 C12.7155172,1.11896552 12.9189655,0.712068966 13.3258621,0.610344828 C13.7327586,0.406896552 14.1396552,0.50862069 14.4448276,0.813793103 L20.4465517,6.81551724 C20.7517241,7.12068966 20.8534483,7.52758621 20.65,7.93448276 C20.5482759,8.23965517 20.1413793,8.54482759 19.7344828,8.54482759 L19.7344828,8.54482759 Z M14.75,6.51034483 L17.2931034,6.51034483 L14.75,3.96724138 L14.75,6.51034483 L14.75,6.51034483 Z" id="Fill-5" fill="#35BDBB"></path>
                        <path d="M19.7344828,25.2275862 L1.52586207,25.2275862 C0.915517241,25.2275862 0.50862069,24.8206897 0.50862069,24.2103448 L0.50862069,1.52586207 C0.50862069,0.915517241 0.915517241,0.50862069 1.52586207,0.50862069 L13.7327586,0.50862069 C14.037931,0.50862069 14.2413793,0.610344828 14.4448276,0.813793103 L20.4465517,6.81551724 C20.65,7.01896552 20.7517241,7.22241379 20.7517241,7.52758621 L20.7517241,24.2103448 C20.7517241,24.8206897 20.2431034,25.2275862 19.7344828,25.2275862 L19.7344828,25.2275862 Z M2.54310345,23.1931034 L18.7172414,23.1931034 L18.7172414,7.93448276 L13.3258621,2.54310345 L2.54310345,2.54310345 L2.54310345,23.1931034 L2.54310345,23.1931034 Z" id="Fill-6" fill="#35BDBB"></path>
                    </g>
                </g>
            </g>
        </g>
    </g>
</svg>