<?xml version="1.0" encoding="UTF-8" standalone="no"?>
<svg width="118px" height="118px" viewBox="0 0 118 118" version="1.1" xmlns="http://www.w3.org/2000/svg" xmlns:xlink="http://www.w3.org/1999/xlink" xmlns:sketch="http://www.bohemiancoding.com/sketch/ns">
    <!-- Generator: Sketch 3.3.3 (12081) - http://www.bohemiancoding.com/sketch -->
    <title>i-glossary--lg</title>
    <desc>Created with Sketch.</desc>
    <defs></defs>
    <g id="Alpha-Wireframes-Styled" stroke="none" stroke-width="1" fill="none" fill-rule="evenodd" sketch:type="MSPage">
        <g id="Beta-Home" sketch:type="MSArtboardGroup" transform="translate(-109.000000, -1181.000000)">
            <g id="i-glossary--lg" sketch:type="MSLayerGroup" transform="translate(109.000000, 1181.000000)">
                <circle id="Oval-168" fill="#F77B42" sketch:type="MSShapeGroup" cx="59" cy="59" r="59"></circle>
                <path d="M90.9523231,82.7164615 L60.2292769,95.4294462 C59.8428769,95.5961077 59.4172,95.6884615 58.9692308,95.6884615 C58.5212615,95.6884615 58.0955846,95.5961077 57.7091846,95.4294462 L26.9861385,82.7164615 C25.8216308,82.2419538 25,81.1008 25,79.7653846 L25,30.9346154 C25,29.1756462 26.4256462,27.75 28.1846154,27.75 C28.6156,27.75 29.0274769,27.8370462 29.4022,27.9920308 L29.4075077,27.9941538 C29.4170615,27.9984 29.4266154,28.0015846 29.4361692,28.0058308 L58.9692308,40.2262615 L88.5022923,28.0058308 C88.5118462,28.0015846 88.5214,27.9984 88.5309538,27.9941538 L88.5362615,27.9920308 C88.9120462,27.8370462 89.3228615,27.75 89.7538462,27.75 C91.5128154,27.75 92.9384615,29.1756462 92.9384615,30.9346154 L92.9384615,79.7653846 C92.9384615,81.1008 92.1168308,82.2419538 90.9523231,82.7164615 L90.9523231,82.7164615 Z M55.7846154,87.7396615 L55.7846154,45.8014615 L31.3692308,35.6988 L31.3692308,77.637 L55.7846154,87.7396615 L55.7846154,87.7396615 Z M86.5692308,35.6988 L62.1538462,45.8014615 L62.1538462,87.7396615 L86.5692308,77.637 L86.5692308,35.6988 L86.5692308,35.6988 Z" id="Imported-Layers-Copy-18" fill="#EFDECD" sketch:type="MSShapeGroup"></path>
            </g>
        </g>
    </g>
</svg>