<?xml version="1.0" encoding="UTF-8" standalone="no"?>
<svg width="22px" height="22px" viewBox="0 0 22 22" version="1.1" xmlns="http://www.w3.org/2000/svg" xmlns:xlink="http://www.w3.org/1999/xlink" xmlns:sketch="http://www.bohemiancoding.com/sketch/ns">
    <!-- Generator: Sketch 3.3.3 (12081) - http://www.bohemiancoding.com/sketch -->
    <title>i-info--cream--small</title>
    <desc>Created with Sketch.</desc>
    <defs></defs>
    <g id="Page-1" stroke="none" stroke-width="1" fill="none" fill-rule="evenodd" sketch:type="MSPage">
        <g id="Simple-Copy" sketch:type="MSArtboardGroup" transform="translate(-321.000000, -1065.000000)">
            <g id="i-info--cream--small" sketch:type="MSLayerGroup" transform="translate(322.000000, 1066.000000)">
                <circle id="Oval-198" stroke="#FFFFF9" stroke-width="2" sketch:type="MSShapeGroup" cx="9.77999878" cy="9.93994141" r="9.25"></circle>
                <path d="M11.5220684,5.29244066 C11.5220684,4.78088066 11.1383984,4.32616066 10.5557884,4.32616066 C10.0442284,4.32616066 9.46161844,4.72404066 9.46161844,5.42033066 C9.46161844,5.96031066 9.83107844,6.41503066 10.4563184,6.41503066 C11.0957684,6.41503066 11.5220684,5.86084066 11.5220684,5.29244066 L11.5220684,5.29244066 Z M8.96426844,14.7136707 C9.49003844,14.7136707 10.5984184,14.5715707 10.9252484,14.4863107 L10.9252484,14.0600107 C10.1152784,14.0600107 9.97317844,13.9889607 9.97317844,13.6621307 C9.97317844,13.5484507 10.0158084,13.2926707 10.0584384,13.0653107 L10.7263084,9.21440067 C10.7973584,8.77389067 10.8684084,8.37601067 10.8684084,8.10602067 C10.8684084,7.82182067 10.7405184,7.58025067 10.3142184,7.58025067 C9.64634844,7.58025067 8.58059844,7.73656067 8.28218844,7.80761067 L8.19692844,8.23391067 C8.82216844,8.23391067 9.14899844,8.33338067 9.14899844,8.58916067 C9.14899844,8.74547067 9.09215844,9.02967067 9.04952844,9.28545067 L8.39586844,13.0795207 C8.32481844,13.4631907 8.25376844,13.9179107 8.25376844,14.1879007 C8.25376844,14.5715707 8.50954844,14.7136707 8.96426844,14.7136707 L8.96426844,14.7136707 Z" id="i" fill="#FFFFF9" sketch:type="MSShapeGroup"></path>
            </g>
        </g>
    </g>
</svg>