<?xml version="1.0" encoding="UTF-8" standalone="no"?>
<svg width="21px" height="21px" viewBox="0 0 21 21" version="1.1" xmlns="http://www.w3.org/2000/svg" xmlns:xlink="http://www.w3.org/1999/xlink" xmlns:sketch="http://www.bohemiancoding.com/sketch/ns">
    <!-- Generator: Sketch 3.3.3 (12081) - http://www.bohemiancoding.com/sketch -->
    <title>i-info--primary</title>
    <desc>Created with Sketch.</desc>
    <defs></defs>
    <g id="Page-1" stroke="none" stroke-width="1" fill="none" fill-rule="evenodd" sketch:type="MSPage">
        <path d="M10.820014,20.4397808 C16.2774039,20.4397808 20.7014925,16.0297854 20.7014925,10.5897804 C20.7014925,5.14977538 16.2774039,0.739779991 10.820014,0.739779991 C5.36262403,0.739779991 0.93853538,5.14977538 0.93853538,10.5897804 C0.93853538,16.0297854 5.36262403,20.4397808 10.820014,20.4397808 Z M12.7644583,5.4478053 C12.7644583,4.8255831 12.2977917,4.27249671 11.5891497,4.27249671 C10.9669275,4.27249671 10.2582856,4.7564473 10.2582856,5.60336085 C10.2582856,6.26015094 10.7076683,6.81323733 11.4681621,6.81323733 C12.2459398,6.81323733 12.7644583,6.13916329 12.7644583,5.4478053 Z M9.65334735,16.907064 C10.2928535,16.907064 11.6410016,16.7342245 12.0385324,16.6305208 L12.0385324,16.1120023 C11.0533473,16.1120023 10.8805078,16.0255826 10.8805078,15.6280517 C10.8805078,15.4897802 10.9323596,15.1786691 10.9842115,14.9021259 L11.7965571,10.2181755 C11.8829769,9.68237301 11.9693966,9.19842241 11.9693966,8.87002736 C11.9693966,8.52434837 11.8138411,8.23052122 11.2953226,8.23052122 C10.4829769,8.23052122 9.1866807,8.42064467 8.82371775,8.50706442 L8.72001405,9.02558291 C9.48050785,9.02558291 9.87803869,9.14657056 9.87803869,9.45768166 C9.87803869,9.64780511 9.80890289,9.9934841 9.75705104,10.3045952 L8.96198935,14.9194098 C8.8755696,15.3860765 8.78914985,15.9391628 8.78914985,16.2675579 C8.78914985,16.7342245 9.10026095,16.907064 9.65334735,16.907064 Z" id="i-info--primary" fill="#FFFFFF" sketch:type="MSShapeGroup"></path>
    </g>
</svg>