<?xml version="1.0" encoding="UTF-8" standalone="no"?>
<svg width="16px" height="22px" viewBox="0 0 16 22" version="1.1" xmlns="http://www.w3.org/2000/svg" xmlns:xlink="http://www.w3.org/1999/xlink" xmlns:sketch="http://www.bohemiancoding.com/sketch/ns">
    <!-- Generator: Sketch 3.3.3 (12081) - http://www.bohemiancoding.com/sketch -->
    <title>i-map--cream</title>
    <desc>Created with Sketch.</desc>
    <defs></defs>
    <g id="Page-1" stroke="none" stroke-width="1" fill="none" fill-rule="evenodd" sketch:type="MSPage">
        <g id="Simple-Copy" sketch:type="MSArtboardGroup" transform="translate(-291.000000, -920.000000)" fill="#FFFFF9">
            <path d="M298.836735,941.661538 C298.836735,941.661538 291,932.609046 291,928.123077 C291,923.637446 294.508898,920 298.836735,920 C303.164571,920 306.673469,923.637446 306.673469,928.123077 C306.673469,932.609046 298.836735,941.661538 298.836735,941.661538 L298.836735,941.661538 Z M298.836735,923.775995 C296.520666,923.775995 294.642857,925.722416 294.642857,928.12311 C294.642857,930.523805 296.520666,932.470497 298.836735,932.470497 C301.152804,932.470497 303.030612,930.523805 303.030612,928.12311 C303.030612,925.722416 301.152804,923.775995 298.836735,923.775995 L298.836735,923.775995 Z" id="i-map--cream" sketch:type="MSShapeGroup"></path>
        </g>
    </g>
</svg>