<?xml version="1.0" encoding="UTF-8" standalone="no"?>
<svg width="20px" height="20px" viewBox="0 0 20 20" version="1.1" xmlns="http://www.w3.org/2000/svg" xmlns:xlink="http://www.w3.org/1999/xlink">
    <!-- Generator: Sketch 3.7 (28169) - http://www.bohemiancoding.com/sketch -->
    <title>i-overview--inverse</title>
    <desc>Created with Sketch.</desc>
    <defs></defs>
    <g id="Icons" stroke="none" stroke-width="1" fill="none" fill-rule="evenodd">
        <g id="i-overview--inverse" fill="#FFFFFF">
            <path d="M0,1 L1.11022302e-15,18.0351596 L1.22124533e-15,19.0351596 L1,19.0351596 L18.0908203,19.0351596 C18.6431051,19.0351596 19.0908203,18.5874444 19.0908203,18.0351596 C19.0908203,17.4828749 18.6431051,17.0351596 18.0908203,17.0351596 L1,17.0351596 L2,18.0351596 L2,1 C2,0.44771525 1.55228475,0 1,0 C0.44771525,0 0,0.44771525 0,1 L0,1 Z" id="Path-511-Copy"></path>
            <rect id="Rectangle-467-Copy-8" x="3.5" y="11.5" width="3" height="4.07668583" rx="1"></rect>
            <rect id="Rectangle-467-Copy-10" x="8" y="3.5" width="3" height="12.0766858" rx="1"></rect>
            <rect id="Rectangle-467-Copy-11" x="12.5" y="7.5" width="3" height="8.07668583" rx="1"></rect>
        </g>
    </g>
</svg>