<?xml version="1.0" encoding="UTF-8" standalone="no"?>
<svg width="15px" height="15px" viewBox="0 0 15 15" version="1.1" xmlns="http://www.w3.org/2000/svg" xmlns:xlink="http://www.w3.org/1999/xlink" xmlns:sketch="http://www.bohemiancoding.com/sketch/ns">
    <!-- Generator: Sketch 3.3.3 (12081) - http://www.bohemiancoding.com/sketch -->
    <title>i-plus--neutral</title>
    <desc>Created with Sketch.</desc>
    <defs></defs>
    <g id="Page-1" stroke="none" stroke-width="1" fill="none" fill-rule="evenodd" sketch:type="MSPage">
        <g id="Simple-Copy" sketch:type="MSArtboardGroup" transform="translate(-181.000000, -669.000000)" fill="#EFDECD">
            <path d="M194.145574,678.2 L189.612618,678.2 L189.612618,682.661538 C189.612618,683.400815 189.003842,684 188.252731,684 C187.50162,684 186.892844,683.400815 186.892844,682.661538 L186.892844,678.2 L182.359887,678.2 C181.608776,678.2 181,677.600815 181,676.861538 C181,676.122262 181.608776,675.523077 182.359887,675.523077 L186.892844,675.523077 L186.892844,671.061538 C186.892844,670.322262 187.50162,669.723077 188.252731,669.723077 C189.003842,669.723077 189.612618,670.322262 189.612618,671.061538 L189.612618,675.523077 L194.145574,675.523077 C194.896685,675.523077 195.505461,676.122262 195.505461,676.861538 C195.505461,677.600815 194.896685,678.2 194.145574,678.2 L194.145574,678.2 Z" id="i-plus--neutral" sketch:type="MSShapeGroup"></path>
        </g>
    </g>
</svg>