<?xml version="1.0" encoding="UTF-8" standalone="no"?>
<svg width="15px" height="15px" viewBox="0 0 15 15" version="1.1" xmlns="http://www.w3.org/2000/svg" xmlns:xlink="http://www.w3.org/1999/xlink" xmlns:sketch="http://www.bohemiancoding.com/sketch/ns">
    <!-- Generator: Sketch 3.3.3 (12081) - http://www.bohemiancoding.com/sketch -->
    <title>i-plus--secondary</title>
    <desc>Created with Sketch.</desc>
    <defs></defs>
    <g id="Page-1" stroke="none" stroke-width="1" fill="none" fill-rule="evenodd" sketch:type="MSPage">
        <g id="Simple-Copy" sketch:type="MSArtboardGroup" transform="translate(-411.000000, -669.000000)" fill="#631010">
            <path d="M424.145574,678.2 L419.612618,678.2 L419.612618,682.661538 C419.612618,683.400815 419.003842,684 418.252731,684 C417.50162,684 416.892844,683.400815 416.892844,682.661538 L416.892844,678.2 L412.359887,678.2 C411.608776,678.2 411,677.600815 411,676.861538 C411,676.122262 411.608776,675.523077 412.359887,675.523077 L416.892844,675.523077 L416.892844,671.061538 C416.892844,670.322262 417.50162,669.723077 418.252731,669.723077 C419.003842,669.723077 419.612618,670.322262 419.612618,671.061538 L419.612618,675.523077 L424.145574,675.523077 C424.896685,675.523077 425.505461,676.122262 425.505461,676.861538 C425.505461,677.600815 424.896685,678.2 424.145574,678.2 L424.145574,678.2 Z" id="i-plus--secondary" sketch:type="MSShapeGroup"></path>
        </g>
    </g>
</svg>