<?xml version="1.0" encoding="UTF-8" standalone="no"?>
<svg width="61px" height="61px" viewBox="0 0 61 61" version="1.1" xmlns="http://www.w3.org/2000/svg" xmlns:xlink="http://www.w3.org/1999/xlink">
    <!-- Generator: Sketch 3.8.3 (29802) - http://www.bohemiancoding.com/sketch -->
    <title>i-profiles--primary</title>
    <desc>Created with Sketch.</desc>
    <defs></defs>
    <g id="Page-1" stroke="none" stroke-width="1" fill="none" fill-rule="evenodd">
        <g id="Data-landing" transform="translate(-41.000000, -325.000000)">
            <g id="Group" transform="translate(41.000000, 325.000000)">
                <g id="i-profiles--primary">
                    <circle id="Oval-37" fill="#112E51" cx="30.5" cy="30.5" r="30.5"></circle>
                    <path d="M25.1749115,44 L48,44 L48,18.0294591 L24.1951667,18.0294591 L21.5757923,15 L12,15.0204901 L12,20.2454661 L12.808893,20.2454661 L47.1820855,20.2454661 L47.9954892,20.2454661 L47.9954892,22.9875692 L47.1820855,22.9875692 L12.808893,22.9875692 L12,22.9875692 L12,44 L17.9887546,44 L16.1174665,34.3362091 C16.0915349,34.1865132 16.085052,34.0350137 16.085052,33.8775023 C16.085052,32.5777647 17.0416681,31.5029772 18.2774408,31.3601945 C19.1718176,32.0912463 20.3069428,32.5285004 21.5421838,32.5285004 C22.7814354,32.5285004 23.9199199,32.0884024 24.8156306,31.3530646 C26.0854991,31.4622085 27.0788728,32.5535993 27.0788728,33.8775023 C27.0788728,34.0350137 27.0623709,34.1865132 27.0364393,34.3362091 L25.1749115,44 Z M31.3186838,29.7984887 L42.2048454,29.7984887 C42.6711085,29.7984887 43.0490893,29.4070762 43.0490893,28.9242444 C43.0490893,28.4414125 42.6711085,28.05 42.2048454,28.05 L31.3186838,28.05 C30.8524208,28.05 30.47444,28.4414125 30.47444,28.9242444 C30.47444,29.4070762 30.8524208,29.7984887 31.3186838,29.7984887 Z M31.3186838,34.1484887 L42.2048454,34.1484887 C42.6711085,34.1484887 43.0490893,33.7570762 43.0490893,33.2742444 C43.0490893,32.7914125 42.6711085,32.4 42.2048454,32.4 L31.3186838,32.4 C30.8524208,32.4 30.47444,32.7914125 30.47444,33.2742444 C30.47444,33.7570762 30.8524208,34.1484887 31.3186838,34.1484887 Z M31.3186838,38.4984887 L42.2048454,38.4984887 C42.6711085,38.4984887 43.0490893,38.1070762 43.0490893,37.6242444 C43.0490893,37.1414125 42.6711085,36.75 42.2048454,36.75 L31.3186838,36.75 C30.8524208,36.75 30.47444,37.1414125 30.47444,37.6242444 C30.47444,38.1070762 30.8524208,38.4984887 31.3186838,38.4984887 Z M21.5421838,30.6580922 C23.1453182,30.6580922 24.4449154,29.3323997 24.4449154,27.6970751 C24.4449154,26.0617504 23.1453182,24.7360579 21.5421838,24.7360579 C19.9390494,24.7360579 18.6394522,26.0617504 18.6394522,27.6970751 C18.6394522,29.3323997 19.9390494,30.6580922 21.5421838,30.6580922 Z" id="folder-with-person" fill="#FFFFFF"></path>
                </g>
            </g>
        </g>
    </g>
</svg>