<?xml version="1.0" encoding="UTF-8" standalone="no"?>
<svg width="82px" height="82px" viewBox="0 0 82 82" version="1.1" xmlns="http://www.w3.org/2000/svg" xmlns:xlink="http://www.w3.org/1999/xlink">
    <!-- Generator: Sketch 3.7 (28169) - http://www.bohemiancoding.com/sketch -->
    <title>i-receipts--neutral</title>
    <desc>Created with Sketch.</desc>
    <defs>
        <ellipse id="path-1" cx="40.6753737" cy="40.781601" rx="40.6753737" ry="40.781601"></ellipse>
        <ellipse id="path-3" cx="42.617434" cy="42.4042111" rx="41.8621883" ry="41.971515"></ellipse>
        <path d="M19.9974524,1.86174597 L12.1636299,6.59448826 C10.7338121,7.5259292 9.81331394,8.17169039 9.02987528,10.5383455 C8.63843797,11.7213891 7.23424431,16.1991492 7.23424431,16.1991492 L10.207995,14.6103435 L12.9465045,12.1161156 C13.7299432,10.5383455 19.1801719,10.5724226 16.8631338,12.9050006 L11.3333767,19.0752289 C10.6875615,19.7255337 10.1720375,24.245862 13.7293792,21.5821681 L24.6963923,13.6938857 L25.480395,11.3272305 L27.8301469,8.96057543 L27.8301469,3.57710536 L27.8301469,1.86174597 L19.9974524,1.86174597 Z" id="path-5"></path>
        <mask id="mask-6" maskContentUnits="userSpaceOnUse" maskUnits="objectBoundingBox" x="-1.5" y="-1.5" width="23.5959026" height="23.553269">
            <rect x="5.73424431" y="0.361745975" width="23.5959026" height="23.553269" fill="white"></rect>
            <use xlink:href="#path-5" fill="black"></use>
        </mask>
    </defs>
    <g id="Icons" stroke="none" stroke-width="1" fill="none" fill-rule="evenodd">
        <g id="Complex" transform="translate(-566.000000, -1282.000000)">
            <g id="i-receipts--neutral" transform="translate(566.000000, 1282.000000)">
                <mask id="mask-2" fill="white">
                    <use xlink:href="#path-1"></use>
                </mask>
                <use id="Mask" fill="#D6D7D9" xlink:href="#path-1"></use>
                <g id="Imported-Layers-+-Group" mask="url(#mask-2)">
                    <g transform="translate(6.000000, -5.000000)">
                        <path d="M8,69.7743008 L8,82.0298852 C8,83.165054 8.88721569,83.3857293 9.52784314,83.3857293 L17.382902,83.3857293 C18.9138824,85.3094696 20.844549,87.038093 23.0933333,88.5098852 L23.0933333,97.45908 L33.3653333,97.45908 L33.3653333,92.8286384 C36.1204706,93.4781969 39.0550588,93.831028 42.1025882,93.831028 C45.4356078,93.831028 48.633098,93.4077553 51.6084706,92.6366384 L51.6084706,97.4584566 L61.881098,97.4584566 L61.881098,87.9856255 C67.3399216,84.1431319 70.7457255,78.7322229 70.7457255,72.7322229 C70.7457255,61.0788203 57.9218824,51.6321709 42.1019608,51.6315475 C36.0006275,51.6315475 30.3491765,53.0416255 25.7035294,55.4366384 C24.3425882,52.5292099 19.961098,48.5452099 13.292549,50.5362748 L17.4701176,61.9652618 C15.8061176,64.0273917 14.6064314,66.3158073 13.9752157,68.7544566 L9.30572549,68.7544566 C8.46996078,68.7544566 8.00062745,69.0555475 8,69.7743008 L8,69.7743008 Z M33.9821176,59.1432358 L33.292549,55.8262488 C40.3300392,53.82708 44.7178039,54.11508 50.8235294,55.4017293 L50.2230588,58.7629761 C44.4272941,57.5417813 40.518902,57.2868203 33.9821176,59.1432358 Z M20,70 C21.1045695,70 22,69.1045695 22,68 C22,66.8954305 21.1045695,66 20,66 C18.8954305,66 18,66.8954305 18,68 C18,69.1045695 18.8954305,70 20,70 Z" id="Imported-Layers" fill="#3E8A9A"></path>
                        <g id="Group" stroke-width="1" fill="none" transform="translate(0.000000, 0.000000)">
                            <g id="Mask-Copy-+-Oval-114-Copy-2">
                                <mask id="mask-4" fill="white">
                                    <use xlink:href="#path-3"></use>
                                </mask>
                                <g id="Mask-Copy"></g>
                            </g>
                            <ellipse id="Oval-114-Copy-3" fill="#D6D7D9" cx="41.9583567" cy="44.0999415" rx="13.3786375" ry="13.413577"></ellipse>
                            <g id="noun_14292-copy-+-Rectangle-267-Copy-4-+-Path-Copy-Copy-Copy-Copy-Copy-Copy-Copy-Copy-Copy-Copy" transform="translate(28.807228, 16.009753)">
                                <g id="noun_14292-copy">
                                    <g id="Imported-Layers" transform="translate(0.669676, 16.319390)">
                                        <path d="M24.0752262,11.9432042 C24.0752262,18.5343918 18.7878835,23.8778943 12.2659686,23.8778943 C5.74370087,23.8778943 0.456358145,18.5343918 0.456358145,11.9432042 C0.456358145,5.35165985 5.74370087,0.00815737395 12.2659686,0.00815737395 C18.7878835,0.00815737395 24.0752262,5.35165985 24.0752262,11.9432042 L8.55893152,3.99581643" id="Fill-1" fill="#FFFFFF"></path>
                                        <path d="M12.9714888,4.0133766 L12.9714888,4.97785366 C13.6018336,5.04348375 14.1421794,5.17438726 14.5928794,5.37056417 C15.0435794,5.56709777 15.4367508,5.86493 15.7723934,6.26370416 C16.0374488,6.56724335 16.242152,6.87969967 16.3865031,7.20107313 C16.5308541,7.52244658 16.6028532,7.81706864 16.6028532,8.0849393 C16.6028532,8.38277153 16.4952075,8.64029831 16.2802692,8.85751966 C16.0653308,9.07474101 15.8048636,9.18317334 15.4985147,9.18317334 C14.9211104,9.18317334 14.5473506,8.86786353 14.3765293,8.23688724 C14.1820613,7.4928417 13.7137144,6.99883256 12.9714888,6.75485982 L12.9714888,10.4690238 C13.7020675,10.6716211 14.283707,10.8560274 14.7164072,11.0225994 C15.1494604,11.1891715 15.5366318,11.4302907 15.8782744,11.7459572 C16.2435638,12.0733943 16.5248542,12.4646781 16.7221457,12.9201652 C16.9194373,13.3752957 17.0182595,13.8739417 17.0182595,14.4157467 C17.0182595,15.0941621 16.8604969,15.7297753 16.5453245,16.3218729 C16.2301522,16.9143272 15.7663935,17.3979925 15.1540486,17.7728687 C14.5413507,18.147745 13.8139484,18.37103 12.9714888,18.442367 L12.9714888,19.5958873 C12.9714888,19.9468656 12.9376069,20.2029657 12.870196,20.3634741 C12.8024322,20.5243391 12.653493,20.6045933 12.4237313,20.6045933 C12.2119693,20.6045933 12.0630301,20.5393199 11.9776195,20.4084164 C11.8922088,20.2775129 11.8495035,20.0749157 11.8495035,19.801338 L11.8495035,18.460558 C11.1605713,18.3831573 10.5581086,18.2194387 10.0428212,17.9694023 C9.52753381,17.7193659 9.09765707,17.4083364 8.75283805,17.0363136 C8.40837196,16.6642908 8.15355175,16.2772873 7.98873038,15.8756596 C7.823909,15.4736753 7.74132184,15.0791813 7.74132184,14.6925345 C7.74132184,14.4068296 7.85179099,14.1493028 8.07272928,13.9199541 C8.29366757,13.6909622 8.56895809,13.5764662 8.89860085,13.5764662 C9.16365621,13.5764662 9.38741799,13.6388861 9.57023914,13.763726 C9.75270734,13.8889225 9.87941157,14.0644117 9.94999888,14.2905501 C10.1091733,14.7788523 10.2475244,15.1523018 10.3654052,15.4112554 C10.483286,15.6702089 10.6611661,15.9066912 10.8997512,16.1210591 C11.1383363,16.335427 11.4549204,16.4991455 11.8495035,16.6122148 L11.8495035,12.4603979 C11.0603373,12.2399664 10.4006989,11.9945669 9.87058816,11.723486 C9.34047743,11.4527619 8.91060069,11.0671851 8.580605,10.567469 C8.25096225,10.0673962 8.08578793,9.4242926 8.08578793,8.63851489 C8.08578793,7.61482808 8.40837196,6.77554757 9.05318706,6.12067336 C9.69835511,5.46579915 10.6304606,5.08485924 11.8495035,4.97785366 L11.8495035,4.03121087 C11.8495035,3.53149476 12.0351481,3.28145837 12.4060845,3.28145837 C12.7830207,3.28145837 12.9714888,3.52543111 12.9714888,4.0133766 L12.9714888,4.0133766 Z M11.8495035,10.1387333 L11.8495035,6.7188346 C11.3546864,6.86792906 10.9689268,7.06410597 10.6922245,7.30807872 C10.4155222,7.55240815 10.2768181,7.92157743 10.2768181,8.41558657 C10.2768181,8.8856978 10.4066988,9.24131304 10.6657542,9.48243231 C10.9248097,9.72355157 11.3193928,9.94219966 11.8495035,10.1387333 L11.8495035,10.1387333 Z M12.9714888,12.7906885 L12.9714888,16.7013861 C13.5665399,16.5822532 14.0260633,16.3414906 14.3500591,15.978385 C14.6737019,15.6152793 14.8356998,15.1926073 14.8356998,14.7103687 C14.8356998,14.1924617 14.6782901,13.7922608 14.3631177,13.5094093 C14.0479454,13.2265579 13.5841867,12.9868654 12.9714888,12.7906885 L12.9714888,12.7906885 Z" id="Fill-3" fill="#022C53"></path>
                                    </g>
                                    <path d="M29.3981523,1.89530022 L29.3981523,12.3683283 C29.3981523,13.2580948 30.7842365,13.9796526 32.4948183,13.9796526 L52.3939249,13.979653 L49.5554436,7.40763309 C49.5554436,7.40763309 45.7163977,0.283975896 43.0499089,0.283975896 L32.4948183,0.283975896 C30.7842365,0.283975896 29.3981523,1.00553366 29.3981523,1.89530022 Z" id="Shape" fill="#35BDBB"></path>
                                    <g id="Shape">
                                        <use fill="#3E8A9A" fill-rule="evenodd" xlink:href="#path-5"></use>
                                        <use stroke="#D6D7D9" mask="url(#mask-6)" stroke-width="3" xlink:href="#path-5"></use>
                                    </g>
                                </g>
                            </g>
                        </g>
                    </g>
                </g>
            </g>
        </g>
    </g>
</svg>