<?xml version="1.0" encoding="UTF-8" standalone="no"?>
<svg width="78px" height="79px" viewBox="0 0 78 79" version="1.1" xmlns="http://www.w3.org/2000/svg" xmlns:xlink="http://www.w3.org/1999/xlink" xmlns:sketch="http://www.bohemiancoding.com/sketch/ns">
    <!-- Generator: Sketch 3.3.3 (12081) - http://www.bohemiancoding.com/sketch -->
    <title>i-resources</title>
    <desc>Created with Sketch.</desc>
    <defs>
        <ellipse id="path-1" cx="39.3333333" cy="39.4202899" rx="38.754902" ry="38.8405797"></ellipse>
    </defs>
    <g id="Page-1" stroke="none" stroke-width="1" fill="none" fill-rule="evenodd" sketch:type="MSPage">
        <g id="Complex" sketch:type="MSArtboardGroup" transform="translate(-124.000000, -102.000000)">
            <g id="i-resources" sketch:type="MSLayerGroup" transform="translate(123.041045, 102.255332)">
                <g id="Group-Copy-6-+-Imported-Layers-+-Group">
                    <g id="Group-Copy-6">
                        <g id="Group-Copy-2">
                            <g transform="translate(0.666667, 0.000000)" id="Group">
                                <g>
                                    <mask id="mask-2" sketch:name="Mask" fill="white">
                                        <use xlink:href="#path-1"></use>
                                    </mask>
                                    <use id="Mask" fill="#022C53" sketch:type="MSShapeGroup" xlink:href="#path-1"></use>
                                    <g mask="url(#mask-2)" stroke-linecap="round" stroke-dasharray="0.25,4" stroke-linejoin="round">
                                        <g transform="translate(-48.588235, -18.550725)">
                                            <g>
                                                <path d="M54.2249004,0 L0.887982537,115.216259" id="Line-Copy-20" stroke="#006A7F" stroke-width="1.5" sketch:type="MSShapeGroup"></path>
                                                <path d="M63.7376519,0 L10.4007341,115.216259" id="Line-Copy-21" stroke="#006A7F" stroke-width="1.5" sketch:type="MSShapeGroup"></path>
                                                <path d="M72.3155056,0 L18.9785878,115.216259" id="Line-Copy-22" stroke="#006A7F" stroke-width="1.5" sketch:type="MSShapeGroup"></path>
                                                <path d="M80.8933593,0 L27.5564415,115.216259" id="Line-Copy-23" stroke="#006A7F" stroke-width="1.5" sketch:type="MSShapeGroup"></path>
                                                <path d="M89.471213,0 L36.1342952,115.216259" id="Line-Copy-24" stroke="#006A7F" stroke-width="1.5" sketch:type="MSShapeGroup"></path>
                                                <path d="M98.0490667,0 L44.7121488,115.216259" id="Line-Copy-25" stroke="#006A7F" stroke-width="1.5" sketch:type="MSShapeGroup"></path>
                                                <path d="M106.62692,0 L53.2900025,115.216259" id="Line-Copy-26" stroke="#006A7F" stroke-width="1.5" sketch:type="MSShapeGroup"></path>
                                                <path d="M115.204774,0 L61.8678562,115.216259" id="Line-Copy-27" stroke="#006A7F" stroke-width="1.5" sketch:type="MSShapeGroup"></path>
                                                <path d="M123.782628,0 L70.4457099,115.216259" id="Line-Copy-28" stroke="#006A7F" stroke-width="1.5" sketch:type="MSShapeGroup"></path>
                                                <path d="M132.360481,0 L79.0235636,115.216259" id="Line-Copy-29" stroke="#006A7F" stroke-width="1.5" sketch:type="MSShapeGroup"></path>
                                                <path d="M140.938335,0 L87.6014173,115.216259" id="Line-Copy-30" stroke="#006A7F" stroke-width="1.5" sketch:type="MSShapeGroup"></path>
                                                <path d="M149.516189,0 L96.179271,115.216259" id="Line-Copy-31" stroke="#006A7F" stroke-width="1.5" sketch:type="MSShapeGroup"></path>
                                                <path d="M158.094043,0 L104.757125,115.216259" id="Line-Copy-32" stroke="#006A7F" stroke-width="1.5" sketch:type="MSShapeGroup"></path>
                                                <path d="M166.671896,0 L113.334978,115.216259" id="Line-Copy-33" stroke="#006A7F" stroke-width="1.5" sketch:type="MSShapeGroup"></path>
                                                <path d="M175.24975,0 L121.912832,115.216259" id="Line-Copy-34" stroke="#006A7F" stroke-width="1.5" sketch:type="MSShapeGroup"></path>
                                            </g>
                                        </g>
                                    </g>
                                </g>
                            </g>
                        </g>
                    </g>
                    <g id="Imported-Layers-+-Group" transform="translate(15.072464, 23.188406)" sketch:type="MSShapeGroup">
                        <g id="Imported-Layers">
                            <path d="M1.36645963,1.84143223 L49.0407177,1.84143223 L49.0407177,32.8910486 L1.36645963,32.8910486 L1.36645963,1.84143223 Z" id="Fill-1" fill="#EFDECD"></path>
                            <path d="M18.930628,11.9171355 C18.930628,12.5818926 18.3980124,13.1202046 17.7408972,13.1202046 C17.0831746,13.1202046 16.550559,12.5818926 16.550559,11.9171355 C16.550559,11.2529923 17.0831746,10.7140665 17.7408972,10.7140665 C18.3980124,10.7140665 18.930628,11.2529923 18.930628,11.9171355" id="Fill-2" fill="#F77B42"></path>
                            <path d="M16.1879917,11.9171355 C16.1879917,12.5818926 15.6553761,13.1202046 14.9976536,13.1202046 C14.3405383,13.1202046 13.8079227,12.5818926 13.8079227,11.9171355 C13.8079227,11.2529923 14.3405383,10.7140665 14.9976536,10.7140665 C15.6553761,10.7140665 16.1879917,11.2529923 16.1879917,11.9171355" id="Fill-3" fill="#F77B42"></path>
                            <path d="M13.4453554,11.9171355 C13.4453554,12.5818926 12.9127398,13.1202046 12.2550173,13.1202046 C11.597902,13.1202046 11.0652864,12.5818926 11.0652864,11.9171355 C11.0652864,11.2529923 11.597902,10.7140665 12.2550173,10.7140665 C12.9127398,10.7140665 13.4453554,11.2529923 13.4453554,11.9171355" id="Fill-4" fill="#F77B42"></path>
                            <path d="M10.7027191,11.9171355 C10.7027191,12.5818926 10.1701035,13.1202046 9.51238095,13.1202046 C8.8552657,13.1202046 8.3226501,12.5818926 8.3226501,11.9171355 C8.3226501,11.2529923 8.8552657,10.7140665 9.51238095,10.7140665 C10.1701035,10.7140665 10.7027191,11.2529923 10.7027191,11.9171355" id="Fill-5" fill="#F77B42"></path>
                            <path d="M18.930628,20.2453197 C18.930628,20.9100767 18.3980124,21.4483887 17.7408972,21.4483887 C17.0831746,21.4483887 16.550559,20.9100767 16.550559,20.2453197 C16.550559,19.5811765 17.0831746,19.0422506 17.7408972,19.0422506 C18.3980124,19.0422506 18.930628,19.5811765 18.930628,20.2453197" id="Fill-6" fill="#F77B42"></path>
                            <path d="M16.1879917,20.2453197 C16.1879917,20.9100767 15.6553761,21.4483887 14.9976536,21.4483887 C14.3405383,21.4483887 13.8079227,20.9100767 13.8079227,20.2453197 C13.8079227,19.5811765 14.3405383,19.0422506 14.9976536,19.0422506 C15.6553761,19.0422506 16.1879917,19.5811765 16.1879917,20.2453197" id="Fill-7" fill="#F77B42"></path>
                            <path d="M13.4453554,20.2453197 C13.4453554,20.9100767 12.9127398,21.4483887 12.2550173,21.4483887 C11.597902,21.4483887 11.0652864,20.9100767 11.0652864,20.2453197 C11.0652864,19.5811765 11.597902,19.0422506 12.2550173,19.0422506 C12.9127398,19.0422506 13.4453554,19.5811765 13.4453554,20.2453197" id="Fill-8" fill="#F77B42"></path>
                            <path d="M10.7027191,20.2453197 C10.7027191,20.9100767 10.1701035,21.4483887 9.51238095,21.4483887 C8.8552657,21.4483887 8.3226501,20.9100767 8.3226501,20.2453197 C8.3226501,19.5811765 8.8552657,19.0422506 9.51238095,19.0422506 C10.1701035,19.0422506 10.7027191,19.5811765 10.7027191,20.2453197" id="Fill-9" fill="#F77B42"></path>
                            <path d="M18.930628,17.4733504 C18.930628,18.1374936 18.3980124,18.6764194 17.7408972,18.6764194 C17.0831746,18.6764194 16.550559,18.1374936 16.550559,17.4733504 C16.550559,16.8092072 17.0831746,16.2702813 17.7408972,16.2702813 C18.3980124,16.2702813 18.930628,16.8092072 18.930628,17.4733504" id="Fill-10" fill="#F77B42"></path>
                            <path d="M10.7027191,17.4733504 C10.7027191,18.1374936 10.1701035,18.6764194 9.51238095,18.6764194 C8.8552657,18.6764194 8.3226501,18.1374936 8.3226501,17.4733504 C8.3226501,16.8092072 8.8552657,16.2702813 9.51238095,16.2702813 C10.1701035,16.2702813 10.7027191,16.8092072 10.7027191,17.4733504" id="Fill-11" fill="#F77B42"></path>
                            <path d="M18.930628,14.6504348 C18.930628,15.314578 18.3980124,15.8535038 17.7408972,15.8535038 C17.0831746,15.8535038 16.550559,15.314578 16.550559,14.6504348 C16.550559,13.9862916 17.0831746,13.4473657 17.7408972,13.4473657 C18.3980124,13.4473657 18.930628,13.9862916 18.930628,14.6504348" id="Fill-12" fill="#F77B42"></path>
                            <path d="M21.6732643,17.4733504 C21.6732643,18.1374936 21.1406487,18.6764194 20.4835335,18.6764194 C19.8258109,18.6764194 19.2931953,18.1374936 19.2931953,17.4733504 C19.2931953,16.8092072 19.8258109,16.2702813 20.4835335,16.2702813 C21.1406487,16.2702813 21.6732643,16.8092072 21.6732643,17.4733504" id="Fill-13" fill="#F77B42"></path>
                            <path d="M21.6732643,14.6504348 C21.6732643,15.314578 21.1406487,15.8535038 20.4835335,15.8535038 C19.8258109,15.8535038 19.2931953,15.314578 19.2931953,14.6504348 C19.2931953,13.9862916 19.8258109,13.4473657 20.4835335,13.4473657 C21.1406487,13.4473657 21.6732643,13.9862916 21.6732643,14.6504348" id="Fill-14" fill="#F77B42"></path>
                            <path d="M16.1879917,9.18383632 C16.1879917,9.84859335 15.6553761,10.3869054 14.9976536,10.3869054 C14.3405383,10.3869054 13.8079227,9.84859335 13.8079227,9.18383632 C13.8079227,8.51969309 14.3405383,7.98076726 14.9976536,7.98076726 C15.6553761,7.98076726 16.1879917,8.51969309 16.1879917,9.18383632" id="Fill-15" fill="#F77B42"></path>
                            <path d="M13.4453554,9.18383632 C13.4453554,9.84859335 12.9127398,10.3869054 12.2550173,10.3869054 C11.597902,10.3869054 11.0652864,9.84859335 11.0652864,9.18383632 C11.0652864,8.51969309 11.597902,7.98076726 12.2550173,7.98076726 C12.9127398,7.98076726 13.4453554,8.51969309 13.4453554,9.18383632" id="Fill-16" fill="#F77B42"></path>
                            <path d="M16.1879917,23.0682353 C16.1879917,23.7329923 15.6553761,24.2713043 14.9976536,24.2713043 C14.3405383,24.2713043 13.8079227,23.7329923 13.8079227,23.0682353 C13.8079227,22.4040921 14.3405383,21.8651662 14.9976536,21.8651662 C15.6553761,21.8651662 16.1879917,22.4040921 16.1879917,23.0682353" id="Fill-17" fill="#F77B42"></path>
                            <path d="M13.4453554,23.0682353 C13.4453554,23.7329923 12.9127398,24.2713043 12.2550173,24.2713043 C11.597902,24.2713043 11.0652864,23.7329923 11.0652864,23.0682353 C11.0652864,22.4040921 11.597902,21.8651662 12.2550173,21.8651662 C12.9127398,21.8651662 13.4453554,22.4040921 13.4453554,23.0682353" id="Fill-18" fill="#F77B42"></path>
                            <path d="M10.7027191,14.6504348 C10.7027191,15.314578 10.1701035,15.8535038 9.51238095,15.8535038 C8.8552657,15.8535038 8.3226501,15.314578 8.3226501,14.6504348 C8.3226501,13.9862916 8.8552657,13.4473657 9.51238095,13.4473657 C10.1701035,13.4473657 10.7027191,13.9862916 10.7027191,14.6504348" id="Fill-19" fill="#F77B42"></path>
                            <path d="M7.96008282,17.4733504 C7.96008282,18.1374936 7.42746722,18.6764194 6.76974465,18.6764194 C6.1126294,18.6764194 5.5800138,18.1374936 5.5800138,17.4733504 C5.5800138,16.8092072 6.1126294,16.2702813 6.76974465,16.2702813 C7.42746722,16.2702813 7.96008282,16.8092072 7.96008282,17.4733504" id="Fill-20" fill="#F77B42"></path>
                            <path d="M7.96008282,14.6504348 C7.96008282,15.314578 7.42746722,15.8535038 6.76974465,15.8535038 C6.1126294,15.8535038 5.5800138,15.314578 5.5800138,14.6504348 C5.5800138,13.9862916 6.1126294,13.4473657 6.76974465,13.4473657 C7.42746722,13.4473657 7.96008282,13.9862916 7.96008282,14.6504348" id="Fill-21" fill="#F77B42"></path>
                            <path d="M49.268461,0.194578005 L28.7715666,0.194578005 C27.4324362,0.194578005 26.2244859,0.756214834 25.3554175,1.65544757 C24.4863492,0.756214834 23.2783989,0.194578005 21.9392685,0.194578005 L1.44237405,0.194578005 C0.688088337,0.194578005 0.0753071084,0.813913043 0.0753071084,1.57626598 L0.0753071084,32.6504348 C0.0753071084,33.4127877 0.688088337,34.0321228 1.44237405,34.0321228 L21.9392685,34.0321228 C23.0688751,34.0321228 23.9883506,34.9614322 23.9883506,36.1031202 C23.9883506,36.8654731 24.6011318,37.4848082 25.3554175,37.4848082 C26.1097032,37.4848082 26.7224845,36.8654731 26.7224845,36.1031202 C26.7224845,34.9614322 27.64196,34.0321228 28.7715666,34.0321228 L49.268461,34.0321228 C50.0227467,34.0321228 50.635528,33.4127877 50.635528,32.6504348 L50.635528,1.57626598 C50.635528,0.813299233 50.0227467,0.194578005 49.268461,0.194578005 L49.268461,0.194578005 Z M23.9883506,31.7358568 C23.3676743,31.4363171 22.6716908,31.268133 21.9392685,31.268133 L2.80944099,31.268133 L2.80944099,2.95734015 L21.9392685,2.95734015 C23.0688751,2.95734015 23.9883506,3.88664962 23.9883506,5.0283376 L23.9883506,31.7358568 L23.9883506,31.7358568 Z M47.9013941,31.2687468 L28.7715666,31.2687468 C28.0391442,31.2687468 27.3431608,31.4363171 26.7224845,31.7364706 L26.7224845,5.0283376 C26.7224845,3.88664962 27.64196,2.95734015 28.7715666,2.95734015 L47.9013941,2.95734015 L47.9013941,31.2687468 L47.9013941,31.2687468 Z" id="Fill-22" fill="#DD3900"></path>
                        </g>
                        <g id="Group" transform="translate(29.758454, 7.979540)" fill="#F77B42">
                            <rect id="Rectangle-26-Copy-9" x="0" y="0" width="16.1242236" height="1.20982987" rx="1"></rect>
                            <rect id="Rectangle-26-Copy-5" x="0" y="3.06905371" width="16.1242236" height="1.20982987" rx="1"></rect>
                            <rect id="Rectangle-26-Copy-6" x="0" y="6.13810742" width="16.1242236" height="1.20982987" rx="1"></rect>
                            <rect id="Rectangle-26-Copy-7" x="0" y="9.20716113" width="16.1242236" height="1.20982987" rx="1"></rect>
                            <rect id="Rectangle-26-Copy-8" x="0" y="11.6624041" width="9.55509547" height="1.20982987" rx="1"></rect>
                        </g>
                    </g>
                </g>
            </g>
        </g>
    </g>
</svg>