<?xml version="1.0" encoding="UTF-8" standalone="no"?>
<svg width="78px" height="79px" viewBox="0 0 78 79" version="1.1" xmlns="http://www.w3.org/2000/svg" xmlns:xlink="http://www.w3.org/1999/xlink" xmlns:sketch="http://www.bohemiancoding.com/sketch/ns">
    <!-- Generator: Sketch 3.4.2 (15857) - http://www.bohemiancoding.com/sketch -->
    <title>i-resources--neutral</title>
    <desc>Created with Sketch.</desc>
    <defs></defs>
    <g id="Page-1" stroke="none" stroke-width="1" fill="none" fill-rule="evenodd" sketch:type="MSPage">
        <g id="Complex" sketch:type="MSArtboardGroup" transform="translate(-488.000000, -193.000000)">
            <g id="i-resources--neutral" sketch:type="MSLayerGroup" transform="translate(488.000000, 193.000000)">
                <g id="Group-Copy-6-+-Imported-Layers-+-Group" sketch:type="MSShapeGroup">
                    <circle id="Oval-142" fill="#EFDECD" cx="39" cy="39.4893358" r="39"></circle>
                    <g id="Imported-Layers-+-Group" transform="translate(11.115942, 20.971014)">
                        <g id="Imported-Layers">
                            <path d="M1.52484472,2.05487096 L54.7249827,2.05487096 L54.7249827,36.7034201 L1.52484472,36.7034201 L1.52484472,2.05487096 Z" id="Fill-1" fill="#FFFFF9"></path>
                            <path d="M54.9791235,0.217131365 L32.1064527,0.217131365 C30.6121049,0.217131365 29.2641422,0.843867008 28.2943409,1.84732899 C27.3245397,0.843867008 25.9765769,0.217131365 24.4822291,0.217131365 L1.60955832,0.217131365 C0.76784403,0.217131365 0.0840358868,0.908252964 0.0840358868,1.75896954 L0.0840358868,36.434917 C0.0840358868,37.2856336 0.76784403,37.9767552 1.60955832,37.9767552 L24.4822291,37.9767552 C25.7427674,37.9767552 26.7688185,39.0137801 26.7688185,40.2878 C26.7688185,41.1385166 27.4526266,41.8296382 28.2943409,41.8296382 C29.1360552,41.8296382 29.8198634,41.1385166 29.8198634,40.2878 C29.8198634,39.0137801 30.8459144,37.9767552 32.1064527,37.9767552 L54.9791235,37.9767552 C55.8208378,37.9767552 56.504646,37.2856336 56.504646,36.434917 L56.504646,1.75896954 C56.504646,0.907568007 55.8208378,0.217131365 54.9791235,0.217131365 L54.9791235,0.217131365 Z M26.7688185,35.4143311 C26.0762001,35.0800721 25.2995459,34.8923939 24.4822291,34.8923939 L3.13508075,34.8923939 L3.13508075,3.30012276 L24.4822291,3.30012276 C25.7427674,3.30012276 26.7688185,4.33714764 26.7688185,5.61116764 L26.7688185,35.4143311 L26.7688185,35.4143311 Z M53.4536011,34.8930788 L32.1064527,34.8930788 C31.289136,34.8930788 30.5124817,35.0800721 29.8198634,35.415016 L29.8198634,5.61116764 C29.8198634,4.33714764 30.8459144,3.30012276 32.1064527,3.30012276 L53.4536011,3.30012276 L53.4536011,34.8930788 L53.4536011,34.8930788 Z" id="Fill-22" fill="#022C53"></path>
                        </g>
                        <g id="Group" transform="translate(33.207729, 8.904441)" fill="#F77B42">
                            <rect id="Rectangle-26-Copy-9" x="0" y="0" width="17.9931677" height="1.35006015" rx="1"></rect>
                            <rect id="Rectangle-26-Copy-5" x="0" y="3.42478493" width="17.9931677" height="1.35006015" rx="1"></rect>
                            <rect id="Rectangle-26-Copy-6" x="0" y="6.84956987" width="17.9931677" height="1.35006015" rx="1"></rect>
                            <rect id="Rectangle-26-Copy-7" x="0" y="10.2743548" width="17.9931677" height="1.35006015" rx="1"></rect>
                            <rect id="Rectangle-26-Copy-8" x="0" y="14.0141827" width="10.6626179" height="1.35006015" rx="1"></rect>
                        </g>
                    </g>
                </g>
                <g id="Imported-Layers-+-Rectangle-267-Copy-4-+-Path-Copy-Copy-Copy-Copy-Copy-Copy-Copy-Copy" transform="translate(16.000000, 30.000000)" fill="#F77B42" sketch:type="MSShapeGroup">
                    <path d="M3.21448276,7.24137931 C3.21425287,7.81202926 2.70413793,8.33118495 2.14413793,8.33118495 C1.58367816,8.33118495 1.0737931,7.81202926 1.0737931,7.24137931 C1.07356322,6.6704953 1.58367816,6.15016928 2.14413793,6.15016928 C2.70482759,6.15016928 3.21586207,6.67002717 3.21448276,7.24137931" id="Fill-1"></path>
                    <path d="M7.90198276,13.3057638 C7.90175287,13.8764138 7.39163793,14.3955695 6.83163793,14.3955695 C6.27117816,14.3955695 5.7612931,13.8764138 5.7612931,13.3057638 C5.76106322,12.7348798 6.27117816,12.2145538 6.83163793,12.2145538 C7.39232759,12.2145538 7.90336207,12.7344117 7.90198276,13.3057638" id="Fill-1-Copy-2"></path>
                    <path d="M7.90198276,1.24323511 C7.90175287,1.81388506 7.39163793,2.33304075 6.83163793,2.33304075 C6.27117816,2.33304075 5.7612931,1.81388506 5.7612931,1.24323511 C5.76106322,0.672351097 6.27117816,0.152025078 6.83163793,0.152025078 C7.39232759,0.152025078 7.90336207,0.671882968 7.90198276,1.24323511" id="Fill-1-Copy-4"></path>
                    <path d="M18.8394828,7.24137931 C18.8392529,7.81202926 18.3291379,8.33118495 17.7691379,8.33118495 C17.2086782,8.33118495 16.6987931,7.81202926 16.6987931,7.24137931 C16.6985632,6.6704953 17.2086782,6.15016928 17.7691379,6.15016928 C18.3298276,6.15016928 18.8408621,6.67002717 18.8394828,7.24137931" id="Fill-1-Copy"></path>
                    <path d="M14.1519828,13.3057638 C14.1517529,13.8764138 13.6416379,14.3955695 13.0816379,14.3955695 C12.5211782,14.3955695 12.0112931,13.8764138 12.0112931,13.3057638 C12.0110632,12.7348798 12.5211782,12.2145538 13.0816379,12.2145538 C13.6423276,12.2145538 14.1533621,12.7344117 14.1519828,13.3057638" id="Fill-1-Copy-3"></path>
                    <path d="M14.1519828,1.24323511 C14.1517529,1.81388506 13.6416379,2.33304075 13.0816379,2.33304075 C12.5211782,2.33304075 12.0112931,1.81388506 12.0112931,1.24323511 C12.0110632,0.672351097 12.5211782,0.152025078 13.0816379,0.152025078 C13.6423276,0.152025078 14.1533621,0.671882968 14.1519828,1.24323511" id="Fill-1-Copy-5"></path>
                    <path d="M0.964597701,8.76186416 C0.430804598,8.76186416 0,9.20448067 0,9.74821317 C0,9.80953814 0.00252873563,9.86852247 0.0126436782,9.9268046 L0.805977011,14.0161505 C0.890114943,14.4133584 1.28965517,14.7600084 1.74137931,14.7600084 L2.54712644,14.7600084 C2.99862069,14.7600084 3.3983908,14.4133584 3.48252874,14.0161505 L4.27172414,9.9268046 C4.28183908,9.86852247 4.28827586,9.80953814 4.28827586,9.74821317 C4.28827586,9.20471473 3.85747126,8.76186416 3.32367816,8.76186416 L0.964597701,8.76186416" id="Fill-2"></path>
                    <path d="M4.6875,15.8125977 C4.6875,15.8739227 4.69002874,15.932907 4.70014368,15.9911891 L5.49347701,20.080535 C5.57761494,20.4777429 5.97715517,20.8243929 6.42887931,20.8243929 L7.23462644,20.8243929 C7.68612069,20.8243929 8.0858908,20.4777429 8.17002874,20.080535 L8.95922414,15.9911891 C8.96933908,15.932907 8.97577586,15.8739227 8.97577586,15.8125977 C8.97577586,15.2690993 8.54497126,14.8262487 8.01117816,14.8262487 L5.6520977,14.8262487 C5.1183046,14.8262487 4.6875,15.2688652 4.6875,15.8125977 Z" id="Fill-2-Copy-2"></path>
                    <path d="M4.6875,3.75006897 C4.6875,3.81139394 4.69002874,3.87037827 4.70014368,3.9286604 L5.49347701,8.01800627 C5.57761494,8.41521421 5.97715517,8.76186416 6.42887931,8.76186416 L7.23462644,8.76186416 C7.68612069,8.76186416 8.0858908,8.41521421 8.17002874,8.01800627 L8.95922414,3.9286604 C8.96933908,3.87037827 8.97577586,3.81139394 8.97577586,3.75006897 C8.97577586,3.20657053 8.54497126,2.76371996 8.01117816,2.76371996 L5.6520977,2.76371996 C5.1183046,2.76371996 4.6875,3.20633647 4.6875,3.75006897 Z" id="Fill-2-Copy-5"></path>
                    <path d="M16.5895977,8.76186416 C16.0558046,8.76186416 15.625,9.20448067 15.625,9.74821317 C15.625,9.80953814 15.6275287,9.86852247 15.6376437,9.9268046 L16.430977,14.0161505 C16.5151149,14.4133584 16.9146552,14.7600084 17.3663793,14.7600084 L18.1721264,14.7600084 C18.6236207,14.7600084 19.0233908,14.4133584 19.1075287,14.0161505 L19.8967241,9.9268046 C19.9068391,9.86852247 19.9132759,9.80953814 19.9132759,9.74821317 C19.9132759,9.20471473 19.4824713,8.76186416 18.9486782,8.76186416 L16.5895977,8.76186416" id="Fill-2-Copy"></path>
                    <path d="M11.9020977,14.8262487 C11.3683046,14.8262487 10.9375,15.2688652 10.9375,15.8125977 C10.9375,15.8739227 10.9400287,15.932907 10.9501437,15.9911891 L11.743477,20.080535 C11.8276149,20.4777429 12.2271552,20.8243929 12.6788793,20.8243929 L13.4846264,20.8243929 C13.9361207,20.8243929 14.3358908,20.4777429 14.4200287,20.080535 L15.2092241,15.9911891 C15.2193391,15.932907 15.2257759,15.8739227 15.2257759,15.8125977 C15.2257759,15.2690993 14.7949713,14.8262487 14.2611782,14.8262487 L11.9020977,14.8262487" id="Fill-2-Copy-4"></path>
                    <path d="M11.9020977,2.76371996 C11.3683046,2.76371996 10.9375,3.20633647 10.9375,3.75006897 C10.9375,3.81139394 10.9400287,3.87037827 10.9501437,3.9286604 L11.743477,8.01800627 C11.8276149,8.41521421 12.2271552,8.76186416 12.6788793,8.76186416 L13.4846264,8.76186416 C13.9361207,8.76186416 14.3358908,8.41521421 14.4200287,8.01800627 L15.2092241,3.9286604 C15.2193391,3.87037827 15.2257759,3.81139394 15.2257759,3.75006897 C15.2257759,3.20657053 14.7949713,2.76371996 14.2611782,2.76371996 L11.9020977,2.76371996" id="Fill-2-Copy-6"></path>
                </g>
            </g>
        </g>
    </g>
</svg>