<?xml version="1.0" encoding="UTF-8" standalone="no"?>
<svg width="23px" height="24px" viewBox="0 0 23 24" version="1.1" xmlns="http://www.w3.org/2000/svg" xmlns:xlink="http://www.w3.org/1999/xlink">
    <!-- Generator: Sketch 3.7 (28169) - http://www.bohemiancoding.com/sketch -->
    <title>i-receipts--inverse</title>
    <desc>Created with Sketch.</desc>
    <defs></defs>
    <g id="Icons" stroke="none" stroke-width="1" fill="none" fill-rule="evenodd">
        <g id="i-receipts--inverse" fill="#FFFFFF">
            <path d="M16.1672982,8.23870151 C19.6910601,9.41627008 22.1455502,12.0537596 22.1455502,15.118651 C22.1455502,17.2615082 20.9435017,19.1939757 19.0168581,20.5662948 L19.0168581,23.9494488 L15.3912249,23.9494488 L15.3912249,22.2273709 C14.3410934,22.5027698 13.2125675,22.6539386 12.0362076,22.6539386 C10.960609,22.6539386 9.92487197,22.5279275 8.95247059,22.2959423 L8.95247059,23.9496714 L5.32705882,23.9496714 L5.32705882,20.7535304 C4.53337024,20.2278904 3.85195848,19.6105249 3.31161246,18.9234748 L0.539238754,18.9234748 C0.313134948,18.9234748 0,18.8446622 0,18.4392447 L0,14.0622503 C0.000221453287,13.8055527 0.165868512,13.6980202 0.460844291,13.6980202 L2.10889965,13.6980202 C2.33168166,12.827074 2.75510035,12.0097827 3.34239446,11.2733078 L1.86795848,7.19152672 C4.22156401,6.4804321 5.76797232,7.90328924 6.2483045,8.94165659 C6.87124848,8.61668133 7.54543333,8.34248114 8.26009894,8.12738281 L8.81829834,10.0932616 C10.5410835,9.03198273 14.7670898,9.40686032 15.1870117,10.246704 L16.1672982,8.23870151 Z M4.23529412,14.1428571 C4.62514218,14.1428571 4.94117647,13.8230605 4.94117647,13.4285714 C4.94117647,13.0340823 4.62514218,12.7142857 4.23529412,12.7142857 C3.84544606,12.7142857 3.52941176,13.0340823 3.52941176,13.4285714 C3.52941176,13.8230605 3.84544606,14.1428571 4.23529412,14.1428571 Z" id="Imported-Layers"></path>
            <path d="M12.25,8.5 C14.5972102,8.5 16.5,6.59721019 16.5,4.25 C16.5,1.90278981 14.5972102,0 12.25,0 C9.90278981,0 8,1.90278981 8,4.25 C8,6.59721019 9.90278981,8.5 12.25,8.5 Z M12.4459169,1.26139937 L12.4459169,1.60585546 C12.6683915,1.62929478 12.8591018,1.67604603 13.0181724,1.74610921 C13.177243,1.81629979 13.3160093,1.92266844 13.4344714,2.06508778 C13.5280204,2.17349464 13.6002686,2.28508618 13.651216,2.39986241 C13.7021635,2.51463865 13.7275749,2.61986081 13.7275749,2.7155289 C13.7275749,2.82189756 13.6895823,2.91387141 13.6137217,2.99145046 C13.5378611,3.06902951 13.4459315,3.10775535 13.3378083,3.10775535 C13.1340186,3.10775535 13.0021034,2.9951447 12.9418135,2.76979602 C12.8731777,2.50406548 12.7078789,2.32763364 12.4459169,2.24050052 L12.4459169,3.56698767 C12.7037682,3.63934383 12.9090527,3.70520322 13.0617704,3.76469324 C13.2146127,3.82418325 13.3512615,3.91029727 13.4718412,4.0230353 C13.6007669,4.13997713 13.7000458,4.27972133 13.7696781,4.44239531 C13.8393104,4.60494189 13.8741889,4.78302977 13.8741889,4.97653154 C13.8741889,5.21882277 13.818508,5.44582749 13.7072707,5.65729091 C13.5960333,5.86888173 13.4323538,6.04161932 13.2162321,6.1755037 C12.9999858,6.30938807 12.7432556,6.38913272 12.4459169,6.41461024 L12.4459169,6.82658176 C12.4459169,6.95193116 12.4339586,7.04339547 12.4101665,7.10071989 C12.3862498,7.1581717 12.3336831,7.18683391 12.2525907,7.18683391 C12.1778512,7.18683391 12.1252844,7.16352198 12.0951395,7.11677073 C12.0649945,7.07001948 12.0499221,6.99766331 12.0499221,6.89995702 L12.0499221,6.42110701 C11.8067695,6.39346389 11.5941356,6.33499298 11.4122695,6.24569427 C11.2304033,6.15639556 11.0786821,6.04531356 10.9569813,5.91244829 C10.835405,5.77958302 10.7454685,5.64136746 10.6872962,5.49792902 C10.629124,5.35436318 10.5999756,5.21347249 10.5999756,5.07538432 C10.5999756,4.97334685 10.6389647,4.881373 10.7169429,4.79946277 C10.7949211,4.71767992 10.8920825,4.6767885 11.008427,4.6767885 C11.101976,4.6767885 11.1809507,4.69908133 11.2454758,4.743667 C11.3098764,4.78838005 11.3545955,4.85105475 11.3795087,4.93181849 C11.4356879,5.10621213 11.4845177,5.23958695 11.5261227,5.33207035 C11.5677277,5.42455376 11.6305088,5.50901174 11.7147154,5.58557169 C11.7989219,5.66213164 11.9106574,5.72060255 12.0499221,5.76098443 L12.0499221,4.27819268 C11.7713928,4.19946714 11.5385792,4.11182446 11.3514813,4.01500988 C11.1643834,3.91832269 11.0126622,3.78061669 10.8961932,3.60214665 C10.7798487,3.42354922 10.7215519,3.19386937 10.7215519,2.91323447 C10.7215519,2.54763204 10.835405,2.247889 11.0629868,2.01400535 C11.2906932,1.78012171 11.6196716,1.64407174 12.0499221,1.60585546 L12.0499221,1.26776875 C12.0499221,1.08929871 12.1154437,1 12.2463624,1 C12.3793987,1 12.4459169,1.08713312 12.4459169,1.26139937 Z M12.0499221,3.44902675 L12.0499221,2.22763437 C11.8752807,2.28088239 11.7391303,2.35094557 11.6414706,2.4380787 C11.543811,2.52533921 11.4948566,2.65718538 11.4948566,2.83361722 C11.4948566,3.00151408 11.5406969,3.12851953 11.6321282,3.21463355 C11.7235595,3.30074757 11.8628241,3.37883617 12.0499221,3.44902675 Z M12.4459169,4.3961536 L12.4459169,5.79283133 C12.6559349,5.75028387 12.8181196,5.66429723 12.9324711,5.53461665 C13.046698,5.40493606 13.1038737,5.25398175 13.1038737,5.0817537 C13.1038737,4.8967869 13.0483173,4.753858 12.93708,4.65283963 C12.8258427,4.55182126 12.6621632,4.46621679 12.4459169,4.3961536 Z" id="Combined-Shape"></path>
        </g>
    </g>
</svg>