<?xml version="1.0" encoding="UTF-8" standalone="no"?>
<svg width="9px" height="9px" viewBox="0 0 9 9" version="1.1" xmlns="http://www.w3.org/2000/svg" xmlns:xlink="http://www.w3.org/1999/xlink">
    <!-- Generator: Sketch 3.6.1 (26313) - http://www.bohemiancoding.com/sketch -->
    <title>i-right-2--inverse</title>
    <desc>Created with Sketch.</desc>
    <defs></defs>
    <g id="Page-1" stroke="none" stroke-width="1" fill="none" fill-rule="evenodd">
        <g id="Simple-Copy" transform="translate(-100.000000, -470.000000)">
            <g id="i-right-2--inverse" transform="translate(100.000000, 471.000000)">
                <path d="M3.55158696,3.22535583 L8.0631753,0.58559689 C8.16217761,0.527428229 8.26939587,0.496513416 8.38380309,0.496513416 C8.72414919,0.496513416 9,0.76966206 9,1.1066742 L9,6.39473432 C9,6.73154307 8.72414919,7.0048951 8.38380309,7.0048951 C8.26939587,7.0048951 8.16217761,6.9737769 8.07036427,6.91987937 C8.06625629,6.91764211 3.55158696,4.27605269 3.55158696,4.27605269 C3.37042507,4.16968133 3.24882888,3.97422649 3.24882888,3.75070426 C3.24882888,3.52697864 3.37042507,3.3315238 3.55158696,3.22535583 L3.55158696,3.22535583 Z" id="Fill-3-Copy" fill="#FFFFFF" transform="translate(6.124414, 3.750704) rotate(-180.000000) translate(-6.124414, -3.750704) "></path>
                <path d="M1.125,0.641258741 L1.125,7.0048951" id="Line" stroke="#FFFFFF" stroke-width="1.5" stroke-linecap="round" stroke-linejoin="round" transform="translate(0.964286, 3.823077) rotate(-180.000000) translate(-0.964286, -3.823077) "></path>
            </g>
        </g>
    </g>
</svg>