<?xml version="1.0" encoding="UTF-8" standalone="no"?>
<svg width="21px" height="22px" viewBox="0 0 21 22" version="1.1" xmlns="http://www.w3.org/2000/svg" xmlns:xlink="http://www.w3.org/1999/xlink" xmlns:sketch="http://www.bohemiancoding.com/sketch/ns">
    <!-- Generator: Sketch 3.4.2 (15857) - http://www.bohemiancoding.com/sketch -->
    <title>i-search--secondary</title>
    <desc>Created with Sketch.</desc>
    <defs></defs>
    <g id="Page-1" stroke="none" stroke-width="1" fill="none" fill-rule="evenodd" sketch:type="MSPage">
        <g id="Simple-Copy" sketch:type="MSArtboardGroup" transform="translate(-505.000000, -304.000000)" fill="#631010">
            <path d="M525.408967,321.707561 C525.776198,322.074792 526.003644,322.582484 526.003644,323.143315 C526.003644,324.264976 525.094536,325.174084 523.972875,325.174084 C523.412044,325.174084 522.904352,324.946976 522.536783,324.579407 L517.999488,320.041774 C516.790504,320.755928 515.385211,321.172913 513.879396,321.172913 C509.393088,321.172913 505.756319,317.536144 505.756319,313.049836 C505.756319,308.563867 509.393088,304.926759 513.879396,304.926759 C518.365704,304.926759 522.002473,308.563867 522.002473,313.049836 C522.002473,314.555651 521.585488,315.960944 520.871335,317.169928 L526.823181,323.121774 L525.408967,321.707561 Z M513.879396,306.957528 C510.51475,306.957528 507.787088,309.68519 507.787088,313.049836 C507.787088,316.414482 510.51475,319.142144 513.879396,319.142144 C517.244042,319.142144 519.971704,316.414482 519.971704,313.049836 C519.971704,309.68519 517.244042,306.957528 513.879396,306.957528 L513.879396,306.957528 Z" id="i-search--secondary" sketch:type="MSShapeGroup"></path>
        </g>
    </g>
</svg>