<?xml version="1.0" encoding="UTF-8" standalone="no"?>
<svg width="22px" height="22px" viewBox="0 0 22 22" version="1.1" xmlns="http://www.w3.org/2000/svg" xmlns:xlink="http://www.w3.org/1999/xlink">
    <!-- Generator: Sketch 3.6.1 (26313) - http://www.bohemiancoding.com/sketch -->
    <title>i-search--inverse</title>
    <desc>Created with Sketch.</desc>
    <defs></defs>
    <g id="Page-1" stroke="none" stroke-width="1" fill="none" fill-rule="evenodd">
        <g id="Simple-Copy" transform="translate(-94.000000, -305.000000)" fill="#FFFFFF">
            <path d="M115.066862,323.195015 C115.434092,323.562246 115.661538,324.069938 115.661538,324.630769 C115.661538,325.752431 114.752431,326.661538 113.630769,326.661538 C113.069938,326.661538 112.562246,326.434431 112.194677,326.066862 L106.243169,320.115015 C105.034185,320.829169 103.628892,321.246154 102.123077,321.246154 C97.6367692,321.246154 94,317.609385 94,313.123077 C94,308.637108 97.6367692,305 102.123077,305 C106.609385,305 110.246154,308.637108 110.246154,313.123077 C110.246154,314.628892 109.829169,316.034185 109.115015,317.243169 L115.066862,323.195015 L115.066862,323.195015 Z M102.123077,307.030769 C98.7584308,307.030769 96.0307692,309.758431 96.0307692,313.123077 C96.0307692,316.487723 98.7584308,319.215385 102.123077,319.215385 C105.487723,319.215385 108.215385,316.487723 108.215385,313.123077 C108.215385,309.758431 105.487723,307.030769 102.123077,307.030769 L102.123077,307.030769 Z" id="i-search--inverse"></path>
        </g>
    </g>
</svg>