<?xml version="1.0" encoding="UTF-8" standalone="no"?>
<svg width="22px" height="22px" viewBox="0 0 22 22" version="1.1" xmlns="http://www.w3.org/2000/svg" xmlns:xlink="http://www.w3.org/1999/xlink" xmlns:sketch="http://www.bohemiancoding.com/sketch/ns">
    <!-- Generator: Sketch 3.3.3 (12081) - http://www.bohemiancoding.com/sketch -->
    <title>i-search--cream</title>
    <desc>Created with Sketch.</desc>
    <defs></defs>
    <g id="Page-1" stroke="none" stroke-width="1" fill="none" fill-rule="evenodd" sketch:type="MSPage">
        <g id="Simple-Copy" sketch:type="MSArtboardGroup" transform="translate(-94.000000, -305.000000)" fill="#FCF6EF">
            <g id="Group-Copy-6" sketch:type="MSLayerGroup" transform="translate(94.000000, 106.000000)">
                <path d="M21.0668615,217.195015 C21.4340923,217.562246 21.6615385,218.069938 21.6615385,218.630769 C21.6615385,219.752431 20.7524308,220.661538 19.6307692,220.661538 C19.0699385,220.661538 18.5622462,220.434431 18.1946769,220.066862 L12.2431692,214.115015 C11.0341846,214.829169 9.62889231,215.246154 8.12307692,215.246154 C3.63676923,215.246154 0,211.609385 0,207.123077 C0,202.637108 3.63676923,199 8.12307692,199 C12.6093846,199 16.2461538,202.637108 16.2461538,207.123077 C16.2461538,208.628892 15.8291692,210.034185 15.1150154,211.243169 L21.0668615,217.195015 L21.0668615,217.195015 Z M8.12307692,201.030769 C4.75843077,201.030769 2.03076923,203.758431 2.03076923,207.123077 C2.03076923,210.487723 4.75843077,213.215385 8.12307692,213.215385 C11.4877231,213.215385 14.2153846,210.487723 14.2153846,207.123077 C14.2153846,203.758431 11.4877231,201.030769 8.12307692,201.030769 L8.12307692,201.030769 Z" id="i-search--cream" sketch:type="MSShapeGroup"></path>
            </g>
        </g>
    </g>
</svg>