<?xml version="1.0" encoding="UTF-8" standalone="no"?>
<svg width="16px" height="15px" viewBox="0 0 16 15" version="1.1" xmlns="http://www.w3.org/2000/svg" xmlns:xlink="http://www.w3.org/1999/xlink" xmlns:sketch="http://www.bohemiancoding.com/sketch/ns">
    <!-- Generator: Sketch 3.3.3 (12081) - http://www.bohemiancoding.com/sketch -->
    <title>i-star--primary</title>
    <desc>Created with Sketch.</desc>
    <defs></defs>
    <g id="Page-1" stroke="none" stroke-width="1" fill="none" fill-rule="evenodd" sketch:type="MSPage">
        <g id="Simple-Copy" sketch:type="MSArtboardGroup" transform="translate(-264.000000, -1027.000000)" fill="#022C53">
            <path d="M275.926118,1028.53794 L275.876096,1032.89322 L279.437686,1035.40768 C279.471035,1035.43102 279.514387,1035.47104 279.567745,1035.5244 C279.651115,1035.60777 279.701137,1035.70114 279.717812,1035.80119 C279.734486,1035.90457 279.701137,1035.99461 279.621102,1036.07464 C279.544401,1036.15134 279.437686,1036.20804 279.304294,1036.24472 L275.142435,1037.5453 L273.851858,1041.70716 C273.81184,1041.84389 273.755148,1041.9506 273.681782,1042.02397 C273.598412,1042.10734 273.505037,1042.14402 273.404992,1042.12735 C273.301612,1042.11067 273.211572,1042.06065 273.124867,1041.97395 C273.101523,1041.9506 273.061505,1041.90725 273.014818,1041.84055 L270.497026,1038.2823 L266.131743,1038.34899 C265.92165,1038.33899 265.774917,1038.2923 265.688212,1038.20893 C265.538145,1038.05886 265.558154,1037.8521 265.748239,1037.58865 L268.352735,1034.09376 L266.95211,1029.96191 C266.86207,1029.71847 266.878744,1029.53506 266.998797,1029.415 C267.122186,1029.29161 267.305601,1029.27494 267.545708,1029.36498 L271.680889,1030.75894 L275.172448,1028.1511 C275.435899,1027.95769 275.642658,1027.93768 275.792725,1028.08774 C275.87943,1028.17778 275.926118,1028.32785 275.926118,1028.53794 Z" id="i-star--primary" sketch:type="MSShapeGroup" transform="translate(272.655449, 1035.060000) rotate(-30.000000) translate(-272.655449, -1035.060000) "></path>
        </g>
    </g>
</svg>