<?xml version="1.0" encoding="UTF-8" standalone="no"?>
<svg width="12px" height="12px" viewBox="0 0 12 12" version="1.1" xmlns="http://www.w3.org/2000/svg" xmlns:xlink="http://www.w3.org/1999/xlink" xmlns:sketch="http://www.bohemiancoding.com/sketch/ns">
    <!-- Generator: Sketch 3.4.4 (17249) - http://www.bohemiancoding.com/sketch -->
    <title>i_subscribe_crimson</title>
    <desc>Created with Sketch.</desc>
    <defs></defs>
    <g id="Icons" stroke="none" stroke-width="1" fill="none" fill-rule="evenodd" sketch:type="MSPage">
        <g id="Simple-Copy" sketch:type="MSArtboardGroup" transform="translate(-517.000000, -1269.000000)" fill="#631010">
            <g id="i_subscribe_crimson" sketch:type="MSLayerGroup" transform="translate(517.000000, 1269.000000)">
                <path d="M3.57525333,9.81511111 C3.57525333,10.5780915 2.944,11.1969673 2.16576,11.1969673 C1.38752,11.1969673 0.756266667,10.5783007 0.756266667,9.81511111 C0.756266667,9.05171242 1.38730667,8.4332549 2.16554667,8.4332549 C2.94378667,8.4332549 3.57525333,9.05171242 3.57525333,9.81511111 L3.57525333,9.81511111 Z" id="Path" sketch:type="MSShapeGroup"></path>
                <path d="M0.761173333,2.79456209 C5.46752,2.79456209 9.29664,6.56909804 9.29664,11.2088889 L11.3316267,11.2088889 C11.3316267,5.46875817 6.58944,0.799477124 0.761173333,0.799477124 L0.761173333,2.79456209 L0.761173333,2.79456209 Z" id="Path" sketch:type="MSShapeGroup"></path>
                <path d="M0.757973333,6.33150327 C2.07850667,6.33150327 3.31989333,6.83722876 4.2528,7.7570719 C5.18741333,8.67691503 5.70197333,9.90211765 5.70197333,11.2063791 L7.73696,11.2063791 C7.73696,7.41803922 4.60608,4.33620915 0.757973333,4.33620915 L0.757973333,6.33150327 L0.757973333,6.33150327 Z" id="Path" sketch:type="MSShapeGroup"></path>
            </g>
        </g>
    </g>
</svg>