<?xml version="1.0" encoding="UTF-8" standalone="no"?>
<svg width="20px" height="20px" viewBox="0 0 20 20" version="1.1" xmlns="http://www.w3.org/2000/svg" xmlns:xlink="http://www.w3.org/1999/xlink" xmlns:sketch="http://www.bohemiancoding.com/sketch/ns">
    <!-- Generator: Sketch 3.3.3 (12081) - http://www.bohemiancoding.com/sketch -->
    <title>i-success--primary</title>
    <desc>Created with Sketch.</desc>
    <defs></defs>
    <g id="Style-Guide" stroke="none" stroke-width="1" fill="none" fill-rule="evenodd" sketch:type="MSPage">
        <path d="M9.97901119,19.8789588 C15.4194281,19.8789588 19.8297575,15.4752022 19.8297575,10.0428932 C19.8297575,4.61058418 15.4194281,0.206827625 9.97901119,0.206827625 C4.53859426,0.206827625 0.128264925,4.61058418 0.128264925,10.0428932 C0.128264925,15.4752022 4.53859426,19.8789588 9.97901119,19.8789588 Z M16.345097,6.9681391 L8.79252985,14.5091227 C8.6145597,14.6868276 8.36829104,14.7969916 8.09608209,14.7969916 C7.82420149,14.7969916 7.57793284,14.6868276 7.39963433,14.5091227 L3.13097761,10.2468276 C2.9526791,10.0687948 2.84235075,9.8228932 2.84235075,9.55108992 C2.84235075,9.00781123 3.28333582,8.56748336 3.82742537,8.56748336 C4.09963433,8.56748336 4.34557463,8.6776473 4.52387313,8.85568008 L8.09608209,12.4225653 L14.9518731,5.57699156 C15.1301716,5.39895877 15.3764403,5.28879484 15.6483209,5.28879484 C16.1924104,5.28879484 16.6333955,5.72912271 16.6333955,6.2724014 C16.6333955,6.5438768 16.5230672,6.79010631 16.345097,6.9681391 Z" id="i-success--primary" fill="#FFFFFF" sketch:type="MSShapeGroup"></path>
    </g>
</svg>