<?xml version="1.0" encoding="UTF-8" standalone="no"?>
<svg width="20px" height="20px" viewBox="0 0 20 20" version="1.1" xmlns="http://www.w3.org/2000/svg" xmlns:xlink="http://www.w3.org/1999/xlink" xmlns:sketch="http://www.bohemiancoding.com/sketch/ns">
    <!-- Generator: Sketch 3.3.3 (12081) - http://www.bohemiancoding.com/sketch -->
    <title>i-success</title>
    <desc>Created with Sketch.</desc>
    <defs></defs>
    <g id="Page-1" stroke="none" stroke-width="1" fill="none" fill-rule="evenodd" sketch:type="MSPage">
        <path d="M10,20 C15.5228475,20 20,15.5228475 20,10 C20,4.4771525 15.5228475,0 10,0 C4.4771525,0 0,4.4771525 0,10 C0,15.5228475 4.4771525,20 10,20 Z M15.8429812,7.11508156 L9.16396089,13.7941019 C9.00627793,13.9514945 8.78848379,14.0490662 8.54803906,14.0490662 C8.30759433,14.0490662 8.08980018,13.9514945 7.93211723,13.7941019 L4.15701878,10.0190034 C3.99933582,9.86132048 3.90176404,9.64352634 3.90176404,9.40279122 C3.90176404,8.92161136 4.29176075,8.53161465 4.77294061,8.53161465 C5.01367573,8.53161465 5.23117948,8.62918643 5.38886244,8.78686939 L8.54803906,11.946046 L14.6111376,5.8829475 C14.7688205,5.72526454 14.9866147,5.62769277 15.2270594,5.62769277 C15.7082392,5.62769277 16.098236,6.01768948 16.098236,6.49886933 C16.098236,6.73931407 16.0006642,6.9573986 15.8429812,7.11508156 Z" id="i-success" fill="#FFFFF9" sketch:type="MSShapeGroup"></path>
    </g>
</svg>