<?xml version="1.0" encoding="UTF-8" standalone="no"?>
<svg width="19px" height="18px" viewBox="0 0 19 18" version="1.1" xmlns="http://www.w3.org/2000/svg" xmlns:xlink="http://www.w3.org/1999/xlink" xmlns:sketch="http://www.bohemiancoding.com/sketch/ns">
    <!-- Generator: Sketch 3.3.3 (12081) - http://www.bohemiancoding.com/sketch -->
    <title>i-success</title>
    <desc>Created with Sketch.</desc>
    <defs></defs>
    <g id="Page-1" stroke="none" stroke-width="1" fill="none" fill-rule="evenodd" sketch:type="MSPage">
        <g id="Simple-Copy" sketch:type="MSArtboardGroup" transform="translate(-264.000000, -1148.000000)">
            <g id="i-success" sketch:type="MSLayerGroup" transform="translate(264.904762, 1148.064516)">
                <ellipse id="Oval-128-Copy" fill="#022C53" sketch:type="MSShapeGroup" cx="8.91257996" cy="9.03225806" rx="8.91257996" ry="8.88418826"></ellipse>
                <path d="M14.6723719,6.25506081 L14.6723719,6.25506081 L7.83909684,13.0662718 C7.67807623,13.2267795 7.45526173,13.3262824 7.20897743,13.3262824 C6.96299023,13.3262824 6.74017573,13.2267795 6.57885803,13.0662718 L2.71674005,9.2164569 C2.55542235,9.05565309 2.45560146,8.83354839 2.45560146,8.58804865 C2.45560146,8.09734532 2.85458795,7.69962983 3.34685945,7.69962983 C3.59314375,7.69962983 3.81566116,7.79913273 3.97697886,7.95993654 L7.20897743,11.1816393 L13.411836,4.99854045 C13.5731537,4.83773665 13.7959682,4.73823374 14.0419554,4.73823374 C14.5342269,4.73823374 14.9332134,5.13594923 14.9332134,5.62665256 C14.9332134,5.87185616 14.8333925,6.09425701 14.6723719,6.25506081" id="Fill-3" fill="#35BDBB" sketch:type="MSShapeGroup"></path>
            </g>
        </g>
    </g>
</svg>