<?xml version="1.0" encoding="UTF-8" standalone="no"?>
<svg width="13px" height="10px" viewBox="0 0 13 10" version="1.1" xmlns="http://www.w3.org/2000/svg" xmlns:xlink="http://www.w3.org/1999/xlink" xmlns:sketch="http://www.bohemiancoding.com/sketch/ns">
    <!-- Generator: Sketch 3.3.3 (12081) - http://www.bohemiancoding.com/sketch -->
    <title>i-table--primary</title>
    <desc>Created with Sketch.</desc>
    <defs></defs>
    <g id="Page-1" stroke="none" stroke-width="1" fill="none" fill-rule="evenodd" sketch:type="MSPage">
        <g id="Simple-Copy" sketch:type="MSArtboardGroup" transform="translate(-258.000000, -1004.000000)" fill="#022C53">
            <g id="i-table--primary" sketch:type="MSLayerGroup" transform="translate(258.000000, 1004.000000)">
                <path d="M13,0 L13,1.66666667 L3.46666667,1.66666667 L3.46666667,0 L13,0 L13,0 Z M3.46666667,5.83333333 L13,5.83333333 L13,4.16666667 L3.46666667,4.16666667 L3.46666667,5.83333333 L3.46666667,5.83333333 Z M3.46666667,10 L13,10 L13,8.33333333 L3.46666667,8.33333333 L3.46666667,10 L3.46666667,10 Z M0.866666667,0 C0.388266667,0 0,0.3725 0,0.833333333 C0,1.29416667 0.388266667,1.66666667 0.866666667,1.66666667 C1.34506667,1.66666667 1.73333333,1.29416667 1.73333333,0.833333333 C1.73333333,0.3725 1.34506667,0 0.866666667,0 L0.866666667,0 Z M0.866666667,4.16666667 C0.388266667,4.16666667 0,4.53916667 0,5 C0,5.46083333 0.388266667,5.83333333 0.866666667,5.83333333 C1.34506667,5.83333333 1.73333333,5.46083333 1.73333333,5 C1.73333333,4.53916667 1.34506667,4.16666667 0.866666667,4.16666667 L0.866666667,4.16666667 Z M0.866666667,8.33333333 C0.388266667,8.33333333 0,8.70583333 0,9.16666667 C0,9.6275 0.388266667,10 0.866666667,10 C1.34506667,10 1.73333333,9.6275 1.73333333,9.16666667 C1.73333333,8.70583333 1.34506667,8.33333333 0.866666667,8.33333333 L0.866666667,8.33333333 Z" id="Shape" sketch:type="MSShapeGroup"></path>
            </g>
        </g>
    </g>
</svg>