<?xml version="1.0" encoding="UTF-8" standalone="no"?>
<svg width="10px" height="11px" viewBox="0 0 10 11" version="1.1" xmlns="http://www.w3.org/2000/svg" xmlns:xlink="http://www.w3.org/1999/xlink" xmlns:sketch="http://www.bohemiancoding.com/sketch/ns">
    <!-- Generator: Sketch 3.3.3 (12081) - http://www.bohemiancoding.com/sketch -->
    <title>i-term--cream</title>
    <desc>Created with Sketch.</desc>
    <defs></defs>
    <g id="Page-1" stroke="none" stroke-width="1" fill="none" fill-rule="evenodd" sketch:type="MSPage">
        <g id="Simple-Copy" sketch:type="MSArtboardGroup" transform="translate(-95.000000, -106.000000)" fill="#FCF6EF">
            <g id="Group-Copy-6" sketch:type="MSLayerGroup" transform="translate(94.000000, 106.000000)">
                <path d="M10.5583077,8.76276923 L6.10569231,10.7894769 C6.04969231,10.8160462 5.988,10.8307692 5.92307692,10.8307692 C5.85815385,10.8307692 5.79646154,10.8160462 5.74046154,10.7894769 L1.28784615,8.76276923 C1.11907692,8.68712308 1,8.5052 1,8.29230769 L1,0.507692308 C1,0.227276923 1.20661538,0 1.46153846,0 C1.524,0 1.58369231,0.0138769231 1.638,0.0385846154 L1.63876923,0.0389230769 C1.64015385,0.0396 1.64153846,0.0401076923 1.64292308,0.0407846154 L5.92307692,1.98896923 L10.2032308,0.0407846154 C10.2046154,0.0401076923 10.206,0.0396 10.2073846,0.0389230769 L10.2081538,0.0385846154 C10.2626154,0.0138769231 10.3221538,0 10.3846154,0 C10.6395385,0 10.8461538,0.227276923 10.8461538,0.507692308 L10.8461538,8.29230769 C10.8461538,8.5052 10.7270769,8.68712308 10.5583077,8.76276923 L10.5583077,8.76276923 Z M5.46153846,9.56356923 L5.46153846,2.87776923 L1.92307692,1.2672 L1.92307692,7.953 L5.46153846,9.56356923 L5.46153846,9.56356923 Z M9.92307692,1.2672 L6.38461538,2.87776923 L6.38461538,9.56356923 L9.92307692,7.953 L9.92307692,1.2672 L9.92307692,1.2672 Z" id="i-term--cream" sketch:type="MSShapeGroup"></path>
            </g>
        </g>
    </g>
</svg>