<?xml version="1.0" encoding="UTF-8" standalone="no"?>
<svg width="12px" height="12px" viewBox="0 0 12 12" version="1.1" xmlns="http://www.w3.org/2000/svg" xmlns:xlink="http://www.w3.org/1999/xlink" xmlns:sketch="http://www.bohemiancoding.com/sketch/ns">
    <!-- Generator: Sketch 3.4.4 (17249) - http://www.bohemiancoding.com/sketch -->
    <title>i-x--secondary</title>
    <desc>Created with Sketch.</desc>
    <defs></defs>
    <g id="Page-1" stroke="none" stroke-width="1" fill="none" fill-rule="evenodd" sketch:type="MSPage">
        <g id="Simple-Copy" sketch:type="MSArtboardGroup" transform="translate(-509.000000, -230.000000)" fill="#631010">
            <path d="M519.875881,231.679344 L515.975313,235.57377 L519.875881,239.468525 C520.053851,239.646557 520.164179,239.892459 520.164179,240.163934 C520.164179,240.707213 519.723194,241.147541 519.179104,241.147541 C518.907224,241.147541 518.660955,241.037377 518.482657,240.859672 L514.58209,236.964918 L510.681522,240.859672 C510.503224,241.037377 510.256955,241.147541 509.985075,241.147541 C509.440985,241.147541 509,240.707213 509,240.163934 C509,239.892459 509.110328,239.646557 509.288627,239.468525 L513.188866,235.57377 L509.288627,231.679344 C509.110328,231.501311 509,231.255082 509,230.983607 C509,230.440328 509.440985,230 509.985075,230 C510.256955,230 510.503224,230.110164 510.681522,230.288197 L514.58209,234.182951 L518.482657,230.288197 C518.660955,230.110164 518.907224,230 519.179104,230 C519.723194,230 520.164179,230.440328 520.164179,230.983607 C520.164179,231.255082 520.053851,231.501311 519.875881,231.679344" id="i-x--secondary" sketch:type="MSShapeGroup"></path>
        </g>
    </g>
</svg>