<?xml version="1.0" encoding="UTF-8" standalone="no"?>
<svg width="12px" height="12px" viewBox="0 0 12 12" version="1.1" xmlns="http://www.w3.org/2000/svg" xmlns:xlink="http://www.w3.org/1999/xlink" xmlns:sketch="http://www.bohemiancoding.com/sketch/ns">
    <!-- Generator: Sketch 3.3.3 (12081) - http://www.bohemiancoding.com/sketch -->
    <title>i-x--secondary-contrast</title>
    <desc>Created with Sketch.</desc>
    <defs></defs>
    <g id="Page-1" stroke="none" stroke-width="1" fill="none" fill-rule="evenodd" sketch:type="MSPage">
        <g id="Simple-Copy" sketch:type="MSArtboardGroup" transform="translate(-429.000000, -230.000000)" fill="#F77B42">
            <g id="Group-Copy-3" sketch:type="MSLayerGroup" transform="translate(424.000000, 106.000000)">
                <path d="M15.8758806,125.679344 L11.9753134,129.57377 L15.8758806,133.468525 C16.0538507,133.646557 16.1641791,133.892459 16.1641791,134.163934 C16.1641791,134.707213 15.723194,135.147541 15.1791045,135.147541 C14.9072239,135.147541 14.6609552,135.037377 14.4826567,134.859672 L10.5820896,130.964918 L6.68152239,134.859672 C6.50322388,135.037377 6.25695522,135.147541 5.98507463,135.147541 C5.44098507,135.147541 5,134.707213 5,134.163934 C5,133.892459 5.11032836,133.646557 5.28862687,133.468525 L9.18886567,129.57377 L5.28862687,125.679344 C5.11032836,125.501311 5,125.255082 5,124.983607 C5,124.440328 5.44098507,124 5.98507463,124 C6.25695522,124 6.50322388,124.110164 6.68152239,124.288197 L10.5820896,128.182951 L14.4826567,124.288197 C14.6609552,124.110164 14.9072239,124 15.1791045,124 C15.723194,124 16.1641791,124.440328 16.1641791,124.983607 C16.1641791,125.255082 16.0538507,125.501311 15.8758806,125.679344" id="i-x--secondary-contrast" sketch:type="MSShapeGroup"></path>
            </g>
        </g>
    </g>
</svg>