<?xml version="1.0" encoding="UTF-8" standalone="no"?>
<svg width="12px" height="12px" viewBox="0 0 12 12" version="1.1" xmlns="http://www.w3.org/2000/svg" xmlns:xlink="http://www.w3.org/1999/xlink" xmlns:sketch="http://www.bohemiancoding.com/sketch/ns">
    <!-- Generator: Sketch 3.3.3 (12081) - http://www.bohemiancoding.com/sketch -->
    <title>i-x--primary-contrast</title>
    <desc>Created with Sketch.</desc>
    <defs></defs>
    <g id="Page-1" stroke="none" stroke-width="1" fill="none" fill-rule="evenodd" sketch:type="MSPage">
        <g id="Simple-Copy" sketch:type="MSArtboardGroup" transform="translate(-341.000000, -230.000000)" fill="#36BDBB">
            <path d="M351.875881,231.679344 L347.975313,235.57377 L351.875881,239.468525 C352.053851,239.646557 352.164179,239.892459 352.164179,240.163934 C352.164179,240.707213 351.723194,241.147541 351.179104,241.147541 C350.907224,241.147541 350.660955,241.037377 350.482657,240.859672 L346.58209,236.964918 L342.681522,240.859672 C342.503224,241.037377 342.256955,241.147541 341.985075,241.147541 C341.440985,241.147541 341,240.707213 341,240.163934 C341,239.892459 341.110328,239.646557 341.288627,239.468525 L345.188866,235.57377 L341.288627,231.679344 C341.110328,231.501311 341,231.255082 341,230.983607 C341,230.440328 341.440985,230 341.985075,230 C342.256955,230 342.503224,230.110164 342.681522,230.288197 L346.58209,234.182951 L350.482657,230.288197 C350.660955,230.110164 350.907224,230 351.179104,230 C351.723194,230 352.164179,230.440328 352.164179,230.983607 C352.164179,231.255082 352.053851,231.501311 351.875881,231.679344" id="i-x--primary-contrast" sketch:type="MSShapeGroup"></path>
        </g>
    </g>
</svg>