<?xml version="1.0" encoding="UTF-8" standalone="no"?>
<svg width="12px" height="12px" viewBox="0 0 12 12" version="1.1" xmlns="http://www.w3.org/2000/svg" xmlns:xlink="http://www.w3.org/1999/xlink">
    <!-- Generator: Sketch 3.6.1 (26313) - http://www.bohemiancoding.com/sketch -->
    <title>i-x--inverse</title>
    <desc>Created with Sketch.</desc>
    <defs></defs>
    <g id="Icons" stroke="none" stroke-width="1" fill="none" fill-rule="evenodd">
        <g id="Simple-Copy" transform="translate(-99.000000, -230.000000)" fill="#FFFFFF">
            <path d="M109.875881,231.679344 L105.975313,235.57377 L109.875881,239.468525 C110.053851,239.646557 110.164179,239.892459 110.164179,240.163934 C110.164179,240.707213 109.723194,241.147541 109.179104,241.147541 C108.907224,241.147541 108.660955,241.037377 108.482657,240.859672 L104.58209,236.964918 L100.681522,240.859672 C100.503224,241.037377 100.256955,241.147541 99.9850746,241.147541 C99.4409851,241.147541 99,240.707213 99,240.163934 C99,239.892459 99.1103284,239.646557 99.2886269,239.468525 L103.188866,235.57377 L99.2886269,231.679344 C99.1103284,231.501311 99,231.255082 99,230.983607 C99,230.440328 99.4409851,230 99.9850746,230 C100.256955,230 100.503224,230.110164 100.681522,230.288197 L104.58209,234.182951 L108.482657,230.288197 C108.660955,230.110164 108.907224,230 109.179104,230 C109.723194,230 110.164179,230.440328 110.164179,230.983607 C110.164179,231.255082 110.053851,231.501311 109.875881,231.679344" id="i-x--inverse"></path>
        </g>
    </g>
</svg>