<?xml version="1.0" encoding="UTF-8" standalone="no"?>
<svg width="12px" height="12px" viewBox="0 0 12 12" version="1.1" xmlns="http://www.w3.org/2000/svg" xmlns:xlink="http://www.w3.org/1999/xlink">
    <!-- Generator: Sketch 3.6.1 (26313) - http://www.bohemiancoding.com/sketch -->
    <title>i-x--base</title>
    <desc>Created with Sketch.</desc>
    <defs></defs>
    <g id="Icons" stroke="none" stroke-width="1" fill="none" fill-rule="evenodd">
        <g id="Simple-Copy" transform="translate(-169.000000, -230.000000)" fill="#212121">
            <path d="M179.875881,231.679344 L175.975313,235.57377 L179.875881,239.468525 C180.053851,239.646557 180.164179,239.892459 180.164179,240.163934 C180.164179,240.707213 179.723194,241.147541 179.179104,241.147541 C178.907224,241.147541 178.660955,241.037377 178.482657,240.859672 L174.58209,236.964918 L170.681522,240.859672 C170.503224,241.037377 170.256955,241.147541 169.985075,241.147541 C169.440985,241.147541 169,240.707213 169,240.163934 C169,239.892459 169.110328,239.646557 169.288627,239.468525 L173.188866,235.57377 L169.288627,231.679344 C169.110328,231.501311 169,231.255082 169,230.983607 C169,230.440328 169.440985,230 169.985075,230 C170.256955,230 170.503224,230.110164 170.681522,230.288197 L174.58209,234.182951 L178.482657,230.288197 C178.660955,230.110164 178.907224,230 179.179104,230 C179.723194,230 180.164179,230.440328 180.164179,230.983607 C180.164179,231.255082 180.053851,231.501311 179.875881,231.679344" id="i-x--base"></path>
        </g>
    </g>
</svg>